<svg width="171" height="190" viewBox="0 0 171 190" fill="none" xmlns="http://www.w3.org/2000/svg">
<path d="M159.127 40.3156L159.127 40.3157C165.307 43.89 169.111 50.4984 169.111 57.6587V131.933C169.111 139.083 165.307 145.702 159.127 149.276L159.127 149.276L94.9939 186.408C88.8143 189.982 81.2073 189.982 75.0277 186.408C75.0276 186.408 75.0276 186.408 75.0275 186.408L10.8942 149.276L10.894 149.276C4.71455 145.702 0.910156 139.093 0.910156 131.933V57.6587C0.910156 50.5089 4.71438 43.9001 10.8945 40.3154L75.0275 3.1837C75.0276 3.18366 75.0276 3.18363 75.0277 3.18359C81.2073 -0.390659 88.8143 -0.390624 94.9939 3.1837L159.127 40.3156Z" fill="url(#paint0_linear_1082_5635)" fill-opacity="0.2" stroke="url(#paint1_linear_1082_5635)"/>
<path fill-rule="evenodd" clip-rule="evenodd" d="M114.001 115.71C114.127 115.9 114.232 116.132 114.305 116.384V116.395H116.605C116.532 115.868 116.374 115.384 116.112 114.941C115.849 114.499 115.524 114.109 115.114 113.793C114.715 113.467 114.253 113.225 113.728 113.046C113.203 112.866 112.646 112.782 112.037 112.782C111.333 112.782 110.682 112.898 110.073 113.151C109.464 113.404 108.928 113.762 108.477 114.236C108.025 114.71 107.668 115.289 107.416 115.974C107.164 116.658 107.038 117.427 107.038 118.301C107.038 119.428 107.248 120.408 107.668 121.229C108.088 122.051 108.687 122.683 109.443 123.125C110.21 123.568 111.092 123.789 112.09 123.789C112.993 123.789 113.791 123.61 114.484 123.241C115.177 122.883 115.723 122.356 116.122 121.682C116.521 121.008 116.721 120.197 116.721 119.26V117.912H112.247V119.618H114.536C114.527 120.054 114.423 120.423 114.242 120.745C114.043 121.082 113.77 121.345 113.402 121.524C113.035 121.703 112.604 121.798 112.09 121.798C111.522 121.798 111.029 121.661 110.619 121.387C110.199 121.113 109.884 120.713 109.653 120.187C109.432 119.66 109.317 119.028 109.317 118.28C109.317 117.532 109.433 116.911 109.664 116.384C109.895 115.858 110.22 115.468 110.63 115.194C111.039 114.92 111.522 114.783 112.069 114.783C112.363 114.783 112.625 114.815 112.867 114.889C113.108 114.962 113.329 115.068 113.518 115.205C113.707 115.342 113.864 115.51 114.001 115.71ZM34.5419 116.679H36.8314L36.8629 116.7C36.7894 116.079 36.6318 115.531 36.3693 115.047C36.1067 114.562 35.7707 114.162 35.3611 113.825C34.941 113.498 34.4684 113.246 33.9433 113.067C33.4182 112.888 32.8406 112.803 32.2209 112.803C31.2758 112.803 30.4356 113.014 29.6794 113.446C28.9233 113.878 28.3351 114.499 27.8941 115.321C27.453 116.142 27.2324 117.132 27.2324 118.301C27.2324 119.47 27.453 120.46 27.8836 121.282C28.3141 122.093 28.9128 122.725 29.6584 123.157C30.4041 123.589 31.2547 123.81 32.2104 123.81C32.9036 123.81 33.5127 123.705 34.0588 123.494C34.6049 123.283 35.067 122.999 35.4661 122.641C35.8652 122.283 36.1803 121.872 36.4113 121.419C36.6423 120.966 36.7894 120.492 36.8524 119.987H34.5629C34.5104 120.281 34.4159 120.534 34.2794 120.755C34.1428 120.977 33.9748 121.166 33.7753 121.324C33.5757 121.482 33.3447 121.598 33.0821 121.682C32.8301 121.756 32.5465 121.798 32.2419 121.798C31.6958 121.798 31.2232 121.661 30.8137 121.398C30.4041 121.135 30.089 120.734 29.858 120.218C29.6269 119.702 29.5114 119.028 29.5114 118.291C29.5114 117.553 29.6164 116.922 29.8475 116.395C30.0785 115.879 30.3936 115.479 30.8032 115.205C31.2127 114.931 31.6958 114.794 32.2524 114.794C32.557 114.794 32.8406 114.836 33.1031 114.92C33.3657 115.005 33.5967 115.131 33.7963 115.3C33.9958 115.458 34.1638 115.658 34.2899 115.889C34.4159 116.121 34.4999 116.384 34.5419 116.679ZM39.9294 112.919V123.641H42.1873V119.207H46.7768V123.641H49.0347V112.919H46.7768V117.343H42.1873V112.919H39.9294ZM54.2018 123.641H51.7863L55.4831 112.919H58.3922L62.0784 123.641H59.6524L58.862 121.198H54.9954L54.2018 123.641ZM56.9744 115.363L58.2896 119.428H55.57L56.8904 115.363H56.9744ZM64.8299 112.919V123.641H71.6773V121.777H67.0879V112.919H64.8299ZM74.6495 123.641V112.919H76.9075V121.777H81.4969V123.641H74.6495ZM84.4584 112.919V123.631H91.6839V121.766H86.7163V119.207H91.2848V117.343H86.7163V114.783H91.6629V112.919H84.4584ZM103.877 112.919V123.641H101.923L97.271 116.89H97.1975V123.641H94.9395V112.919H96.9244L101.545 119.66H101.64V112.919H103.877ZM122.13 112.919V123.641H119.872V112.919H122.13ZM134.407 123.641V112.919H132.17V119.66H132.075L127.455 112.919H125.47V123.641H127.728V116.89H127.801L132.454 123.641H134.407ZM144.836 116.384C144.762 116.132 144.657 115.9 144.531 115.71C144.394 115.51 144.237 115.342 144.048 115.205C143.859 115.068 143.638 114.962 143.397 114.889C143.155 114.815 142.893 114.783 142.599 114.783C142.053 114.783 141.569 114.92 141.16 115.194C140.75 115.468 140.425 115.858 140.194 116.384C139.963 116.911 139.847 117.532 139.847 118.28C139.847 119.028 139.963 119.66 140.183 120.187C140.414 120.713 140.729 121.113 141.149 121.387C141.559 121.661 142.053 121.798 142.62 121.798C143.134 121.798 143.565 121.703 143.932 121.524C144.3 121.345 144.573 121.082 144.773 120.745C144.953 120.423 145.057 120.054 145.066 119.618H142.777V117.912H147.251V119.26C147.251 120.197 147.052 121.008 146.652 121.682C146.253 122.356 145.707 122.883 145.014 123.241C144.321 123.61 143.523 123.789 142.62 123.789C141.622 123.789 140.74 123.568 139.973 123.125C139.217 122.683 138.618 122.051 138.198 121.229C137.778 120.408 137.568 119.428 137.568 118.301C137.568 117.427 137.694 116.658 137.946 115.974C138.198 115.289 138.555 114.71 139.007 114.236C139.458 113.762 139.994 113.404 140.603 113.151C141.212 112.898 141.863 112.782 142.567 112.782C143.176 112.782 143.733 112.866 144.258 113.046C144.783 113.225 145.245 113.467 145.644 113.793C146.054 114.109 146.379 114.499 146.642 114.941C146.905 115.384 147.062 115.868 147.136 116.395H144.836V116.384ZM58.424 131.878V142.589H65.6495V140.725H60.682V138.166H65.2504V136.301H60.682V133.742H65.6285V131.878H58.424ZM71.0266 131.878L73.1795 135.532H73.2635L75.427 131.878H77.979L74.7128 137.239L78.0525 142.6H75.448L73.253 138.934H73.169L70.9741 142.6H68.38L71.7302 137.239L68.4431 131.878H71.0056H71.0266ZM80.2996 142.6H82.7151L83.5086 140.156H87.3752L88.1657 142.6H90.5917L86.9054 131.878H83.9963L80.2996 142.6ZM86.8028 138.387L85.4876 134.321H85.4036L84.0833 138.387H86.8028ZM93.3434 131.878H96.1265L99.0671 139.082H99.1931L102.134 131.878H104.917V142.6H102.722V135.617H102.638L99.8652 142.547H98.3739L95.6119 135.596H95.5278V142.6H93.3329V131.878H93.3434ZM113.529 133.984C113.844 134.216 114.022 134.542 114.064 134.964L114.075 134.974H116.238C116.228 134.332 116.06 133.774 115.724 133.289C115.388 132.805 114.925 132.425 114.337 132.152C113.749 131.878 113.035 131.741 112.258 131.741C111.481 131.741 110.777 131.878 110.168 132.152C109.548 132.425 109.065 132.805 108.719 133.289C108.372 133.774 108.204 134.342 108.204 134.995C108.204 135.785 108.456 136.417 108.981 136.881C109.496 137.344 110.21 137.692 111.113 137.913L112.279 138.208C112.668 138.303 112.993 138.408 113.266 138.524C113.539 138.64 113.749 138.777 113.886 138.945C114.022 139.114 114.096 139.314 114.096 139.556C114.096 139.809 114.022 140.04 113.865 140.241C113.707 140.441 113.487 140.588 113.203 140.704C112.92 140.82 112.594 140.873 112.205 140.873C111.817 140.873 111.46 140.809 111.155 140.693C110.851 140.578 110.599 140.399 110.42 140.156C110.231 139.914 110.126 139.619 110.105 139.261H107.921C107.931 140.03 108.12 140.672 108.477 141.199C108.834 141.715 109.328 142.115 109.968 142.379C110.609 142.642 111.355 142.779 112.226 142.779C113.098 142.779 113.844 142.642 114.463 142.379C115.083 142.115 115.556 141.747 115.881 141.262C116.207 140.778 116.375 140.209 116.375 139.556C116.375 139.103 116.291 138.703 116.133 138.366C115.976 138.029 115.755 137.723 115.472 137.471C115.188 137.218 114.852 137.007 114.463 136.828C114.075 136.649 113.644 136.512 113.182 136.407L112.226 136.175C111.985 136.122 111.775 136.059 111.565 135.985C111.355 135.912 111.176 135.827 111.019 135.722C110.861 135.617 110.746 135.501 110.651 135.353C110.557 135.206 110.525 135.037 110.525 134.848C110.525 134.616 110.588 134.406 110.725 134.226C110.851 134.037 111.05 133.9 111.302 133.795C111.554 133.689 111.869 133.637 112.237 133.637C112.783 133.637 113.214 133.753 113.529 133.984Z" fill="#07080E"/>
<path d="M74.2196 81.4693C73.0644 81.4693 72.0772 81.0585 71.2475 80.2264C70.4283 79.4049 70.0082 78.4043 70.0187 77.2562V43.5521C70.0187 42.3935 70.4283 41.4034 71.258 40.5714C72.0772 39.7498 73.0749 39.3285 74.2196 39.3391H89.2902C89.8468 39.3391 90.3824 39.4444 90.897 39.655C91.4011 39.8657 91.8527 40.1606 92.2308 40.5503L102.418 50.7669C102.806 51.1566 103.101 51.5989 103.311 52.115C103.521 52.6206 103.626 53.1578 103.626 53.716V58.5083L86.8222 75.3077V81.4693H74.2196ZM92.0733 81.4693C91.7897 81.4693 91.5482 81.3639 91.3381 81.1533C91.1281 80.9426 91.0231 80.7004 91.0231 80.416V77.8882C91.0231 77.6038 91.0861 77.33 91.2121 77.0456C91.3381 76.7612 91.4851 76.54 91.6532 76.361L101.84 66.0917L106.356 70.5154L96.1166 80.8373C95.9381 81.048 95.7175 81.2059 95.434 81.3113C95.1504 81.4166 94.8773 81.4693 94.5938 81.4693H92.0733ZM107.879 69.0409L103.416 64.5645L104.886 63.09C105.306 62.6687 105.81 62.458 106.409 62.458C107.007 62.458 107.49 62.6687 107.879 63.09L109.349 64.6172C109.738 65.0385 109.927 65.544 109.927 66.1233C109.927 66.7026 109.738 67.1871 109.349 67.5663L107.879 69.0409ZM91.0231 54.0846H99.4248L88.9226 43.5521V51.9781C88.9226 52.5785 89.1222 53.0735 89.5318 53.4843C89.9413 53.895 90.4349 54.0952 91.0231 54.0846Z" fill="url(#paint2_linear_1082_5635)"/>
<defs>
<linearGradient id="paint0_linear_1082_5635" x1="169.611" y1="189.589" x2="169.611" y2="0.00292969" gradientUnits="userSpaceOnUse">
<stop stop-color="#00A3FF"/>
<stop offset="1" stop-color="#4255FF"/>
</linearGradient>
<linearGradient id="paint1_linear_1082_5635" x1="169.611" y1="189.589" x2="169.611" y2="0.00292969" gradientUnits="userSpaceOnUse">
<stop stop-color="#00A3FF"/>
<stop offset="1" stop-color="#4255FF"/>
</linearGradient>
<linearGradient id="paint2_linear_1082_5635" x1="109.927" y1="81.4693" x2="109.927" y2="39.3389" gradientUnits="userSpaceOnUse">
<stop stop-color="#00A3FF"/>
<stop offset="1" stop-color="#4255FF"/>
</linearGradient>
</defs>
</svg>
