<svg fill="none" viewBox="0 0 30 29" height="29" width="30" xmlns="http://www.w3.org/2000/svg" class="hidden h-auto w-8 fill-current dark:block" alt="2">
<path xmlns="http://www.w3.org/2000/svg" d="M3 28.5C2.175 28.5 1.4685 28.206 0.880502 27.618C0.292502 27.03 -0.000997453 26.324 2.54669e-06 25.5V9C2.54669e-06 8.175 0.294003 7.4685 0.882002 6.8805C1.47 6.2925 2.176 5.999 3 6H9V3C9 2.175 9.294 1.4685 9.882 0.880502C10.47 0.292502 11.176 -0.000997453 12 2.54669e-06H18C18.825 2.54669e-06 19.5315 0.294003 20.1195 0.882002C20.7075 1.47 21.001 2.176 21 3V6H27C27.825 6 28.5315 6.294 29.1195 6.882C29.7075 7.47 30.001 8.176 30 9V25.5C30 26.325 29.706 27.0315 29.118 27.6195C28.53 28.2075 27.824 28.501 27 28.5H3ZM12 6H18V3H12V6Z" fill="#B3B9C2"></path>
</svg>