<svg fill="none" viewBox="0 0 45 41" height="41" width="45" xmlns="http://www.w3.org/2000/svg" class="w-10" alt="React">
<g xmlns="http://www.w3.org/2000/svg" clip-path="url(#clip0_418_17828)">
<path fill-rule="evenodd" clip-rule="evenodd" d="M35.4364 13.1717C41.1702 14.8099 44.8562 17.5403 44.8562 20.6802L44.8757 20.6997C44.8757 23.8396 41.1897 26.57 35.4559 28.2082C35.6704 29.1054 35.8654 29.9635 36.0019 30.8021C36.743 35.5217 35.9044 38.8372 33.6421 40.1439C32.979 40.5339 32.2184 40.729 31.3798 40.729C29.3905 40.729 26.9917 39.6368 24.3784 37.511C23.7348 36.9844 23.0717 36.3799 22.4281 35.7558C21.7845 36.3799 21.1214 36.9844 20.4778 37.511C17.8645 39.6368 15.4656 40.729 13.4764 40.729C12.6377 40.729 11.8771 40.5339 11.214 40.1439C8.95173 38.8372 8.11312 35.5217 8.87372 30.8021C9.01024 29.9635 9.20527 29.0859 9.4198 28.2082C3.68601 26.5505 0 23.8396 0 20.6997C0 17.5598 3.68601 14.8294 9.4198 13.1912C9.20527 12.294 9.01024 11.4359 8.87372 10.5973C8.11312 5.87766 8.95173 2.56221 11.214 1.25553C13.4764 -0.0706538 16.7723 0.865475 20.4778 3.88839C21.1214 4.41496 21.7845 5.01955 22.4281 5.64363C23.0717 5.01955 23.7348 4.41496 24.3784 3.88839C28.0839 0.884978 31.3798 -0.0511512 33.6421 1.25553C36.3725 2.81574 36.8796 7.37937 35.4364 13.1717ZM31.3408 2.60121C29.8586 2.60121 27.8498 3.57635 25.607 5.3901L25.5875 5.4096C24.9829 5.89717 24.3784 6.46274 23.7738 7.04783C25.0609 8.43252 26.3286 10.0317 27.5573 11.748C29.6831 11.943 31.6919 12.255 33.5251 12.6841C34.7928 7.65241 34.4027 3.9469 32.6475 2.93276C32.2769 2.69873 31.8284 2.60121 31.3408 2.60121ZM26.5041 27.7207C27.2452 26.6285 27.9668 25.4584 28.6689 24.2687C29.3905 23.04 30.0146 21.8504 30.5802 20.6607C29.9951 19.4515 29.3515 18.2424 28.6689 17.0527C27.9863 15.863 27.2452 14.6929 26.5041 13.6007C25.1975 13.5032 23.8323 13.4447 22.4281 13.4447C21.0239 13.4447 19.6587 13.5032 18.352 13.6007C17.6109 14.6929 16.8698 15.863 16.1872 17.0527C15.4851 18.2619 14.861 19.4515 14.276 20.6607C14.861 21.8699 15.4851 23.0595 16.1872 24.2687C16.8698 25.4584 17.6109 26.6285 18.352 27.7207C19.6587 27.8182 21.0239 27.8767 22.4281 27.8767C23.8323 27.8767 25.1975 27.8182 26.5041 27.7207ZM33.018 26.765C32.628 25.5169 32.1599 24.2492 31.6138 22.9425C31.2238 23.7031 30.8142 24.4832 30.3657 25.2438C29.9171 26.0044 29.4686 26.7455 29.0005 27.4671C30.4242 27.2916 31.7699 27.0381 33.018 26.765ZM19.8147 29.7489C20.6728 30.8801 21.5505 31.9333 22.4281 32.8889C23.3057 31.9137 24.1833 30.8801 25.0414 29.7489C24.1833 29.788 23.3252 29.8075 22.4281 29.8075C21.531 29.8075 20.6728 29.788 19.8147 29.7489ZM11.8381 26.765C13.0863 27.0576 14.432 27.2916 15.8557 27.4671C15.3876 26.7455 14.9391 26.0044 14.4905 25.2438C14.0419 24.4832 13.6324 23.7031 13.2423 22.9425C12.6962 24.2492 12.2282 25.5169 11.8381 26.765ZM11.8381 14.5369C12.2282 15.785 12.6962 17.0527 13.2423 18.3594C13.6324 17.5793 14.0419 16.8187 14.4905 16.0581C14.9391 15.2975 15.3876 14.5564 15.8557 13.8348C14.432 14.0103 13.0863 14.2638 11.8381 14.5369ZM25.0414 11.5529C24.1833 10.4218 23.3057 9.36864 22.4281 8.41301C21.5505 9.38815 20.6728 10.4218 19.8147 11.5529C20.6728 11.5139 21.531 11.4944 22.4281 11.4944C23.3252 11.4944 24.1833 11.5139 25.0414 11.5529ZM29.0005 13.8348C29.4686 14.5564 29.9171 15.2975 30.3657 16.0581C30.7947 16.8187 31.2238 17.5988 31.6138 18.3594C32.1794 17.0332 32.6475 15.7655 33.018 14.5369C31.7699 14.2443 30.4242 14.0103 29.0005 13.8348ZM12.1892 2.91326C10.6875 3.77137 10.1804 6.44324 10.785 10.2463V10.2658C10.902 11.0264 11.0775 11.8455 11.2921 12.6646C13.1253 12.2355 15.1341 11.9235 17.2599 11.7285C18.469 9.99273 19.7367 8.41301 21.0434 7.00882C20.4388 6.42374 19.8342 5.85816 19.2296 5.37059C17.0063 3.53734 14.9976 2.58171 13.4959 2.58171C13.0083 2.58171 12.5597 2.69873 12.1892 2.91326ZM9.94637 15.0439C4.95368 16.4676 1.95027 18.6519 1.95027 20.6802C1.95027 22.728 4.97318 24.8928 9.94637 26.3165C10.5119 24.4832 11.253 22.5915 12.1307 20.6802C11.253 18.7494 10.5119 16.8577 9.94637 15.0439ZM12.1892 38.4081C13.6909 39.2663 16.2652 38.3691 19.2491 35.9508L19.2296 35.9703C19.8342 35.4827 20.4388 34.9172 21.0434 34.3321C19.7562 32.9279 18.4885 31.3287 17.2599 29.6124C15.1341 29.4174 13.1253 29.1054 11.2921 28.6763C11.2804 28.7251 11.2688 28.7739 11.2572 28.8226C11.0741 29.5907 10.895 30.3415 10.785 31.0751C10.1804 34.8587 10.6875 37.55 12.1892 38.4081ZM32.667 38.4081C34.1687 37.55 34.6758 34.8782 34.0712 31.0751H34.0517C33.9347 30.3145 33.7591 29.4954 33.5446 28.6763C31.7114 29.1054 29.7026 29.4174 27.5768 29.6124C26.3676 31.3287 25.1 32.9084 23.7933 34.3126C24.3979 34.8977 25.0024 35.4632 25.607 35.9508C28.5909 38.3691 31.1653 39.2663 32.667 38.4081ZM32.7255 20.6802C33.6031 22.611 34.3442 24.5027 34.9098 26.3165C39.9025 24.8928 42.9059 22.728 42.9059 20.6802C42.9059 18.6324 39.9025 16.4676 34.9098 15.0439C34.3442 16.8382 33.6226 18.7299 32.7255 20.6802ZM26.4376 20.7082C26.4376 22.9197 24.6468 24.7124 22.4378 24.7124C20.2288 24.7124 18.438 22.9197 18.438 20.7082C18.438 18.4968 20.2288 16.7041 22.4378 16.7041C24.6468 16.7041 26.4376 18.4968 26.4376 20.7082Z" fill="#61DAFB"></path>
</g>
<defs xmlns="http://www.w3.org/2000/svg">
<clipPath id="clip0_418_17828">
<rect width="44.8757" height="40.061" fill="white" transform="translate(0 0.667969)"></rect>
</clipPath>
</defs>
</svg>