<svg fill="none" viewBox="0 0 34 34" height="34" width="34" xmlns="http://www.w3.org/2000/svg" class="w-10" alt=".Net">
<g xmlns="http://www.w3.org/2000/svg" clip-path="url(#clip0_12930_7141)">
<path d="M34 0H0V34H34V0Z" fill="#512BD4"></path>
<path d="M6.05989 21.7224C5.81949 21.7224 5.61514 21.6423 5.44686 21.482C5.27857 21.3177 5.19443 21.1226 5.19443 20.8967C5.19443 20.6666 5.27857 20.4694 5.44686 20.3051C5.61514 20.1408 5.81949 20.0586 6.05989 20.0586C6.3043 20.0586 6.51065 20.1408 6.67893 20.3051C6.85122 20.4694 6.93737 20.6666 6.93737 20.8967C6.93737 21.1226 6.85122 21.3177 6.67893 21.482C6.51065 21.6423 6.3043 21.7224 6.05989 21.7224Z" fill="white"></path>
<path d="M15.6703 21.5866H14.1077L9.99078 15.0917C9.88662 14.9273 9.80042 14.7568 9.73235 14.5802H9.69626C9.72832 14.7692 9.74435 15.1738 9.74435 15.7941V21.5866H8.36198V12.75H10.0268L14.0055 19.0909C14.1738 19.3539 14.282 19.5346 14.3301 19.6332H14.3541C14.3141 19.3991 14.294 19.0026 14.294 18.4439V12.75H15.6703V21.5866Z" fill="white"></path>
<path d="M22.4019 21.5866H17.5638V12.75H22.2096V13.9948H18.9942V16.4966H21.9572V17.7352H18.9942V20.348H22.4019V21.5866Z" fill="white"></path>
<path d="M29.2778 13.9948H26.8016V21.5866H25.3712V13.9948H22.901V12.75H29.2778V13.9948Z" fill="white"></path>
</g>
<defs xmlns="http://www.w3.org/2000/svg">
<clipPath id="clip0_12930_7141">
<rect width="34" height="34" fill="white"></rect>
</clipPath>
</defs>
</svg>