<svg fill="none" viewBox="0 0 35 34" height="34" width="35" xmlns="http://www.w3.org/2000/svg" class="h-10" alt="javascript Logo">
<path xmlns="http://www.w3.org/2000/svg" d="M32.0758 2H2.92407V32H32.0758V2Z" fill="#F7DF1E"></path>
<path xmlns="http://www.w3.org/2000/svg" d="M22.507 25.4376C23.0942 26.4242 23.8581 27.1495 25.2093 27.1495C26.3444 27.1495 27.0694 26.5657 27.0694 25.759C27.0694 24.7923 26.3245 24.45 25.0751 23.8876L24.3903 23.5852C22.4135 22.7185 21.1003 21.6328 21.1003 19.3376C21.1003 17.2233 22.6657 15.6138 25.1121 15.6138C26.8538 15.6138 28.106 16.2376 29.0083 17.8709L26.8751 19.2804C26.4054 18.4138 25.8987 18.0723 25.1121 18.0723C24.3255 18.0723 23.8012 18.5962 23.8012 19.2804C23.8012 20.1262 24.3102 20.4685 25.4855 20.9923L26.1704 21.2942C28.4979 22.3214 29.812 23.3685 29.812 25.7228C29.812 28.2609 27.8746 29.6514 25.2727 29.6514C22.6708 29.6514 21.085 28.4038 20.2808 26.7685L22.507 25.4376ZM12.83 25.6819C13.2603 26.4676 13.6518 27.1319 14.593 27.1319C15.5341 27.1319 16.0607 26.7695 16.0607 25.3604V15.7747H18.8001V25.3985C18.8001 28.3176 17.137 29.6461 14.7096 29.6461C12.5162 29.6461 11.2461 28.4781 10.6001 27.0709L12.83 25.6819Z" fill="black"></path>
</svg>