<svg fill="none" viewBox="0 0 28 21" height="21" width="28" xmlns="http://www.w3.org/2000/svg" class="h-6 -translate-x-4 -translate-y-2 md:translate-x-0">
<path xmlns="http://www.w3.org/2000/svg" d="M15.6081 14.361C15.6081 11.5682 16.5315 8.93305 18.3784 6.45558C20.2252 3.9781 22.2748 2.13126 24.527 0.915039L27.7027 4.22585C26.3964 4.94657 25.1577 5.93756 23.9865 7.19882C22.8153 8.41504 22.2297 9.63126 22.2297 10.8475C23.9414 11.0276 25.1802 11.5457 25.946 12.4015C26.7568 13.2123 27.1622 14.4736 27.1622 16.1853C27.1622 19.3385 25.473 20.915 22.0946 20.915C17.7703 20.915 15.6081 18.7304 15.6081 14.361ZM0 14.361C0 11.5682 0.923423 8.93305 2.77027 6.45558C4.61712 3.9781 6.66667 2.13126 8.91892 0.915039L12.0946 4.22585C10.7883 4.94657 9.54955 5.93756 8.37838 7.19882C7.20721 8.41504 6.62162 9.63126 6.62162 10.8475C8.33333 11.0276 9.57207 11.5457 10.3378 12.4015C11.1486 13.2123 11.5541 14.4736 11.5541 16.1853C11.5541 19.3385 9.86487 20.915 6.48649 20.915C2.16216 20.915 0 18.7304 0 14.361Z" fill="url(#paint0_linear_604_15154)"></path>
<defs xmlns="http://www.w3.org/2000/svg">
<linearGradient id="paint0_linear_604_15154" x1="27.7027" y1="20.915" x2="27.7027" y2="0.915039" gradientUnits="userSpaceOnUse">
<stop stop-color="#00A3FF"></stop>
<stop offset="1" stop-color="#4255FF"></stop>
</linearGradient>
</defs>
</svg>