<svg fill="none" viewBox="0 0 35 34" height="34" width="35" xmlns="http://www.w3.org/2000/svg" class="h-10" alt="react Logo">
<path xmlns="http://www.w3.org/2000/svg" d="M34.487 17.3785C34.487 15.2794 32.0228 13.4541 28.1897 12.3589C29.1545 8.48666 28.8155 5.43582 26.9902 4.39279C25.4778 3.51926 23.2744 4.14507 20.7973 6.1529C20.367 6.50492 19.9237 6.90909 19.4935 7.3263C19.0632 6.90909 18.6199 6.50492 18.1897 6.1529C15.7125 4.13204 13.5091 3.50622 11.9967 4.39279C10.4844 5.26633 9.92373 7.48275 10.4322 10.6379C10.5235 11.1985 10.6538 11.7722 10.7973 12.3719C6.96415 13.4671 4.5 15.2924 4.5 17.3915C4.5 19.4906 6.96415 21.3028 10.7973 22.411C10.6538 22.9977 10.5235 23.5844 10.4322 24.1451C9.92373 27.3002 10.4844 29.5167 11.9967 30.3902C12.44 30.6509 12.9485 30.7813 13.5091 30.7813C14.839 30.7813 16.4426 30.0512 18.1897 28.6301C18.6199 28.2781 19.0632 27.8739 19.4935 27.4567C19.9237 27.8739 20.367 28.2781 20.7973 28.6301C22.5443 30.0512 24.148 30.7813 25.4778 30.7813C26.0385 30.7813 26.5469 30.6509 26.9902 30.3902C28.5026 29.5167 29.0632 27.3002 28.5678 24.1451C28.4765 23.5844 28.3462 23.0108 28.2027 22.411C32.0359 21.3159 34.5 19.4906 34.5 17.3915L34.487 17.3785ZM21.6186 7.15681C23.118 5.94429 24.4609 5.2924 25.4518 5.2924C25.7777 5.2924 26.0776 5.35759 26.3253 5.51404C27.4987 6.19201 27.7595 8.66919 26.912 12.0329C25.6864 11.7461 24.3435 11.5375 22.9224 11.4071C22.101 10.2598 21.2536 9.19071 20.3931 8.26502C20.7973 7.87389 21.2014 7.49579 21.6056 7.16985L21.6186 7.15681ZM23.6656 19.7774C23.1962 20.5727 22.7138 21.355 22.2184 22.0851C21.3448 22.1503 20.4322 22.1894 19.4935 22.1894C18.5548 22.1894 17.6421 22.1503 16.7686 22.0851C16.2731 21.355 15.7777 20.5727 15.3214 19.7774C14.852 18.9691 14.4348 18.1738 14.0437 17.3654C14.4348 16.5571 14.852 15.7618 15.3214 14.9534C15.7777 14.1581 16.2731 13.3758 16.7686 12.6457C17.6421 12.5805 18.5548 12.5414 19.4935 12.5414C20.4322 12.5414 21.3448 12.5805 22.2184 12.6457C22.7138 13.3758 23.2093 14.1581 23.6656 14.9534C24.1219 15.7487 24.5522 16.5571 24.9433 17.3654C24.5652 18.1607 24.148 18.956 23.6656 19.7774ZM25.6343 18.8908C25.9993 19.7644 26.3123 20.6118 26.573 21.4462C25.7386 21.6288 24.839 21.7983 23.8872 21.9156C24.2001 21.4332 24.5 20.9378 24.7999 20.4293C25.0997 19.9208 25.3735 19.3993 25.6343 18.8908ZM19.4935 25.5401C18.9068 24.9013 18.3201 24.1972 17.7464 23.441C18.3201 23.4671 18.8937 23.4801 19.4935 23.4801C20.0932 23.4801 20.6669 23.4671 21.2405 23.441C20.6669 24.1972 20.0802 24.8882 19.4935 25.5401ZM15.0997 21.9156C14.148 21.7983 13.2484 21.6418 12.414 21.4462C12.6747 20.6118 12.9876 19.7644 13.3527 18.8908C13.6134 19.3993 13.8872 19.9208 14.1871 20.4293C14.487 20.9378 14.7868 21.4332 15.0997 21.9156ZM13.3527 15.827C12.9876 14.9534 12.6747 14.106 12.414 13.2715C13.2484 13.089 14.148 12.9195 15.0997 12.8022C14.7868 13.2846 14.487 13.78 14.1871 14.2885C13.8872 14.797 13.6134 15.3054 13.3527 15.827ZM19.4935 9.17767C20.0802 9.81652 20.6669 10.5206 21.2405 11.2768C20.6669 11.2507 20.0932 11.2376 19.4935 11.2376C18.8937 11.2376 18.3201 11.2507 17.7464 11.2768C18.3201 10.5206 18.9068 9.82956 19.4935 9.17767ZM24.7999 14.2885C24.5 13.78 24.2001 13.2846 23.8872 12.8022C24.839 12.9195 25.7386 13.076 26.573 13.2715C26.3253 14.0929 26.0124 14.9404 25.6343 15.827C25.3735 15.3185 25.0867 14.797 24.7999 14.2885ZM11.7099 10.4032C11.3057 7.86085 11.6447 6.07467 12.6486 5.50101C12.8963 5.35759 13.1962 5.27936 13.5222 5.27936C14.5261 5.27936 15.869 5.91822 17.3553 7.14377C17.7595 7.46972 18.1636 7.84781 18.5678 8.23895C17.6943 9.17767 16.8468 10.2337 16.0385 11.3941C14.6173 11.5245 13.2744 11.7331 12.0489 12.0199C11.9055 11.4723 11.7881 10.9247 11.7099 10.4163V10.4032ZM5.80378 17.3785C5.80378 16.0225 7.8116 14.5623 11.1493 13.6105C11.5274 14.823 12.0228 16.0877 12.6095 17.3785C12.0228 18.6562 11.5274 19.9208 11.1493 21.1464C7.82464 20.1946 5.80378 18.7474 5.80378 17.3785ZM17.3683 27.5871C15.3735 29.2037 13.6525 29.8035 12.6486 29.2298C11.6447 28.6562 11.3057 26.8569 11.7099 24.3276C11.7881 23.8061 11.9185 23.2715 12.0489 22.724C13.2744 23.0108 14.6173 23.2194 16.0385 23.3498C16.8598 24.4971 17.7073 25.5662 18.5678 26.5049C18.1636 26.8961 17.7595 27.2742 17.3553 27.6001L17.3683 27.5871ZM27.2771 24.3276C27.6812 26.87 27.3422 28.6562 26.3383 29.2298C25.3344 29.8035 23.6134 29.2037 21.6186 27.5871C21.2145 27.2611 20.8103 26.883 20.4061 26.4919C21.2797 25.5532 22.1271 24.4971 22.9355 23.3498C24.3566 23.2194 25.6995 23.0108 26.925 22.724C27.0684 23.2715 27.1858 23.8191 27.264 24.3276H27.2771ZM27.8377 21.1464C27.4596 19.9339 26.9641 18.6692 26.3774 17.3785C26.9772 16.0747 27.4596 14.81 27.8377 13.6105C31.1754 14.5623 33.1832 16.0095 33.1832 17.3785C33.1832 18.7474 31.1754 20.1946 27.8377 21.1464Z" fill="#61DAFB"></path>
<path xmlns="http://www.w3.org/2000/svg" d="M19.5001 20.0739C20.9768 20.0739 22.174 18.8754 22.174 17.397C22.174 15.9187 20.9768 14.7202 19.5001 14.7202C18.0233 14.7202 16.8262 15.9187 16.8262 17.397C16.8262 18.8754 18.0233 20.0739 19.5001 20.0739Z" fill="#61DAFB"></path>
</svg>