<svg fill="none" viewBox="0 0 40 41" height="41" width="40" xmlns="http://www.w3.org/2000/svg" class="w-10" alt="Next.js">
<g xmlns="http://www.w3.org/2000/svg" clip-path="url(#clip0_418_17899)">
<path d="M18.691 0.731326C18.605 0.739326 18.3315 0.766326 18.085 0.785826C12.4035 1.29783 7.08198 4.36283 3.71148 9.07383C1.83498 11.6933 0.634476 14.6643 0.180977 17.8118C0.0204766 18.9103 0.000976562 19.2348 0.000976562 20.7243C0.000976562 22.2138 0.0204766 22.5383 0.180977 23.6368C1.26798 31.1468 6.61298 37.4568 13.8625 39.7948C15.1605 40.2133 16.529 40.4983 18.0855 40.6703C18.6915 40.7368 21.3115 40.7368 21.9175 40.6703C24.6035 40.3733 26.8795 39.7088 29.124 38.5633C29.468 38.3873 29.5345 38.3403 29.4875 38.3013C29.456 38.2778 27.99 36.3113 26.2305 33.9343L23.032 29.6143L19.024 23.6838C16.8185 20.4233 15.0045 17.7568 14.989 17.7568C14.9735 17.7528 14.9575 20.3878 14.95 23.6053C14.9385 29.2388 14.9345 29.4658 14.864 29.5988C14.7625 29.7903 14.684 29.8688 14.52 29.9548C14.395 30.0173 14.2855 30.0293 13.695 30.0293H13.0185L12.8385 29.9158C12.721 29.8413 12.635 29.7438 12.5765 29.6303L12.4945 29.4543L12.5025 21.6158L12.514 13.7733L12.635 13.6208C12.6975 13.5388 12.8305 13.4333 12.9245 13.3823C13.085 13.3043 13.1475 13.2963 13.824 13.2963C14.6215 13.2963 14.7545 13.3278 14.962 13.5543C15.0205 13.6168 17.1905 16.8853 19.787 20.8218C22.3835 24.7588 25.9335 30.1343 27.6775 32.7733L30.8445 37.5703L31.005 37.4648C32.4245 36.5423 33.926 35.2288 35.1145 33.8603C37.6445 30.9553 39.275 27.4133 39.822 23.6368C39.9825 22.5383 40.002 22.2138 40.002 20.7243C40.002 19.2348 39.9825 18.9103 39.822 17.8118C38.735 10.3018 33.39 3.99183 26.1405 1.65383C24.862 1.23933 23.501 0.953826 21.9765 0.781826C21.601 0.742826 19.0165 0.699826 18.692 0.730826L18.691 0.731326ZM26.8785 12.8273C27.066 12.9213 27.2185 13.1008 27.2735 13.2888C27.305 13.3903 27.3125 15.5643 27.305 20.4628L27.2935 27.4923L26.054 25.5923L24.8105 23.6923V18.5828C24.8105 15.2793 24.826 13.4223 24.8495 13.3323C24.912 13.1133 25.049 12.9413 25.2365 12.8398C25.397 12.7578 25.4555 12.7498 26.0695 12.7498C26.648 12.7498 26.75 12.7578 26.879 12.8278L26.8785 12.8273Z" fill="white"></path>
</g>
<defs xmlns="http://www.w3.org/2000/svg">
<clipPath id="clip0_418_17899">
<rect width="40" height="40" fill="white" transform="translate(0.000976562 0.720215)"></rect>
</clipPath>
</defs>
</svg>