<svg fill="none" viewBox="0 0 88 40" height="40" width="88" xmlns="http://www.w3.org/2000/svg" class="w-10" alt="AI Development">
<g xmlns="http://www.w3.org/2000/svg" clip-path="url(#clip0_4067_26350)">
<path d="M78.791 0.40918V4.85352H83.1914V9.29785H87.5908V35.1465H83.1914V39.5908H9.20898V35.1465H4.80859V30.7021H0.40918V4.85352H4.80859V0.40918H78.791Z" fill="black" stroke="black" stroke-width="0.817635"></path>
<path d="M30.7999 4.44434H26.3999V26.6666H30.7999V4.44434Z" fill="#FFB428"></path>
<path d="M39.6 8.88878H48.4V4.44434H35.2V26.6666H48.4V22.2221H39.6V8.88878Z" fill="#E5E3D9"></path>
<path d="M52.8 8.88878H48.4V22.2221H52.8V8.88878Z" fill="#E5E3D9"></path>
<path d="M61.5997 8.88878H70.3997V4.44434H57.1997V26.6666H70.3997V22.2221H61.5997V8.88878Z" fill="#E5E3D9"></path>
<path d="M74.7997 8.88878H70.3997V22.2221H74.7997V8.88878Z" fill="#E5E3D9"></path>
<path d="M17.5999 13.3332H8.7999V8.88878H4.3999V26.6666H8.7999V17.7777H17.5999V26.6666H21.9999V8.88878H17.5999V13.3332Z" fill="#06FBFF"></path>
<path d="M17.5999 4.44434H8.7999V8.88878H17.5999V4.44434Z" fill="#06FBFF"></path>
</g>
<defs xmlns="http://www.w3.org/2000/svg">
<clipPath id="clip0_4067_26350">
<rect width="88" height="40" fill="white"></rect>
</clipPath>
</defs>
</svg>