<svg xmlns="http://www.w3.org/2000/svg" fill="none" viewBox="0 0 209 35" class="h-6 w-auto md:h-10 dark:hidden"><path fill="url(#i564032877__a)" d="M31.58 14.605a2.04 2.04 0 0 1-.54-2.036l.577-1.982a2.034 2.034 0 0 0-1.452-2.544l-1.994-.486a2.02 2.02 0 0 1-1.476-1.492l-.485-2.01a2.006 2.006 0 0 0-2.517-1.466l-1.967.582c-.721.214-1.5.004-2.017-.548l-1.415-1.496a1.993 1.993 0 0 0-2.903 0l-1.414 1.496c-.52.55-1.298.762-2.017.548l-1.968-.582a2.006 2.006 0 0 0-2.516 1.466l-.486 2.01a2.02 2.02 0 0 1-1.478 1.492l-1.991.486a2.034 2.034 0 0 0-1.452 2.544l.576 1.982a2.04 2.04 0 0 1-.539 2.036L.624 16.033a2.036 2.036 0 0 0 0 2.934l1.482 1.428c.543.524.751 1.31.54 2.036l-.577 1.986a2.03 2.03 0 0 0 1.452 2.54l1.991.49c.731.176 1.3.754 1.478 1.49l.486 2.01a2.006 2.006 0 0 0 2.516 1.468l1.968-.582a1.99 1.99 0 0 1 2.017.544l1.414 1.496a1.993 1.993 0 0 0 2.903 0l1.415-1.496a1.99 1.99 0 0 1 2.017-.544l1.968.582a2.01 2.01 0 0 0 2.516-1.468l.485-2.01a2.02 2.02 0 0 1 1.476-1.49l1.994-.49a2.03 2.03 0 0 0 1.452-2.54l-.577-1.986a2.04 2.04 0 0 1 .54-2.036l1.482-1.428a2.043 2.043 0 0 0 0-2.934zm-16.817 6.014c.525.53.525 1.39 0 1.924a1.34 1.34 0 0 1-1.906 0l-4.042-4.08a1.37 1.37 0 0 1 0-1.924l4.042-4.08a1.34 1.34 0 0 1 1.906 0c.525.53.525 1.39 0 1.924l-3.089 3.118zm10.105-2.156-4.042 4.08a1.34 1.34 0 0 1-1.906 0 1.37 1.37 0 0 1 0-1.924l3.09-3.118-3.09-3.118a1.37 1.37 0 0 1 0-1.924 1.34 1.34 0 0 1 1.906 0l4.042 4.08c.526.53.526 1.39 0 1.924"></path><path fill="#07080E" fill-rule="evenodd" d="M88.719 6.577q-.728 0-1.256.496-.527.497-.527 1.192 0 .696.523 1.188t1.26.492q.736 0 1.26-.496.523-.497.523-1.192 0-.696-.523-1.188a1.77 1.77 0 0 0-1.26-.492m-4.712 14.418q.234-.001.466-.044l-.002-.002.356-.066.52 2.48q-.249.079-.698.184-.45.107-1.092.13-1.192.047-2.088-.32a2.92 2.92 0 0 1-1.391-1.142q-.495-.774-.487-1.956V14h-1.627v-2.504h1.627V8.619h3.3v2.878h2.24V14h-2.24v5.82q0 .462.14.716.138.255.392.356.25.102.584.102m-8.322-9.67q-.999 0-1.767.573-.767.576-1.092 1.694h-.125v-2.096h-3.2v12.016h3.301v-6.798q0-.736.33-1.298.329-.563.899-.88t1.298-.316q.341 0 .75.054.41.054.645.126v-2.956a4 4 0 0 0-.504-.086 5 5 0 0 0-.535-.032zm-26.19 2.614q-.766 0-1.337.418l.002-.002q-.57.418-.888 1.216c-.212.532-.317 1.164-.317 1.932q-.001 1.152.313 1.956.314.805.888 1.228a2.2 2.2 0 0 0 1.341.422q.564 0 1.019-.234c.3-.156.553-.384.75-.684q.3-.45.393-1.084h3.115q-.08 1.377-.741 2.422a4.5 4.5 0 0 1-1.825 1.63q-1.164.585-2.752.586-1.829 0-3.143-.786a5.2 5.2 0 0 1-2.015-2.186c-.468-.932-.701-1.992-.701-3.222q0-1.846.709-3.242a5.3 5.3 0 0 1 2.02-2.182q1.306-.786 3.114-.786 1.557.001 2.728.572a4.6 4.6 0 0 1 1.853 1.604q.681 1.034.75 2.426h-3.114q-.131-.9-.693-1.452t-1.469-.552m14.672-2.22a4.9 4.9 0 0 1 1.784 1.14h-.002q.762.757 1.188 1.904.428 1.144.428 2.68v.914h-8.107v.008q0 .893.33 1.54.331.65.934 1.002.605.349 1.432.35.553.002 1.007-.156.457-.156.784-.468a2.1 2.1 0 0 0 .496-.768l3.053.204a4.2 4.2 0 0 1-.947 1.936q-.719.827-1.847 1.284-1.125.458-2.6.456-1.836.002-3.156-.752a5.1 5.1 0 0 1-2.035-2.146c-.475-.924-.713-2.052-.713-3.288q0-1.855.714-3.254a5.3 5.3 0 0 1 2.01-2.182q1.3-.783 3.05-.782 1.181 0 2.197.378m-4.377 3.388q-.297.54-.323 1.188h4.99q-.001-.721-.31-1.274a2.27 2.27 0 0 0-.86-.874c-.362-.212-.766-.318-1.266-.318-.499 0-.945.116-1.327.348a2.5 2.5 0 0 0-.904.93m27.27-3.61h3.301v12.016h-3.3zM97.094 9.74q.286-.34 1.015-.34.294 0 .576.054.282.055.478.118l.588-2.504a10 10 0 0 0-.94-.212 7.7 7.7 0 0 0-1.392-.118q-1.123 0-2.007.43a3.23 3.23 0 0 0-1.39 1.29q-.509.861-.508 2.166v.868h-1.682v2.504h1.682v9.512h3.293v-9.512h2.372v-2.504h-2.372v-.806q0-.61.287-.95zm4.284-2.668q.529-.495 1.256-.496.736 0 1.26.492.523.492.523 1.188 0 .695-.523 1.192a1.77 1.77 0 0 1-1.26.496q-.737 0-1.26-.492a1.57 1.57 0 0 1-.523-1.188q0-.695.527-1.192m2.899 4.424h-3.301v12.016h3.301zm7.834 2.442q-.767 0-1.337.418l.002-.002q-.57.418-.888 1.216c-.212.532-.317 1.164-.317 1.932q-.001 1.152.313 1.956.314.805.888 1.228t1.341.422q.564 0 1.019-.234.452-.234.75-.684a2.6 2.6 0 0 0 .393-1.084h3.115q-.08 1.377-.742 2.422a4.5 4.5 0 0 1-1.824 1.63c-.777.39-1.692.586-2.753.586q-1.828 0-3.142-.786a5.2 5.2 0 0 1-2.015-2.186c-.468-.932-.701-1.992-.701-3.222q-.001-1.846.709-3.242a5.27 5.27 0 0 1 2.019-2.182q1.308-.786 3.115-.786 1.557.001 2.728.572a4.6 4.6 0 0 1 1.853 1.604q.68 1.034.751 2.426h-3.115q-.131-.9-.694-1.452-.561-.552-1.468-.552m15.75-1.636a5 5 0 0 0-1.621-.728 7.6 7.6 0 0 0-1.904-.234c-.947 0-1.787.144-2.504.436-.723.288-1.308.702-1.764 1.236a4.23 4.23 0 0 0-.915 1.896l3.051.248q.175-.595.698-.986.526-.396 1.418-.396c.595 0 .999.136 1.308.406q.46.41.46 1.152v.046q0 .386-.287.578-.285.197-.922.294c-.426.066-.981.136-1.674.208q-.882.086-1.684.296a4.8 4.8 0 0 0-1.431.628 2.95 2.95 0 0 0-.993 1.096q-.365.679-.366 1.682 0 1.188.517 1.982.514.793 1.405 1.196.892.402 2.029.402a4.7 4.7 0 0 0 1.557-.24q.675-.24 1.157-.664.477-.428.767-.99h.093v1.664h3.133v-8.104q0-1.071-.414-1.842a3.54 3.54 0 0 0-1.118-1.262zm-1.747 6.914q0 .633-.319 1.134a2.27 2.27 0 0 1-.876.792q-.556.295-1.286.294c-.488 0-.923-.116-1.252-.354q-.492-.355-.494-1.038.001-.47.242-.786.241-.315.674-.504a4 4 0 0 1 1.016-.272q.27-.042.604-.09.334-.053.666-.118a8 8 0 0 0 .605-.15c.174-.054.317-.118.422-.182v1.274zm10.83 1.778q.234-.001.466-.044l-.002-.002.356-.066.519 2.48a10 10 0 0 1-.697.184 5.7 5.7 0 0 1-1.092.13q-1.192.047-2.088-.32a2.9 2.9 0 0 1-1.391-1.142q-.495-.774-.488-1.956V14h-1.626v-2.504h1.626V8.619h3.301v2.878h2.239V14h-2.239v5.82q0 .462.139.716.14.255.392.356.251.102.585.102m12.203-8.136a5 5 0 0 0-1.783-1.14 6.3 6.3 0 0 0-2.197-.378q-1.752 0-3.05.782a5.27 5.27 0 0 0-2.011 2.182q-.713 1.399-.713 3.254c0 1.236.238 2.364.713 3.288a5.1 5.1 0 0 0 2.033 2.146q1.325.754 3.16.752 1.472.002 2.6-.456 1.128-.457 1.843-1.284a4.2 4.2 0 0 0 .951-1.936l-3.055-.204a2 2 0 0 1-1.278 1.236 3 3 0 0 1-1.009.156q-.829-.001-1.433-.35a2.34 2.34 0 0 1-.933-1.002q-.33-.647-.329-1.54v-.008h8.104v-.914q0-1.537-.424-2.68-.426-1.147-1.189-1.904m-6.485 3.436q.031-.648.327-1.188.324-.579.904-.93.574-.348 1.327-.348c.501 0 .904.106 1.266.318q.55.316.856.874.311.553.311 1.274zm14.617-.198 2.154.438q1.735.36 2.587 1.158t.852 2.096q.001 1.183-.685 2.074-.687.892-1.877 1.388t-2.74.496q-2.363 0-3.762-.998-1.4-.996-1.639-2.718l3.247-.172q.15.727.714 1.106c.376.254.87.38 1.448.38q.868 0 1.399-.34t.539-.88a.94.94 0 0 0-.38-.748q-.372-.294-1.148-.45l-2.06-.414q-1.743-.352-2.592-1.22-.848-.868-.848-2.214 0-1.156.624-1.994.624-.837 1.76-1.29 1.132-.454 2.661-.454 2.252 0 3.552.962 1.299.96 1.516 2.62l-3.022.188a1.6 1.6 0 0 0-.333-.708q-.256-.316-.669-.508a2.35 2.35 0 0 0-.989-.192q-.767 0-1.294.324-.526.324-.527.864 0 .431.341.728.342.299 1.171.478m9.39 3.88q-.767 0-1.314.548a1.8 1.8 0 0 0-.547 1.314c0 .51.183.958.547 1.326q.547.552 1.314.552.504 0 .921-.254.42-.255.678-.68t.259-.942q0-.765-.558-1.314-.56-.547-1.302-.548zm12.11-6.463h.099V7.49h3.297v16.02h-3.255v-1.924h-.143a4.3 4.3 0 0 1-.654.99 3.3 3.3 0 0 1-1.094.808c-.445.216-.99.32-1.628.32q-1.36.001-2.455-.708-1.095-.708-1.736-2.088c-.424-.92-.638-2.012-.638-3.39q0-2.067.66-3.438.658-1.374 1.753-2.058a4.46 4.46 0 0 1 2.408-.684q1 .002 1.67.34.67.342 1.086.846.414.504.63.99m-.977 7.098q.555-.442.85-1.238v.002q.3-.799.301-1.87 0-1.07-.295-1.862c-.194-.526-.481-.934-.852-1.222-.372-.284-.812-.428-1.355-.428q-.816-.002-1.373.446-.56.444-.844 1.236c-.191.526-.29 1.132-.29 1.83q0 1.047.292 1.848.29.804.844 1.254c.37.296.836.446 1.369.446q.799 0 1.353-.442m16.132-7.753a4.9 4.9 0 0 0-1.783-1.14 6.3 6.3 0 0 0-2.197-.378q-1.751 0-3.049.782a5.3 5.3 0 0 0-2.012 2.182q-.713 1.399-.713 3.254c0 1.236.238 2.364.713 3.288a5.1 5.1 0 0 0 2.035 2.146q1.32.754 3.157.752 1.473.002 2.599-.456 1.128-.457 1.847-1.284.714-.824.949-1.936l-3.053-.204q-.17.454-.496.768a2.1 2.1 0 0 1-.782.468 3 3 0 0 1-1.009.156q-.828-.001-1.436-.35a2.4 2.4 0 0 1-.934-1.002q-.33-.647-.331-1.54v-.008h8.108v-.914q0-1.537-.428-2.68-.425-1.147-1.188-1.904zm-6.481 3.436q.026-.648.325-1.188.325-.579.904-.93a2.5 2.5 0 0 1 1.327-.348c.5 0 .904.106 1.27.318q.544.316.856.874.309.553.309 1.274h-4.991m14.837 3.798 2.465-8.596h3.495l-4.161 12.016h-3.721l-4.161-12.016h3.487l2.473 8.596z" clip-rule="evenodd"></path><defs><linearGradient id="i564032877__a" x1="33.683" x2="33.683" y1="34.5" y2=".5" gradientUnits="userSpaceOnUse"><stop stop-color="#00A3FF"></stop><stop offset="1" stop-color="#4255FF"></stop></linearGradient></defs></svg>