<svg fill="none" viewBox="0 0 45 32" height="32" width="45" xmlns="http://www.w3.org/2000/svg" class="h-10" alt="nuxt Logo">
<path xmlns="http://www.w3.org/2000/svg" d="M25.2454 31.1533H41.9738C42.5054 31.1533 43.0275 31.0133 43.4872 30.7474C43.9478 30.4809 44.3298 30.0983 44.595 29.638C44.8606 29.1768 45.0003 28.6543 45 28.1226C44.9999 27.5908 44.8597 27.0684 44.5937 26.6075L33.3593 7.12499C33.0943 6.66477 32.7123 6.28223 32.2518 6.01586C31.7921 5.74999 31.2701 5.60993 30.7387 5.60987C30.2072 5.60993 29.6852 5.74999 29.2255 6.01586C28.7651 6.28225 28.3831 6.66478 28.118 7.12499L25.2454 12.1099L19.6291 2.36215C19.3638 1.90196 18.9816 1.51946 18.521 1.25309C18.0612 0.987275 17.5391 0.847244 17.0075 0.847168C16.476 0.847243 15.9539 0.987274 15.4941 1.25309C15.0335 1.51942 14.6514 1.90193 14.3861 2.36215L0.406336 26.6075C0.140283 27.0684 0.00017586 27.5908 4.69127e-07 28.1226C-0.000295388 28.6543 0.139352 29.1768 0.405001 29.638C0.670144 30.0983 1.05221 30.4809 1.51277 30.7474C1.97253 31.0133 2.49463 31.1533 3.02618 31.1533H13.5269C17.6874 31.1533 20.7556 29.3236 22.8668 25.7538L27.9925 16.8662L30.7379 12.1099L38.9773 26.397H27.9925L25.2454 31.1533ZM13.3639 26.3905H6.02754L17.0125 7.34211L22.4935 16.8662L18.8237 23.232C17.4217 25.5482 15.8289 26.3921 13.3557 26.3921" fill="#00DC82"></path>
</svg>