<svg fill="none" viewBox="0 0 39 41" height="41" width="39" xmlns="http://www.w3.org/2000/svg" class="w-10" alt="Laravel">
<g xmlns="http://www.w3.org/2000/svg" clip-path="url(#clip0_186_2787)">
<path fill-rule="evenodd" clip-rule="evenodd" d="M38.8341 9.77341C38.8498 9.82818 38.8576 9.88295 38.8576 9.93772V18.5214C38.8576 18.7484 38.7402 18.9518 38.5446 19.0614L31.338 23.2085V31.4322C31.338 31.6592 31.2207 31.8626 31.025 31.9722L15.9859 40.6341C15.9859 40.6341 15.9155 40.6654 15.8764 40.6811C15.8607 40.6811 15.8529 40.6967 15.8372 40.6967C15.7355 40.728 15.6182 40.728 15.5164 40.6967C15.5008 40.6967 15.4851 40.6811 15.4695 40.6732C15.4382 40.6576 15.3991 40.6498 15.3678 40.6341L0.312989 31.98C0.117371 31.8704 0 31.6592 0 31.4401V5.68107C0 5.6263 0 5.57153 0.0234742 5.51675C0.0234742 5.5011 0.0391236 5.48545 0.0469484 5.46198C0.0625978 5.43068 0.0704225 5.39156 0.086072 5.36808C0.101721 5.34461 0.117371 5.32896 0.125196 5.31331C0.140845 5.28984 0.156495 5.25854 0.179969 5.24289C0.195618 5.22724 0.219092 5.21159 0.242567 5.19594C0.266041 5.18029 0.289515 5.15682 0.312989 5.14117L7.83255 0.814093C8.02817 0.704547 8.26291 0.704547 8.45853 0.814093L15.9781 5.14117C15.9781 5.14117 16.025 5.18029 16.0485 5.19594C16.072 5.21159 16.0955 5.22724 16.1111 5.24289C16.1346 5.26636 16.1502 5.28984 16.1659 5.31331C16.1815 5.32896 16.1972 5.35243 16.205 5.36808C16.2207 5.39938 16.2363 5.43068 16.2441 5.46198C16.2441 5.47763 16.2598 5.49328 16.2676 5.51675C16.2833 5.57153 16.2911 5.6263 16.2911 5.68107V21.7687L22.5587 18.1615V9.93772C22.5587 9.88295 22.5665 9.82818 22.5822 9.77341C22.5822 9.75776 22.5978 9.73428 22.6056 9.71863C22.6213 9.68733 22.6291 9.64821 22.6448 9.62473C22.6526 9.60126 22.6761 9.58561 22.6839 9.56996C22.6995 9.54649 22.7152 9.52301 22.7387 9.49954C22.7543 9.48389 22.7778 9.46824 22.8013 9.45259C22.8247 9.43694 22.8482 9.41347 22.8717 9.39782L30.3912 5.07074C30.5869 4.9612 30.8216 4.9612 31.0172 5.07074L38.5368 9.39782C38.5368 9.39782 38.5837 9.43694 38.6072 9.45259C38.6307 9.46824 38.6463 9.48389 38.6698 9.49954C38.6933 9.52301 38.7089 9.54649 38.7246 9.56996C38.7402 9.58561 38.7559 9.60909 38.7637 9.62473C38.7793 9.65603 38.795 9.68733 38.8028 9.71863C38.8028 9.73428 38.8185 9.74993 38.8263 9.77341H38.8341ZM37.6056 18.1615V11.0254L34.9765 12.5434L31.338 14.6326V21.7687L37.6056 18.1615ZM30.0861 31.0801V23.9362L26.5102 25.9784L16.2989 31.8078V39.0222L30.0861 31.088V31.0801ZM1.25196 6.76871V31.0801L15.0391 39.0144V31.8078L7.84038 27.7311C7.8169 27.7155 7.79343 27.6999 7.76995 27.6764C7.7543 27.6607 7.73083 27.6451 7.70736 27.6294C7.70736 27.6294 7.67606 27.5825 7.65258 27.559C7.63693 27.5355 7.62128 27.5199 7.60563 27.4964C7.60563 27.4964 7.58216 27.4416 7.57434 27.4182C7.56651 27.3947 7.55086 27.3712 7.54304 27.3477C7.54304 27.3477 7.53521 27.2851 7.52739 27.2538C7.52739 27.2304 7.51956 27.2069 7.51956 27.1834V10.3759L3.88889 8.27888L1.25978 6.76871H1.25196ZM8.14554 2.07387L1.87793 5.68107L8.13771 9.28827L14.4053 5.68107L8.14554 2.07387ZM11.4006 24.5778L15.0391 22.4886V6.76871L12.41 8.28671L8.77152 10.3837V26.1114L11.4006 24.5934V24.5778ZM30.7042 6.33052L24.4366 9.93772L30.7042 13.5449L36.9718 9.93772L30.7042 6.33052ZM30.0782 14.6247L26.4398 12.5277L23.8106 11.0097V18.1459L27.4491 20.2351L30.0782 21.7531V14.6169V14.6247ZM15.6651 30.7124L24.8513 25.4698L29.4444 22.8485L23.1847 19.2413L15.9781 23.3884L9.40532 27.1678L15.6573 30.7045L15.6651 30.7124Z" fill="#FF2D20"></path>
</g>
<defs xmlns="http://www.w3.org/2000/svg">
<clipPath id="clip0_186_2787">
<rect width="38.8576" height="39.9883" fill="white" transform="translate(0 0.731934)"></rect>
</clipPath>
</defs>
</svg>