<svg fill="none" viewBox="0 0 40 41" height="41" width="40" xmlns="http://www.w3.org/2000/svg" class="w-10" alt="WordPress">
<g xmlns="http://www.w3.org/2000/svg" clip-path="url(#clip0_418_17887)">
<path d="M2.84277 20.7197C2.84277 27.5106 6.78957 33.3801 12.5124 36.1616L4.32816 13.7368C3.37612 15.8702 2.84277 18.2316 2.84277 20.7197Z" fill="#21759B"></path>
<path d="M31.5819 19.8542C31.5819 17.7341 30.8205 16.2647 30.1672 15.122C29.2978 13.7087 28.4818 12.5113 28.4818 11.0992C28.4818 9.52185 29.6778 8.0538 31.3632 8.0538C31.4392 8.0538 31.5112 8.06314 31.5859 8.06714C28.5338 5.27105 24.467 3.56299 20.0002 3.56299C14.0066 3.56299 8.73314 6.63776 5.66504 11.2966C6.06772 11.3086 6.4464 11.3166 6.76908 11.3166C8.5638 11.3166 11.3412 11.0992 11.3412 11.0992C12.2666 11.0446 12.3746 12.4033 11.4519 12.5126C11.4519 12.5126 10.5225 12.622 9.48783 12.6766L15.736 31.2612L19.4908 20.0009L16.8174 12.6766C15.8934 12.622 15.0187 12.5126 15.0187 12.5126C14.0947 12.458 14.2027 11.0446 15.1267 11.0992C15.1267 11.0992 17.9601 11.3166 19.6455 11.3166C21.4402 11.3166 24.2177 11.0992 24.2177 11.0992C25.143 11.0446 25.2524 12.4033 24.3283 12.5126C24.3283 12.5126 23.3963 12.622 22.3643 12.6766L28.5645 31.1199L30.2752 25.4011C31.0166 23.0276 31.5819 21.3236 31.5819 19.8542Z" fill="#21759B"></path>
<path d="M20.3005 22.2207L15.1523 37.1799C16.6897 37.6319 18.3151 37.8786 19.9992 37.8786C21.9966 37.8786 23.9126 37.5332 25.6967 36.9065C25.65 36.8332 25.6087 36.7545 25.574 36.6705L20.2992 22.222L20.3005 22.2207Z" fill="#21759B"></path>
<path d="M35.0542 12.4888C35.1275 13.0355 35.1702 13.6221 35.1702 14.2528C35.1702 15.9942 34.8449 17.9516 33.8662 20.3984L28.626 35.5509C33.7261 32.5761 37.1583 27.0506 37.1583 20.721C37.1583 17.7383 36.3969 14.9329 35.0569 12.4888H35.0542Z" fill="#21759B"></path>
<path d="M20.0007 0.720215C8.9723 0.720215 0 9.69252 0 20.7195C0 31.7466 8.9723 40.7202 20.0007 40.7202C31.029 40.7202 40.0013 31.7493 40.0013 20.7195C40.0013 9.69252 31.0277 0.720215 20.0007 0.720215ZM20.0007 39.8028C9.47898 39.8028 0.917364 31.2412 0.917364 20.7195C0.917364 10.1979 9.47765 1.63758 20.0007 1.63758C30.5237 1.63758 39.0826 10.1979 39.0826 20.7195C39.0826 31.2412 30.5224 39.8028 20.0007 39.8028Z" fill="#21759B"></path>
</g>
<defs xmlns="http://www.w3.org/2000/svg">
<clipPath id="clip0_418_17887">
<rect width="40.0013" height="40" fill="white" transform="translate(0 0.720215)"></rect>
</clipPath>
</defs>
</svg>