<svg fill="none" viewBox="0 0 30 31" height="31" width="30" xmlns="http://www.w3.org/2000/svg" class="w-10" alt="TypeScript">
<g xmlns="http://www.w3.org/2000/svg" clip-path="url(#clip0_418_17818)">
<path d="M27.0703 0.994629H2.92969C1.31167 0.994629 0 2.30629 0 3.92432V28.0649C0 29.683 1.31167 30.9946 2.92969 30.9946H27.0703C28.6883 30.9946 30 29.683 30 28.0649V3.92432C30 2.30629 28.6883 0.994629 27.0703 0.994629Z" fill="#3178C6"></path>
<path d="M27.0703 0.994629H2.92969C1.31167 0.994629 0 2.30629 0 3.92432V28.0649C0 29.683 1.31167 30.9946 2.92969 30.9946H27.0703C28.6883 30.9946 30 29.683 30 28.0649V3.92432C30 2.30629 28.6883 0.994629 27.0703 0.994629Z" fill="#3178C6"></path>
<path fill-rule="evenodd" clip-rule="evenodd" d="M18.5706 24.8671V27.8004C19.0475 28.0448 19.6114 28.2281 20.2625 28.3504C20.9136 28.4726 21.5998 28.5337 22.3212 28.5337C23.0243 28.5337 23.6921 28.4665 24.3249 28.332C24.9577 28.1976 25.5125 27.9761 25.9893 27.6674C26.4662 27.3589 26.8437 26.9555 27.1218 26.4575C27.4 25.9594 27.5391 25.3438 27.5391 24.6105C27.5391 24.0788 27.4596 23.6129 27.3006 23.2126C27.1417 22.8124 26.9125 22.4564 26.6129 22.1447C26.3133 21.8331 25.9542 21.5535 25.5354 21.306C25.1166 21.0585 24.6444 20.8247 24.1186 20.6048C23.7335 20.4459 23.388 20.2916 23.0824 20.1419C22.7767 19.9921 22.5169 19.8394 22.3029 19.6836C22.0889 19.5277 21.9238 19.3627 21.8077 19.1886C21.6916 19.0144 21.6335 18.8173 21.6335 18.5973C21.6335 18.3957 21.6854 18.2139 21.7894 18.0519C21.8933 17.89 22.04 17.751 22.2295 17.6348C22.4191 17.5188 22.6513 17.4286 22.9264 17.3644C23.2016 17.3003 23.5072 17.2682 23.8435 17.2682C24.088 17.2682 24.3463 17.2866 24.6183 17.3232C24.8904 17.3599 25.164 17.4164 25.4391 17.4928C25.7142 17.5692 25.9816 17.6654 26.2415 17.7815C26.5013 17.8976 26.7413 18.0321 26.9613 18.1849V15.4441C26.5151 15.273 26.0275 15.1462 25.4987 15.0637C24.9699 14.9812 24.3631 14.9399 23.6784 14.9399C22.9815 14.9399 22.3212 15.0148 21.6977 15.1645C21.0741 15.3142 20.5254 15.548 20.0516 15.8657C19.5778 16.1835 19.2034 16.5884 18.9283 17.0803C18.6532 17.5722 18.5156 18.1604 18.5156 18.8448C18.5156 19.7187 18.7678 20.4642 19.2722 21.0814C19.7765 21.6986 20.5422 22.2211 21.5693 22.6489C21.9728 22.8139 22.3488 22.9758 22.6972 23.1347C23.0457 23.2936 23.3468 23.4586 23.6004 23.6297C23.8542 23.8008 24.0544 23.9872 24.2012 24.1888C24.3479 24.3905 24.4212 24.6196 24.4212 24.8763C24.4212 25.0658 24.3754 25.2414 24.2837 25.4034C24.192 25.5653 24.0529 25.7058 23.8664 25.825C23.68 25.9442 23.4476 26.0374 23.1695 26.1046C22.8913 26.1718 22.5658 26.2054 22.1929 26.2054C21.5571 26.2054 20.9274 26.0939 20.3038 25.8708C19.6802 25.6478 19.1025 25.3133 18.5706 24.8671ZM13.6395 17.6401H17.4023V15.2329H6.91406V17.6401H10.6586V28.3579H13.6395V17.6401Z" fill="white"></path>
</g>
<defs xmlns="http://www.w3.org/2000/svg">
<clipPath id="clip0_418_17818">
<rect width="30" height="30" fill="white" transform="translate(0 0.994629)"></rect>
</clipPath>
</defs>
</svg>