<svg xmlns="http://www.w3.org/2000/svg" fill="none" viewBox="0 0 30 21" class="size-8 fill-current text-body-gray group-hover:text-white" alt="youtube"><path fill="currentColor" fill-rule="evenodd" d="M26.113.764a3.57 3.57 0 0 1 2.515 2.531c.594 2.233.594 6.891.594 6.891s0 4.659-.594 6.891c-.327 1.232-1.291 2.162-2.515 2.49-2.218.599-11.113.599-11.113.599s-8.895 0-11.113-.598c-1.224-.33-2.188-1.26-2.515-2.49-.594-2.233-.594-6.892-.594-6.892s0-4.658.594-6.89A3.57 3.57 0 0 1 3.887.763C6.105.166 15 .166 15 .166s8.895 0 11.113.598M12.091 5.957v8.459l7.434-4.23z" clip-rule="evenodd"></path></svg>