<svg xmlns="http://www.w3.org/2000/svg" viewBox="0 0 14 14" class="fill-current opacity-30"><path d="m7.395.213.345.522a3.06 3.06 0 0 0 3.167 1.312l.614-.126a.473.473 0 0 1 .558.558l-.126.614a3.06 3.06 0 0 0 1.312 3.167l.522.345a.473.473 0 0 1 0 .79l-.522.345a3.06 3.06 0 0 0-1.312 3.167l.126.614a.473.473 0 0 1-.558.558l-.614-.126a3.06 3.06 0 0 0-3.167 1.312l-.345.522a.473.473 0 0 1-.79 0l-.345-.522a3.06 3.06 0 0 0-3.167-1.312l-.614.126a.473.473 0 0 1-.558-.558l.126-.614A3.06 3.06 0 0 0 .735 7.74l-.522-.345a.473.473 0 0 1 0-.79l.522-.345a3.06 3.06 0 0 0 1.312-3.167l-.126-.614a.473.473 0 0 1 .558-.558l.614.126A3.06 3.06 0 0 0 6.26.735l.345-.522a.473.473 0 0 1 .79 0"></path></svg>