<svg xmlns="http://www.w3.org/2000/svg" fill="none" viewBox="0 0 20 21" class="size-8 fill-current text-body-gray group-hover:text-white" alt="linkedin"><path fill="currentColor" fill-rule="evenodd" d="M2.401 4.992C1.075 4.992 0 3.893 0 2.567a2.401 2.401 0 1 1 4.803 0c0 1.326-1.076 2.425-2.402 2.425m2.076 15.174H.33V6.813h4.147zm11.381 0H20v-7.335c0-3.59-.771-6.353-4.968-6.353-2.017 0-3.37 1.107-3.923 2.157h-.058V6.813H7.074v13.353h4.142v-6.612c0-1.74.33-3.424 2.486-3.424 2.125 0 2.156 1.987 2.156 3.536z" clip-rule="evenodd"></path></svg>