<svg fill="none" viewBox="0 0 31 29" height="29" width="31" xmlns="http://www.w3.org/2000/svg" class="h-auto w-8 fill-current dark:hidden" alt="2">
<path xmlns="http://www.w3.org/2000/svg" d="M3.3335 28.5C2.5085 28.5 1.802 28.206 1.214 27.618C0.625998 27.03 0.332499 26.324 0.333499 25.5V9C0.333499 8.175 0.627499 7.4685 1.2155 6.8805C1.8035 6.2925 2.5095 5.999 3.3335 6H9.3335V3C9.3335 2.175 9.6275 1.4685 10.2155 0.880502C10.8035 0.292502 11.5095 -0.000997453 12.3335 2.54669e-06H18.3335C19.1585 2.54669e-06 19.865 0.294003 20.453 0.882002C21.041 1.47 21.3345 2.176 21.3335 3V6H27.3335C28.1585 6 28.865 6.294 29.453 6.882C30.041 7.47 30.3345 8.176 30.3335 9V25.5C30.3335 26.325 30.0395 27.0315 29.4515 27.6195C28.8635 28.2075 28.1575 28.501 27.3335 28.5H3.3335ZM12.3335 6H18.3335V3H12.3335V6Z" fill="#07080E"></path>
</svg>