<svg fill="none" viewBox="0 0 34 34" height="34" width="34" xmlns="http://www.w3.org/2000/svg" class="w-10" alt="Nuxt">
<path xmlns="http://www.w3.org/2000/svg" d="M19.0743 28.4487H31.7136C32.1152 28.4488 32.5096 28.343 32.857 28.142C33.205 27.9407 33.4937 27.6516 33.694 27.3038C33.8947 26.9554 34.0002 26.5606 34 26.1589C33.9999 25.7571 33.894 25.3624 33.693 25.0141L25.2048 10.294C25.0045 9.9463 24.7159 9.65728 24.368 9.45601C24.0207 9.25514 23.6263 9.14931 23.2248 9.14926C22.8232 9.14931 22.4288 9.25514 22.0815 9.45601C21.7336 9.65729 21.445 9.94631 21.2447 10.294L19.0743 14.0604L14.8309 6.69544C14.6304 6.34773 14.3417 6.05873 13.9937 5.85748C13.6462 5.65664 13.2518 5.55084 12.8501 5.55078C12.4485 5.55084 12.0541 5.65664 11.7067 5.85748C11.3587 6.0587 11.0699 6.34771 10.8695 6.69544L0.30701 25.0141C0.105992 25.3624 0.000132872 25.7571 3.54451e-07 26.1589C-0.000223182 26.5606 0.105288 26.9554 0.306 27.3038C0.506331 27.6516 0.795001 27.9407 1.14298 28.142C1.49035 28.343 1.88483 28.4488 2.28645 28.4487H10.2203C13.3638 28.4487 15.682 27.0663 17.2772 24.3691L21.1499 17.6541L23.2242 14.0604L29.4495 24.8551H21.1499L19.0743 28.4487ZM10.0972 24.8502H4.55414L12.8539 10.4581L16.9951 17.6541L14.2224 22.4638C13.163 24.2138 11.9596 24.8514 10.091 24.8514" fill="#00DC82"></path>
</svg>