<svg fill="none" viewBox="0 0 35 34" height="34" width="35" xmlns="http://www.w3.org/2000/svg" class="w-10" alt="JavaScript">
<path xmlns="http://www.w3.org/2000/svg" d="M32.0761 2H2.92432V32H32.0761V2Z" fill="#F7DF1E"></path>
<path xmlns="http://www.w3.org/2000/svg" d="M22.5075 25.4371C23.0947 26.4238 23.8586 27.149 25.2098 27.149C26.3448 27.149 27.0699 26.5652 27.0699 25.7585C27.0699 24.7919 26.3249 24.4495 25.0756 23.8871L24.3907 23.5847C22.414 22.718 21.1008 21.6323 21.1008 19.3371C21.1008 17.2228 22.6662 15.6133 25.1126 15.6133C26.8543 15.6133 28.1064 16.2371 29.0088 17.8704L26.8756 19.2799C26.4059 18.4133 25.8992 18.0719 25.1126 18.0719C24.326 18.0719 23.8017 18.5957 23.8017 19.2799C23.8017 20.1257 24.3107 20.468 25.486 20.9919L26.1709 21.2938C28.4984 22.3209 29.8125 23.368 29.8125 25.7223C29.8125 28.2604 27.8751 29.6509 25.2732 29.6509C22.6713 29.6509 21.0855 28.4033 20.2813 26.768L22.5075 25.4371ZM12.8305 25.6814C13.2608 26.4671 13.6523 27.1314 14.5934 27.1314C15.5346 27.1314 16.0612 26.769 16.0612 25.3599V15.7742H18.8006V25.398C18.8006 28.3171 17.1375 29.6457 14.7101 29.6457C12.5167 29.6457 11.2466 28.4776 10.6006 27.0704L12.8305 25.6814Z" fill="black"></path>
</svg>