<svg fill="none" viewBox="0 0 30 30" height="30" width="30" xmlns="http://www.w3.org/2000/svg" class="h-auto w-8 fill-current dark:hidden" alt="0">
<path xmlns="http://www.w3.org/2000/svg" d="M27 3H3C1.344 3 0 4.341 0 6V24C0 25.656 1.344 27 3 27H27C28.659 27 30 25.656 30 24V6C30 4.341 28.659 3 27 3ZM6.603 6.6C8.259 6.6 9.603 7.944 9.603 9.6C9.603 11.256 8.259 12.6 6.603 12.6C4.947 12.6 3.603 11.259 3.603 9.6C3.603 7.941 4.947 6.6 6.603 6.6ZM26.946 22.212C26.946 22.866 26.415 23.397 25.761 23.397H4.731C4.077 23.397 3.546 22.866 3.546 22.212V22.182C3.546 21.528 4.077 20.997 4.731 20.997H25.761C26.415 20.997 26.946 21.528 26.946 22.182V22.212ZM26.946 16.812C26.946 17.466 26.415 17.997 25.761 17.997H4.731C4.077 17.997 3.546 17.466 3.546 16.812V16.782C3.546 16.128 4.077 15.597 4.731 15.597H25.761C26.415 15.597 26.946 16.128 26.946 16.782V16.812Z" fill="#07080E"></path>
</svg>