<svg xmlns="http://www.w3.org/2000/svg" fill="none" viewBox="0 0 31 30" class="mr-2 size-6 shrink-0"><path fill="currentColor" fill-rule="evenodd" d="M15.5 0C7.216 0 .5 6.882.5 15.372c0 6.795 4.305 12.56 10.26 14.604.75.123.99-.353.99-.768V26.61c-4.155.922-5.04-2.06-5.04-2.06-.69-1.783-1.665-2.26-1.665-2.26-1.365-.953.105-.922.105-.922 1.5.107 2.295 1.583 2.295 1.583 1.305 2.337 3.51 1.645 4.365 1.276.135-1 .525-1.676.945-2.06-3.33-.384-6.825-1.706-6.825-7.563 0-1.707.57-3.075 1.545-4.166-.15-.384-.675-1.983.15-4.058 0 0 1.26-.416 4.125 1.568 1.185-.339 2.475-.508 3.75-.508s2.565.17 3.75.508c2.865-1.984 4.125-1.568 4.125-1.568.825 2.075.3 3.674.15 4.058.975 1.091 1.545 2.46 1.545 4.166 0 5.872-3.51 7.163-6.855 7.548.54.476 1.035 1.414 1.035 2.844v4.212c0 .415.24.907 1.005.768C26.21 27.916 30.5 22.167 30.5 15.372c0-4.077-1.58-7.987-4.393-10.87S19.478 0 15.5 0" clip-rule="evenodd"></path></svg>