<svg width="153" height="170" viewBox="0 0 153 170" fill="none" xmlns="http://www.w3.org/2000/svg">
<g clip-path="url(#clip0_418_21027)">
<path d="M152.426 118.293V51.6972C152.426 45.1177 148.92 39.0443 143.224 35.7591L85.5544 2.46582C79.8583 -0.819336 72.8463 -0.819336 67.1501 2.46582L9.48044 35.7591C3.78433 39.0535 0.27832 45.1269 0.27832 51.6972V118.293C0.27832 124.872 3.78433 130.946 9.48044 134.231L67.1501 167.524C72.8463 170.809 79.8583 170.809 85.5544 167.524L143.224 134.231C148.92 130.946 152.426 124.863 152.426 118.293Z" fill="#07080E" fill-opacity="0.05"/>
<path fill-rule="evenodd" clip-rule="evenodd" d="M89.5111 105.944C89.8976 105.226 90.0908 104.361 90.0908 103.34V103.33C90.0908 102.309 89.8976 101.444 89.5111 100.726C89.1246 100.008 88.6001 99.4563 87.9375 99.0882C87.275 98.7201 86.5388 98.5269 85.7014 98.5269C84.864 98.5269 84.1186 98.7109 83.4561 99.0882C82.7935 99.4655 82.269 100.008 81.8825 100.726C81.496 101.444 81.3028 102.309 81.3028 103.33C81.3028 104.352 81.496 105.217 81.8825 105.935C82.269 106.643 82.7935 107.195 83.4561 107.573C84.1186 107.95 84.8732 108.143 85.7014 108.143C86.5296 108.143 87.275 107.959 87.9375 107.582C88.6001 107.204 89.1246 106.662 89.5111 105.944ZM87.7903 101.665C87.9835 102.116 88.0847 102.677 88.0847 103.34C88.0847 104.002 87.9835 104.563 87.7903 105.014C87.597 105.465 87.321 105.806 86.9621 106.045C86.6032 106.275 86.1891 106.395 85.7106 106.395C85.2321 106.395 84.818 106.275 84.4591 106.045C84.1002 105.815 83.8242 105.465 83.6309 105.014C83.4377 104.563 83.3364 104.002 83.3364 103.34C83.3364 102.677 83.4377 102.116 83.6309 101.665C83.8242 101.214 84.1002 100.864 84.4591 100.634C84.818 100.404 85.2321 100.284 85.7106 100.284C86.1891 100.284 86.6032 100.404 86.9621 100.634C87.321 100.864 87.597 101.214 87.7903 101.665ZM33.3048 108.024H36.6268V108.014C37.5838 108.014 38.4028 107.83 39.0838 107.453C39.7739 107.085 40.2984 106.542 40.6665 105.843C41.0346 105.143 41.2186 104.297 41.2186 103.33C41.2186 102.364 41.0346 101.527 40.6665 100.828C40.2984 100.128 39.7739 99.5944 39.093 99.2171C38.412 98.8399 37.593 98.6558 36.6544 98.6558H33.3048V108.024ZM36.544 106.33H35.2833V100.358H36.544C37.1329 100.358 37.6298 100.469 38.0255 100.671C38.4212 100.874 38.7249 101.196 38.9273 101.637C39.1298 102.07 39.231 102.631 39.231 103.33C39.231 104.03 39.1298 104.6 38.9273 105.042C38.7249 105.484 38.4304 105.806 38.0255 106.018C37.6206 106.229 37.1329 106.33 36.544 106.33ZM43.9699 98.6558V108.014H50.301V106.386H45.9484V104.149H49.9513V102.521H45.9484V100.285H50.2826V98.6558H43.9699ZM54.8376 98.6558L57.1013 105.778H57.1841L59.457 98.6558H61.6563L58.4264 108.024H55.8774L52.6383 98.6558H54.8376ZM64.0672 98.6558V108.014H70.3983V106.386H66.0457V104.149H70.0486V102.521H66.0457V100.285H70.3799V98.6558H64.0672ZM73.2509 108.024V98.6558H75.2294V106.395H79.2507V108.024H73.2509ZM92.8423 108.024V98.6558H96.5415C97.2501 98.6558 97.8574 98.7938 98.3543 99.0607C98.8513 99.3276 99.2378 99.7049 99.5046 100.183C99.7715 100.662 99.9003 101.214 99.9003 101.831C99.9003 102.447 99.7623 102.999 99.4954 103.478C99.2285 103.956 98.8421 104.324 98.3267 104.591C97.8206 104.858 97.2041 104.987 96.4863 104.987H94.8299V108.014H92.8515L92.8423 108.024ZM96.1642 103.395H94.8299V100.266H96.1642C96.5415 100.266 96.8636 100.331 97.1121 100.459C97.3605 100.588 97.5538 100.772 97.6734 101.002C97.793 101.242 97.8574 101.508 97.8574 101.821C97.8574 102.134 97.8022 102.401 97.6734 102.64C97.5446 102.88 97.3605 103.064 97.1121 103.192C96.8636 103.33 96.5415 103.395 96.1642 103.395ZM102.477 98.6558V108.014H108.808V106.386H104.456V104.149H108.458V102.521H104.456V100.285H108.79V98.6558H102.477ZM114.983 108.024H111.661V98.6558H115.01C115.949 98.6558 116.768 98.8399 117.449 99.2171C118.13 99.5944 118.654 100.128 119.022 100.828C119.391 101.527 119.575 102.364 119.575 103.33C119.575 104.297 119.391 105.143 119.022 105.843C118.654 106.542 118.13 107.085 117.44 107.453C116.759 107.83 115.94 108.014 114.983 108.014V108.024ZM113.639 106.33H114.9C115.489 106.33 115.977 106.229 116.381 106.018C116.786 105.806 117.081 105.484 117.283 105.042C117.486 104.6 117.587 104.03 117.587 103.33C117.587 102.631 117.486 102.07 117.283 101.637C117.081 101.196 116.777 100.874 116.381 100.671C115.986 100.469 115.489 100.358 114.9 100.358H113.639V106.33ZM31.5381 115.22V124.587L31.5473 124.606H35.5502C36.2496 124.606 36.8385 124.495 37.317 124.265C37.7955 124.044 38.1544 123.732 38.4029 123.345C38.6513 122.959 38.771 122.517 38.771 122.02C38.771 121.551 38.6697 121.155 38.4765 120.824C38.2832 120.492 38.0256 120.226 37.7127 120.042C37.3998 119.857 37.0686 119.756 36.7097 119.738V119.646C37.041 119.572 37.3262 119.443 37.5839 119.269C37.8323 119.094 38.0348 118.864 38.182 118.588C38.3292 118.312 38.4029 117.989 38.4029 117.621C38.4029 117.143 38.2832 116.729 38.0532 116.37C37.8231 116.011 37.4735 115.726 37.0133 115.523C36.5532 115.321 35.9827 115.22 35.2925 115.22H31.5381ZM34.9889 119.14H33.5165V116.821H35.0257C35.4674 116.821 35.8079 116.922 36.0471 117.134C36.2864 117.345 36.406 117.612 36.406 117.953C36.406 118.201 36.3508 118.413 36.222 118.588C36.0931 118.762 35.9275 118.891 35.7158 118.992C35.5042 119.094 35.2649 119.14 34.9889 119.14ZM35.1269 122.968H33.5165V120.474H35.1729C35.4858 120.474 35.7619 120.529 35.9919 120.64C36.222 120.759 36.3968 120.907 36.5256 121.109C36.6453 121.311 36.7097 121.541 36.7097 121.799C36.7097 122.149 36.59 122.434 36.3324 122.646C36.0839 122.857 35.679 122.968 35.1269 122.968ZM40.786 115.22H43.0038L45.1386 119.25H45.2307L47.3656 115.22H49.5833L46.1693 121.275V124.587H44.2V121.275L40.786 115.22ZM56.2364 115.22V124.578H62.5675V122.949H58.2149V120.713H62.2178V119.085H58.2149V116.848H62.5491V115.22H56.2364ZM67.2695 115.22L69.156 118.413H69.2296L71.1252 115.22H73.3613L70.4995 119.904L73.4257 124.587H71.1436L69.2204 121.385H69.1468L67.2235 124.587H64.9506L67.8861 119.904L65.0058 115.22H67.2511H67.2695ZM75.9105 115.22V124.587L75.9197 124.578H77.8981V121.551H79.5545C80.2723 121.551 80.8888 121.422 81.3949 121.155C81.9102 120.888 82.2967 120.52 82.5636 120.042C82.8305 119.563 82.9685 119.011 82.9685 118.394C82.9685 117.778 82.8397 117.226 82.5728 116.747C82.3059 116.269 81.9194 115.891 81.4225 115.625C80.9256 115.358 80.3183 115.22 79.6097 115.22H75.9105ZM77.8981 119.959H79.2324C79.6097 119.959 79.9318 119.894 80.1802 119.756C80.4287 119.627 80.6127 119.443 80.7416 119.204C80.8704 118.965 80.9256 118.698 80.9256 118.385C80.9256 118.072 80.8612 117.805 80.7416 117.566C80.6219 117.336 80.4287 117.152 80.1802 117.023C79.9318 116.894 79.6097 116.83 79.2324 116.83H77.8981V119.959ZM85.5453 124.578V115.22H91.8579V116.848H87.5237V119.085H91.5267V120.713H87.5237V122.949H91.8763V124.578H85.5453ZM94.7195 115.22V124.587H96.698V121.275H98.1443L99.9187 124.587H102.109L100.123 120.953L100.161 120.935C100.176 120.929 100.19 120.922 100.204 120.916C100.719 120.676 101.106 120.336 101.373 119.885C101.64 119.443 101.778 118.91 101.778 118.284C101.778 117.658 101.649 117.124 101.382 116.664C101.115 116.204 100.738 115.845 100.232 115.597C99.7347 115.348 99.1274 115.22 98.4188 115.22H94.7195ZM96.698 119.683H98.0415C98.4188 119.683 98.7317 119.627 98.9801 119.526C99.2286 119.425 99.4126 119.269 99.5415 119.057C99.6703 118.845 99.7255 118.588 99.7255 118.284C99.7255 117.98 99.6611 117.713 99.5415 117.493C99.4218 117.272 99.2286 117.115 98.9801 117.005C98.7317 116.894 98.4096 116.839 98.0323 116.839H96.698V119.683ZM104.106 116.858V115.229H111.799V116.858H108.928V124.597H106.968V116.858H104.106ZM118.976 117.06C119.252 117.263 119.409 117.548 119.446 117.916L119.455 117.925H121.351C121.341 117.364 121.194 116.876 120.9 116.453C120.605 116.03 120.2 115.698 119.685 115.459C119.17 115.22 118.544 115.1 117.863 115.1C117.182 115.1 116.565 115.22 116.032 115.459C115.489 115.698 115.065 116.03 114.762 116.453C114.458 116.876 114.311 117.373 114.311 117.944C114.311 118.634 114.532 119.186 114.992 119.591C115.443 119.996 116.068 120.299 116.86 120.493L117.881 120.75C118.222 120.833 118.507 120.925 118.746 121.026C118.986 121.127 119.17 121.247 119.289 121.394C119.409 121.542 119.473 121.716 119.473 121.928C119.473 122.149 119.409 122.351 119.271 122.526C119.133 122.701 118.94 122.83 118.691 122.931C118.443 123.032 118.157 123.078 117.817 123.078C117.476 123.078 117.164 123.023 116.897 122.922C116.63 122.821 116.409 122.664 116.253 122.453C116.087 122.241 115.995 121.983 115.976 121.67H114.062C114.072 122.342 114.237 122.904 114.55 123.364C114.863 123.815 115.295 124.164 115.857 124.394C116.418 124.624 117.072 124.744 117.835 124.744C118.599 124.744 119.252 124.624 119.795 124.394C120.338 124.164 120.752 123.842 121.038 123.419C121.323 122.996 121.47 122.499 121.47 121.928C121.47 121.532 121.397 121.183 121.258 120.888C121.12 120.594 120.927 120.327 120.679 120.106C120.43 119.885 120.136 119.701 119.795 119.545C119.455 119.388 119.078 119.269 118.673 119.177L117.835 118.974C117.624 118.928 117.44 118.873 117.256 118.809C117.072 118.744 116.915 118.671 116.777 118.579C116.639 118.486 116.538 118.385 116.455 118.256C116.372 118.128 116.345 117.98 116.345 117.815C116.345 117.612 116.4 117.428 116.519 117.272C116.63 117.106 116.805 116.987 117.025 116.895C117.246 116.802 117.522 116.756 117.844 116.756C118.323 116.756 118.7 116.858 118.976 117.06Z" fill="#07080E"/>
<path d="M78.0821 67.4516L85.1677 71.2705C87.8547 72.7152 91.0203 70.4147 90.4773 67.4148L89.0326 59.4917C88.8117 58.2863 89.2166 57.0532 90.1 56.2066L95.925 50.6485C98.1335 48.5412 96.9188 44.8144 93.9005 44.4095L85.9223 43.3328C84.7076 43.1672 83.6586 42.4034 83.1248 41.2991L79.6372 34.0387C78.3121 31.2872 74.4012 31.2872 73.0761 34.0387L69.5885 41.2991C69.0548 42.4034 68.0057 43.1672 66.7911 43.3328L58.8128 44.4095C55.7853 44.8144 54.5799 48.5412 56.7884 50.6485L62.6133 56.2066C63.4967 57.0532 63.9016 58.2863 63.6808 59.4917L62.236 67.4148C61.6931 70.4147 64.8586 72.7152 67.5456 71.2705L74.6313 67.4516C75.7079 66.8718 77.0054 66.8718 78.0821 67.4516Z" fill="#07080E"/>
</g>
<defs>
<clipPath id="clip0_418_21027">
<rect width="152.148" height="170" fill="white" transform="translate(0.27832)"/>
</clipPath>
</defs>
</svg>
