<svg width="153" height="170" viewBox="0 0 153 170" fill="none" xmlns="http://www.w3.org/2000/svg">
<g clip-path="url(#clip0_418_21082)">
<path d="M152.499 118.293V51.6972C152.499 45.1177 148.993 39.0443 143.297 35.7591L85.6271 2.46582C79.931 -0.819336 72.919 -0.819336 67.2229 2.46582L9.5532 35.7591C3.85708 39.0535 0.351074 45.1269 0.351074 51.6972V118.293C0.351074 124.872 3.85708 130.946 9.5532 134.231L67.2229 167.524C72.919 170.809 79.931 170.809 85.6271 167.524L143.297 134.231C148.993 130.946 152.499 124.863 152.499 118.293Z" fill="#07080E" fill-opacity="0.05"/>
<path fill-rule="evenodd" clip-rule="evenodd" d="M93.2282 95.0578C93.2282 96.0792 93.035 96.9442 92.6485 97.662C92.262 98.3797 91.7375 98.9226 91.0749 99.2999C90.4124 99.6772 89.667 99.8613 88.8388 99.8613C88.0106 99.8613 87.256 99.668 86.5935 99.2907C85.9309 98.9134 85.4064 98.3613 85.0199 97.6528C84.6334 96.935 84.4402 96.07 84.4402 95.0486C84.4402 94.0271 84.6334 93.1621 85.0199 92.4444C85.4064 91.7266 85.9309 91.1837 86.5935 90.8064C87.256 90.4291 88.0014 90.2358 88.8388 90.2358C89.6762 90.2358 90.4124 90.4291 91.0749 90.8064C91.7375 91.1837 92.262 91.7266 92.6485 92.4444C93.035 93.1621 93.2282 94.0271 93.2282 95.0486V95.0578ZM91.2221 95.0578C91.2221 94.3952 91.1209 93.8339 90.9277 93.383C90.7344 92.9321 90.4584 92.5824 90.0995 92.3523C89.7406 92.1223 89.3265 92.0027 88.848 92.0027C88.3695 92.0027 87.9554 92.1223 87.5965 92.3523C87.2376 92.5916 86.9616 92.9321 86.7683 93.383C86.5751 93.8339 86.4738 94.3952 86.4738 95.0578C86.4738 95.7203 86.5751 96.2816 86.7683 96.7325C86.9616 97.1834 87.2376 97.5331 87.5965 97.7632C87.9554 98.0024 88.3695 98.1129 88.848 98.1129C89.3265 98.1129 89.7406 97.9932 90.0995 97.7632C90.4584 97.5331 90.7344 97.1834 90.9277 96.7325C91.1209 96.2816 91.2221 95.7203 91.2221 95.0578ZM54.6624 92.2049C54.9384 92.4165 55.0949 92.7018 55.1317 93.0699H55.1409H57.0365C57.0273 92.5085 56.8801 92.0208 56.5856 91.5975C56.2912 91.1742 55.8863 90.843 55.3709 90.6037C54.8556 90.3645 54.2299 90.2448 53.5489 90.2448C52.868 90.2448 52.2514 90.3645 51.7177 90.6037C51.1748 90.843 50.7515 91.1742 50.4478 91.5975C50.1441 92.0208 49.9969 92.5178 49.9969 93.0883C49.9969 93.7784 50.2178 94.3306 50.6779 94.7355C51.1288 95.1404 51.7545 95.444 52.5459 95.6373L53.5673 95.8949C53.9078 95.9777 54.1931 96.0698 54.4323 96.171C54.6716 96.2722 54.8556 96.3918 54.9753 96.5391C55.0949 96.6863 55.1593 96.8611 55.1593 97.0728C55.1593 97.2936 55.0949 97.4961 54.9569 97.6709C54.8188 97.8458 54.6256 97.9746 54.3771 98.0758C54.1287 98.1771 53.8434 98.2231 53.5029 98.2231C53.1624 98.2231 52.8496 98.1679 52.5827 98.0666C52.3158 97.9654 52.095 97.809 51.9386 97.5973C51.7729 97.3857 51.6809 97.128 51.6625 96.8151H49.7485C49.7577 97.4869 49.9233 98.0482 50.2362 98.5083C50.549 98.9684 50.9815 99.3089 51.5429 99.539C52.1042 99.769 52.7575 99.8887 53.5213 99.8887C54.2851 99.8887 54.9384 99.769 55.4814 99.539C56.0243 99.3089 56.4384 98.9868 56.7237 98.5635C57.0089 98.1402 57.1562 97.6433 57.1562 97.0728C57.1562 96.6771 57.0825 96.3366 56.9445 96.033C56.8065 95.7293 56.6132 95.4624 56.3648 95.2416C56.1163 95.0207 55.8219 94.8367 55.4814 94.6802C55.1409 94.5238 54.7636 94.4042 54.3587 94.3122L53.5213 94.1097C53.3097 94.0637 53.1256 94.0085 52.9416 93.9441C52.7575 93.8797 52.6011 93.806 52.4631 93.714C52.325 93.622 52.2146 93.5208 52.141 93.3919C52.0582 93.2631 52.0306 93.1159 52.0306 92.9503C52.0306 92.7478 52.0858 92.5638 52.2054 92.4073C52.3158 92.2509 52.4907 92.1313 52.7115 92.0392C52.9324 91.9472 53.2085 91.9012 53.5305 91.9012C54.009 91.9012 54.3863 92.0024 54.6624 92.2049ZM59.7787 90.3738V99.7415H66.1097V98.1036H61.7571V95.8674H65.7601V94.2387H61.7571V92.0026H66.0913V90.3738H59.7787ZM76.7934 90.3738V99.7415H75.0818L71.0052 93.843H70.9408V99.7415H68.9624V90.3738H70.7016L74.7505 96.2631H74.8333V90.3738H76.7934ZM81.6981 99.7415V90.3738H79.7196V99.7415H81.6981ZM95.9797 90.3738V99.7415H97.9581V96.4288H99.4044L101.179 99.7415H103.369L101.383 96.1069C101.41 96.0949 101.437 96.0826 101.464 96.0699C101.979 95.8306 102.366 95.481 102.633 95.0393C102.9 94.5976 103.038 94.0638 103.038 93.4381C103.038 92.8123 102.909 92.2786 102.642 91.8185C102.375 91.3584 101.998 90.9995 101.492 90.7511C100.995 90.5026 100.388 90.3738 99.6789 90.3738H95.9797ZM97.9581 94.8368H99.3017C99.6789 94.8368 99.9918 94.7816 100.24 94.6804C100.489 94.5792 100.673 94.4227 100.802 94.2111C100.921 93.9994 100.986 93.7418 100.986 93.4381C100.986 93.1344 100.921 92.8676 100.802 92.6467C100.682 92.4259 100.489 92.2694 100.24 92.159C99.9918 92.0486 99.6697 91.9934 99.2924 91.9934H97.9581V94.8368ZM28.1876 110.223H26.1815C26.1447 109.965 26.0711 109.735 25.9607 109.533C25.8503 109.33 25.703 109.155 25.5282 109.017C25.3533 108.879 25.1509 108.76 24.9208 108.686C24.6908 108.612 24.4423 108.576 24.1755 108.576C23.6878 108.576 23.2645 108.695 22.9056 108.935C22.5467 109.174 22.2706 109.524 22.0682 109.974C21.8657 110.435 21.7737 110.987 21.7737 111.631C21.7737 112.275 21.8749 112.864 22.0774 113.315C22.2798 113.766 22.5559 114.115 22.9148 114.345C23.2737 114.575 23.6878 114.695 24.1663 114.695C24.4331 114.695 24.6816 114.658 24.9024 114.594C25.1325 114.52 25.3349 114.419 25.5098 114.281C25.6846 114.143 25.8319 113.977 25.9515 113.784C26.0711 113.591 26.1539 113.361 26.1999 113.112H28.206C28.1508 113.554 28.022 113.968 27.8195 114.364C27.6171 114.76 27.341 115.118 26.9913 115.431C26.6416 115.744 26.2367 115.993 25.7582 116.177C25.2797 116.361 24.746 116.443 24.1387 116.443C23.3013 116.443 22.5559 116.25 21.9025 115.873C21.2492 115.496 20.7247 114.944 20.3474 114.235C19.9701 113.517 19.7769 112.652 19.7769 111.631C19.7769 110.609 19.9701 109.744 20.3566 109.027C20.7431 108.309 21.2584 107.766 21.9209 107.389C22.5835 107.011 23.3197 106.818 24.1479 106.818C24.6908 106.818 25.1969 106.892 25.657 107.048C26.1171 107.205 26.5312 107.425 26.8993 107.711C27.2582 108.005 27.5526 108.355 27.7827 108.778C28.0128 109.201 28.1508 109.68 28.2152 110.223H28.1876ZM30.9025 106.938V116.305H37.2336V114.667H32.881V112.431H36.8839V110.802H32.881V108.566H37.2152V106.938H30.9025ZM40.0862 116.305V106.938H43.7855C44.494 106.938 45.1014 107.066 45.5983 107.315C46.1044 107.563 46.4817 107.922 46.7486 108.382C47.0154 108.842 47.1443 109.376 47.1443 110.002C47.1443 110.628 47.0062 111.161 46.7394 111.603C46.4725 112.045 46.086 112.394 45.5707 112.634C45.5439 112.646 45.5168 112.659 45.4894 112.671L47.4755 116.305H45.2854L43.511 112.993H42.0647V116.305H40.0862ZM43.4082 111.401H42.0647V108.557H43.399C43.7763 108.557 44.0984 108.612 44.3468 108.723C44.5953 108.833 44.7885 108.99 44.9081 109.211C45.0278 109.431 45.0922 109.698 45.0922 110.002C45.0922 110.306 45.0278 110.563 44.9081 110.775C44.7793 110.987 44.5953 111.143 44.3468 111.244C44.0984 111.345 43.7855 111.401 43.4082 111.401ZM49.4723 106.947V108.576H52.3342V116.315H54.2942V108.576H57.1653V106.947H49.4723ZM61.7019 106.938V116.305H59.7234V106.938H61.7019ZM64.6282 106.938V116.305H66.6067V112.431H70.4163V110.802H66.6067V108.566H70.8304V106.938H64.6282ZM75.4314 106.938V116.305H73.4529V106.938H75.4314ZM84.615 110.223H86.6211H86.6487C86.5843 109.68 86.4462 109.201 86.2162 108.778C85.9861 108.355 85.6916 108.005 85.3328 107.711C84.9647 107.425 84.5506 107.205 84.0905 107.048C83.6304 106.892 83.1243 106.818 82.5813 106.818C81.7531 106.818 81.017 107.011 80.3544 107.389C79.6919 107.766 79.1765 108.309 78.7901 109.027C78.4036 109.744 78.2103 110.609 78.2103 111.631C78.2103 112.652 78.4036 113.517 78.7809 114.235C79.1581 114.944 79.6827 115.496 80.336 115.873C80.9894 116.25 81.7347 116.443 82.5721 116.443C83.1795 116.443 83.7132 116.361 84.1917 116.177C84.6702 115.993 85.0751 115.744 85.4248 115.431C85.7745 115.118 86.0505 114.76 86.253 114.364C86.4554 113.968 86.5842 113.554 86.6395 113.112H84.6334C84.5874 113.361 84.5046 113.591 84.3849 113.784C84.2653 113.977 84.1181 114.143 83.9432 114.281C83.7684 114.419 83.566 114.52 83.3359 114.594C83.1151 114.658 82.8666 114.695 82.5997 114.695C82.1212 114.695 81.7071 114.575 81.3482 114.345C80.9894 114.115 80.7133 113.766 80.5108 113.315C80.3084 112.864 80.2072 112.275 80.2072 111.631C80.2072 110.987 80.2992 110.435 80.5016 109.974C80.7041 109.524 80.9802 109.174 81.339 108.935C81.6979 108.695 82.1212 108.576 82.6089 108.576C82.8758 108.576 83.1242 108.612 83.3543 108.686C83.5844 108.76 83.7868 108.879 83.9616 109.017C84.1365 109.155 84.2837 109.33 84.3941 109.533C84.5046 109.735 84.5782 109.965 84.615 110.223ZM90.7623 116.305H88.6458L91.885 106.938H94.434L97.6639 116.305H95.5382L94.8456 114.17H91.4577L90.7623 116.305ZM93.1917 109.072L94.3441 112.625H91.9612L93.1181 109.072H93.1917ZM98.5658 106.947V108.576H101.428V116.315H103.388V108.576H106.259V106.947H98.5658ZM110.804 106.938V116.305H108.826V106.938H110.804ZM121.755 114.226C122.141 113.508 122.334 112.643 122.334 111.622V111.612C122.334 110.591 122.141 109.726 121.755 109.008C121.368 108.29 120.844 107.747 120.181 107.37C119.519 106.993 118.782 106.8 117.945 106.8C117.108 106.8 116.362 106.993 115.7 107.37C115.037 107.747 114.513 108.29 114.126 109.008C113.74 109.726 113.546 110.591 113.546 111.612C113.546 112.634 113.74 113.499 114.126 114.217C114.513 114.925 115.037 115.477 115.7 115.855C116.362 116.232 117.117 116.425 117.945 116.425C118.773 116.425 119.519 116.241 120.181 115.864C120.844 115.486 121.368 114.944 121.755 114.226ZM120.034 109.947C120.227 110.398 120.328 110.959 120.328 111.622C120.328 112.284 120.227 112.845 120.034 113.296C119.841 113.747 119.565 114.097 119.206 114.327C118.847 114.557 118.433 114.677 117.954 114.677C117.476 114.677 117.062 114.566 116.703 114.327C116.344 114.097 116.068 113.747 115.875 113.296C115.681 112.845 115.58 112.284 115.58 111.622C115.58 110.959 115.681 110.398 115.875 109.947C116.068 109.496 116.344 109.155 116.703 108.916C117.062 108.686 117.476 108.566 117.954 108.566C118.433 108.566 118.847 108.686 119.206 108.916C119.565 109.146 119.841 109.496 120.034 109.947ZM132.926 106.938V116.305H131.215L127.138 110.407H127.074V116.305H125.095V106.938H126.835L130.883 112.827H130.966V106.938H132.926ZM36.0738 132.869H38.1903L38.8856 130.734H42.2736L42.9662 132.869H45.0919L41.8619 123.501H39.3129L36.0738 132.869ZM41.772 129.188L40.6196 125.636H40.546L39.3891 129.188H41.772ZM48.0369 123.501L50.3006 130.615H50.3834L52.6563 123.501H54.8556L51.6257 132.869H49.0767L45.8375 123.501H48.0369ZM55.5088 132.869H57.6253L58.3206 130.734H61.7085L62.4012 132.869H64.5268L61.2969 123.501H58.7479L55.5088 132.869ZM61.207 129.188L60.0546 125.636H59.981L58.8241 129.188H61.207ZM68.9256 123.501V132.869H66.9472V123.501H68.9256ZM71.852 123.501V132.869V132.878H77.8517V131.24H73.8304V123.501H71.852ZM82.2872 132.869H80.1707L83.4099 123.501H85.9588L89.1888 132.869H87.0631L86.3705 130.734H82.9825L82.2872 132.869ZM84.7166 125.636L85.8689 129.188H83.4861L84.6429 125.636H84.7166ZM91.6087 123.501V132.869H91.6179H95.6208C96.3202 132.869 96.9091 132.759 97.3876 132.529C97.8661 132.308 98.225 131.995 98.4735 131.608C98.7219 131.222 98.8415 130.78 98.8415 130.283C98.8415 129.823 98.7403 129.437 98.5471 129.096C98.3538 128.756 98.0962 128.498 97.7833 128.314C97.4704 128.121 97.1392 128.029 96.7803 128.01V127.918C97.1115 127.845 97.3968 127.725 97.6545 127.55C97.9029 127.366 98.1054 127.145 98.2526 126.869C98.3998 126.593 98.4735 126.271 98.4735 125.903C98.4735 125.434 98.3538 125.011 98.1238 124.652C97.8937 124.293 97.544 124.008 97.0839 123.805C96.6238 123.603 96.0533 123.501 95.3631 123.501H91.6087ZM95.0595 127.422H93.5871V127.412V125.093H95.0963C95.538 125.093 95.8785 125.195 96.1177 125.406C96.357 125.618 96.4766 125.885 96.4766 126.225C96.4766 126.474 96.4122 126.685 96.2926 126.86C96.1637 127.044 95.9981 127.173 95.7864 127.274C95.5748 127.376 95.3355 127.422 95.0595 127.422ZM95.1975 131.25H93.5871V128.756H95.2435C95.5564 128.756 95.8325 128.811 96.0625 128.921C96.2926 129.041 96.4674 129.188 96.5962 129.391C96.7159 129.593 96.7803 129.823 96.7803 130.081C96.7803 130.431 96.6606 130.716 96.403 130.928C96.1545 131.139 95.7496 131.25 95.1975 131.25ZM101.409 132.869V123.501H103.387V131.24H107.409V132.878H101.409V132.869ZM110.004 123.501V132.869H116.335V131.231H111.982V128.995H115.985V127.366H111.982V125.13H116.317V123.501H110.004Z" fill="#07080E"/>
<path d="M94.9487 55.452C94.2678 56.1054 94.0009 57.0808 94.2678 57.9918L94.9947 60.458C95.3996 61.8383 94.5714 63.283 93.1727 63.6235L90.6697 64.2308C89.7495 64.4517 89.0318 65.1695 88.8109 66.0897L88.2036 68.5926C87.8631 69.9914 86.4184 70.8196 85.038 70.4147L82.5719 69.6877C81.6701 69.4208 80.6854 69.6877 80.0321 70.3687L78.2561 72.2275C77.2623 73.2673 75.5967 73.2673 74.6028 72.2275L72.8268 70.3687C72.1735 69.6877 71.1981 69.4208 70.287 69.6877L67.8209 70.4147C66.4406 70.8196 64.9958 69.9914 64.6553 68.5926L64.048 66.0897C63.8272 65.1695 63.1094 64.4517 62.1892 64.2308L59.6862 63.6235C58.2875 63.283 57.4593 61.8383 57.8642 60.458L58.5912 57.9918C58.858 57.09 58.5912 56.1054 57.9102 55.452L56.0514 53.676C55.0115 52.6822 55.0115 51.0166 56.0514 50.0228L57.9102 48.2468C58.5912 47.5934 58.858 46.618 58.5912 45.707L57.8642 43.2408C57.4593 41.8605 58.2875 40.4157 59.6862 40.0753L62.1892 39.4679C63.1094 39.2471 63.8272 38.5293 64.048 37.6091L64.6553 35.1061C64.9958 33.7074 66.4406 32.8792 67.8209 33.2841L70.287 34.0111C71.1889 34.2779 72.1735 34.0111 72.8268 33.3301L74.6028 31.4713C75.5967 30.4314 77.2623 30.4314 78.2561 31.4713L80.0321 33.3301C80.6854 34.0111 81.6609 34.2779 82.5719 34.0111L85.038 33.2841C86.4184 32.8792 87.8631 33.7074 88.2036 35.1061L88.8109 37.6091C89.0318 38.5293 89.7495 39.2471 90.6697 39.4679L93.1727 40.0753C94.5714 40.4157 95.3996 41.8605 94.9947 43.2408L94.2678 45.707C94.0009 46.6088 94.2678 47.5934 94.9487 48.2468L96.8076 50.0228C97.8474 51.0166 97.8474 52.6822 96.8076 53.676L94.9487 55.452Z" fill="#07080E"/>
</g>
<defs>
<clipPath id="clip0_418_21082">
<rect width="152.148" height="170" fill="white" transform="translate(0.351074)"/>
</clipPath>
</defs>
</svg>
