<svg width="153" height="170" viewBox="0 0 153 170" fill="none" xmlns="http://www.w3.org/2000/svg">
<g clip-path="url(#clip0_2093_7958)">
<g clip-path="url(#clip1_2093_7958)">
<path d="M152.32 118.989V52.0013C152.32 45.383 148.795 39.2739 143.067 35.9694L85.074 2.48031C79.346 -0.824167 72.2947 -0.824167 66.5667 2.48031L8.57397 35.9694C2.84596 39.2832 -0.679688 45.3923 -0.679688 52.0013V118.989C-0.679688 125.607 2.84596 131.716 8.57397 135.021L66.5667 168.51C72.2947 171.814 79.346 171.814 85.074 168.51L143.067 135.021C148.795 131.716 152.32 125.598 152.32 118.989Z" fill="#E1E1E1" fill-opacity="0.06"/>
<path d="M30.3104 91.313C29.8107 91.0446 29.2 90.9058 28.4874 90.9058H24.7675V100.329H26.757V97.2741H28.4319C29.1537 97.2741 29.7737 97.1445 30.2827 96.8761C30.7916 96.6076 31.1803 96.2374 31.4579 95.756C31.7262 95.2747 31.865 94.7286 31.865 94.0992C31.865 93.4698 31.7355 92.9236 31.4671 92.4423C31.1988 91.961 30.8194 91.5907 30.3104 91.313ZM29.6164 94.923C29.4961 95.1636 29.3018 95.3488 29.0519 95.4784C28.8021 95.6079 28.4874 95.682 28.0988 95.682H26.7478V92.5349H28.0895C28.4782 92.5349 28.7928 92.5997 29.0427 92.7293C29.2925 92.8588 29.4776 93.044 29.6071 93.2754C29.7274 93.5068 29.7922 93.7845 29.7922 94.0992C29.7922 94.4139 29.7274 94.6823 29.6071 94.923H29.6164Z" fill="#E6E9FA" fill-opacity="0.5"/>
<path d="M36.4456 96.9871H37.8984L39.6844 100.329H41.8867L39.8787 96.6539C39.8787 96.6539 39.9435 96.6354 39.9712 96.6261C40.4802 96.3855 40.8688 96.043 41.1465 95.5894C41.4148 95.1359 41.5536 94.599 41.5536 93.9788C41.5536 93.3587 41.4241 92.8126 41.1557 92.3497C40.8873 91.8869 40.5079 91.5352 39.999 91.276C39.4993 91.0261 38.8886 90.8965 38.176 90.8965H34.4561V100.319H36.4456V96.9779V96.9871ZM37.7874 92.5349C38.1668 92.5349 38.4906 92.5904 38.7405 92.7015C38.9903 92.8126 39.1847 92.9792 39.305 93.1921C39.4253 93.405 39.49 93.6734 39.49 93.9881C39.49 94.3028 39.4253 94.5527 39.305 94.7656C39.1847 94.9785 38.9903 95.1266 38.7405 95.2377C38.4906 95.3395 38.176 95.3951 37.7966 95.3951H36.4456V92.5441H37.7874V92.5349Z" fill="#E6E9FA" fill-opacity="0.5"/>
<path d="M50.6129 98.6903H46.2452V96.441H50.2706V94.7934H46.2452V92.5534H50.5944V90.9058H44.2464V100.329H50.6129V98.6903Z" fill="#E6E9FA" fill-opacity="0.5"/>
<path d="M60.172 95.756C60.4403 95.2747 60.5791 94.7286 60.5791 94.0992C60.5791 93.4698 60.4496 92.9236 60.1812 92.4423C59.9129 91.961 59.5335 91.5907 59.0245 91.313C58.5248 91.0446 57.9141 90.9058 57.2015 90.9058H53.4816V100.329H55.4711V97.2741H57.146C57.8678 97.2741 58.4878 97.1445 58.9968 96.8761C59.5057 96.6076 59.8944 96.2374 60.172 95.756ZM58.3397 94.923C58.2194 95.1636 58.0251 95.3488 57.7753 95.4784C57.5254 95.6079 57.2108 95.682 56.8221 95.682H55.4711V92.5349H56.8129C57.2015 92.5349 57.5162 92.5997 57.766 92.7293C58.0159 92.8588 58.2009 93.044 58.3305 93.2754C58.4508 93.5068 58.5156 93.7845 58.5156 94.0992C58.5156 94.4139 58.4508 94.6823 58.3305 94.923H58.3397Z" fill="#E6E9FA" fill-opacity="0.5"/>
<path d="M70.6379 100.329L67.3898 90.9058H64.8266L61.5693 100.329H63.7069L64.4101 98.1812H67.8155L68.5095 100.329H70.6471H70.6379ZM64.9098 96.6261L66.0666 93.0625H66.1406L67.2973 96.6261H64.9098Z" fill="#E6E9FA" fill-opacity="0.5"/>
<path d="M75.0519 96.9871H76.5047L78.2906 100.329H80.493L78.485 96.6539C78.485 96.6539 78.5497 96.6354 78.5775 96.6261C79.0865 96.3855 79.4751 96.043 79.7527 95.5894C80.0211 95.1359 80.1599 94.599 80.1599 93.9788C80.1599 93.3587 80.0303 92.8126 79.762 92.3497C79.4936 91.8869 79.1142 91.5352 78.6053 91.276C78.1056 91.0261 77.4948 90.8965 76.7823 90.8965H73.0623V100.319H75.0519V96.9779V96.9871ZM76.3936 92.5349C76.773 92.5349 77.0969 92.5904 77.3468 92.7015C77.5966 92.8126 77.7909 92.9792 77.9112 93.1921C78.0315 93.405 78.0963 93.6734 78.0963 93.9881C78.0963 94.3028 78.0315 94.5527 77.9112 94.7656C77.7909 94.9785 77.5966 95.1266 77.3468 95.2377C77.0969 95.3395 76.7823 95.3951 76.4029 95.3951H75.0519V92.5441H76.3936V92.5349Z" fill="#E6E9FA" fill-opacity="0.5"/>
<path d="M85.1846 98.1812H88.59L89.284 100.329H91.4216L88.1735 90.9058H85.6103L82.353 100.329H84.4906L85.1939 98.1812H85.1846ZM86.9243 93.0625L88.081 96.6261H85.6936L86.8503 93.0625H86.9243Z" fill="#E6E9FA" fill-opacity="0.5"/>
<path d="M95.2063 100.329H97.1774V92.5534H100.064V90.9058H92.3284V92.5534H95.2063V100.329Z" fill="#E6E9FA" fill-opacity="0.5"/>
<path d="M104.627 90.9058H102.637V100.329H104.627V90.9058Z" fill="#E6E9FA" fill-opacity="0.5"/>
<path d="M109.559 99.8936C110.225 100.273 110.975 100.467 111.817 100.467C112.659 100.467 113.399 100.273 114.065 99.9028C114.732 99.5326 115.259 98.9772 115.648 98.2552C116.036 97.5332 116.231 96.6632 116.231 95.6357C116.231 94.6083 116.036 93.7382 115.648 93.0162C115.259 92.2942 114.732 91.7481 114.065 91.3686C113.399 90.9891 112.649 90.8039 111.817 90.8039C110.984 90.8039 110.225 90.9983 109.559 91.3686C108.892 91.7388 108.365 92.2942 107.976 93.0162C107.588 93.7382 107.393 94.6083 107.393 95.6357C107.393 96.6632 107.588 97.5332 107.976 98.2552C108.365 98.9772 108.892 99.5233 109.559 99.9028V99.8936ZM109.716 93.9326C109.91 93.479 110.188 93.1273 110.549 92.8959C110.91 92.6645 111.326 92.5441 111.807 92.5441C112.289 92.5441 112.705 92.6645 113.066 92.8959C113.427 93.1273 113.704 93.479 113.899 93.9326C114.093 94.3861 114.195 94.9508 114.195 95.6172C114.195 96.2837 114.093 96.8483 113.899 97.3018C113.704 97.7554 113.427 98.1071 113.066 98.3385C112.705 98.5699 112.289 98.6903 111.807 98.6903C111.326 98.6903 110.91 98.5699 110.549 98.3385C110.188 98.0979 109.91 97.7554 109.716 97.3018C109.522 96.8483 109.42 96.2837 109.42 95.6172C109.42 94.9508 109.522 94.3861 109.716 93.9326Z" fill="#E6E9FA" fill-opacity="0.5"/>
<path d="M126.872 100.329V90.9058H124.892V96.839H124.809L120.737 90.9058H118.988V100.329H120.987V94.4046H121.052L125.151 100.329H126.872Z" fill="#E6E9FA" fill-opacity="0.5"/>
<path d="M24.9248 107.567L21.6675 116.99H23.8051L24.5084 114.842H27.9137L28.6077 116.99H30.7453L27.4973 107.567H24.9248ZM25.0173 113.287L26.174 109.724H26.2481L27.4048 113.287H25.0173Z" fill="#E6E9FA" fill-opacity="0.5"/>
<path d="M41.0539 116.99V107.567H39.0736V113.5H38.9903L34.9187 107.567H33.1698V116.99H35.1593V111.066H35.2334L39.3327 116.99H41.0539Z" fill="#E6E9FA" fill-opacity="0.5"/>
<path d="M51.381 114.805C51.7511 114.102 51.9362 113.26 51.9362 112.278C51.9362 111.297 51.7511 110.455 51.381 109.761C51.0108 109.067 50.4834 108.52 49.7986 108.141C49.1138 107.761 48.2995 107.576 47.3464 107.576H43.9781V116.999H47.3186C48.2718 116.999 49.0953 116.814 49.7894 116.435C50.4741 116.055 51.0108 115.518 51.381 114.815V114.805ZM48.7344 114.972C48.3273 115.185 47.8368 115.287 47.2446 115.287H45.9769V109.279H47.2446C47.8368 109.279 48.3273 109.381 48.7344 109.594C49.1416 109.807 49.4377 110.131 49.6413 110.566C49.8449 111.01 49.9467 111.575 49.9467 112.269C49.9467 112.963 49.8449 113.547 49.6413 113.991C49.4377 114.435 49.1324 114.759 48.7344 114.972Z" fill="#E6E9FA" fill-opacity="0.5"/>
<path d="M63.5033 116.99V109.215H66.3904V107.567H58.6451V109.215H61.5323V116.99H63.5033Z" fill="#E6E9FA" fill-opacity="0.5"/>
<path d="M68.963 116.99H70.9525V113.648H72.4053L74.1913 116.99H76.3936L74.3856 113.315C74.3856 113.315 74.4504 113.297 74.4781 113.287C74.9871 113.047 75.3757 112.704 75.6533 112.251C75.9217 111.797 76.0605 111.26 76.0605 110.64C76.0605 110.02 75.931 109.474 75.6626 109.011C75.3942 108.548 75.0148 108.196 74.5059 107.937C74.0062 107.687 73.3955 107.558 72.6829 107.558H68.963V116.99ZM72.2943 109.196C72.6737 109.196 72.9975 109.252 73.2474 109.363C73.4972 109.474 73.6916 109.64 73.8119 109.853C73.9322 110.066 73.9969 110.335 73.9969 110.649C73.9969 110.964 73.9322 111.214 73.8119 111.427C73.6916 111.64 73.4972 111.788 73.2474 111.899C72.9975 112.001 72.6829 112.056 72.3035 112.056H70.9525V109.205H72.2943V109.196Z" fill="#E6E9FA" fill-opacity="0.5"/>
<path d="M81.0852 114.842H84.4906L85.1846 116.99H87.3222L84.0742 107.567H81.5109L78.2536 116.99H80.3912L81.0945 114.842H81.0852ZM82.8157 109.724L83.9724 113.287H81.5849L82.7416 109.724H82.8157Z" fill="#E6E9FA" fill-opacity="0.5"/>
<path d="M91.727 107.567H89.7374V116.99H91.727V107.567Z" fill="#E6E9FA" fill-opacity="0.5"/>
<path d="M100.573 113.5H100.49L96.4186 107.567H94.6696V116.99H96.6684V111.066H96.7332L100.833 116.99H102.554V107.567H100.573V113.5Z" fill="#E6E9FA" fill-opacity="0.5"/>
<path d="M107.477 107.567H105.487V116.99H107.477V107.567Z" fill="#E6E9FA" fill-opacity="0.5"/>
<path d="M116.314 113.5H116.231L112.168 107.567H110.419V116.99H112.409V111.066H112.483L116.582 116.99H118.303V107.567H116.314V113.5Z" fill="#E6E9FA" fill-opacity="0.5"/>
<path d="M125.651 111.954V113.454H127.668C127.668 113.824 127.585 114.157 127.418 114.435C127.252 114.731 127.002 114.954 126.678 115.12C126.354 115.277 125.975 115.361 125.521 115.361C125.022 115.361 124.596 115.24 124.226 115C123.865 114.759 123.578 114.407 123.374 113.945C123.171 113.482 123.078 112.926 123.078 112.269C123.078 111.612 123.18 111.057 123.384 110.603C123.587 110.15 123.865 109.798 124.235 109.557C124.596 109.316 125.022 109.196 125.503 109.196C125.762 109.196 125.993 109.233 126.206 109.289C126.419 109.344 126.613 109.446 126.78 109.566C126.946 109.687 127.085 109.835 127.205 110.011C127.326 110.187 127.409 110.381 127.474 110.603H129.5C129.436 110.14 129.288 109.714 129.065 109.326C128.834 108.937 128.547 108.604 128.186 108.317C127.825 108.039 127.418 107.817 126.965 107.66C126.502 107.502 126.012 107.428 125.475 107.428C124.855 107.428 124.272 107.539 123.745 107.752C123.208 107.974 122.745 108.289 122.338 108.706C121.94 109.122 121.626 109.631 121.403 110.233C121.181 110.834 121.07 111.51 121.07 112.278C121.07 113.269 121.255 114.13 121.626 114.852C121.996 115.574 122.523 116.129 123.189 116.518C123.856 116.907 124.633 117.101 125.521 117.101C126.308 117.101 127.011 116.944 127.631 116.62C128.242 116.296 128.723 115.842 129.075 115.25C129.426 114.657 129.602 113.945 129.602 113.121V111.936H125.66L125.651 111.954Z" fill="#E6E9FA" fill-opacity="0.5"/>
<path d="M44.3482 124.636C43.8485 124.367 43.2378 124.228 42.5252 124.228H38.8053V133.651H40.7948V130.597H42.4697C43.1915 130.597 43.8115 130.467 44.3205 130.199C44.8294 129.93 45.2181 129.56 45.4957 129.079C45.764 128.597 45.9028 128.051 45.9028 127.422C45.9028 126.792 45.7733 126.246 45.5049 125.765C45.2366 125.283 44.8572 124.913 44.3482 124.636ZM43.6634 128.245C43.5431 128.486 43.3488 128.671 43.099 128.801C42.8491 128.93 42.5345 129.005 42.1458 129.005H40.7948V125.857H42.1366C42.5252 125.857 42.8399 125.922 43.0897 126.052C43.3396 126.181 43.5246 126.366 43.6542 126.598C43.7745 126.829 43.8393 127.107 43.8393 127.422C43.8393 127.736 43.7745 128.005 43.6542 128.245H43.6634Z" fill="#E6E9FA" fill-opacity="0.5"/>
<path d="M54.009 129.958C54.518 129.717 54.9066 129.375 55.1842 128.921C55.4526 128.468 55.5914 127.931 55.5914 127.311C55.5914 126.69 55.4619 126.144 55.1935 125.682C54.9251 125.219 54.5457 124.867 54.0368 124.608C53.5371 124.358 52.9264 124.228 52.2138 124.228H48.4939V133.651H50.4834V130.31H51.9362L53.7222 133.651H55.9245L53.9165 129.976C53.9165 129.976 53.9813 129.958 54.009 129.949V129.958ZM50.4834 125.857H51.8252C52.2046 125.857 52.5285 125.913 52.7783 126.024C53.0282 126.135 53.2225 126.302 53.3428 126.515C53.4631 126.727 53.5278 126.996 53.5278 127.311C53.5278 127.625 53.4631 127.875 53.3428 128.088C53.2225 128.301 53.0282 128.449 52.7783 128.56C52.5285 128.662 52.2138 128.718 51.8344 128.718H50.4834V125.857Z" fill="#E6E9FA" fill-opacity="0.5"/>
<path d="M64.7895 124.673C64.1233 124.293 63.3737 124.108 62.5409 124.108C61.7081 124.108 60.9493 124.302 60.283 124.673C59.6167 125.043 59.0893 125.598 58.7006 126.32C58.312 127.042 58.1177 127.912 58.1177 128.94C58.1177 129.967 58.312 130.837 58.7006 131.559C59.0893 132.281 59.6167 132.827 60.283 133.207C60.9493 133.586 61.6988 133.781 62.5409 133.781C63.383 133.781 64.1233 133.586 64.7895 133.216C65.4558 132.846 65.9833 132.29 66.3719 131.568C66.7606 130.846 66.9549 129.976 66.9549 128.949C66.9549 127.922 66.7606 127.051 66.3719 126.329C65.9833 125.607 65.4558 125.061 64.7895 124.682V124.673ZM64.6322 130.624C64.4379 131.078 64.1603 131.43 63.7994 131.661C63.4385 131.892 63.0221 132.013 62.5409 132.013C62.0597 132.013 61.6433 131.892 61.2824 131.661C60.9215 131.42 60.6439 131.078 60.4496 130.624C60.2553 130.171 60.1535 129.606 60.1535 128.94C60.1535 128.273 60.2553 127.709 60.4496 127.255C60.6439 126.802 60.9215 126.45 61.2824 126.218C61.6433 125.987 62.0597 125.867 62.5409 125.867C63.0221 125.867 63.4385 125.987 63.7994 126.218C64.1603 126.45 64.4379 126.802 64.6322 127.255C64.8266 127.709 64.9284 128.273 64.9284 128.94C64.9284 129.606 64.8266 130.171 64.6322 130.624Z" fill="#E6E9FA" fill-opacity="0.5"/>
<path d="M73.2566 131.393H73.1641L70.8877 124.228H68.6761L71.9334 133.651H74.4966L77.7447 124.228H75.533L73.2566 131.393Z" fill="#E6E9FA" fill-opacity="0.5"/>
<path d="M82.1587 124.228H80.1691V133.651H82.1587V124.228Z" fill="#E6E9FA" fill-opacity="0.5"/>
<path d="M90.9126 124.793C90.2279 124.413 89.4135 124.228 88.4604 124.228H85.0921V133.651H88.4326C89.3858 133.651 90.2093 133.466 90.9034 133.087C91.5881 132.707 92.1249 132.17 92.495 131.467C92.8652 130.763 93.0502 129.921 93.0502 128.94C93.0502 127.959 92.8652 127.116 92.495 126.422C92.1249 125.728 91.5974 125.182 90.9126 124.802V124.793ZM90.7553 130.652C90.5517 131.096 90.2464 131.42 89.8485 131.633C89.4413 131.846 88.9509 131.948 88.3586 131.948H87.0909V125.941H88.3586C88.9509 125.941 89.4413 126.043 89.8485 126.255C90.2556 126.468 90.5517 126.792 90.7553 127.227C90.9589 127.672 91.0607 128.236 91.0607 128.93C91.0607 129.625 90.9589 130.208 90.7553 130.652Z" fill="#E6E9FA" fill-opacity="0.5"/>
<path d="M97.8159 129.764H101.841V128.116H97.8159V125.876H102.165V124.228H95.8171V133.651H102.184V132.013H97.8159V129.764Z" fill="#E6E9FA" fill-opacity="0.5"/>
<path d="M110.864 124.793C110.179 124.413 109.364 124.228 108.411 124.228H105.043V133.651H108.384C109.337 133.651 110.16 133.466 110.854 133.087C111.539 132.707 112.076 132.17 112.446 131.467C112.816 130.763 113.001 129.921 113.001 128.94C113.001 127.959 112.816 127.116 112.446 126.422C112.076 125.728 111.548 125.182 110.864 124.802V124.793ZM110.706 130.652C110.503 131.096 110.197 131.42 109.799 131.633C109.392 131.846 108.902 131.948 108.31 131.948H107.042V125.941H108.31C108.902 125.941 109.392 126.043 109.799 126.255C110.207 126.468 110.503 126.792 110.706 127.227C110.91 127.672 111.012 128.236 111.012 128.93C111.012 129.625 110.91 130.208 110.706 130.652Z" fill="#E6E9FA" fill-opacity="0.5"/>
<path d="M79.725 61.9244H66.048V58.0183H79.725V61.9244ZM85.5918 54.1122H66.0573V50.206H85.5918V54.1122ZM85.5918 46.2906H66.0573V42.3845H85.5918V46.2906ZM89.4968 34.563H62.143C59.9776 34.563 58.238 36.3031 58.238 38.4691V65.8306C58.238 66.8673 58.6451 67.8577 59.3854 68.5982C60.1165 69.3294 61.1158 69.746 62.1523 69.746H89.5061C90.5425 69.746 91.5326 69.3387 92.2729 68.5982C93.0132 67.8577 93.4204 66.8673 93.4204 65.8306V38.4691C93.4204 37.4324 93.0132 36.442 92.2729 35.7015C91.5419 34.9702 90.5425 34.5537 89.5061 34.5537L89.4968 34.563Z" fill="#E6E9FA" fill-opacity="0.5"/>
<path d="M37.3154 43.3379L36.6307 46.6794C36.5844 46.9108 36.3993 47.0959 36.168 47.1422L32.8274 47.8272C32.1889 47.9568 32.1889 48.8639 32.8274 49.0027L36.168 49.6877C36.3993 49.734 36.5844 49.9191 36.6307 50.1505L37.3154 53.492C37.445 54.1307 38.3518 54.1307 38.4906 53.492L39.1754 50.1505C39.2217 49.9191 39.4068 49.734 39.6381 49.6877L42.9787 49.0027C43.6172 48.8731 43.6172 47.966 42.9787 47.8272L39.6381 47.1422C39.4068 47.0959 39.2217 46.9108 39.1754 46.6794L38.4906 43.3379C38.3611 42.6992 37.4542 42.6992 37.3154 43.3379Z" fill="#E6E9FA" fill-opacity="0.5"/>
<path d="M22.2042 60.9618L21.5194 64.3033C21.4732 64.5347 21.2881 64.7198 21.0568 64.7661L17.7162 65.4511C17.0777 65.5807 17.0777 66.4878 17.7162 66.6266L21.0568 67.3116C21.2881 67.3579 21.4732 67.543 21.5194 67.7744L22.2042 71.1159C22.3338 71.7546 23.2406 71.7546 23.3794 71.1159L24.0642 67.7744C24.1105 67.543 24.2955 67.3579 24.5269 67.3116L27.8674 66.6266C28.506 66.497 28.506 65.5899 27.8674 65.4511L24.5269 64.7661C24.2955 64.7198 24.1105 64.5347 24.0642 64.3033L23.3794 60.9618C23.2499 60.3231 22.343 60.3231 22.2042 60.9618Z" fill="#E6E9FA" fill-opacity="0.5"/>
<path d="M114.324 43.3379L115.009 46.6794C115.055 46.9108 115.24 47.0959 115.472 47.1422L118.812 47.8272C119.451 47.9568 119.451 48.8639 118.812 49.0027L115.472 49.6877C115.24 49.734 115.055 49.9191 115.009 50.1505L114.324 53.492C114.195 54.1307 113.288 54.1307 113.149 53.492L112.464 50.1505C112.418 49.9191 112.233 49.734 112.002 49.6877L108.661 49.0027C108.023 48.8731 108.023 47.966 108.661 47.8272L112.002 47.1422C112.233 47.0959 112.418 46.9108 112.464 46.6794L113.149 43.3379C113.279 42.6992 114.186 42.6992 114.324 43.3379Z" fill="#E6E9FA" fill-opacity="0.5"/>
<path d="M129.445 60.9618L130.13 64.3033C130.176 64.5347 130.361 64.7198 130.592 64.7661L133.933 65.4511C134.571 65.5807 134.571 66.4878 133.933 66.6266L130.592 67.3116C130.361 67.3579 130.176 67.543 130.13 67.7744L129.445 71.1159C129.315 71.7546 128.408 71.7546 128.27 71.1159L127.585 67.7744C127.539 67.543 127.354 67.3579 127.122 67.3116L123.782 66.6266C123.143 66.497 123.143 65.5899 123.782 65.4511L127.122 64.7661C127.354 64.7198 127.539 64.5347 127.585 64.3033L128.27 60.9618C128.399 60.3231 129.306 60.3231 129.445 60.9618Z" fill="#E6E9FA" fill-opacity="0.5"/>
</g>
</g>
<defs>
<clipPath id="clip0_2093_7958">
<rect width="152.148" height="170" fill="white"/>
</clipPath>
<clipPath id="clip1_2093_7958">
<rect width="153" height="171" fill="white" transform="translate(-0.679688)"/>
</clipPath>
</defs>
</svg>
