<?xml version="1.0" encoding="utf-8"?>
<!-- Generator: Adobe Illustrator 28.3.0, SVG Export Plug-In . SVG Version: 6.00 Build 0)  -->
<svg version="1.1" id="Layer_1" xmlns="http://www.w3.org/2000/svg" xmlns:xlink="http://www.w3.org/1999/xlink" x="0px" y="0px" viewBox="0 0 171 190" style="enable-background:new 0 0 171 190;" xml:space="preserve">
<style type="text/css">
	.st0{fill:none;}
	.st1{fill:#07080E;}
	.st2{fill:url(#SVGID_1_);}
	.st3{fill:url(#SVGID_00000049221437012493987480000006831031611922322095_);}
	.st4{fill:url(#SVGID_00000147927551622764617130000004854230587005589125_);}
	.st5{fill:url(#SVGID_00000040566675368594886400000003169929796511036830_);}
	.st6{fill:url(#SVGID_00000017518687288754841130000016485508757787082142_);}
	
		.st7{fill:url(#SVGID_00000138531313572269763640000008819755671805706894_);fill-opacity:0.2;stroke:url(#SVGID_00000077311401120663492590000005082345208935425951_);}
</style>
<rect class="st0" width="170" height="190"/>
<path class="st1" d="M34.4,101.4c-0.6-0.3-1.2-0.5-2-0.5h-4.1v10.5h2.2v-3.4h1.9c0.8,0,1.5-0.1,2.1-0.4c0.6-0.3,1-0.7,1.3-1.2
	c0.3-0.5,0.5-1.1,0.5-1.8c0-0.7-0.1-1.3-0.4-1.8C35.4,102.2,35,101.8,34.4,101.4z M33.7,105.5c-0.1,0.3-0.3,0.5-0.6,0.6
	c-0.3,0.1-0.6,0.2-1.1,0.2h-1.5v-3.5H32c0.4,0,0.8,0.1,1.1,0.2c0.3,0.1,0.5,0.3,0.6,0.6c0.1,0.3,0.2,0.6,0.2,0.9
	C33.9,104.9,33.8,105.2,33.7,105.5L33.7,105.5z"/>
<path class="st1" d="M41.2,107.8h1.6l2,3.7h2.4l-2.2-4.1c0,0,0.1,0,0.1,0c0.6-0.3,1-0.6,1.3-1.2c0.3-0.5,0.5-1.1,0.5-1.8
	c0-0.7-0.1-1.3-0.4-1.8c-0.3-0.5-0.7-0.9-1.3-1.2c-0.6-0.3-1.2-0.4-2-0.4H39v10.5h2.2V107.8L41.2,107.8z M42.7,102.8
	c0.4,0,0.8,0.1,1.1,0.2c0.3,0.1,0.5,0.3,0.6,0.5c0.1,0.2,0.2,0.5,0.2,0.9s-0.1,0.6-0.2,0.9c-0.1,0.2-0.3,0.4-0.6,0.5
	c-0.3,0.1-0.6,0.2-1,0.2h-1.5v-3.2L42.7,102.8L42.7,102.8z"/>
<path class="st1" d="M57,109.6h-4.9v-2.5h4.5v-1.8h-4.5v-2.5H57V101h-7.1v10.5H57V109.6z"/>
<path class="st1" d="M67.6,106.4c0.3-0.5,0.5-1.1,0.5-1.8c0-0.7-0.1-1.3-0.4-1.8c-0.3-0.5-0.7-0.9-1.3-1.3c-0.6-0.3-1.2-0.5-2-0.5
	h-4.1v10.5h2.2v-3.4h1.9c0.8,0,1.5-0.1,2.1-0.4C66.9,107.3,67.3,106.9,67.6,106.4z M65.6,105.5c-0.1,0.3-0.3,0.5-0.6,0.6
	c-0.3,0.1-0.6,0.2-1.1,0.2h-1.5v-3.5h1.5c0.4,0,0.8,0.1,1.1,0.2c0.3,0.1,0.5,0.3,0.6,0.6c0.1,0.3,0.2,0.6,0.2,0.9
	C65.8,104.9,65.7,105.2,65.6,105.5L65.6,105.5z"/>
<path class="st1" d="M79.2,111.5L75.6,101h-2.8l-3.6,10.5h2.4l0.8-2.4h3.8l0.8,2.4H79.2L79.2,111.5z M72.9,107.4l1.3-4h0.1l1.3,4
	H72.9z"/>
<path class="st1" d="M84.1,107.8h1.6l2,3.7h2.4l-2.2-4.1c0,0,0.1,0,0.1,0c0.6-0.3,1-0.6,1.3-1.2c0.3-0.5,0.5-1.1,0.5-1.8
	c0-0.7-0.1-1.3-0.4-1.8c-0.3-0.5-0.7-0.9-1.3-1.2c-0.6-0.3-1.2-0.4-2-0.4h-4.1v10.5h2.2V107.8L84.1,107.8z M85.6,102.8
	c0.4,0,0.8,0.1,1.1,0.2c0.3,0.1,0.5,0.3,0.6,0.5c0.1,0.2,0.2,0.5,0.2,0.9s-0.1,0.6-0.2,0.9c-0.1,0.2-0.3,0.4-0.6,0.5
	c-0.3,0.1-0.6,0.2-1,0.2h-1.5v-3.2L85.6,102.8L85.6,102.8z"/>
<path class="st1" d="M95.4,109.1h3.8l0.8,2.4h2.4L98.7,101h-2.8l-3.6,10.5h2.4L95.4,109.1L95.4,109.1z M97.3,103.4l1.3,4H96
	L97.3,103.4L97.3,103.4z"/>
<path class="st1" d="M106.5,111.5h2.2v-8.6h3.2V101h-8.6v1.8h3.2V111.5z"/>
<path class="st1" d="M117,101h-2.2v10.5h2.2V101z"/>
<path class="st1" d="M122.5,111c0.7,0.4,1.6,0.6,2.5,0.6c0.9,0,1.8-0.2,2.5-0.6c0.7-0.4,1.3-1,1.8-1.8c0.4-0.8,0.6-1.8,0.6-2.9
	c0-1.1-0.2-2.1-0.6-2.9c-0.4-0.8-1-1.4-1.8-1.8c-0.7-0.4-1.6-0.6-2.5-0.6c-0.9,0-1.8,0.2-2.5,0.6c-0.7,0.4-1.3,1-1.8,1.8
	c-0.4,0.8-0.6,1.8-0.6,2.9c0,1.1,0.2,2.1,0.6,2.9C121.1,110,121.7,110.6,122.5,111L122.5,111z M122.7,104.4c0.2-0.5,0.5-0.9,0.9-1.2
	c0.4-0.3,0.9-0.4,1.4-0.4c0.5,0,1,0.1,1.4,0.4c0.4,0.3,0.7,0.6,0.9,1.2c0.2,0.5,0.3,1.1,0.3,1.9c0,0.7-0.1,1.4-0.3,1.9
	c-0.2,0.5-0.5,0.9-0.9,1.2c-0.4,0.3-0.9,0.4-1.4,0.4c-0.5,0-1-0.1-1.4-0.4c-0.4-0.3-0.7-0.6-0.9-1.2c-0.2-0.5-0.3-1.1-0.3-1.9
	C122.3,105.5,122.4,104.9,122.7,104.4z"/>
<path class="st1" d="M141.7,111.5V101h-2.2v6.6h-0.1l-4.5-6.6H133v10.5h2.2v-6.6h0.1l4.6,6.6H141.7z"/>
<path class="st1" d="M28.4,119.5L24.8,130h2.4l0.8-2.4h3.8l0.8,2.4h2.4l-3.6-10.5H28.4z M28.5,125.9l1.3-4h0.1l1.3,4H28.5z"/>
<path class="st1" d="M46.4,130v-10.5h-2.2v6.6h-0.1l-4.5-6.6h-1.9V130h2.2v-6.6h0.1l4.6,6.6H46.4z"/>
<path class="st1" d="M57.8,127.5c0.4-0.8,0.6-1.7,0.6-2.8c0-1.1-0.2-2-0.6-2.8c-0.4-0.8-1-1.4-1.8-1.8c-0.8-0.4-1.7-0.6-2.7-0.6
	h-3.7V130h3.7c1.1,0,2-0.2,2.7-0.6C56.8,128.9,57.4,128.3,57.8,127.5L57.8,127.5z M54.9,127.7c-0.5,0.2-1,0.3-1.7,0.3h-1.4v-6.7h1.4
	c0.7,0,1.2,0.1,1.7,0.3c0.5,0.2,0.8,0.6,1,1.1c0.2,0.5,0.3,1.1,0.3,1.9c0,0.8-0.1,1.4-0.3,1.9C55.7,127.1,55.3,127.5,54.9,127.7z"/>
<path class="st1" d="M71.3,130v-8.6h3.2v-1.8h-8.6v1.8h3.2v8.6H71.3z"/>
<path class="st1" d="M77.4,130h2.2v-3.7h1.6l2,3.7h2.4l-2.2-4.1c0,0,0.1,0,0.1,0c0.6-0.3,1-0.6,1.3-1.2c0.3-0.5,0.5-1.1,0.5-1.8
	c0-0.7-0.1-1.3-0.4-1.8c-0.3-0.5-0.7-0.9-1.3-1.2c-0.6-0.3-1.2-0.4-2-0.4h-4.1V130z M81.1,121.3c0.4,0,0.8,0.1,1.1,0.2
	c0.3,0.1,0.5,0.3,0.6,0.5c0.1,0.2,0.2,0.5,0.2,0.9c0,0.3-0.1,0.6-0.2,0.9c-0.1,0.2-0.3,0.4-0.6,0.5c-0.3,0.1-0.6,0.2-1,0.2h-1.5
	v-3.2L81.1,121.3L81.1,121.3z"/>
<path class="st1" d="M90.8,127.6h3.8l0.8,2.4h2.4l-3.6-10.5h-2.8L87.7,130h2.4L90.8,127.6L90.8,127.6z M92.8,121.9l1.3,4h-2.7
	L92.8,121.9L92.8,121.9z"/>
<path class="st1" d="M102.7,119.5h-2.2V130h2.2V119.5z"/>
<path class="st1" d="M112.5,126.1L112.5,126.1l-4.6-6.6h-1.9V130h2.2v-6.6h0.1l4.6,6.6h1.9v-10.5h-2.2V126.1z"/>
<path class="st1" d="M120.2,119.5H118V130h2.2V119.5z"/>
<path class="st1" d="M130,126.1L130,126.1l-4.6-6.6h-1.9V130h2.2v-6.6h0.1l4.6,6.6h1.9v-10.5H130V126.1z"/>
<path class="st1" d="M140.4,124.4v1.7h2.2c0,0.4-0.1,0.8-0.3,1.1c-0.2,0.3-0.5,0.6-0.8,0.8c-0.4,0.2-0.8,0.3-1.3,0.3
	c-0.6,0-1-0.1-1.4-0.4c-0.4-0.3-0.7-0.7-0.9-1.2c-0.2-0.5-0.3-1.1-0.3-1.9c0-0.7,0.1-1.3,0.3-1.9c0.2-0.5,0.5-0.9,0.9-1.2
	c0.4-0.3,0.9-0.4,1.4-0.4c0.3,0,0.5,0,0.8,0.1c0.2,0.1,0.5,0.2,0.6,0.3c0.2,0.1,0.3,0.3,0.5,0.5c0.1,0.2,0.2,0.4,0.3,0.7h2.3
	c-0.1-0.5-0.2-1-0.5-1.4c-0.3-0.4-0.6-0.8-1-1.1c-0.4-0.3-0.9-0.6-1.4-0.7c-0.5-0.2-1.1-0.3-1.7-0.3c-0.7,0-1.3,0.1-1.9,0.4
	c-0.6,0.2-1.1,0.6-1.6,1.1c-0.4,0.5-0.8,1-1,1.7c-0.2,0.7-0.4,1.4-0.4,2.3c0,1.1,0.2,2.1,0.6,2.9c0.4,0.8,1,1.4,1.7,1.9
	c0.7,0.4,1.6,0.6,2.6,0.6c0.9,0,1.7-0.2,2.3-0.5c0.7-0.4,1.2-0.9,1.6-1.5c0.4-0.7,0.6-1.4,0.6-2.4v-1.3L140.4,124.4L140.4,124.4z"/>
<path class="st1" d="M50,138.5c-0.6-0.3-1.2-0.5-2-0.5h-4.1v10.5h2.2v-3.4h1.9c0.8,0,1.5-0.1,2.1-0.4c0.6-0.3,1-0.7,1.3-1.2
	c0.3-0.5,0.5-1.1,0.5-1.8c0-0.7-0.1-1.3-0.4-1.8C51,139.2,50.6,138.8,50,138.5z M49.3,142.5c-0.1,0.3-0.3,0.5-0.6,0.6
	s-0.6,0.2-1.1,0.2h-1.5v-3.5h1.5c0.4,0,0.8,0.1,1.1,0.2c0.3,0.1,0.5,0.3,0.6,0.6c0.1,0.3,0.2,0.6,0.2,0.9
	C49.5,141.9,49.4,142.2,49.3,142.5L49.3,142.5z"/>
<path class="st1" d="M60.8,144.4c0.6-0.3,1-0.6,1.3-1.2c0.3-0.5,0.5-1.1,0.5-1.8c0-0.7-0.1-1.3-0.4-1.8c-0.3-0.5-0.7-0.9-1.3-1.2
	c-0.6-0.3-1.2-0.4-2-0.4h-4.1v10.5h2.2v-3.7h1.6l2,3.7h2.4l-2.2-4.1C60.7,144.4,60.7,144.4,60.8,144.4L60.8,144.4z M56.8,139.8h1.5
	c0.4,0,0.8,0.1,1.1,0.2c0.3,0.1,0.5,0.3,0.6,0.5c0.1,0.2,0.2,0.5,0.2,0.9c0,0.4-0.1,0.6-0.2,0.9c-0.1,0.2-0.3,0.4-0.6,0.5
	c-0.3,0.1-0.6,0.2-1,0.2h-1.5V139.8z"/>
<path class="st1" d="M72.7,138.5c-0.7-0.4-1.6-0.6-2.5-0.6c-0.9,0-1.8,0.2-2.5,0.6c-0.7,0.4-1.3,1-1.8,1.8s-0.6,1.8-0.6,2.9
	c0,1.1,0.2,2.1,0.6,2.9s1,1.4,1.8,1.8c0.7,0.4,1.6,0.6,2.5,0.6c0.9,0,1.8-0.2,2.5-0.6c0.7-0.4,1.3-1,1.8-1.8
	c0.4-0.8,0.6-1.8,0.6-2.9c0-1.1-0.2-2.1-0.6-2.9S73.5,138.9,72.7,138.5L72.7,138.5z M72.6,145.1c-0.2,0.5-0.5,0.9-0.9,1.2
	c-0.4,0.3-0.9,0.4-1.4,0.4c-0.5,0-1-0.1-1.4-0.4c-0.4-0.3-0.7-0.6-0.9-1.2c-0.2-0.5-0.3-1.1-0.3-1.9c0-0.7,0.1-1.4,0.3-1.9
	c0.2-0.5,0.5-0.9,0.9-1.2c0.4-0.3,0.9-0.4,1.4-0.4c0.5,0,1,0.1,1.4,0.4c0.4,0.3,0.7,0.6,0.9,1.2c0.2,0.5,0.3,1.1,0.3,1.9
	C72.9,144,72.8,144.6,72.6,145.1z"/>
<path class="st1" d="M82.1,146H82l-2.5-8h-2.5l3.6,10.5h2.8l3.6-10.5h-2.5L82.1,146z"/>
<path class="st1" d="M92,138h-2.2v10.5H92V138z"/>
<path class="st1" d="M101.8,138.6c-0.8-0.4-1.7-0.6-2.7-0.6h-3.7v10.5H99c1.1,0,2-0.2,2.7-0.6c0.8-0.4,1.4-1,1.8-1.8
	c0.4-0.8,0.6-1.7,0.6-2.8c0-1.1-0.2-2-0.6-2.8C103.1,139.7,102.5,139.1,101.8,138.6L101.8,138.6z M101.6,145.2
	c-0.2,0.5-0.6,0.9-1,1.1c-0.5,0.2-1,0.3-1.7,0.3h-1.4v-6.7h1.4c0.7,0,1.2,0.1,1.7,0.3c0.5,0.2,0.8,0.6,1,1.1
	c0.2,0.5,0.3,1.1,0.3,1.9C101.9,144,101.8,144.7,101.6,145.2z"/>
<path class="st1" d="M109.4,144.2h4.5v-1.8h-4.5v-2.5h4.8V138h-7.1v10.5h7.1v-1.8h-4.9V144.2z"/>
<path class="st1" d="M123.9,138.6c-0.8-0.4-1.7-0.6-2.7-0.6h-3.7v10.5h3.7c1.1,0,2-0.2,2.7-0.6c0.8-0.4,1.4-1,1.8-1.8
	c0.4-0.8,0.6-1.7,0.6-2.8c0-1.1-0.2-2-0.6-2.8C125.3,139.7,124.7,139.1,123.9,138.6L123.9,138.6z M123.8,145.2
	c-0.2,0.5-0.6,0.9-1,1.1c-0.5,0.2-1,0.3-1.7,0.3h-1.4v-6.7h1.4c0.7,0,1.2,0.1,1.7,0.3c0.5,0.2,0.8,0.6,1,1.1
	c0.2,0.5,0.3,1.1,0.3,1.9C124.1,144,124,144.7,123.8,145.2z"/>
<linearGradient id="SVGID_1_" gradientUnits="userSpaceOnUse" x1="85.0014" y1="43.371" x2="85.0014" y2="153.6113" gradientTransform="matrix(1 0 0 -1 0 192)">
	<stop offset="0" style="stop-color:#00A3FF"/>
	<stop offset="1" style="stop-color:#4255FF"/>
</linearGradient>
<path class="st2" d="M89.3,68.8H74.1v-4.3h15.2V68.8z M95.8,60.1H74.1v-4.3h21.7V60.1z M95.8,51.4H74.1v-4.3h21.7V51.4z M100.2,38.4
	H69.8c-2.4,0-4.3,1.9-4.3,4.3v30.4c0,1.2,0.5,2.3,1.3,3.1c0.8,0.8,1.9,1.3,3.1,1.3h30.4c1.2,0,2.3-0.5,3.1-1.3
	c0.8-0.8,1.3-1.9,1.3-3.1V42.7c0-1.2-0.5-2.3-1.3-3.1C102.5,38.9,101.3,38.4,100.2,38.4L100.2,38.4z"/>
<linearGradient id="SVGID_00000018918658175827041780000006733375012653096613_" gradientUnits="userSpaceOnUse" x1="42.8658" y1="43.371" x2="42.8658" y2="153.6113" gradientTransform="matrix(1 0 0 -1 0 192)">
	<stop offset="0" style="stop-color:#00A3FF"/>
	<stop offset="1" style="stop-color:#4255FF"/>
</linearGradient>
<path style="fill:url(#SVGID_00000018918658175827041780000006733375012653096613_);" d="M42.2,48.1l-0.8,3.7
	c-0.1,0.3-0.3,0.5-0.5,0.5l-3.7,0.8c-0.7,0.1-0.7,1.2,0,1.3l3.7,0.8c0.3,0.1,0.5,0.3,0.5,0.5l0.8,3.7c0.1,0.7,1.2,0.7,1.3,0l0.8-3.7
	c0.1-0.3,0.3-0.5,0.5-0.5l3.7-0.8c0.7-0.1,0.7-1.2,0-1.3l-3.7-0.8c-0.3-0.1-0.5-0.3-0.5-0.5l-0.8-3.7C43.4,47.4,42.4,47.4,42.2,48.1
	z"/>
<linearGradient id="SVGID_00000053539765043421085240000005089645739234461104_" gradientUnits="userSpaceOnUse" x1="26.0773" y1="43.371" x2="26.0773" y2="153.6113" gradientTransform="matrix(1 0 0 -1 0 192)">
	<stop offset="0" style="stop-color:#00A3FF"/>
	<stop offset="1" style="stop-color:#4255FF"/>
</linearGradient>
<path style="fill:url(#SVGID_00000053539765043421085240000005089645739234461104_);" d="M25.4,67.7l-0.8,3.7
	c-0.1,0.3-0.3,0.5-0.5,0.5l-3.7,0.8c-0.7,0.1-0.7,1.2,0,1.3l3.7,0.8c0.3,0.1,0.5,0.3,0.5,0.5l0.8,3.7c0.1,0.7,1.2,0.7,1.3,0l0.8-3.7
	c0.1-0.3,0.3-0.5,0.5-0.5l3.7-0.8c0.7-0.1,0.7-1.2,0-1.3L28,72c-0.3-0.1-0.5-0.3-0.5-0.5l-0.8-3.7C26.6,67,25.6,67,25.4,67.7z"/>
<linearGradient id="SVGID_00000139287380005191235650000013693119898681798832_" gradientUnits="userSpaceOnUse" x1="127.1166" y1="43.371" x2="127.1166" y2="153.6113" gradientTransform="matrix(1 0 0 -1 0 192)">
	<stop offset="0" style="stop-color:#00A3FF"/>
	<stop offset="1" style="stop-color:#4255FF"/>
</linearGradient>
<path style="fill:url(#SVGID_00000139287380005191235650000013693119898681798832_);" d="M127.8,48.1l0.8,3.7
	c0.1,0.3,0.3,0.5,0.5,0.5l3.7,0.8c0.7,0.1,0.7,1.2,0,1.3l-3.7,0.8c-0.3,0.1-0.5,0.3-0.5,0.5l-0.8,3.7c-0.1,0.7-1.2,0.7-1.3,0
	l-0.8-3.7c-0.1-0.3-0.3-0.5-0.5-0.5l-3.7-0.8c-0.7-0.1-0.7-1.2,0-1.3l3.7-0.8c0.3-0.1,0.5-0.3,0.5-0.5l0.8-3.7
	C126.6,47.4,127.6,47.4,127.8,48.1z"/>
<linearGradient id="SVGID_00000054228715737740295140000007124414489577775753_" gradientUnits="userSpaceOnUse" x1="143.9154" y1="43.371" x2="143.9154" y2="153.6113" gradientTransform="matrix(1 0 0 -1 0 192)">
	<stop offset="0" style="stop-color:#00A3FF"/>
	<stop offset="1" style="stop-color:#4255FF"/>
</linearGradient>
<path style="fill:url(#SVGID_00000054228715737740295140000007124414489577775753_);" d="M144.6,67.7l0.8,3.7
	c0.1,0.3,0.3,0.5,0.5,0.5l3.7,0.8c0.7,0.1,0.7,1.2,0,1.3l-3.7,0.8c-0.3,0.1-0.5,0.3-0.5,0.5l-0.8,3.7c-0.1,0.7-1.2,0.7-1.3,0
	l-0.8-3.7c-0.1-0.3-0.3-0.5-0.5-0.5l-3.7-0.8c-0.7-0.1-0.7-1.2,0-1.3L142,72c0.3-0.1,0.5-0.3,0.5-0.5l0.8-3.7
	C143.4,67,144.4,67,144.6,67.7z"/>
<linearGradient id="SVGID_00000034060821605998278580000007718948492028185766_" gradientUnits="userSpaceOnUse" x1="84.99" y1="4.505733e-03" x2="84.99" y2="189.965">
	<stop offset="0" style="stop-color:#00A3FF"/>
	<stop offset="1" style="stop-color:#4255FF"/>
</linearGradient>
<linearGradient id="SVGID_00000139994730120148947970000017952621159001734293_" gradientUnits="userSpaceOnUse" x1="84.99" y1="4.989624e-03" x2="84.99" y2="189.965">
	<stop offset="0" style="stop-color:#00A3FF"/>
	<stop offset="1" style="stop-color:#4255FF"/>
</linearGradient>
<path style="fill:url(#SVGID_00000034060821605998278580000007718948492028185766_);fill-opacity:0.2;stroke:url(#SVGID_00000139994730120148947970000017952621159001734293_);" d="
	M162.5,42.6c-0.9-0.8-2-1.6-3.1-2.2l-8.4-4.9L95,3.2c-6.2-3.6-13.9-3.6-20.1,0L19,35.5l-8.4,4.9c-0.7,0.4-1.4,0.9-2,1.3
	c-5,3.8-8,9.7-8,16v74.4c0,6.3,3,12.3,8,16c0.6,0.5,1.3,0.9,2,1.3L49.3,172L75,186.8c6.2,3.6,13.8,3.6,20.1,0l25.6-14.8l38.8-22.4
	c1.1-0.6,2.1-1.4,3.1-2.2c4.4-3.8,6.9-9.3,6.9-15.2V57.8C169.5,51.9,166.9,46.4,162.5,42.6z"/>
</svg>
