<svg width="153" height="170" viewBox="0 0 153 170" fill="none" xmlns="http://www.w3.org/2000/svg">
<path d="M151.758 118.045V51.5892C151.758 45.0235 148.269 38.9628 142.601 35.6845L85.2187 2.46114C79.551 -0.817124 72.5738 -0.817124 66.9061 2.46114L9.5235 35.6845C3.85574 38.972 0.367188 45.0326 0.367188 51.5892V118.045C0.367188 124.611 3.85574 130.672 9.5235 133.95L66.9061 167.173C72.5738 170.451 79.551 170.451 85.2187 167.173L142.601 133.95C148.269 130.672 151.758 124.602 151.758 118.045Z" fill="#E1E1E1" fill-opacity="0.06"/>
<path fill-rule="evenodd" clip-rule="evenodd" d="M102.001 103.53C102.114 103.7 102.208 103.907 102.274 104.134V104.143H104.332C104.266 103.672 104.125 103.238 103.89 102.843C103.655 102.447 103.364 102.098 102.997 101.815C102.64 101.523 102.227 101.306 101.757 101.146C101.287 100.986 100.789 100.911 100.244 100.911C99.6145 100.911 99.0319 101.014 98.4869 101.24C97.9418 101.467 97.4626 101.787 97.0586 102.211C96.6545 102.635 96.335 103.154 96.1095 103.766C95.884 104.379 95.7712 105.067 95.7712 105.849C95.7712 106.857 95.9592 107.734 96.335 108.469C96.7109 109.204 97.2465 109.769 97.9231 110.165C98.609 110.561 99.3983 110.759 100.291 110.759C101.099 110.759 101.813 110.598 102.433 110.269C103.054 109.948 103.542 109.477 103.899 108.874C104.256 108.271 104.435 107.545 104.435 106.706V105.5H100.432V107.027H102.48C102.472 107.417 102.379 107.747 102.217 108.035C102.039 108.337 101.794 108.572 101.466 108.732C101.137 108.893 100.751 108.977 100.291 108.977C99.7836 108.977 99.3419 108.855 98.9755 108.61C98.5996 108.365 98.3177 108.007 98.111 107.536C97.9137 107.064 97.8103 106.499 97.8103 105.83C97.8103 105.161 97.9137 104.605 98.1204 104.134C98.3271 103.662 98.6184 103.314 98.9849 103.069C99.3513 102.824 99.7836 102.701 100.272 102.701C100.535 102.701 100.77 102.729 100.986 102.795C101.202 102.861 101.4 102.956 101.569 103.078C101.738 103.201 101.879 103.351 102.001 103.53ZM30.9063 104.397H32.9548L32.9829 104.416C32.9172 103.86 32.7762 103.37 32.5413 102.937C32.3064 102.503 32.0057 102.145 31.6392 101.844C31.2634 101.551 30.8405 101.325 30.3707 101.165C29.9008 101.005 29.384 100.93 28.8296 100.93C27.9839 100.93 27.2322 101.118 26.5556 101.504C25.8791 101.891 25.3529 102.447 24.9582 103.182C24.5635 103.917 24.3662 104.803 24.3662 105.849C24.3662 106.895 24.5635 107.781 24.9488 108.516C25.3341 109.241 25.8697 109.807 26.5368 110.193C27.204 110.58 27.9651 110.777 28.8202 110.777C29.4404 110.777 29.9854 110.683 30.474 110.495C30.9627 110.306 31.3761 110.052 31.7332 109.731C32.0903 109.411 32.3722 109.043 32.5789 108.638C32.7856 108.233 32.9172 107.809 32.9736 107.357H30.9251C30.8781 107.62 30.7935 107.847 30.6714 108.045C30.5492 108.242 30.3989 108.412 30.2203 108.553C30.0418 108.695 29.8351 108.798 29.6002 108.874C29.3746 108.94 29.1209 108.977 28.8484 108.977C28.3598 108.977 27.9369 108.855 27.5705 108.619C27.204 108.384 26.9221 108.026 26.7154 107.564C26.5087 107.102 26.4053 106.499 26.4053 105.839C26.4053 105.18 26.4993 104.614 26.706 104.143C26.9127 103.681 27.1946 103.323 27.5611 103.078C27.9275 102.833 28.3598 102.711 28.8578 102.711C29.1303 102.711 29.384 102.748 29.6189 102.824C29.8539 102.899 30.0606 103.012 30.2391 103.163C30.4177 103.304 30.568 103.483 30.6808 103.691C30.7935 103.898 30.8687 104.134 30.9063 104.397ZM35.7266 101.033V110.627H37.7469V106.659H41.8533V110.627H43.8735V101.033H41.8533V104.991H37.7469V101.033H35.7266ZM48.4967 110.627H46.3355L49.6431 101.033H52.246L55.5442 110.627H53.3736L52.6663 108.44H49.2068L48.4967 110.627ZM50.9775 103.219L52.1542 106.857H49.7209L50.9023 103.219H50.9775ZM58.0061 101.033V110.627H64.1327V108.959H60.0264V101.033H58.0061ZM66.7921 110.627V101.033H68.8123V108.959H72.9187V110.627H66.7921ZM75.5684 101.033V110.617H82.0333V108.949H77.5887V106.659H81.6762V104.991H77.5887V102.701H82.0145V101.033H75.5684ZM92.9428 101.033V110.627H91.195L87.0323 104.586H86.9665V110.627H84.9462V101.033H86.7222L90.8567 107.064H90.9413V101.033H92.9428ZM109.274 101.033V110.627H107.254V101.033H109.274ZM120.259 110.627V101.033H118.258V107.064H118.173L114.039 101.033H112.263V110.627H114.283V104.586H114.349L118.511 110.627H120.259ZM129.59 104.134C129.524 103.907 129.43 103.7 129.318 103.53C129.195 103.351 129.054 103.201 128.885 103.078C128.716 102.956 128.519 102.861 128.303 102.795C128.087 102.729 127.852 102.701 127.589 102.701C127.1 102.701 126.668 102.824 126.301 103.069C125.935 103.314 125.644 103.662 125.437 104.134C125.23 104.605 125.127 105.161 125.127 105.83C125.127 106.499 125.23 107.064 125.427 107.536C125.634 108.007 125.916 108.365 126.292 108.61C126.658 108.855 127.1 108.977 127.607 108.977C128.068 108.977 128.453 108.893 128.782 108.732C129.111 108.572 129.355 108.337 129.534 108.035C129.695 107.747 129.788 107.417 129.796 107.027H127.748V105.5H131.751V106.706C131.751 107.545 131.573 108.271 131.216 108.874C130.859 109.477 130.37 109.948 129.75 110.269C129.13 110.598 128.416 110.759 127.607 110.759C126.715 110.759 125.925 110.561 125.239 110.165C124.563 109.769 124.027 109.204 123.651 108.469C123.276 107.734 123.088 106.857 123.088 105.849C123.088 105.067 123.2 104.379 123.426 103.766C123.651 103.154 123.971 102.635 124.375 102.211C124.779 101.787 125.258 101.467 125.803 101.24C126.348 101.014 126.931 100.911 127.56 100.911C128.105 100.911 128.603 100.986 129.073 101.146C129.543 101.306 129.957 101.523 130.314 101.815C130.68 102.098 130.971 102.447 131.206 102.843C131.441 103.238 131.582 103.672 131.648 104.143H129.59V104.134ZM52.2745 117.996V127.58H58.7394V125.912H54.2948V123.622H58.3823V121.954H54.2948V119.664H58.7206V117.996H52.2745ZM63.5505 117.996L65.4768 121.266H65.5519L67.4877 117.996H69.771L66.8487 122.793L69.8368 127.589H67.5065L65.5425 124.31H65.4674L63.5035 127.589H61.1825L64.18 122.793L61.2389 117.996H63.5317H63.5505ZM71.8473 127.589H74.0086L74.7186 125.403H78.1782L78.8854 127.589H81.0561L77.7578 117.996H75.155L71.8473 127.589ZM77.666 123.82L76.4893 120.182H76.4141L75.2328 123.82H77.666ZM83.5181 117.996H86.0083L88.6393 124.442H88.7521L91.3831 117.996H93.8733V127.589H91.9094V121.341H91.8342L89.3535 127.542H88.0191L85.5478 121.323H85.4726V127.589H83.5088V117.996H83.5181ZM101.579 119.881C101.861 120.088 102.02 120.38 102.058 120.757L102.067 120.767H104.003C103.994 120.192 103.843 119.692 103.543 119.259C103.242 118.825 102.828 118.486 102.302 118.241C101.776 117.996 101.137 117.874 100.442 117.874C99.7463 117.874 99.1167 117.996 98.5717 118.241C98.0173 118.486 97.5851 118.825 97.275 119.259C96.9649 119.692 96.8146 120.201 96.8146 120.786C96.8146 121.492 97.0401 122.058 97.5099 122.472C97.9703 122.887 98.6093 123.198 99.4174 123.396L100.46 123.66C100.808 123.745 101.099 123.839 101.344 123.943C101.588 124.046 101.776 124.169 101.898 124.32C102.02 124.47 102.086 124.649 102.086 124.866C102.086 125.092 102.02 125.3 101.879 125.479C101.738 125.658 101.541 125.79 101.287 125.893C101.034 125.997 100.742 126.044 100.395 126.044C100.047 126.044 99.7275 125.988 99.455 125.884C99.1825 125.78 98.957 125.62 98.7972 125.403C98.6281 125.187 98.5341 124.923 98.5153 124.602H96.5608C96.5702 125.29 96.7394 125.865 97.0589 126.336C97.3783 126.798 97.82 127.156 98.3932 127.392C98.9664 127.627 99.6336 127.75 100.413 127.75C101.193 127.75 101.861 127.627 102.415 127.392C102.969 127.156 103.392 126.826 103.684 126.393C103.975 125.959 104.125 125.45 104.125 124.866C104.125 124.461 104.05 124.103 103.909 123.801C103.768 123.5 103.571 123.226 103.317 123C103.063 122.774 102.763 122.586 102.415 122.425C102.067 122.265 101.682 122.143 101.269 122.048L100.413 121.841C100.197 121.794 100.009 121.737 99.8215 121.671C99.6335 121.605 99.4738 121.53 99.3329 121.436C99.1919 121.342 99.0885 121.238 99.004 121.106C98.9194 120.974 98.8912 120.823 98.8912 120.654C98.8912 120.446 98.9476 120.258 99.0697 120.098C99.1825 119.928 99.361 119.805 99.5866 119.711C99.8121 119.617 100.094 119.57 100.423 119.57C100.911 119.57 101.297 119.674 101.579 119.881Z" fill="#E6E9FA" fill-opacity="0.5"/>
<path d="M66.4063 72.8936C65.3727 72.8936 64.4894 72.5261 63.747 71.7816C63.0141 71.0465 62.6382 70.1513 62.6476 69.1241V38.9677C62.6476 37.9311 63.0141 37.0452 63.7564 36.3008C64.4894 35.5657 65.3821 35.1887 66.4063 35.1982H79.8905C80.3885 35.1982 80.8678 35.2924 81.3282 35.4809C81.7792 35.6694 82.1833 35.9332 82.5216 36.2819L91.6363 45.4231C91.984 45.7717 92.2471 46.1675 92.4351 46.6293C92.623 47.0817 92.717 47.5623 92.717 48.0617V52.3496L77.6823 67.3807V72.8936H66.4063ZM82.3806 72.8936C82.1269 72.8936 81.9108 72.7994 81.7229 72.6109C81.5349 72.4224 81.441 72.2057 81.441 71.9512V69.6895C81.441 69.435 81.4973 69.19 81.6101 68.9356C81.7229 68.6811 81.8544 68.4832 82.0048 68.323L91.1195 59.1348L95.1601 63.0928L85.9983 72.3282C85.8386 72.5167 85.6413 72.658 85.3876 72.7522C85.1339 72.8465 84.8895 72.8936 84.6358 72.8936H82.3806ZM96.5226 61.7735L92.529 57.7683L93.8446 56.449C94.2204 56.072 94.6715 55.8835 95.2071 55.8835C95.7427 55.8835 96.1749 56.072 96.5226 56.449L97.8381 57.8154C98.1858 58.1924 98.355 58.6447 98.355 59.163C98.355 59.6814 98.1858 60.1149 97.8381 60.4541L96.5226 61.7735ZM81.441 48.3916H88.9583L79.5616 38.9677V46.5068C79.5616 47.044 79.7402 47.4869 80.1066 47.8544C80.4731 48.2219 80.9147 48.401 81.441 48.3916Z" fill="#E6E9FA" fill-opacity="0.5"/>
</svg>
