<svg width="227" height="224" viewBox="0 0 227 224" fill="none" xmlns="http://www.w3.org/2000/svg">
<g clip-path="url(#clip0_8002_23239)">
<path d="M211.481 12.3264C211.46 12.205 211.439 12.0879 211.414 11.9707C211.422 12.0084 211.43 12.046 211.439 12.0837C211.455 12.1632 211.468 12.2469 211.481 12.3264Z" fill="#3178C6"/>
<path d="M211.669 15.6779C211.685 15.3055 211.69 14.9373 211.681 14.5732C211.694 14.9373 211.69 15.3055 211.669 15.6779Z" fill="#3178C6"/>
<path d="M226.987 47.0092L221.066 203.238C220.957 206.138 220.259 208.908 219.092 211.422C217.925 213.941 216.29 216.201 214.303 218.092C212.317 219.979 209.988 221.489 207.428 222.51C204.881 223.531 202.113 224.063 199.248 223.992L46.8679 220.36C46.4162 220.347 45.9688 220.318 45.5338 220.264C45.0989 220.213 44.6681 220.142 44.2499 220.05C43.8276 219.962 43.4177 219.853 43.0162 219.724C42.6148 219.598 42.2258 219.452 41.8453 219.289L8.9537 205.272C9.13353 205.347 9.32172 205.422 9.50991 205.489C9.65628 205.544 9.80265 205.594 9.95321 205.644C9.9783 205.652 9.99921 205.661 10.0201 205.665C10.0578 205.682 10.0996 205.694 10.1414 205.707C10.1874 205.723 10.2376 205.736 10.2878 205.749C10.4467 205.799 10.6056 205.841 10.7645 205.882C10.9025 205.92 11.0405 205.954 11.1785 205.983C11.2664 206.008 11.3584 206.029 11.4462 206.046C11.4755 206.046 11.5089 206.058 11.5382 206.062C11.7598 206.108 11.9815 206.146 12.2073 206.18C12.3453 206.2 12.4833 206.221 12.6255 206.238C12.6882 206.247 12.751 206.255 12.8179 206.263C12.981 206.28 13.1399 206.297 13.3072 206.305C13.6167 206.33 13.9261 206.343 14.2398 206.347L179.082 208.523C182.219 208.565 185.259 207.945 188.07 206.795C190.884 205.64 193.46 203.949 195.664 201.849C197.868 199.748 199.691 197.242 201.005 194.46C202.318 191.681 203.116 188.635 203.275 185.447L211.669 15.6781C211.69 15.3057 211.694 14.9375 211.681 14.5735C211.681 14.4772 211.681 14.3852 211.677 14.2889C211.673 14.1007 211.665 13.9124 211.648 13.7283C211.627 13.4103 211.593 13.0965 211.552 12.7868C211.531 12.632 211.506 12.4772 211.481 12.3266C211.468 12.2471 211.455 12.1634 211.439 12.0839C211.401 11.8538 211.351 11.6278 211.297 11.406C211.263 11.2638 211.23 11.1215 211.192 10.9793C211.159 10.8454 211.121 10.7115 211.083 10.5818C211.075 10.5608 211.071 10.5399 211.062 10.519C211.02 10.3809 210.979 10.247 210.933 10.1131C210.899 10.0085 210.862 9.90811 210.828 9.8035C210.807 9.75329 210.79 9.70308 210.774 9.65706C210.724 9.53153 210.678 9.40601 210.623 9.28048C210.552 9.10056 210.477 8.92483 210.397 8.74909C210.356 8.65704 210.31 8.5608 210.268 8.46875C210.765 9.50643 211.435 10.8914 211.936 11.9291C212.183 12.4395 212.513 13.1216 212.76 13.632C213.245 14.6362 213.894 15.9794 214.379 16.9877C214.86 17.9752 215.495 19.2932 215.972 20.2849C216.206 20.7702 216.52 21.4188 216.758 21.9083C217.218 22.8665 217.837 24.1469 218.301 25.1092C218.757 26.0507 219.364 27.3101 219.819 28.2515C220.045 28.716 220.346 29.3353 220.568 29.7997C221.011 30.7202 221.601 31.942 222.044 32.8583C222.479 33.7579 223.061 34.9588 223.495 35.8584C223.709 36.3019 223.997 36.8961 224.211 37.3396C224.633 38.2183 225.198 39.3856 225.62 40.2601C225.862 40.7581 226.076 41.2769 226.256 41.8083C226.435 42.3439 226.586 42.892 226.699 43.4569C226.816 44.0217 226.9 44.5991 226.95 45.1933C226.996 45.7833 227.013 46.39 226.987 47.0092Z" fill="#154E8C"/>
<path d="M184.607 148.764C184.858 149.496 185.071 150.262 185.247 151.057C185.422 151.852 185.556 152.685 185.652 153.551C185.749 154.417 185.803 155.312 185.824 156.245C185.845 157.179 185.82 158.141 185.757 159.137C185.673 160.513 185.527 161.84 185.318 163.116C185.109 164.392 184.837 165.614 184.502 166.785C184.168 167.957 183.766 169.074 183.306 170.137C182.846 171.2 182.319 172.212 181.73 173.166C181.144 174.124 180.513 175.037 179.835 175.903C179.158 176.769 178.438 177.593 177.673 178.371C176.908 179.15 176.101 179.882 175.248 180.568C174.394 181.254 173.499 181.899 172.563 182.493C171.622 183.087 170.651 183.643 169.648 184.154C168.644 184.664 167.607 185.137 166.536 185.564C165.466 185.991 164.366 186.376 163.237 186.719C162.108 187.062 160.941 187.363 159.749 187.623C158.557 187.882 157.353 188.108 156.136 188.3C154.919 188.493 153.693 188.656 152.456 188.786C151.218 188.916 149.971 189.012 148.713 189.079C147.454 189.146 146.187 189.175 144.911 189.179C143.636 189.183 142.314 189.15 141.043 189.095C139.771 189.041 138.534 188.953 137.308 188.84C136.083 188.727 134.887 188.585 133.708 188.413C132.528 188.242 131.374 188.045 130.236 187.815C129.103 187.589 128.012 187.334 126.962 187.049C125.912 186.765 124.913 186.455 123.955 186.121C122.997 185.786 122.086 185.418 121.212 185.024C120.338 184.631 119.514 184.213 118.728 183.765L120.915 162.4C121.747 163.183 122.608 163.919 123.499 164.605C124.39 165.292 125.306 165.932 126.251 166.518C127.196 167.103 128.171 167.647 129.174 168.137C130.178 168.626 131.207 169.07 132.265 169.459C133.327 169.852 134.393 170.191 135.477 170.484C136.56 170.777 137.651 171.016 138.751 171.204C139.851 171.392 140.963 171.534 142.088 171.622C143.213 171.71 144.342 171.748 145.484 171.731C146.157 171.723 146.806 171.698 147.437 171.66C148.069 171.622 148.683 171.568 149.277 171.497C149.871 171.426 150.444 171.342 151 171.242C151.556 171.141 152.088 171.024 152.602 170.89C153.116 170.76 153.614 170.614 154.091 170.459C154.567 170.304 155.023 170.137 155.462 169.957C155.902 169.777 156.316 169.585 156.713 169.384C157.11 169.183 157.486 168.965 157.846 168.739C158.202 168.514 158.54 168.275 158.858 168.028C159.176 167.781 159.469 167.526 159.745 167.258C160.021 166.99 160.272 166.718 160.506 166.434C160.74 166.149 160.949 165.857 161.142 165.551C161.334 165.246 161.505 164.936 161.652 164.618C161.798 164.3 161.932 163.978 162.041 163.651C162.149 163.325 162.237 162.99 162.304 162.651C162.371 162.313 162.417 161.969 162.446 161.618C162.484 161.141 162.484 160.681 162.451 160.233C162.417 159.785 162.35 159.35 162.25 158.932C162.149 158.513 162.011 158.107 161.844 157.714C161.677 157.321 161.472 156.944 161.234 156.58C160.995 156.216 160.732 155.861 160.443 155.513C160.155 155.166 159.845 154.827 159.506 154.496C159.168 154.166 158.812 153.84 158.427 153.526C158.043 153.212 157.633 152.902 157.202 152.601C156.771 152.304 156.316 152.007 155.843 151.714C155.37 151.421 154.873 151.137 154.358 150.852C153.844 150.568 153.304 150.287 152.748 150.011C152.192 149.735 151.615 149.463 151.017 149.191C150.419 148.923 149.812 148.655 149.189 148.383C148.566 148.111 147.939 147.844 147.299 147.576C146.659 147.308 146.007 147.036 145.342 146.764C144.677 146.492 144.008 146.22 143.322 145.948C141.586 145.245 139.972 144.496 138.488 143.701C137.003 142.906 135.644 142.078 134.406 141.203C133.168 140.329 132.056 139.417 131.06 138.454C130.065 137.492 129.195 136.5 128.438 135.458C127.685 134.417 127.046 133.32 126.519 132.17C125.992 131.019 125.586 129.81 125.289 128.546C124.992 127.283 124.812 125.965 124.741 124.588C124.67 123.211 124.712 121.785 124.867 120.295C124.988 119.132 125.159 118.006 125.385 116.923C125.611 115.839 125.891 114.793 126.222 113.789C126.552 112.784 126.937 111.814 127.376 110.885C127.815 109.956 128.304 109.065 128.848 108.211C129.392 107.358 129.973 106.537 130.592 105.755C131.211 104.973 131.867 104.219 132.566 103.5C133.264 102.78 133.996 102.098 134.766 101.449C135.535 100.801 136.351 100.182 137.2 99.6001C138.048 99.0185 138.927 98.4662 139.834 97.9473C140.742 97.4285 141.678 96.9431 142.645 96.4912C143.611 96.0393 144.61 95.6167 145.635 95.2276C146.659 94.8385 147.717 94.4828 148.805 94.1565C149.892 93.8301 150.996 93.5372 152.113 93.2694C153.229 93.0016 154.367 92.7673 155.513 92.5623C156.658 92.3573 157.825 92.1815 159.009 92.0351C160.192 91.8886 161.388 91.7715 162.601 91.6878C163.814 91.6041 164.956 91.5372 166.081 91.4911C167.206 91.4451 168.305 91.42 169.363 91.4158C170.421 91.4116 171.454 91.4242 172.45 91.4577C173.445 91.4911 174.407 91.5455 175.335 91.6208C176.264 91.6962 177.175 91.7924 178.07 91.9054C178.965 92.0183 179.839 92.1564 180.697 92.3112C181.554 92.466 182.395 92.646 183.218 92.8426C184.042 93.0393 184.845 93.2569 185.631 93.4995L184.406 112.575C184.021 112.328 183.628 112.09 183.223 111.86C182.817 111.63 182.407 111.408 181.989 111.199C181.571 110.989 181.14 110.784 180.701 110.592C180.262 110.399 179.814 110.211 179.358 110.035C178.903 109.86 178.443 109.692 177.978 109.533C177.514 109.374 177.05 109.228 176.577 109.086C176.105 108.943 175.632 108.814 175.156 108.692C174.679 108.571 174.198 108.458 173.713 108.353C173.228 108.249 172.747 108.153 172.266 108.069C171.785 107.985 171.304 107.906 170.823 107.835C170.342 107.763 169.861 107.705 169.384 107.65C168.908 107.596 168.427 107.554 167.95 107.521C167.473 107.487 167.001 107.458 166.532 107.441C166.064 107.424 165.604 107.408 165.152 107.404C164.7 107.399 164.249 107.404 163.806 107.412C163.362 107.42 162.927 107.441 162.497 107.466C161.907 107.5 161.326 107.55 160.761 107.613C160.196 107.676 159.64 107.747 159.101 107.835C158.561 107.922 158.034 108.023 157.516 108.132C156.997 108.24 156.5 108.37 156.01 108.508C155.521 108.646 155.053 108.797 154.597 108.952C154.141 109.107 153.71 109.278 153.292 109.458C152.874 109.638 152.476 109.822 152.096 110.023C151.715 110.224 151.351 110.429 151.004 110.646C150.657 110.864 150.331 111.09 150.022 111.324C149.712 111.558 149.419 111.805 149.143 112.056C148.867 112.307 148.612 112.571 148.37 112.843C148.127 113.115 147.91 113.391 147.705 113.68C147.5 113.969 147.32 114.261 147.157 114.567C146.994 114.872 146.856 115.178 146.739 115.496C146.622 115.814 146.525 116.14 146.45 116.471C146.375 116.801 146.325 117.144 146.291 117.492C146.258 117.872 146.249 118.241 146.266 118.596C146.283 118.952 146.329 119.299 146.4 119.634C146.471 119.969 146.567 120.295 146.689 120.609C146.81 120.923 146.96 121.224 147.136 121.517C147.312 121.81 147.508 122.098 147.726 122.379C147.943 122.659 148.186 122.939 148.449 123.211C148.713 123.483 148.997 123.751 149.302 124.015C149.608 124.278 149.938 124.538 150.289 124.789C150.641 125.044 151.013 125.295 151.406 125.546C151.799 125.797 152.213 126.044 152.648 126.291C153.083 126.538 153.539 126.78 154.015 127.023C154.492 127.266 154.99 127.509 155.508 127.747C156.027 127.986 156.566 128.228 157.123 128.471C157.679 128.714 158.252 128.956 158.846 129.203C159.439 129.45 160.05 129.697 160.682 129.948C161.313 130.199 161.961 130.45 162.626 130.701C163.538 131.053 164.429 131.412 165.294 131.776C166.16 132.14 167.009 132.517 167.829 132.902C168.648 133.287 169.451 133.676 170.229 134.078C171.007 134.479 171.764 134.885 172.492 135.304C173.223 135.718 173.93 136.153 174.608 136.601C175.285 137.048 175.938 137.517 176.565 137.998C177.192 138.479 177.79 138.982 178.359 139.496C178.928 140.011 179.476 140.546 179.99 141.095C180.509 141.643 180.989 142.216 181.441 142.81C181.893 143.404 182.311 144.023 182.696 144.664C183.08 145.304 183.432 145.969 183.75 146.651C184.067 147.333 184.352 148.045 184.603 148.777L184.607 148.764Z" fill="white"/>
<path d="M211.681 14.5734C211.681 14.4771 211.681 14.3851 211.677 14.2888C211.669 14.1006 211.66 13.9164 211.648 13.7282C211.627 13.4102 211.593 13.0963 211.551 12.7867C211.53 12.6319 211.505 12.4771 211.48 12.3265C211.459 12.2051 211.438 12.088 211.413 11.9708C211.409 11.9373 211.405 11.9039 211.397 11.8704C211.397 11.8578 211.392 11.8495 211.388 11.8411C211.359 11.6946 211.33 11.5482 211.296 11.4059C211.263 11.2637 211.229 11.1214 211.192 10.9792C211.158 10.8453 211.121 10.7114 211.083 10.5817C211.075 10.5607 211.07 10.5398 211.062 10.5189C211.02 10.3808 210.978 10.2469 210.932 10.113C210.899 10.0084 210.861 9.908 210.828 9.8034C210.807 9.75319 210.79 9.70298 210.774 9.65695C210.723 9.53143 210.677 9.4059 210.623 9.28038C210.552 9.10046 210.477 8.92472 210.397 8.74899C210.355 8.65694 210.309 8.5607 210.268 8.46865C209.335 6.54811 207.984 4.88699 206.299 3.55224C204.542 2.16727 202.43 1.14215 200.063 0.556366C197.705 -0.0252351 195.095 -0.167497 192.335 0.200711L45.061 19.904C42.8529 20.2011 40.6825 20.9291 38.6416 21.9961C36.6092 23.0631 34.7022 24.4648 33.021 26.105C31.344 27.7493 29.8887 29.6322 28.7512 31.6657C27.6178 33.7034 26.8023 35.8918 26.405 38.1387L0.355241 186.091C-0.125691 188.828 -0.108963 191.443 0.334331 193.832C0.781807 196.229 1.66421 198.405 2.90627 200.242C4.15251 202.087 5.76677 203.598 7.67796 204.652C8.0878 204.878 8.51436 205.087 8.95347 205.271C9.13748 205.347 9.32149 205.422 9.50968 205.489C9.65605 205.543 9.80242 205.598 9.95298 205.644C9.97807 205.652 9.99898 205.661 10.0199 205.665C10.1119 205.694 10.1997 205.723 10.2875 205.749C10.4465 205.799 10.6054 205.841 10.7643 205.882C10.9023 205.92 11.0403 205.954 11.1783 205.983C11.2996 206.012 11.4167 206.037 11.538 206.062C11.7596 206.108 11.9813 206.146 12.2071 206.179C12.3451 206.2 12.4831 206.221 12.6253 206.238C12.8511 206.267 13.0769 206.288 13.307 206.305C13.6164 206.33 13.9259 206.343 14.2395 206.347L179.082 208.523C182.219 208.564 185.259 207.945 188.069 206.795C190.884 205.64 193.46 203.949 195.664 201.849C197.868 199.748 199.691 197.242 201.004 194.46C202.318 191.681 203.116 188.635 203.275 185.447L211.669 15.678C211.689 15.3056 211.694 14.9374 211.681 14.5734ZM93.8401 113.96L84.7191 187.936L65.2184 187.966L75.0963 115.04L52.2959 116.354L54.5793 101.131L119.994 96.5916L118.28 112.554L93.8401 113.96ZM185.753 159.137C185.669 160.513 185.523 161.84 185.313 163.112C185.1 164.388 184.828 165.614 184.494 166.781C184.159 167.953 183.758 169.07 183.298 170.133C183.189 170.388 183.072 170.643 182.955 170.894C182.942 170.915 182.934 170.94 182.921 170.961C182.821 171.175 182.716 171.384 182.608 171.593C182.587 171.631 182.57 171.664 182.549 171.702C182.424 171.949 182.29 172.191 182.152 172.434C182.056 172.601 181.959 172.769 181.859 172.936C181.847 172.957 181.834 172.974 181.826 172.995C181.788 173.049 181.755 173.108 181.721 173.162C181.575 173.401 181.424 173.639 181.274 173.873C181.148 174.066 181.023 174.25 180.893 174.438C180.839 174.522 180.78 174.601 180.722 174.685C180.617 174.84 180.504 174.995 180.395 175.145C180.37 175.179 180.349 175.208 180.324 175.242C180.161 175.463 179.994 175.681 179.827 175.899C179.153 176.765 178.43 177.589 177.665 178.367C176.903 179.145 176.092 179.878 175.239 180.564C174.39 181.25 173.495 181.895 172.554 182.489C171.617 183.087 170.643 183.639 169.639 184.15C168.636 184.664 167.598 185.133 166.528 185.56C165.461 185.991 164.357 186.376 163.228 186.719C162.095 187.062 160.932 187.363 159.736 187.623C158.544 187.882 157.34 188.108 156.123 188.3C154.91 188.497 153.685 188.656 152.447 188.786C151.209 188.916 149.963 189.012 148.704 189.079C147.445 189.141 146.178 189.175 144.898 189.175C144.572 189.175 144.246 189.175 143.92 189.171C143.272 189.162 142.628 189.15 141.988 189.129C141.67 189.116 141.352 189.108 141.034 189.091C140.566 189.07 140.097 189.045 139.629 189.016H139.604C139.575 189.016 139.545 189.016 139.516 189.008C139.081 188.982 138.65 188.949 138.22 188.916C137.91 188.89 137.605 188.865 137.3 188.836C136.689 188.777 136.083 188.715 135.485 188.639C134.882 188.568 134.284 188.489 133.695 188.405C133.402 188.363 133.109 188.321 132.817 188.275C131.942 188.137 131.077 187.978 130.224 187.811C129.09 187.585 127.999 187.33 126.953 187.045C125.908 186.765 124.904 186.451 123.946 186.116C122.989 185.777 122.073 185.413 121.203 185.02C120.333 184.627 119.505 184.204 118.723 183.756L120.906 162.392C121.743 163.174 122.604 163.911 123.491 164.597C124.381 165.283 125.301 165.923 126.242 166.509C126.715 166.806 127.2 167.087 127.685 167.359C128.17 167.626 128.664 167.886 129.166 168.133C130.169 168.622 131.198 169.066 132.256 169.455C133.314 169.848 134.385 170.187 135.464 170.48C136.547 170.769 137.638 171.011 138.738 171.2C139.842 171.392 140.955 171.53 142.076 171.618C143.196 171.706 144.33 171.739 145.471 171.727C146.14 171.719 146.793 171.693 147.424 171.656C148.056 171.614 148.671 171.56 149.264 171.488C149.858 171.421 150.431 171.334 150.983 171.233C151.539 171.133 152.075 171.016 152.589 170.882C153.104 170.752 153.601 170.606 154.078 170.451C154.316 170.371 154.55 170.292 154.776 170.208C155.006 170.124 155.228 170.037 155.445 169.949C155.629 169.873 155.809 169.794 155.985 169.714C156.048 169.685 156.11 169.66 156.169 169.631C156.349 169.547 156.529 169.459 156.7 169.371C157.097 169.17 157.474 168.953 157.833 168.727C158.189 168.501 158.528 168.262 158.841 168.016C159.159 167.769 159.456 167.513 159.728 167.25C160.004 166.982 160.259 166.71 160.489 166.421C160.723 166.137 160.936 165.844 161.129 165.543C161.317 165.237 161.488 164.923 161.639 164.61C161.79 164.292 161.919 163.969 162.028 163.643C162.137 163.317 162.224 162.982 162.291 162.643C162.358 162.304 162.408 161.957 162.434 161.61C162.471 161.133 162.471 160.672 162.438 160.225C162.404 159.777 162.337 159.342 162.237 158.923C162.137 158.505 161.999 158.099 161.831 157.706C161.66 157.312 161.455 156.936 161.217 156.572C160.978 156.208 160.715 155.852 160.426 155.505C160.138 155.158 159.828 154.814 159.489 154.484C159.155 154.153 158.795 153.831 158.41 153.513C158.314 153.434 158.218 153.358 158.118 153.279C158.013 153.195 157.904 153.112 157.792 153.028C157.695 152.957 157.599 152.886 157.503 152.819C157.398 152.739 157.294 152.664 157.185 152.589C157.076 152.513 156.968 152.438 156.855 152.367C156.746 152.291 156.633 152.216 156.52 152.145C156.29 151.994 156.06 151.852 155.822 151.706C155.349 151.413 154.856 151.124 154.337 150.84C153.823 150.559 153.288 150.279 152.727 149.998C152.171 149.722 151.594 149.45 150.996 149.183C150.398 148.915 149.791 148.643 149.172 148.375C148.553 148.107 147.922 147.835 147.282 147.567C146.83 147.379 146.379 147.187 145.919 146.998C145.722 146.919 145.526 146.835 145.325 146.752C144.995 146.618 144.66 146.484 144.325 146.346C143.987 146.212 143.648 146.078 143.305 145.94C141.57 145.233 139.959 144.484 138.471 143.693C136.986 142.902 135.627 142.074 134.385 141.195C133.151 140.325 132.034 139.408 131.039 138.45C130.048 137.492 129.174 136.492 128.421 135.45C128.233 135.191 128.053 134.931 127.878 134.663C127.702 134.396 127.535 134.124 127.376 133.852C127.213 133.576 127.062 133.299 126.916 133.015C126.769 132.735 126.631 132.45 126.502 132.161C125.979 131.011 125.569 129.801 125.272 128.538C124.975 127.274 124.795 125.952 124.724 124.575C124.653 123.203 124.695 121.772 124.846 120.282C124.967 119.119 125.138 117.994 125.364 116.91C125.59 115.826 125.87 114.78 126.201 113.776C126.535 112.768 126.92 111.801 127.359 110.872C127.794 109.943 128.287 109.052 128.831 108.199C129.375 107.345 129.956 106.529 130.575 105.742C131.194 104.956 131.85 104.207 132.549 103.487C133.243 102.772 133.975 102.085 134.749 101.437C135.522 100.788 136.334 100.169 137.183 99.5875C138.032 99.0017 138.91 98.4536 139.817 97.9348C140.725 97.4159 141.661 96.9306 142.628 96.4787C143.598 96.0226 144.593 95.6 145.618 95.2109C146.646 94.8217 147.705 94.4661 148.792 94.1439C149.879 93.8175 150.983 93.5205 152.1 93.2569C153.221 92.9932 154.354 92.7547 155.5 92.5497C156.65 92.3447 157.817 92.169 158.996 92.0225C160.175 91.8761 161.371 91.7589 162.584 91.6752C163.182 91.6334 163.772 91.5915 164.353 91.5623C164.93 91.5288 165.503 91.4995 166.068 91.4786C167.197 91.4325 168.293 91.4074 169.351 91.4033C170.413 91.3949 171.442 91.4116 172.437 91.4451C173.436 91.4786 174.398 91.533 175.327 91.6083C176.255 91.6836 177.167 91.7757 178.058 91.8928C178.953 92.0058 179.831 92.1439 180.688 92.2987C181.545 92.4535 182.386 92.6334 183.206 92.8301C183.616 92.9305 184.025 93.0309 184.427 93.1397C184.828 93.2485 185.226 93.3656 185.619 93.4828L184.398 112.558C184.013 112.312 183.616 112.073 183.214 111.843C182.813 111.617 182.399 111.395 181.98 111.182C181.558 110.973 181.131 110.768 180.692 110.575C180.253 110.379 179.806 110.194 179.35 110.019C178.894 109.843 178.434 109.676 177.97 109.517C177.51 109.362 177.041 109.211 176.573 109.073C176.1 108.931 175.628 108.801 175.151 108.68C174.674 108.558 174.193 108.445 173.708 108.341C173.47 108.286 173.227 108.236 172.985 108.19C172.742 108.144 172.5 108.094 172.261 108.052C172.023 108.01 171.78 107.968 171.538 107.931C171.299 107.893 171.061 107.855 170.819 107.822C170.338 107.751 169.857 107.692 169.38 107.638C168.899 107.588 168.422 107.542 167.941 107.508C167.465 107.471 166.992 107.445 166.524 107.424C166.059 107.408 165.599 107.395 165.144 107.391C164.688 107.387 164.24 107.391 163.797 107.399C163.354 107.408 162.919 107.429 162.488 107.454C162.195 107.471 161.902 107.491 161.61 107.517C161.321 107.542 161.033 107.567 160.752 107.596C160.472 107.625 160.188 107.663 159.912 107.701C159.636 107.734 159.36 107.776 159.092 107.818C158.825 107.86 158.557 107.91 158.293 107.96C158.03 108.01 157.766 108.06 157.507 108.119C156.993 108.232 156.491 108.358 156.002 108.496C155.512 108.634 155.044 108.78 154.588 108.939C154.136 109.098 153.702 109.266 153.283 109.445C152.865 109.621 152.468 109.809 152.087 110.01C151.703 110.207 151.343 110.412 150.996 110.634C150.649 110.851 150.322 111.077 150.013 111.312C149.699 111.546 149.407 111.793 149.131 112.044C148.859 112.295 148.599 112.558 148.361 112.83C148.119 113.098 147.897 113.379 147.692 113.667C147.491 113.956 147.307 114.249 147.148 114.55C146.985 114.856 146.847 115.165 146.73 115.483C146.613 115.797 146.517 116.123 146.442 116.458C146.366 116.789 146.316 117.128 146.287 117.475C146.253 117.856 146.245 118.224 146.262 118.579C146.278 118.935 146.324 119.282 146.396 119.617C146.467 119.956 146.563 120.278 146.684 120.592C146.805 120.906 146.956 121.211 147.132 121.5C147.307 121.793 147.504 122.082 147.721 122.366C147.943 122.647 148.181 122.927 148.445 123.199C148.512 123.266 148.579 123.333 148.645 123.4C148.712 123.471 148.783 123.538 148.855 123.605C148.997 123.739 149.147 123.868 149.298 124.002C149.607 124.266 149.938 124.525 150.289 124.78C150.64 125.036 151.012 125.287 151.406 125.538C151.799 125.789 152.213 126.036 152.643 126.283C153.078 126.529 153.534 126.772 154.011 127.015C154.488 127.257 154.985 127.5 155.504 127.739C156.027 127.977 156.562 128.22 157.118 128.463C157.674 128.705 158.247 128.948 158.841 129.195C159.435 129.442 160.046 129.688 160.673 129.94C161.304 130.186 161.953 130.437 162.622 130.693C163.533 131.04 164.424 131.4 165.29 131.768C166.156 132.132 167.005 132.509 167.824 132.889C168.648 133.274 169.447 133.668 170.225 134.065C171.003 134.467 171.759 134.873 172.491 135.291C173.223 135.705 173.926 136.136 174.603 136.588C175.285 137.036 175.937 137.5 176.56 137.982C177.188 138.467 177.786 138.965 178.355 139.479C178.927 139.994 179.471 140.53 179.99 141.078C180.504 141.626 180.989 142.199 181.441 142.793C181.893 143.387 182.311 144.007 182.695 144.647C183.08 145.287 183.432 145.948 183.749 146.634C184.071 147.321 184.356 148.032 184.607 148.764C184.858 149.496 185.071 150.258 185.242 151.057C185.418 151.856 185.552 152.685 185.648 153.551C185.744 154.417 185.803 155.312 185.819 156.241C185.836 157.174 185.815 158.141 185.753 159.137Z" fill="#3178C6"/>
<path d="M52.2961 116.354L54.5837 101.132L119.995 96.5962L118.28 112.555L93.8403 113.961L84.7193 187.937L65.2228 187.97L75.0965 115.04L52.2961 116.354Z" fill="white"/>
</g>
<defs>
<clipPath id="clip0_8002_23239">
<rect width="227" height="224" fill="white"/>
</clipPath>
</defs>
</svg>
