<svg width="153" height="170" viewBox="0 0 153 170" fill="none" xmlns="http://www.w3.org/2000/svg">
<g clip-path="url(#clip0_1036_5552)">
<path d="M152.148 118.293V51.6972C152.148 45.1177 148.642 39.0443 142.946 35.7591L85.2761 2.46582C79.5799 -0.819336 72.5679 -0.819336 66.8718 2.46582L9.20212 35.7591C3.50601 39.0535 0 45.1269 0 51.6972V118.293C0 124.872 3.50601 130.946 9.20212 134.231L66.8718 167.524C72.5679 170.809 79.5799 170.809 85.2761 167.524L142.946 134.231C148.642 130.946 152.148 124.863 152.148 118.293Z" fill="#E1E1E1" fill-opacity="0.06"/>
<path fill-rule="evenodd" clip-rule="evenodd" d="M94.7163 103.34C94.7163 104.361 94.5231 105.226 94.1366 105.944C93.7501 106.662 93.2256 107.205 92.563 107.582C91.9005 107.959 91.1551 108.143 90.3269 108.143C89.4987 108.143 88.7441 107.95 88.0816 107.573C87.419 107.196 86.8945 106.644 86.508 105.935C86.1215 105.217 85.9283 104.352 85.9283 103.331C85.9283 102.309 86.1215 101.444 86.508 100.727C86.8945 100.009 87.419 99.4659 88.0816 99.0886C88.7441 98.7113 89.4895 98.5181 90.3269 98.5181C91.1643 98.5181 91.9005 98.7113 92.563 99.0886C93.2256 99.4659 93.7501 100.009 94.1366 100.727C94.5231 101.444 94.7163 102.309 94.7163 103.331V103.34ZM92.7103 103.34C92.7103 102.677 92.609 102.116 92.4158 101.665C92.2225 101.214 91.9465 100.865 91.5876 100.635C91.2287 100.405 90.8146 100.285 90.3361 100.285C89.8576 100.285 89.4435 100.405 89.0846 100.635C88.7257 100.874 88.4497 101.214 88.2564 101.665C88.0632 102.116 87.962 102.677 87.962 103.34C87.962 104.003 88.0632 104.564 88.2564 105.015C88.4497 105.466 88.7257 105.815 89.0846 106.045C89.4435 106.275 89.8576 106.395 90.3361 106.395C90.8146 106.395 91.2287 106.275 91.5876 106.045C91.9465 105.815 92.2225 105.466 92.4158 105.015C92.609 104.564 92.7103 104.003 92.7103 103.34ZM29.2804 108.024V98.656H32.9797C33.6882 98.656 34.2956 98.7848 34.7925 99.0333C35.2894 99.2818 35.6759 99.6406 35.9428 100.101C36.2096 100.561 36.3385 101.095 36.3385 101.72C36.3385 102.346 36.2004 102.88 35.9336 103.321C35.6667 103.763 35.2802 104.113 34.7649 104.352C34.7381 104.365 34.711 104.377 34.6836 104.389L36.6697 108.024H34.4796L32.7052 104.711H31.2589V108.024H29.2804ZM32.6024 103.119H31.2589V100.276H32.5932C32.9705 100.276 33.2926 100.331 33.541 100.441C33.7895 100.552 33.9827 100.717 34.1023 100.929C34.222 101.15 34.2864 101.417 34.2864 101.72C34.2864 102.024 34.222 102.282 34.1023 102.493C33.9735 102.705 33.7895 102.861 33.541 102.963C33.2926 103.064 32.9797 103.119 32.6024 103.119ZM39.0253 108.024V98.656H45.338V100.285H41.0038V102.521H45.0067V104.15H41.0038V106.386H45.3564V108.024H39.0253ZM47.6937 108.024H49.8009L50.4963 105.889H53.8842L54.5768 108.024H56.7025L53.4726 98.656H50.9236L47.6937 108.024ZM53.3827 104.343L52.2303 100.791H52.1567L50.9998 104.343H53.3827ZM59.1226 108.024V98.656H61.1011V106.395H65.1224V108.033H59.1226V108.024ZM71.426 98.656L74.1038 108.024H76.0362L77.8122 101.895H77.8859L79.6711 108.024H81.6035L84.2813 98.656H82.1188L80.5637 105.18H80.4809L78.7785 98.656H76.9288L75.2172 105.162H75.1436L73.5885 98.656H71.426ZM97.4678 98.656V108.024H99.4462V104.711H100.893L102.667 108.024H104.857L102.871 104.389C102.898 104.377 102.925 104.365 102.952 104.352C103.468 104.113 103.854 103.763 104.121 103.321C104.388 102.88 104.526 102.346 104.526 101.72C104.526 101.095 104.397 100.561 104.13 100.101C103.863 99.6406 103.486 99.2818 102.98 99.0333C102.483 98.7848 101.876 98.656 101.167 98.656H97.4678ZM99.4462 103.119H100.79C101.167 103.119 101.48 103.064 101.728 102.963C101.977 102.861 102.161 102.705 102.29 102.493C102.409 102.282 102.474 102.024 102.474 101.72C102.474 101.417 102.409 101.15 102.29 100.929C102.17 100.717 101.977 100.552 101.728 100.441C101.48 100.331 101.158 100.276 100.781 100.276H99.4462V103.119ZM107.213 108.024V98.656H109.192V106.395H113.213V108.033H107.213V108.024ZM115.808 108.024H119.13C120.087 108.024 120.906 107.84 121.587 107.462C122.277 107.085 122.801 106.542 123.169 105.843C123.538 105.144 123.722 104.297 123.722 103.331C123.722 102.364 123.538 101.527 123.169 100.828C122.801 100.128 122.277 99.5946 121.596 99.2173C120.915 98.8401 120.096 98.656 119.157 98.656H115.808V108.024ZM119.047 106.321H117.786V100.349H119.047C119.636 100.349 120.133 100.46 120.528 100.662C120.924 100.865 121.228 101.187 121.43 101.628C121.633 102.061 121.734 102.622 121.734 103.321C121.734 104.021 121.633 104.591 121.43 105.033C121.228 105.475 120.933 105.797 120.528 106.009C120.124 106.22 119.636 106.321 119.047 106.321ZM36.1725 118.505H34.1664C34.1296 118.247 34.056 118.017 33.9455 117.815C33.8351 117.612 33.6879 117.438 33.513 117.3C33.3382 117.162 33.1358 117.042 32.9057 116.968C32.6757 116.895 32.4272 116.858 32.1603 116.858C31.6726 116.858 31.2493 116.978 30.8904 117.217C30.5316 117.456 30.2555 117.806 30.053 118.257C29.8506 118.717 29.7586 119.269 29.7586 119.913C29.7586 120.557 29.8598 121.146 30.0622 121.597C30.2647 122.048 30.5408 122.398 30.8996 122.628C31.2585 122.858 31.6726 122.977 32.1511 122.977C32.418 122.977 32.6664 122.941 32.8873 122.876C33.1174 122.802 33.3198 122.701 33.4946 122.563C33.6695 122.425 33.8167 122.26 33.9363 122.066C34.056 121.873 34.1388 121.643 34.1848 121.395H36.1909C36.1356 121.836 36.0068 122.25 35.8044 122.646C35.6019 123.042 35.3259 123.401 34.9762 123.713C34.6265 124.026 34.2216 124.275 33.7431 124.459C33.2646 124.643 32.7217 124.726 32.1235 124.726C31.2861 124.726 30.5408 124.532 29.8874 124.155C29.2341 123.778 28.7095 123.226 28.3323 122.517C27.955 121.799 27.7617 120.934 27.7617 119.913C27.7617 118.892 27.955 118.027 28.3415 117.309C28.7279 116.591 29.2433 116.048 29.9058 115.671C30.5684 115.294 31.3045 115.1 32.1327 115.1C32.6757 115.1 33.1818 115.174 33.6419 115.33C34.1112 115.487 34.5161 115.708 34.8842 115.993C35.243 116.287 35.5375 116.637 35.7676 117.06C35.9976 117.484 36.1357 117.962 36.2001 118.505H36.1725ZM38.8874 115.22V124.588H40.8658V120.713H44.8872V124.588H46.8656V115.22H44.8872V119.085H40.8658V115.22H38.8874ZM51.3839 124.588H49.2766L52.5066 115.22H55.0555L58.2855 124.588H56.1598L55.4672 122.453H52.0792L51.3839 124.588ZM53.8133 117.355L54.9656 120.907H52.5828L53.7396 117.355H53.8133ZM60.7056 115.22V124.588V124.597H66.7054V122.959H62.684V115.22H60.7056ZM69.3097 124.588V115.22H71.2881V122.959H75.3094V124.597H69.3097V124.588ZM77.9043 115.22V124.588H84.2354V122.95H79.8828V120.713H83.8857V119.085H79.8828V116.849H84.2169V115.22H77.9043ZM94.9282 115.22V124.588H93.2166L89.1401 118.689H89.0665V124.588H87.088V115.22H88.8272L92.8761 121.109H92.959V115.22H94.9282ZM104.051 118.229L104.056 118.247L104.047 118.229H104.051ZM106.063 118.229H104.051C103.987 118.015 103.897 117.819 103.79 117.658C103.67 117.483 103.532 117.336 103.366 117.217C103.201 117.097 103.007 117.005 102.796 116.94C102.584 116.876 102.354 116.839 102.096 116.839C101.618 116.839 101.195 116.959 100.836 117.198C100.477 117.437 100.192 117.778 99.9892 118.229C99.7867 118.68 99.6855 119.232 99.6855 119.885C99.6855 120.539 99.7867 121.091 99.9799 121.551C100.182 122.011 100.458 122.361 100.827 122.591C101.185 122.83 101.618 122.949 102.115 122.949C102.566 122.949 102.943 122.867 103.265 122.71C103.587 122.554 103.826 122.324 103.992 122.029C104.15 121.748 104.241 121.425 104.249 121.045H102.244V119.554H106.164V120.732C106.164 121.551 105.989 122.259 105.639 122.848C105.29 123.437 104.811 123.897 104.204 124.21C103.596 124.532 102.897 124.689 102.106 124.689C101.231 124.689 100.458 124.495 99.7867 124.109C99.1242 123.722 98.5996 123.17 98.2315 122.453C97.8635 121.735 97.6794 120.879 97.6794 119.894C97.6794 119.14 97.7898 118.459 98.0107 117.861C98.2316 117.263 98.5444 116.756 98.9401 116.342C99.3358 115.928 99.8051 115.615 100.339 115.395C100.873 115.183 101.443 115.072 102.06 115.072C102.593 115.072 103.081 115.146 103.541 115.303C104.001 115.459 104.406 115.671 104.756 115.956C105.115 116.232 105.4 116.572 105.63 116.959C105.86 117.345 105.998 117.769 106.063 118.229ZM108.934 124.588V115.22H115.246V116.849H110.912V119.085H114.915V120.713H110.912V122.95H115.265V124.588H108.934ZM122.728 117.051C123.004 117.263 123.16 117.548 123.197 117.916H123.215H125.111C125.102 117.355 124.945 116.867 124.66 116.444C124.366 116.02 123.961 115.689 123.445 115.45C122.93 115.211 122.304 115.091 121.623 115.091C120.943 115.091 120.335 115.211 119.792 115.45C119.249 115.689 118.826 116.02 118.522 116.444C118.219 116.867 118.071 117.364 118.071 117.934C118.071 118.624 118.292 119.177 118.752 119.582C119.203 119.986 119.829 120.29 120.62 120.483L121.642 120.741C121.982 120.824 122.268 120.916 122.507 121.017C122.746 121.118 122.93 121.238 123.05 121.385C123.169 121.532 123.234 121.707 123.234 121.919C123.234 122.14 123.169 122.342 123.031 122.517C122.893 122.692 122.7 122.821 122.452 122.922C122.203 123.023 121.927 123.069 121.577 123.069C121.228 123.069 120.924 123.014 120.657 122.913C120.39 122.811 120.17 122.655 120.013 122.443C119.847 122.232 119.755 121.974 119.737 121.661H117.823C117.832 122.333 117.998 122.894 118.311 123.354C118.624 123.814 119.056 124.155 119.617 124.385C120.179 124.615 120.841 124.735 121.596 124.735C122.35 124.735 123.004 124.615 123.547 124.385C124.09 124.155 124.504 123.833 124.789 123.41C125.074 122.986 125.222 122.489 125.222 121.919C125.222 121.523 125.148 121.183 125.01 120.879C124.872 120.575 124.679 120.308 124.43 120.088C124.182 119.867 123.887 119.683 123.547 119.526C123.206 119.37 122.829 119.25 122.424 119.158L121.587 118.956C121.375 118.91 121.191 118.855 121.007 118.79C120.823 118.726 120.666 118.652 120.528 118.56C120.39 118.468 120.28 118.367 120.206 118.238C120.124 118.109 120.096 117.962 120.096 117.796C120.096 117.594 120.151 117.41 120.271 117.253C120.381 117.097 120.556 116.977 120.777 116.885C120.998 116.793 121.274 116.747 121.596 116.747C122.074 116.747 122.452 116.848 122.728 117.051Z" fill="#E6E9FA" fill-opacity="0.5"/>
<path fill-rule="evenodd" clip-rule="evenodd" d="M63.9177 34C62.6105 34 61.3577 34.5213 60.4395 35.4395C59.5136 36.3655 59 37.6183 59 38.9177V64.0823C59 65.3895 59.5213 66.6423 60.4395 67.5605C61.3655 68.4864 62.6183 69 63.9177 69H89.0823C90.3895 69 91.6423 68.4787 92.5605 67.5605C93.4787 66.6423 94 65.3817 94 64.0823V38.9177C94 37.6105 93.4787 36.3577 92.5605 35.4395C91.6345 34.5136 90.3817 34 89.0823 34H63.9177ZM72.7339 47.7417C73.0218 47.4304 73.1852 47.018 73.1774 46.59C73.1774 46.1621 72.9984 45.7574 72.695 45.4618C72.3915 45.1661 71.9869 44.9871 71.5667 44.9793C71.1387 44.9793 70.7263 45.1272 70.4151 45.4229L65.4895 50.3484C65.1783 50.6596 65.0071 51.072 65.0071 51.5078C65.0071 51.9435 65.1783 52.3637 65.4895 52.6672L70.4151 57.5927C70.7263 57.8806 71.1387 58.044 71.5667 58.0362C71.9947 58.0362 72.3993 57.8573 72.695 57.5538C72.9907 57.2503 73.1696 56.8457 73.1774 56.4255C73.1774 55.9976 73.0296 55.5851 72.7339 55.2739L68.9678 51.5078L72.7339 47.7417ZM82.5849 45.4229C82.4371 45.2594 82.2503 45.1349 82.0558 45.0416C81.8535 44.9482 81.6356 44.9015 81.4177 44.9015C81.1999 44.9015 80.982 44.9404 80.7719 45.0182C80.5696 45.1038 80.3828 45.2205 80.2272 45.3762C80.0716 45.5318 79.9471 45.7185 79.8693 45.9209C79.7837 46.1232 79.7448 46.341 79.7526 46.5667C79.7526 46.7846 79.807 47.0024 79.8926 47.2048C79.986 47.4071 80.1105 47.586 80.2739 47.7339L84.04 51.5L80.2739 55.2661C80.1105 55.414 79.986 55.6007 79.8926 55.7952C79.7992 55.9976 79.7526 56.2154 79.7526 56.4333C79.7526 56.6512 79.7915 56.8691 79.8693 57.0791C79.9549 57.2815 80.0716 57.4682 80.2272 57.6238C80.3828 57.7795 80.5696 57.904 80.7719 57.9818C80.9742 58.0674 81.1921 58.1063 81.4177 58.0985C81.6356 58.0985 81.8535 58.044 82.0558 57.9584C82.2581 57.865 82.4371 57.7406 82.5849 57.5771L87.5104 52.6516C87.8217 52.3404 87.9929 51.928 87.9929 51.4922C87.9929 51.0565 87.8217 50.6363 87.5104 50.3328L82.5849 45.4073V45.4229Z" fill="#E6E9FA" fill-opacity="0.5"/>
</g>
<defs>
<clipPath id="clip0_1036_5552">
<rect width="152.148" height="170" fill="white" transform="translate(0.339844)"/>
</clipPath>
</defs>
</svg>
