<svg width="171" height="190" viewBox="0 0 171 190" fill="none" xmlns="http://www.w3.org/2000/svg">
<g clip-path="url(#clip0_1082_5547)">
<path d="M159.133 40.3988L159.133 40.399C165.344 43.9812 169.168 50.6039 169.168 57.779V132.21C169.168 139.374 165.344 146.007 159.133 149.59L159.133 149.59L94.6789 186.8C94.6788 186.8 94.6787 186.8 94.6787 186.8C88.467 190.382 80.8206 190.382 74.609 186.8L10.1548 149.59L10.1546 149.59C3.94337 146.007 0.120117 139.385 0.120117 132.21V57.779C0.120117 50.6145 3.94319 43.9914 10.1552 40.3987L74.609 3.18882C80.8206 -0.393631 88.467 -0.393666 94.6787 3.18871C94.6787 3.18875 94.6788 3.18878 94.6789 3.18882L159.133 40.3988Z" fill="url(#paint0_linear_1082_5547)" fill-opacity="0.2" stroke="url(#paint1_linear_1082_5547)"/>
<path fill-rule="evenodd" clip-rule="evenodd" d="M105.48 115.498C105.48 116.639 105.264 117.606 104.832 118.408C104.4 119.21 103.814 119.817 103.073 120.239C102.333 120.661 101.5 120.866 100.574 120.866C99.6486 120.866 98.8053 120.65 98.0648 120.229C97.3243 119.807 96.738 119.19 96.3061 118.398C95.8741 117.596 95.6581 116.629 95.6581 115.487C95.6581 114.346 95.8741 113.379 96.3061 112.577C96.738 111.775 97.3243 111.168 98.0648 110.746C98.8053 110.324 99.6383 110.108 100.574 110.108C101.51 110.108 102.333 110.324 103.073 110.746C103.814 111.168 104.4 111.775 104.832 112.577C105.264 113.379 105.48 114.346 105.48 115.487V115.498ZM103.238 115.498C103.238 114.757 103.125 114.13 102.909 113.626C102.693 113.122 102.384 112.731 101.983 112.474C101.582 112.217 101.119 112.083 100.585 112.083C100.05 112.083 99.5869 112.217 99.1858 112.474C98.7847 112.741 98.4762 113.122 98.2602 113.626C98.0442 114.13 97.9311 114.757 97.9311 115.498C97.9311 116.238 98.0442 116.865 98.2602 117.369C98.4762 117.873 98.7847 118.264 99.1858 118.521C99.5869 118.778 100.05 118.912 100.585 118.912C101.119 118.912 101.582 118.778 101.983 118.521C102.384 118.264 102.693 117.873 102.909 117.369C103.125 116.865 103.238 116.238 103.238 115.498ZM32.3458 120.732V110.263H36.4803C37.2722 110.263 37.951 110.407 38.5064 110.684C39.0617 110.962 39.4937 111.363 39.792 111.877C40.0902 112.392 40.2342 112.988 40.2342 113.687C40.2342 114.387 40.0799 114.983 39.7817 115.477C39.4834 115.971 39.0515 116.361 38.4755 116.629C38.4456 116.643 38.4153 116.657 38.3847 116.67L40.6045 120.732H38.1567L36.1735 117.03H34.557V120.732H32.3458ZM36.0586 115.251H34.557V112.073H36.0483C36.47 112.073 36.83 112.134 37.1076 112.258C37.3853 112.381 37.6013 112.566 37.735 112.803C37.8687 113.05 37.9407 113.348 37.9407 113.687C37.9407 114.027 37.8687 114.315 37.735 114.551C37.591 114.788 37.3853 114.963 37.1076 115.076C36.83 115.189 36.4803 115.251 36.0586 115.251ZM43.2372 120.732V110.263H50.2925V112.083H45.4484V114.582H49.9223V116.403H45.4484V118.902H50.3131V120.732H43.2372ZM52.9253 120.732H55.2805L56.0576 118.346H59.8442L60.6183 120.732H62.9941L59.3841 110.263H56.5352L52.9253 120.732ZM59.2836 116.619L57.9957 112.649H57.9134L56.6204 116.619H59.2836ZM65.6989 120.732V110.263H67.9101V118.912H72.4045V120.743H65.6989V120.732ZM79.4497 110.263L82.4425 120.732H84.6023L86.5873 113.883H86.6695L88.6648 120.732H90.8246L93.8174 110.263H91.4005L89.6624 117.554H89.5698L87.6671 110.263H85.5999L83.687 117.534H83.6047L81.8666 110.263H79.4497ZM108.555 110.263V120.732H110.766V117.03H112.383L114.366 120.732H116.814L114.594 116.67C114.625 116.657 114.655 116.643 114.685 116.629C115.261 116.361 115.693 115.971 115.991 115.477C116.289 114.983 116.444 114.387 116.444 113.687C116.444 112.988 116.3 112.392 116.001 111.877C115.703 111.363 115.281 110.962 114.716 110.684C114.16 110.407 113.482 110.263 112.69 110.263H108.555ZM110.766 115.251H112.268C112.69 115.251 113.039 115.189 113.317 115.076C113.595 114.963 113.8 114.788 113.944 114.551C114.078 114.315 114.15 114.027 114.15 113.687C114.15 113.348 114.078 113.05 113.944 112.803C113.811 112.566 113.595 112.381 113.317 112.258C113.039 112.134 112.679 112.073 112.258 112.073H110.766V115.251ZM119.447 120.732V110.263H121.658V118.912H126.153V120.743H119.447V120.732ZM129.053 120.732H132.766C133.835 120.732 134.751 120.527 135.512 120.105C136.283 119.683 136.869 119.077 137.281 118.295C137.692 117.513 137.898 116.567 137.898 115.487C137.898 114.407 137.692 113.471 137.281 112.69C136.869 111.908 136.283 111.312 135.522 110.89C134.761 110.468 133.846 110.263 132.796 110.263H129.053V120.732ZM132.673 118.83H131.264V112.155H132.673C133.331 112.155 133.887 112.278 134.329 112.505C134.771 112.731 135.111 113.091 135.337 113.585C135.563 114.068 135.676 114.695 135.676 115.477C135.676 116.259 135.563 116.896 135.337 117.39C135.111 117.884 134.781 118.244 134.329 118.48C133.876 118.717 133.331 118.83 132.673 118.83ZM40.0487 132.447H37.8066C37.7655 132.159 37.6832 131.902 37.5598 131.675C37.4364 131.449 37.2718 131.254 37.0764 131.1C36.881 130.945 36.6547 130.812 36.3976 130.729C36.1405 130.647 35.8628 130.606 35.5645 130.606C35.0194 130.606 34.5463 130.74 34.1452 131.007C33.7441 131.274 33.4356 131.665 33.2093 132.169C32.9831 132.683 32.8802 133.3 32.8802 134.02C32.8802 134.74 32.9934 135.399 33.2196 135.903C33.4459 136.406 33.7544 136.797 34.1555 137.054C34.5566 137.312 35.0194 137.445 35.5543 137.445C35.8525 137.445 36.1302 137.404 36.377 137.332C36.6341 137.25 36.8604 137.137 37.0558 136.982C37.2512 136.828 37.4158 136.643 37.5495 136.427C37.6832 136.211 37.7758 135.954 37.8272 135.676H40.0692C40.0075 136.17 39.8636 136.633 39.6373 137.075C39.411 137.517 39.1025 137.918 38.7117 138.268C38.3208 138.618 37.8683 138.895 37.3335 139.101C36.7987 139.307 36.1919 139.399 35.5234 139.399C34.5875 139.399 33.7544 139.183 33.0242 138.762C32.294 138.34 31.7078 137.723 31.2861 136.931C30.8644 136.129 30.6484 135.162 30.6484 134.02C30.6484 132.879 30.8644 131.912 31.2964 131.11C31.7283 130.308 32.3043 129.701 33.0448 129.279C33.7853 128.857 34.6081 128.641 35.5337 128.641C36.1405 128.641 36.7061 128.724 37.2204 128.899C37.7449 129.073 38.1974 129.32 38.6088 129.639C39.0099 129.968 39.339 130.359 39.5961 130.832C39.8533 131.305 40.0075 131.84 40.0795 132.447H40.0487ZM43.083 128.775V139.245H45.2942V134.915H49.7887V139.245H51.9999V128.775H49.7887V133.095H45.2942V128.775H43.083ZM57.0497 139.245H54.6945L58.3044 128.775H61.1533L64.7632 139.245H62.3875L61.6134 136.859H57.8268L57.0497 139.245ZM59.7649 131.161L61.0528 135.131H58.3896L59.6826 131.161H59.7649ZM67.468 128.775V139.245V139.255H74.1737V137.425H69.6793V128.775H67.468ZM77.0844 139.245V128.775H79.2956V137.425H83.79V139.255H77.0844V139.245ZM86.6901 128.775V139.245H93.766V137.414H88.9014V134.915H93.3752V133.095H88.9014V130.595H93.7455V128.775H86.6901ZM105.717 128.775V139.245H103.804L99.2478 132.652H99.1655V139.245H96.9543V128.775H98.8981L103.423 135.357H103.516V128.775H105.717ZM115.913 132.138L115.919 132.159L115.909 132.138H115.913ZM118.161 132.138H115.913C115.841 131.899 115.741 131.68 115.621 131.5C115.487 131.305 115.333 131.14 115.148 131.007C114.963 130.873 114.747 130.77 114.51 130.698C114.274 130.626 114.016 130.585 113.728 130.585C113.194 130.585 112.721 130.719 112.319 130.986C111.918 131.254 111.599 131.634 111.373 132.138C111.147 132.642 111.034 133.259 111.034 133.989C111.034 134.719 111.147 135.337 111.363 135.851C111.589 136.365 111.898 136.756 112.309 137.013C112.71 137.28 113.194 137.414 113.749 137.414C114.253 137.414 114.675 137.322 115.035 137.147C115.395 136.972 115.662 136.715 115.847 136.386C116.024 136.072 116.125 135.711 116.134 135.285H113.893V133.619H118.274V134.935C118.274 135.851 118.079 136.643 117.688 137.301C117.297 137.959 116.762 138.473 116.084 138.823C115.405 139.183 114.623 139.358 113.739 139.358C112.762 139.358 111.898 139.142 111.147 138.71C110.406 138.278 109.82 137.661 109.409 136.859C108.997 136.057 108.792 135.1 108.792 134C108.792 133.156 108.915 132.395 109.162 131.727C109.409 131.058 109.759 130.492 110.201 130.03C110.643 129.567 111.168 129.217 111.764 128.97C112.361 128.734 112.998 128.61 113.687 128.61C114.284 128.61 114.829 128.693 115.343 128.867C115.857 129.042 116.31 129.279 116.701 129.598C117.102 129.906 117.421 130.287 117.678 130.719C117.935 131.151 118.089 131.624 118.161 132.138ZM121.37 139.245V128.775H128.425V130.595H123.581V133.095H128.055V134.915H123.581V137.414H128.446V139.245H121.37ZM136.787 130.822C137.095 131.058 137.27 131.377 137.311 131.788H137.332H139.451C139.44 131.161 139.266 130.616 138.947 130.143C138.618 129.67 138.165 129.299 137.589 129.032C137.013 128.765 136.314 128.631 135.553 128.631C134.792 128.631 134.113 128.765 133.506 129.032C132.899 129.299 132.426 129.67 132.087 130.143C131.747 130.616 131.583 131.171 131.583 131.809C131.583 132.58 131.83 133.197 132.344 133.65C132.848 134.102 133.547 134.442 134.432 134.658L135.573 134.946C135.954 135.038 136.273 135.141 136.54 135.254C136.807 135.367 137.013 135.501 137.147 135.666C137.281 135.83 137.353 136.026 137.353 136.262C137.353 136.509 137.281 136.735 137.126 136.931C136.972 137.126 136.756 137.27 136.478 137.383C136.201 137.496 135.892 137.548 135.501 137.548C135.111 137.548 134.771 137.486 134.473 137.373C134.175 137.26 133.928 137.085 133.753 136.848C133.568 136.612 133.465 136.324 133.444 135.974H131.305C131.315 136.725 131.501 137.352 131.85 137.867C132.2 138.381 132.683 138.761 133.311 139.019C133.938 139.276 134.679 139.409 135.522 139.409C136.365 139.409 137.095 139.276 137.702 139.019C138.309 138.761 138.772 138.401 139.091 137.928C139.41 137.455 139.574 136.9 139.574 136.262C139.574 135.82 139.492 135.439 139.338 135.1C139.183 134.761 138.967 134.462 138.69 134.216C138.412 133.969 138.083 133.763 137.702 133.588C137.322 133.413 136.9 133.28 136.448 133.177L135.512 132.951C135.275 132.899 135.069 132.837 134.864 132.765C134.658 132.693 134.483 132.611 134.329 132.508C134.175 132.405 134.051 132.292 133.969 132.148C133.876 132.004 133.845 131.84 133.845 131.655C133.845 131.428 133.907 131.223 134.041 131.048C134.164 130.873 134.36 130.739 134.607 130.636C134.853 130.534 135.162 130.482 135.522 130.482C136.057 130.482 136.478 130.595 136.787 130.822Z" fill="#07080E"/>
<path fill-rule="evenodd" clip-rule="evenodd" d="M71.0578 38C69.5968 38 68.1966 38.5827 67.1704 39.6089C66.1355 40.6438 65.5615 42.044 65.5615 43.4963V71.6213C65.5615 73.0824 66.1442 74.4826 67.1704 75.5088C68.2053 76.5437 69.6055 77.1176 71.0578 77.1176H99.1829C100.644 77.1176 102.044 76.535 103.07 75.5088C104.096 74.4826 104.679 73.0737 104.679 71.6213V43.4963C104.679 42.0353 104.096 40.6351 103.07 39.6089C102.035 38.574 100.635 38 99.1829 38H71.0578ZM80.9112 53.3583C81.2329 53.0105 81.4156 52.5495 81.4069 52.0712C81.4069 51.5929 81.2068 51.1407 80.8677 50.8102C80.5285 50.4797 80.0763 50.2797 79.6067 50.271C79.1283 50.271 78.6674 50.4362 78.3195 50.7667L72.8145 56.2717C72.4667 56.6196 72.2754 57.0805 72.2754 57.5675C72.2754 58.0545 72.4667 58.5242 72.8145 58.8633L78.3195 64.3683C78.6674 64.6901 79.1283 64.8727 79.6067 64.864C80.085 64.864 80.5372 64.664 80.8677 64.3248C81.1981 63.9857 81.3982 63.5334 81.4069 63.0638C81.4069 62.5855 81.2416 62.1246 80.9112 61.7767L76.702 57.5675L80.9112 53.3583ZM91.9211 50.7667C91.7559 50.5841 91.5472 50.4449 91.3298 50.3406C91.1037 50.2362 90.8602 50.184 90.6166 50.184C90.3731 50.184 90.1296 50.2275 89.8948 50.3145C89.6687 50.4102 89.46 50.5406 89.2861 50.7145C89.1121 50.8885 88.973 51.0972 88.886 51.3233C88.7903 51.5494 88.7469 51.7929 88.7556 52.0451C88.7556 52.2886 88.8164 52.5321 88.9121 52.7583C89.0165 52.9844 89.1556 53.1844 89.3382 53.3496L93.5474 57.5588L89.3382 61.768C89.1556 61.9332 89.0165 62.142 88.9121 62.3594C88.8077 62.5855 88.7556 62.829 88.7556 63.0725C88.7556 63.316 88.799 63.5595 88.886 63.7943C88.9817 64.0205 89.1121 64.2292 89.2861 64.4031C89.46 64.577 89.6687 64.7162 89.8948 64.8032C90.1209 64.8988 90.3644 64.9423 90.6166 64.9336C90.8602 64.9336 91.1037 64.8727 91.3298 64.7771C91.5559 64.6727 91.7559 64.5336 91.9211 64.3509L97.4261 58.8459C97.774 58.4981 97.9653 58.0371 97.9653 57.5501C97.9653 57.0631 97.774 56.5935 97.4261 56.2543L91.9211 50.7493V50.7667Z" fill="url(#paint2_linear_1082_5547)"/>
</g>
<defs>
<linearGradient id="paint0_linear_1082_5547" x1="169.668" y1="189.987" x2="169.668" y2="0.00195312" gradientUnits="userSpaceOnUse">
<stop stop-color="#00A3FF"/>
<stop offset="1" stop-color="#4255FF"/>
</linearGradient>
<linearGradient id="paint1_linear_1082_5547" x1="169.668" y1="189.987" x2="169.668" y2="0.00195312" gradientUnits="userSpaceOnUse">
<stop stop-color="#00A3FF"/>
<stop offset="1" stop-color="#4255FF"/>
</linearGradient>
<linearGradient id="paint2_linear_1082_5547" x1="104.679" y1="77.1176" x2="104.679" y2="38" gradientUnits="userSpaceOnUse">
<stop stop-color="#00A3FF"/>
<stop offset="1" stop-color="#4255FF"/>
</linearGradient>
<clipPath id="clip0_1082_5547">
<rect width="170.048" height="190" fill="white"/>
</clipPath>
</defs>
</svg>
