<svg width="218" height="141" viewBox="0 0 218 141" fill="none" xmlns="http://www.w3.org/2000/svg">
<path d="M115.712 51.696L79.6455 105.185L51.9375 106.698L105.661 27.0249L115.712 51.696Z" fill="url(#paint0_linear_2004_11147)"/>
<path d="M141.625 33.9172L134.385 44.6638L118.721 6.24683C118.571 5.88015 118.402 5.52287 118.214 5.1844C118.129 5.03396 118.044 4.89293 117.95 4.7519C117.866 4.61087 117.772 4.46984 117.678 4.33821C117.602 4.22538 117.518 4.12196 117.424 4.01854C117.255 3.79289 117.067 3.57664 116.869 3.36979C116.794 3.28517 116.7 3.19115 116.615 3.11593C116.54 3.04072 116.465 2.9749 116.39 2.90909C116.352 2.87148 116.324 2.84327 116.286 2.80566L133.342 16.5327C134.517 17.4823 135.429 18.714 136.021 20.1714L141.625 33.9172Z" fill="url(#paint1_linear_2004_11147)"/>
<path d="M165.553 68.1592L159.367 77.3262L142.885 101.762L136.294 102.12L130.173 111.183L122.858 122.014L125.98 124.525C117.302 133.081 107.091 137.754 95.1596 138.402L54.834 140.612C52.7937 140.715 50.8757 140.255 49.268 139.277C48.9483 139.079 48.6474 138.872 48.3654 138.637L31.3193 124.91C31.3193 124.91 31.3757 124.948 31.404 124.967C31.5826 125.108 31.7706 125.23 31.9681 125.352C33.5664 126.33 35.4939 126.791 37.5341 126.678L77.8598 124.468C93.8339 123.594 106.724 115.518 116.991 100.578L142.057 63.4017L147.548 55.2595L149.278 52.6927L155.484 43.5068L165.553 68.1592Z" fill="url(#paint2_linear_2004_11147)"/>
<path d="M217.857 119.475C217.538 121.638 216.682 123.791 215.385 125.718C214.087 127.646 212.395 129.272 210.458 130.457C208.53 131.632 206.443 132.309 204.403 132.422L140.158 135.938L125.98 124.524L122.858 122.014L128.669 121.694L187.103 118.497C189.143 118.385 191.231 117.698 193.158 116.532C195.095 115.348 196.787 113.712 198.085 111.794C199.382 109.857 200.238 107.713 200.557 105.551C200.877 103.388 200.661 101.292 199.918 99.4863L168.571 22.7087C168.374 22.2198 168.139 21.7591 167.866 21.3266C167.8 21.2138 167.725 21.101 167.65 20.9882C167.584 20.8941 167.528 20.8001 167.453 20.7155C167.067 20.1796 166.616 19.7001 166.127 19.2676L183.192 33.0041C184.358 33.9443 185.279 35.1853 185.871 36.6427L217.218 113.411C217.961 115.225 218.177 117.322 217.857 119.475Z" fill="url(#paint3_linear_2004_11147)"/>
<path d="M199.917 99.487L168.571 22.7094C168.373 22.2205 168.138 21.7598 167.866 21.3273C167.8 21.2145 167.725 21.1017 167.649 20.9888C167.584 20.8948 167.527 20.8008 167.452 20.7162C167.066 20.1803 166.615 19.7007 166.126 19.2682C166.098 19.2494 166.07 19.2306 166.051 19.2118C165.722 18.9298 165.365 18.6665 164.989 18.4409C163.381 17.4536 161.463 16.9929 159.423 17.1058C157.382 17.2186 155.286 17.8955 153.368 19.0708C151.44 20.2555 149.738 21.8914 148.441 23.8095L141.624 33.9167L134.385 44.6633L118.721 6.24633C118.57 5.87965 118.401 5.52237 118.213 5.18389C118.128 5.03346 118.044 4.89243 117.95 4.7514C117.865 4.61036 117.771 4.46933 117.677 4.3377C117.602 4.22488 117.517 4.12146 117.423 4.01803C117.254 3.79238 117.066 3.57613 116.869 3.36929C116.793 3.28467 116.699 3.19065 116.615 3.11543C116.54 3.04021 116.464 2.9744 116.389 2.90858C116.351 2.87098 116.323 2.84277 116.286 2.80516C116.229 2.75815 116.163 2.71114 116.107 2.66413C115.806 2.41027 115.477 2.17522 115.139 1.96837C113.54 0.990555 111.622 0.529852 109.573 0.642677C107.532 0.755502 105.436 1.43245 103.508 2.60772C101.581 3.79238 99.879 5.41895 98.5909 7.34638L30.2188 108.767C28.9213 110.694 28.0657 112.847 27.746 115.01C27.417 117.163 27.6426 119.26 28.3854 121.074C29.0153 122.635 30.0213 123.942 31.3188 124.91C31.347 124.929 31.3753 124.948 31.4035 124.967C31.5821 125.108 31.7701 125.23 31.9676 125.352C33.5659 126.33 35.4934 126.791 37.5336 126.678L77.8593 124.468C93.8334 123.594 106.724 115.518 116.991 100.578L142.057 63.4017L147.548 55.2595L149.278 52.6927L155.483 43.5069L165.553 68.1592L178.471 99.8067L142.884 101.762L136.293 102.12L130.173 111.183L122.858 122.014L128.668 121.695L187.102 118.498C189.143 118.385 191.23 117.699 193.157 116.533C195.094 115.348 196.786 113.712 198.084 111.794C199.381 109.858 200.237 107.714 200.557 105.551C200.876 103.389 200.66 101.292 199.917 99.487ZM102.991 91.1849C96.2028 100.888 89.5837 104.649 80.1158 105.156L79.6457 105.185L51.9377 106.698L105.661 27.025L115.712 51.6961L120.949 64.5582L102.991 91.1849Z" fill="url(#paint4_linear_2004_11147)"/>
<path d="M1.65215 43.4406C0.745949 44.1027 0.561752 45.3806 1.2441 46.2716L3.64912 49.412C4.19883 50.1298 4.19862 51.1271 3.64861 51.8447L1.2453 54.9802C0.562378 55.8712 0.746376 57.1496 1.65284 57.8118L4.83501 60.1366C5.56631 60.6709 5.84732 61.6299 5.52002 62.4743L4.0907 66.1621C3.68434 67.2105 4.22187 68.3878 5.28028 68.7674L8.97481 70.0926C9.82887 70.3989 10.3697 71.2418 10.2923 72.1459L9.95501 76.0832C9.8589 77.2052 10.7076 78.1853 11.8319 78.2505L15.7372 78.4771C16.6442 78.5297 17.4018 79.1871 17.5817 80.0776L18.3623 83.941C18.5858 85.0468 19.679 85.7491 20.7776 85.4925L24.5803 84.6043C25.4675 84.3971 26.3826 84.8157 26.8061 85.6224L28.6298 89.0969C29.1552 90.0979 30.4053 90.4648 31.3883 89.9066L34.7814 87.9797C35.5747 87.5293 36.5723 87.6726 37.2065 88.3283L39.9264 91.14C40.7125 91.9526 42.0153 91.9526 42.8014 91.14L45.5213 88.3283C46.1555 87.6726 47.1531 87.5293 47.9464 87.9797L51.3395 89.9066C52.3226 90.4648 53.5726 90.0979 54.098 89.0969L55.9217 85.6224C56.3452 84.8157 57.2603 84.3971 58.1475 84.6043L61.9502 85.4925C63.0488 85.7491 64.142 85.0468 64.3655 83.941L65.1461 80.0776C65.3261 79.1871 66.0836 78.5297 66.9906 78.4771L70.896 78.2505C72.0202 78.1853 72.8689 77.2052 72.7728 76.0832L72.4356 72.1459C72.3581 71.2418 72.8989 70.3989 73.753 70.0926L77.4475 68.7674C78.5059 68.3878 79.0435 67.2105 78.6371 66.1621L77.2078 62.4743C76.8805 61.6299 77.1615 60.6709 77.8928 60.1366L81.075 57.8118C81.9814 57.1496 82.1654 55.8712 81.4825 54.9802L79.0792 51.8447C78.5292 51.1271 78.529 50.1298 79.0787 49.412L81.4837 46.2716C82.1661 45.3806 81.9819 44.1027 81.0757 43.4406L77.8928 41.1154C77.1615 40.5811 76.8805 39.6221 77.2078 38.7776L78.6371 35.0899C79.0435 34.0414 78.5059 32.8641 77.4475 32.4845L73.753 31.1593C72.899 30.853 72.3581 30.0101 72.4356 29.1061L72.7727 25.1702C72.8688 24.0476 72.0193 23.0673 70.8945 23.0028L66.9918 22.779C66.0842 22.727 65.3259 22.0694 65.1459 21.1784L64.3652 17.3147C64.1419 16.2095 63.0495 15.5072 61.9512 15.763L58.1462 16.649C57.2596 16.8555 56.3454 16.4371 55.922 15.6312L54.0977 12.1582C53.5723 11.158 52.3233 10.7912 51.3405 11.3485L47.946 13.2735C47.1528 13.7233 46.1559 13.5797 45.5219 12.9243L42.8014 10.112C42.0153 9.29937 40.7125 9.29937 39.9264 10.112L37.2059 12.9243C36.5719 13.5797 35.575 13.7233 34.7818 13.2735L31.3873 11.3485C30.4045 10.7912 29.1555 11.158 28.6301 12.1582L26.8058 15.6312C26.3824 16.4371 25.4682 16.8555 24.5816 16.649L20.7766 15.763C19.6783 15.5072 18.5859 16.2095 18.3626 17.3147L17.5819 21.1784C17.4019 22.0694 16.6436 22.727 15.736 22.779L11.8334 23.0028C10.7086 23.0673 9.85898 24.0476 9.95513 25.1702L10.2923 29.1061C10.3697 30.0101 9.82887 30.853 8.97481 31.1593L5.28027 32.4845C4.22187 32.8641 3.68434 34.0414 4.0907 35.0899L5.52002 38.7776C5.84732 39.6221 5.56631 40.5811 4.83501 41.1154L1.65215 43.4406Z" fill="#00DC82"/>
<path d="M43.778 64.2995H62.3651C62.9557 64.2995 63.5358 64.1439 64.0467 63.8484C64.5584 63.5523 64.9829 63.1272 65.2775 62.6157C65.5727 62.1034 65.7279 61.5228 65.7275 60.932C65.7274 60.3411 65.5717 59.7607 65.2761 59.2486L52.7935 37.6013C52.4989 37.09 52.0745 36.6649 51.5629 36.369C51.0521 36.0736 50.4721 35.9179 49.8816 35.9179C49.2911 35.9179 48.7111 36.0736 48.2004 36.369C47.6887 36.665 47.2643 37.09 46.9697 37.6013L43.778 43.1401L37.5376 32.3093C37.2428 31.798 36.8182 31.373 36.3064 31.077C35.7955 30.7817 35.2154 30.6261 34.6248 30.626C34.0342 30.6261 33.4541 30.7817 32.9432 31.077C32.4314 31.3729 32.0068 31.7979 31.7121 32.3093L16.179 59.2486C15.8834 59.7607 15.7277 60.3411 15.7275 60.932C15.7272 61.5228 15.8824 62.1034 16.1775 62.6157C16.4721 63.1272 16.8967 63.5524 17.4084 63.8484C17.9192 64.1439 18.4994 64.2995 19.09 64.2995H30.7574C35.3802 64.2995 38.7893 62.2664 41.1351 58.3L46.8303 48.425L49.8807 43.1401L59.0357 59.0146H46.8303L43.778 64.2995ZM30.5763 59.0074H22.4248L34.6303 37.8426L40.7203 48.425L36.6428 55.498C35.085 58.0716 33.3152 59.0092 30.5672 59.0092" fill="#020420"/>
<defs>
<linearGradient id="paint0_linear_2004_11147" x1="109.958" y1="96.8419" x2="60.9201" y2="71.2566" gradientUnits="userSpaceOnUse">
<stop stop-color="#00DC82"/>
<stop offset="1" stop-color="#058163"/>
</linearGradient>
<linearGradient id="paint1_linear_2004_11147" x1="139.338" y1="39.4855" x2="117.891" y2="31.0226" gradientUnits="userSpaceOnUse">
<stop stop-color="#00DC82"/>
<stop offset="1" stop-color="#058163"/>
</linearGradient>
<linearGradient id="paint2_linear_2004_11147" x1="153.441" y1="128.611" x2="80.9591" y2="63.3109" gradientUnits="userSpaceOnUse">
<stop stop-color="#00DC82"/>
<stop offset="1" stop-color="#058163"/>
</linearGradient>
<linearGradient id="paint3_linear_2004_11147" x1="209.416" y1="121.505" x2="136.848" y2="82.9316" gradientUnits="userSpaceOnUse">
<stop stop-color="#00DC82"/>
<stop offset="1" stop-color="#058163"/>
</linearGradient>
<linearGradient id="paint4_linear_2004_11147" x1="185.081" y1="111.099" x2="91.0599" y2="26.9497" gradientUnits="userSpaceOnUse">
<stop stop-color="#00DC82"/>
<stop offset="1" stop-color="#2CFFCC"/>
</linearGradient>
</defs>
</svg>
