<svg width="171" height="190" viewBox="0 0 171 190" fill="none" xmlns="http://www.w3.org/2000/svg">
<g clip-path="url(#clip0_1082_5525)">
<path d="M159.513 40.3988L159.513 40.399C165.724 43.9812 169.548 50.6039 169.548 57.779V132.21C169.548 139.374 165.724 146.007 159.513 149.59L159.513 149.59L95.0587 186.8C95.0587 186.8 95.0586 186.8 95.0585 186.8C88.8469 190.382 81.2005 190.382 74.9889 186.8L10.5347 149.59L10.5345 149.59C4.32325 146.007 0.5 139.385 0.5 132.21V57.779C0.5 50.6145 4.32308 43.9914 10.535 40.3987L74.9889 3.18882C81.2005 -0.393631 88.8469 -0.393666 95.0585 3.18871C95.0586 3.18875 95.0587 3.18878 95.0587 3.18882L159.513 40.3988Z" fill="url(#paint0_linear_1082_5525)" fill-opacity="0.2" stroke="url(#paint1_linear_1082_5525)"/>
<path fill-rule="evenodd" clip-rule="evenodd" d="M99.7308 118.408C100.163 117.605 100.379 116.639 100.379 115.497V115.487C100.379 114.345 100.163 113.378 99.7308 112.576C99.2989 111.774 98.7126 111.157 97.9721 110.746C97.2316 110.334 96.4089 110.118 95.473 110.118C94.537 110.118 93.704 110.324 92.9635 110.746C92.223 111.167 91.6368 111.774 91.2048 112.576C90.7728 113.378 90.5569 114.345 90.5569 115.487C90.5569 116.628 90.7728 117.595 91.2048 118.397C91.6368 119.189 92.223 119.806 92.9635 120.228C93.704 120.65 94.5473 120.866 95.473 120.866C96.3986 120.866 97.2316 120.66 97.9721 120.238C98.7126 119.817 99.2989 119.21 99.7308 118.408ZM97.8076 113.625C98.0236 114.129 98.1367 114.757 98.1367 115.497C98.1367 116.238 98.0236 116.865 97.8076 117.369C97.5916 117.873 97.2831 118.253 96.882 118.521C96.4809 118.778 96.018 118.912 95.4832 118.912C94.9484 118.912 94.4856 118.778 94.0845 118.521C93.6834 118.264 93.3749 117.873 93.1589 117.369C92.9429 116.865 92.8298 116.238 92.8298 115.497C92.8298 114.757 92.9429 114.129 93.1589 113.625C93.3749 113.121 93.6834 112.73 94.0845 112.473C94.4856 112.216 94.9484 112.083 95.4832 112.083C96.018 112.083 96.4809 112.216 96.882 112.473C97.2831 112.73 97.5916 113.121 97.8076 113.625ZM36.9121 120.732H40.6249V120.722C41.6945 120.722 42.6098 120.516 43.3709 120.094C44.1422 119.683 44.7285 119.076 45.1399 118.295C45.5513 117.513 45.757 116.567 45.757 115.487C45.757 114.407 45.5513 113.471 45.1399 112.689C44.7285 111.908 44.1422 111.311 43.3812 110.89C42.6201 110.468 41.7048 110.262 40.6557 110.262H36.9121V120.732ZM40.5323 118.84H39.1233V112.165H40.5323C41.1905 112.165 41.7459 112.288 42.1882 112.515C42.6304 112.741 42.9698 113.101 43.1961 113.595C43.4223 114.078 43.5355 114.705 43.5355 115.487C43.5355 116.269 43.4223 116.906 43.1961 117.4C42.9698 117.894 42.6407 118.254 42.1882 118.49C41.7356 118.727 41.1905 118.84 40.5323 118.84ZM48.8319 110.262V120.722H55.9078V118.901H51.0431V116.402H55.517V114.582H51.0431V112.083H55.8872V110.262H48.8319ZM60.9781 110.262L63.5081 118.223H63.6007L66.141 110.262H68.5991L64.9891 120.732H62.1403L58.52 110.262H60.9781ZM71.2936 110.262V120.722H78.3695V118.901H73.5048V116.402H77.9787V114.582H73.5048V112.083H78.3489V110.262H71.2936ZM81.5577 120.732V110.262H83.7689V118.912H88.2634V120.732H81.5577ZM103.454 120.732V110.262H107.588C108.38 110.262 109.059 110.417 109.614 110.715C110.17 111.013 110.602 111.435 110.9 111.97C111.198 112.504 111.342 113.121 111.342 113.811C111.342 114.5 111.188 115.117 110.89 115.651C110.592 116.186 110.16 116.598 109.584 116.896C109.018 117.194 108.329 117.338 107.527 117.338H105.675V120.722H103.464L103.454 120.732ZM107.167 115.559H105.675V112.062H107.167C107.588 112.062 107.948 112.134 108.226 112.278C108.504 112.422 108.72 112.628 108.853 112.885C108.987 113.152 109.059 113.451 109.059 113.8C109.059 114.15 108.997 114.448 108.853 114.716C108.709 114.983 108.504 115.189 108.226 115.333C107.948 115.487 107.588 115.559 107.167 115.559ZM114.222 110.262V120.722H121.298V118.901H116.433V116.402H120.907V114.582H116.433V112.083H121.278V110.262H114.222ZM128.199 120.732H124.486V110.262H128.23C129.279 110.262 130.194 110.468 130.955 110.89C131.717 111.311 132.303 111.908 132.714 112.689C133.126 113.471 133.331 114.407 133.331 115.487C133.331 116.567 133.126 117.513 132.714 118.295C132.303 119.076 131.717 119.683 130.945 120.094C130.184 120.516 129.269 120.722 128.199 120.722V120.732ZM126.698 118.84H128.107C128.765 118.84 129.31 118.727 129.762 118.49C130.215 118.254 130.544 117.894 130.77 117.4C130.997 116.906 131.11 116.269 131.11 115.487C131.11 114.705 130.997 114.078 130.77 113.595C130.544 113.101 130.205 112.741 129.762 112.515C129.32 112.288 128.765 112.165 128.107 112.165H126.698V118.84ZM34.9375 128.775V139.245L34.9478 139.265H39.4216C40.2033 139.265 40.8615 139.142 41.3963 138.885C41.9311 138.638 42.3322 138.288 42.6099 137.856C42.8876 137.424 43.0213 136.931 43.0213 136.375C43.0213 135.851 42.9082 135.408 42.6922 135.038C42.4762 134.668 42.1882 134.37 41.8385 134.164C41.4889 133.958 41.1186 133.845 40.7175 133.825V133.722C41.0878 133.639 41.4066 133.495 41.6946 133.3C41.9723 133.105 42.1985 132.848 42.3631 132.539C42.5276 132.23 42.6099 131.87 42.6099 131.459C42.6099 130.924 42.4762 130.461 42.2191 130.06C41.962 129.659 41.5711 129.34 41.0569 129.114C40.5427 128.888 39.905 128.775 39.1337 128.775H34.9375ZM38.7943 133.156H37.1487V130.564H38.8354C39.3291 130.564 39.7096 130.677 39.977 130.914C40.2444 131.151 40.3781 131.449 40.3781 131.829C40.3781 132.107 40.3164 132.344 40.1724 132.539C40.0284 132.734 39.8433 132.878 39.6068 132.992C39.3702 133.105 39.1028 133.156 38.7943 133.156ZM38.9485 137.435H37.1487V134.647H39C39.3496 134.647 39.6582 134.709 39.9153 134.833C40.1724 134.966 40.3678 135.131 40.5118 135.357C40.6455 135.583 40.7175 135.84 40.7175 136.128C40.7175 136.519 40.5838 136.838 40.2958 137.075C40.0182 137.311 39.5656 137.435 38.9485 137.435ZM45.2734 128.775H47.7521L50.1381 133.279H50.241L52.627 128.775H55.1056L51.29 135.542V139.245H49.0891V135.542L45.2734 128.775ZM62.5415 128.775V139.234H69.6174V137.414H64.7528V134.915H69.2266V133.094H64.7528V130.595H69.5969V128.775H62.5415ZM74.8726 128.775L76.981 132.344H77.0633L79.1819 128.775H81.6811L78.4826 134.01L81.7531 139.245H79.2025L77.053 135.666H76.9707L74.8212 139.245H72.2809L75.5617 134.01L72.3426 128.775H74.8521H74.8726ZM84.5302 128.775V139.245L84.5404 139.234H86.7516V135.851H88.6029C89.4051 135.851 90.0942 135.707 90.6598 135.408C91.2358 135.11 91.6677 134.699 91.966 134.164C92.2643 133.629 92.4185 133.012 92.4185 132.323C92.4185 131.634 92.2745 131.017 91.9763 130.482C91.678 129.947 91.2461 129.526 90.6907 129.227C90.1353 128.929 89.4565 128.775 88.6646 128.775H84.5302ZM86.7516 134.071H88.2429C88.6646 134.071 89.0246 133.999 89.3023 133.845C89.5799 133.701 89.7856 133.495 89.9296 133.228C90.0736 132.961 90.1353 132.662 90.1353 132.313C90.1353 131.963 90.0633 131.665 89.9296 131.397C89.7959 131.14 89.5799 130.935 89.3023 130.791C89.0246 130.647 88.6646 130.575 88.2429 130.575H86.7516V134.071ZM95.2985 139.234V128.775H102.354V130.595H97.5097V133.094H101.984V134.915H97.5097V137.414H102.374V139.234H95.2985ZM105.552 128.775V139.245H107.763V135.542H109.38L111.363 139.245H113.811L111.591 135.182C111.61 135.174 111.628 135.166 111.647 135.157C111.659 135.152 111.67 135.146 111.682 135.141C112.258 134.874 112.69 134.493 112.988 133.989C113.286 133.495 113.44 132.899 113.44 132.2C113.44 131.5 113.296 130.904 112.998 130.389C112.7 129.875 112.278 129.474 111.713 129.196C111.157 128.919 110.478 128.775 109.687 128.775H105.552ZM107.763 133.763H109.265C109.687 133.763 110.036 133.701 110.314 133.588C110.592 133.475 110.797 133.3 110.941 133.064C111.085 132.827 111.147 132.539 111.147 132.2C111.147 131.86 111.075 131.562 110.941 131.315C110.808 131.068 110.592 130.893 110.314 130.77C110.036 130.647 109.676 130.585 109.255 130.585H107.763V133.763ZM116.042 130.606V128.785H124.64V130.606H121.432V139.255H119.241V130.606H116.042ZM132.663 130.832C132.971 131.058 133.146 131.377 133.187 131.788L133.197 131.799H135.316C135.306 131.171 135.141 130.626 134.812 130.153C134.483 129.68 134.03 129.31 133.455 129.042C132.879 128.775 132.179 128.641 131.418 128.641C130.657 128.641 129.968 128.775 129.371 129.042C128.765 129.31 128.292 129.68 127.952 130.153C127.613 130.626 127.448 131.182 127.448 131.819C127.448 132.591 127.695 133.208 128.209 133.66C128.713 134.113 129.413 134.452 130.297 134.668L131.439 134.956C131.819 135.049 132.138 135.151 132.405 135.265C132.673 135.378 132.879 135.511 133.012 135.676C133.146 135.841 133.218 136.036 133.218 136.272C133.218 136.519 133.146 136.746 132.992 136.941C132.837 137.136 132.621 137.28 132.344 137.394C132.066 137.507 131.747 137.558 131.367 137.558C130.986 137.558 130.637 137.496 130.338 137.383C130.04 137.27 129.793 137.095 129.618 136.859C129.433 136.622 129.33 136.334 129.31 135.985H127.171C127.181 136.735 127.366 137.363 127.716 137.877C128.065 138.381 128.549 138.772 129.176 139.029C129.803 139.286 130.534 139.42 131.387 139.42C132.241 139.42 132.971 139.286 133.578 139.029C134.185 138.772 134.648 138.412 134.966 137.939C135.285 137.465 135.45 136.91 135.45 136.272C135.45 135.83 135.367 135.439 135.213 135.11C135.059 134.781 134.843 134.483 134.565 134.236C134.288 133.989 133.958 133.784 133.578 133.609C133.197 133.434 132.776 133.3 132.323 133.197L131.387 132.971C131.151 132.92 130.945 132.858 130.739 132.786C130.534 132.714 130.359 132.632 130.205 132.529C130.05 132.426 129.937 132.313 129.845 132.169C129.752 132.025 129.721 131.86 129.721 131.675C129.721 131.449 129.783 131.243 129.917 131.068C130.04 130.883 130.235 130.75 130.482 130.647C130.729 130.544 131.038 130.492 131.398 130.492C131.932 130.492 132.354 130.606 132.663 130.832Z" fill="#07080E"/>
<path d="M86.9573 75.3875L94.8765 79.6556C97.8797 81.2703 101.418 78.6992 100.811 75.3463L99.1961 66.4912C98.9493 65.1439 99.4018 63.7657 100.389 62.8196L106.899 56.6076C109.368 54.2524 108.01 50.0871 104.637 49.6345L95.7199 48.4312C94.3623 48.2461 93.1898 47.3925 92.5933 46.1583L88.6954 38.0437C87.2144 34.9685 82.8434 34.9685 81.3624 38.0437L77.4645 46.1583C76.868 47.3925 75.6955 48.2461 74.3379 48.4312L65.4211 49.6345C62.0374 50.0871 60.6901 54.2524 63.1584 56.6076L69.6687 62.8196C70.656 63.7657 71.1085 65.1439 70.8617 66.4912L69.247 75.3463C68.6402 78.6992 72.1781 81.2703 75.1813 79.6556L83.1005 75.3875C84.3038 74.7395 85.754 74.7395 86.9573 75.3875Z" fill="url(#paint2_linear_1082_5525)"/>
</g>
<defs>
<linearGradient id="paint0_linear_1082_5525" x1="170.048" y1="189.987" x2="170.048" y2="0.00195312" gradientUnits="userSpaceOnUse">
<stop stop-color="#00A3FF"/>
<stop offset="1" stop-color="#4255FF"/>
</linearGradient>
<linearGradient id="paint1_linear_1082_5525" x1="170.048" y1="189.987" x2="170.048" y2="0.00195312" gradientUnits="userSpaceOnUse">
<stop stop-color="#00A3FF"/>
<stop offset="1" stop-color="#4255FF"/>
</linearGradient>
<linearGradient id="paint2_linear_1082_5525" x1="108.163" y1="80.1506" x2="108.163" y2="35.7373" gradientUnits="userSpaceOnUse">
<stop stop-color="#00A3FF"/>
<stop offset="1" stop-color="#4255FF"/>
</linearGradient>
<clipPath id="clip0_1082_5525">
<rect width="170.048" height="190" fill="white"/>
</clipPath>
</defs>
</svg>
