<svg width="171" height="190" viewBox="0 0 171 190" fill="none" xmlns="http://www.w3.org/2000/svg">
<g clip-path="url(#clip0_1035_5478)">
<path d="M159.513 40.3988L159.513 40.399C165.724 43.9812 169.548 50.6039 169.548 57.779V132.21C169.548 139.374 165.724 146.007 159.513 149.59L159.513 149.59L95.0587 186.8C95.0587 186.8 95.0586 186.8 95.0585 186.8C88.8469 190.382 81.2005 190.382 74.9889 186.8L10.5347 149.59L10.5345 149.59C4.32325 146.007 0.5 139.385 0.5 132.21V57.779C0.5 50.6145 4.32308 43.9914 10.535 40.3987L74.9889 3.18882C81.2005 -0.393631 88.8469 -0.393666 95.0585 3.18871C95.0586 3.18875 95.0587 3.18878 95.0587 3.18882L159.513 40.3988Z" fill="url(#paint0_linear_1035_5478)" fill-opacity="0.2" stroke="url(#paint1_linear_1035_5478)"/>
<path fill-rule="evenodd" clip-rule="evenodd" d="M103.804 106.241C103.804 107.383 103.588 108.35 103.156 109.152C102.724 109.954 102.137 110.561 101.397 110.983C100.656 111.404 99.8234 111.61 98.8978 111.61C97.9722 111.61 97.1288 111.394 96.3883 110.972C95.6478 110.551 95.0616 109.933 94.6296 109.142C94.1977 108.339 93.9817 107.373 93.9817 106.231C93.9817 105.089 94.1977 104.123 94.6296 103.32C95.0616 102.518 95.6478 101.911 96.3883 101.49C97.1288 101.068 97.9619 100.852 98.8978 100.852C99.8337 100.852 100.656 101.068 101.397 101.49C102.137 101.911 102.724 102.518 103.156 103.32C103.588 104.123 103.804 105.089 103.804 106.231V106.241ZM101.562 106.241C101.562 105.501 101.448 104.873 101.232 104.369C101.016 103.865 100.708 103.475 100.307 103.218C99.9057 102.96 99.4429 102.827 98.9081 102.827C98.3733 102.827 97.9105 102.96 97.5094 103.218C97.1083 103.485 96.7997 103.865 96.5837 104.369C96.3678 104.873 96.2546 105.501 96.2546 106.241C96.2546 106.982 96.3678 107.609 96.5837 108.113C96.7997 108.617 97.1083 109.008 97.5094 109.265C97.9105 109.532 98.3733 109.656 98.9081 109.656C99.4429 109.656 99.9057 109.522 100.307 109.265C100.708 109.008 101.016 108.617 101.232 108.113C101.448 107.609 101.562 106.982 101.562 106.241ZM60.7006 103.053C61.0092 103.289 61.184 103.608 61.2252 104.02H61.2355H63.3541C63.3438 103.392 63.1793 102.847 62.8502 102.374C62.521 101.901 62.0685 101.531 61.4926 101.263C60.9166 100.996 60.2173 100.862 59.4562 100.862C58.6951 100.862 58.0061 100.996 57.4095 101.263C56.8027 101.531 56.3296 101.901 55.9902 102.374C55.6508 102.847 55.4863 103.402 55.4863 104.04C55.4863 104.811 55.7331 105.429 56.2474 105.881C56.7513 106.334 57.4507 106.673 58.3352 106.889L59.4768 107.177C59.8573 107.269 60.1761 107.372 60.4435 107.485C60.7109 107.599 60.9166 107.732 61.0503 107.897C61.184 108.061 61.256 108.257 61.256 108.493C61.256 108.74 61.184 108.966 61.0298 109.162C60.8755 109.357 60.6595 109.501 60.3818 109.614C60.1041 109.728 59.7853 109.779 59.4048 109.779C59.0242 109.779 58.6746 109.717 58.3763 109.604C58.078 109.491 57.8312 109.316 57.6564 109.08C57.4712 108.843 57.3684 108.555 57.3478 108.205H55.2086C55.2189 108.956 55.404 109.584 55.7537 110.098C56.1034 110.612 56.5868 110.993 57.2141 111.25C57.8415 111.507 58.5717 111.64 59.4253 111.64C60.279 111.64 61.0092 111.507 61.616 111.25C62.2228 110.993 62.6856 110.633 63.0044 110.159C63.3233 109.686 63.4878 109.131 63.4878 108.493C63.4878 108.051 63.4055 107.671 63.2513 107.331C63.097 106.992 62.881 106.694 62.6033 106.447C62.3256 106.2 61.9965 105.994 61.616 105.819C61.2355 105.644 60.8138 105.511 60.3613 105.408L59.4253 105.182C59.1888 105.13 58.9831 105.069 58.7774 104.997C58.5717 104.925 58.3969 104.842 58.2426 104.739C58.0883 104.637 57.9649 104.523 57.8826 104.379C57.7901 104.235 57.7592 104.071 57.7592 103.886C57.7592 103.66 57.8209 103.454 57.9546 103.279C58.078 103.104 58.2735 102.97 58.5203 102.868C58.7671 102.765 59.0757 102.713 59.4356 102.713C59.9704 102.713 60.3921 102.826 60.7006 103.053ZM66.4188 101.006V111.476H73.4947V109.645H68.6301V107.146H73.1039V105.326H68.6301V102.827H73.4742V101.006H66.4188ZM85.4353 101.006V111.476H83.5223L78.9662 104.884H78.8942V111.476H76.683V101.006H78.6268L83.1521 107.588H83.2446V101.006H85.4353ZM90.917 111.476V101.006H88.7058V111.476H90.917ZM106.879 101.006V111.476H109.09V107.774H110.706L112.69 111.476H115.137L112.918 107.414C112.948 107.4 112.979 107.387 113.008 107.372C113.584 107.105 114.016 106.714 114.315 106.221C114.613 105.727 114.767 105.13 114.767 104.431C114.767 103.732 114.623 103.135 114.325 102.621C114.027 102.107 113.605 101.706 113.039 101.428C112.484 101.15 111.805 101.006 111.013 101.006H106.879ZM109.09 105.994H110.592C111.013 105.994 111.363 105.933 111.641 105.819C111.918 105.706 112.124 105.531 112.268 105.295C112.402 105.058 112.474 104.77 112.474 104.431C112.474 104.092 112.402 103.793 112.268 103.547C112.134 103.3 111.918 103.125 111.641 103.001C111.363 102.878 111.003 102.816 110.581 102.816H109.09V105.994ZM31.1112 123.19H28.8691C28.828 122.903 28.7457 122.645 28.6223 122.419C28.4989 122.193 28.3343 121.997 28.1389 121.843C27.9435 121.689 27.7172 121.555 27.4601 121.473C27.203 121.391 26.9253 121.35 26.627 121.35C26.0819 121.35 25.6088 121.483 25.2077 121.751C24.8066 122.018 24.4981 122.409 24.2718 122.913C24.0456 123.427 23.9427 124.044 23.9427 124.764C23.9427 125.484 24.0559 126.142 24.2821 126.646C24.5084 127.15 24.8169 127.541 25.218 127.798C25.6191 128.055 26.0819 128.189 26.6167 128.189C26.915 128.189 27.1927 128.148 27.4395 128.076C27.6966 127.993 27.9229 127.88 28.1183 127.726C28.3137 127.572 28.4783 127.387 28.612 127.171C28.7457 126.955 28.8383 126.698 28.8897 126.42H31.1317C31.07 126.914 30.9261 127.376 30.6998 127.819C30.4735 128.261 30.165 128.662 29.7742 129.012C29.3833 129.361 28.9308 129.639 28.396 129.845C27.8612 130.05 27.2647 130.143 26.5859 130.143C25.65 130.143 24.8169 129.927 24.0867 129.505C23.3565 129.084 22.7703 128.467 22.3486 127.675C21.9269 126.872 21.7109 125.906 21.7109 124.764C21.7109 123.622 21.9269 122.656 22.3589 121.853C22.7908 121.051 23.3668 120.444 24.1073 120.023C24.8478 119.601 25.6706 119.385 26.5962 119.385C27.203 119.385 27.7686 119.467 28.2829 119.642C28.7971 119.817 29.2599 120.064 29.6713 120.383C30.0724 120.712 30.4015 121.103 30.6586 121.576C30.9158 122.049 31.07 122.584 31.142 123.19H31.1112ZM34.1455 119.519V129.989H41.2214V128.158H36.3567V125.659H40.8306V123.838H36.3567V121.339H41.2008V119.519H34.1455ZM44.4096 129.989V119.519H48.5441C49.336 119.519 50.0148 119.663 50.5702 119.94C51.1359 120.218 51.5575 120.619 51.8558 121.133C52.154 121.648 52.298 122.244 52.298 122.944C52.298 123.643 52.1438 124.239 51.8455 124.733C51.5472 125.227 51.1153 125.618 50.5393 125.885C50.5094 125.899 50.4791 125.913 50.4485 125.926L52.6683 129.989H50.2205L48.2373 126.286H46.6209V129.989H44.4096ZM48.1224 124.507H46.6209V121.329H48.1121C48.5338 121.329 48.8938 121.391 49.1715 121.514C49.4492 121.637 49.6651 121.812 49.7988 122.059C49.9325 122.306 50.0045 122.604 50.0045 122.944C50.0045 123.283 49.9325 123.571 49.7988 123.807C49.6549 124.044 49.4492 124.219 49.1715 124.332C48.8938 124.445 48.5441 124.507 48.1224 124.507ZM54.9 119.529V121.35H58.0986V129.999H60.2892V121.35H63.498V119.529H54.9ZM68.5683 119.519V129.989H66.3571V119.519H68.5683ZM71.8389 119.519V129.989H74.0501V125.659H78.308V123.838H74.0501V121.339H78.7708V119.519H71.8389ZM83.913 119.519V129.989H81.7018V119.519H83.913ZM94.1771 123.19H96.4192H96.45C96.378 122.584 96.2237 122.049 95.9666 121.576C95.7095 121.103 95.3804 120.712 94.9793 120.383C94.5679 120.064 94.1051 119.817 93.5909 119.642C93.0766 119.467 92.511 119.385 91.9042 119.385C90.9785 119.385 90.1558 119.601 89.4153 120.023C88.6748 120.444 88.0988 121.051 87.6669 121.853C87.2349 122.656 87.0189 123.622 87.0189 124.764C87.0189 125.906 87.2349 126.872 87.6566 127.675C88.0782 128.467 88.6645 129.084 89.3947 129.505C90.1249 129.927 90.958 130.143 91.8939 130.143C92.5727 130.143 93.1692 130.05 93.704 129.845C94.2388 129.639 94.6913 129.361 95.0821 129.012C95.473 128.662 95.7815 128.261 96.0078 127.819C96.234 127.376 96.378 126.914 96.4397 126.42H94.1977C94.1462 126.698 94.0537 126.955 93.92 127.171C93.7863 127.387 93.6217 127.572 93.4263 127.726C93.2309 127.88 93.0046 127.993 92.7475 128.076C92.5007 128.148 92.223 128.189 91.9247 128.189C91.3899 128.189 90.9271 128.055 90.526 127.798C90.1249 127.541 89.8164 127.15 89.5901 126.646C89.3638 126.142 89.2507 125.484 89.2507 124.764C89.2507 124.044 89.3536 123.427 89.5798 122.913C89.8061 122.409 90.1146 122.018 90.5157 121.751C90.9168 121.483 91.3899 121.35 91.935 121.35C92.2333 121.35 92.511 121.391 92.7681 121.473C93.0252 121.555 93.2515 121.689 93.4469 121.843C93.6423 121.997 93.8068 122.193 93.9303 122.419C94.0537 122.645 94.1359 122.903 94.1771 123.19ZM101.048 129.989H98.6822L102.302 119.519H105.151L108.761 129.989H106.385L105.611 127.603H101.825L101.048 129.989ZM103.763 121.905L105.051 125.875H102.388L103.681 121.905H103.763ZM109.769 119.529V121.35H112.968V129.999H115.158V121.35H118.367V119.529H109.769ZM123.447 119.519V129.989H121.236V119.519H123.447ZM135.686 127.664C136.118 126.862 136.334 125.895 136.334 124.754V124.743C136.334 123.602 136.118 122.635 135.686 121.833C135.254 121.031 134.668 120.424 133.927 120.002C133.187 119.581 132.364 119.365 131.428 119.365C130.492 119.365 129.659 119.581 128.919 120.002C128.178 120.424 127.592 121.031 127.16 121.833C126.728 122.635 126.512 123.602 126.512 124.743C126.512 125.885 126.728 126.852 127.16 127.654C127.592 128.446 128.178 129.063 128.919 129.485C129.659 129.906 130.503 130.122 131.428 130.122C132.354 130.122 133.187 129.917 133.927 129.495C134.668 129.073 135.254 128.467 135.686 127.664ZM133.763 122.882C133.979 123.386 134.092 124.013 134.092 124.754C134.092 125.494 133.979 126.122 133.763 126.626C133.547 127.13 133.238 127.52 132.837 127.777C132.436 128.035 131.973 128.168 131.439 128.168C130.904 128.168 130.441 128.045 130.04 127.777C129.639 127.52 129.33 127.13 129.114 126.626C128.898 126.122 128.785 125.494 128.785 124.754C128.785 124.013 128.898 123.386 129.114 122.882C129.33 122.378 129.639 121.997 130.04 121.73C130.441 121.473 130.904 121.339 131.439 121.339C131.973 121.339 132.436 121.473 132.837 121.73C133.238 121.987 133.547 122.378 133.763 122.882ZM148.172 119.519V129.989H146.259L141.703 123.396H141.631V129.989H139.42V119.519H141.364L145.889 126.101H145.981V119.519H148.172ZM39.9251 148.501H42.2906L43.0678 146.115H46.8543L47.6284 148.501H50.0042L46.3942 138.031H43.5454L39.9251 148.501ZM46.2937 144.387L45.0058 140.417H44.9235L43.6305 144.387H46.2937ZM53.2956 138.031L55.8257 145.981H55.9182L58.4586 138.031H60.9166L57.3067 148.501H54.4578L50.8376 138.031H53.2956ZM61.6466 148.501H64.0121L64.7892 146.115H68.5758L69.3499 148.501H71.7256L68.1157 138.031H65.2668L61.6466 148.501ZM68.0152 144.387L66.7273 140.417H66.645L65.352 144.387H68.0152ZM76.6419 138.031V148.501H74.4307V138.031H76.6419ZM79.9125 138.031V148.501V148.511H86.6182V146.681H82.1237V138.031H79.9125ZM91.5754 148.501H89.21L92.8302 138.031H95.679L99.289 148.501H96.9132L96.1391 146.115H92.3526L91.5754 148.501ZM94.2906 140.417L95.5786 144.387H92.9153L94.2083 140.417H94.2906ZM101.994 138.031V148.501H102.004H106.478C107.259 148.501 107.918 148.378 108.452 148.121C108.987 147.874 109.388 147.524 109.666 147.092C109.944 146.66 110.077 146.166 110.077 145.611C110.077 145.097 109.964 144.665 109.748 144.284C109.532 143.904 109.244 143.616 108.895 143.41C108.545 143.194 108.175 143.091 107.774 143.071V142.968C108.144 142.886 108.463 142.752 108.751 142.556C109.028 142.351 109.255 142.104 109.419 141.795C109.584 141.487 109.666 141.127 109.666 140.716C109.666 140.191 109.532 139.718 109.275 139.317C109.018 138.916 108.627 138.597 108.113 138.371C107.599 138.144 106.961 138.031 106.19 138.031H101.994ZM105.85 142.413H104.205V142.402V139.81H105.891C106.385 139.81 106.766 139.924 107.033 140.16C107.3 140.397 107.434 140.695 107.434 141.075C107.434 141.353 107.362 141.59 107.228 141.785C107.084 141.991 106.899 142.135 106.663 142.248C106.426 142.361 106.159 142.413 105.85 142.413ZM106.005 146.691H104.205V143.904H106.056C106.406 143.904 106.714 143.966 106.971 144.089C107.228 144.223 107.424 144.387 107.568 144.613C107.702 144.84 107.774 145.097 107.774 145.385C107.774 145.776 107.64 146.094 107.352 146.331C107.074 146.568 106.622 146.691 106.005 146.691ZM112.947 148.501V138.031H115.158V146.681H119.652V148.511H112.947V148.501ZM122.553 138.031V148.501H129.629V146.67H124.764V144.171H129.238V142.351H124.764V139.852H129.608V138.031H122.553Z" fill="#E1E1E1"/>
<path d="M105.727 61.9759C104.966 62.7061 104.668 63.7963 104.966 64.8145L105.778 67.5708C106.231 69.1135 105.305 70.7282 103.742 71.1087L100.945 71.7875C99.9161 72.0343 99.1139 72.8365 98.8671 73.865L98.1883 76.6625C97.8078 78.2257 96.1931 79.1514 94.6503 78.6988L91.894 77.8863C90.8861 77.5881 89.7857 77.8863 89.0555 78.6474L87.0705 80.7249C85.9598 81.8871 84.0982 81.8871 82.9875 80.7249L81.0025 78.6474C80.2723 77.8863 79.1821 77.5881 78.1639 77.8863L75.4076 78.6988C73.8649 79.1514 72.2502 78.2257 71.8697 76.6625L71.1909 73.865C70.9441 72.8365 70.1418 72.0343 69.1134 71.7875L66.3159 71.1087C64.7527 70.7282 63.827 69.1135 64.2796 67.5708L65.0921 64.8145C65.3903 63.8065 65.0921 62.7061 64.331 61.9759L62.2535 59.9909C61.0913 58.8802 61.0913 57.0186 62.2535 55.9079L64.331 53.9229C65.0921 53.1927 65.3903 52.1025 65.0921 51.0843L64.2796 48.328C63.827 46.7853 64.7527 45.1706 66.3159 44.7901L69.1134 44.1113C70.1418 43.8645 70.9441 43.0623 71.1909 42.0338L71.8697 39.2363C72.2502 37.6731 73.8649 36.7474 75.4076 37.2L78.1639 38.0125C79.1718 38.3107 80.2723 38.0125 81.0025 37.2514L82.9875 35.1739C84.0982 34.0117 85.9598 34.0117 87.0705 35.1739L89.0555 37.2514C89.7857 38.0125 90.8759 38.3107 91.894 38.0125L94.6503 37.2C96.1931 36.7474 97.8078 37.6731 98.1883 39.2363L98.8671 42.0338C99.1139 43.0623 99.9161 43.8645 100.945 44.1113L103.742 44.7901C105.305 45.1706 106.231 46.7853 105.778 48.328L104.966 51.0843C104.668 52.0922 104.966 53.1927 105.727 53.9229L107.805 55.9079C108.967 57.0186 108.967 58.8802 107.805 59.9909L105.727 61.9759Z" fill="url(#paint2_linear_1035_5478)"/>
</g>
<defs>
<linearGradient id="paint0_linear_1035_5478" x1="170.048" y1="189.987" x2="170.048" y2="0.00195312" gradientUnits="userSpaceOnUse">
<stop stop-color="#00A3FF"/>
<stop offset="1" stop-color="#4255FF"/>
</linearGradient>
<linearGradient id="paint1_linear_1035_5478" x1="170.048" y1="189.987" x2="170.048" y2="0.00195312" gradientUnits="userSpaceOnUse">
<stop stop-color="#00A3FF"/>
<stop offset="1" stop-color="#4255FF"/>
</linearGradient>
<linearGradient id="paint2_linear_1035_5478" x1="108.676" y1="81.5965" x2="108.676" y2="34.3022" gradientUnits="userSpaceOnUse">
<stop stop-color="#00A3FF"/>
<stop offset="1" stop-color="#4255FF"/>
</linearGradient>
<clipPath id="clip0_1035_5478">
<rect width="170.048" height="190" fill="white"/>
</clipPath>
</defs>
</svg>
