<svg width="153" height="170" viewBox="0 0 153 170" fill="none" xmlns="http://www.w3.org/2000/svg">
<g clip-path="url(#clip0_418_21114)">
<path d="M152.257 118.045V51.5892C152.257 45.0235 148.768 38.9628 143.1 35.6845L85.7177 2.46114C80.05 -0.817124 73.0729 -0.817124 67.4051 2.46114L10.0225 35.6845C4.35476 38.972 0.866211 45.0326 0.866211 51.5892V118.045C0.866211 124.611 4.35476 130.672 10.0225 133.95L67.4051 167.173C73.0729 170.451 80.05 170.451 85.7177 167.173L143.1 133.95C148.768 130.672 152.257 124.602 152.257 118.045Z" fill="#07080E" fill-opacity="0.05"/>
<path fill-rule="evenodd" clip-rule="evenodd" d="M102.5 103.53C102.613 103.7 102.707 103.907 102.773 104.134V104.143H104.831C104.765 103.672 104.624 103.238 104.389 102.843C104.154 102.447 103.863 102.098 103.496 101.815C103.139 101.523 102.726 101.306 102.256 101.146C101.786 100.986 101.288 100.911 100.743 100.911C100.113 100.911 99.5309 101.014 98.9859 101.24C98.4409 101.467 97.9616 101.787 97.5576 102.211C97.1535 102.635 96.834 103.154 96.6085 103.766C96.383 104.379 96.2702 105.067 96.2702 105.849C96.2702 106.857 96.4582 107.734 96.834 108.469C97.2099 109.204 97.7455 109.769 98.4221 110.165C99.108 110.561 99.8973 110.759 100.79 110.759C101.598 110.759 102.312 110.598 102.932 110.269C103.553 109.948 104.041 109.477 104.398 108.874C104.755 108.271 104.934 107.545 104.934 106.706V105.5H100.931V107.027H102.979C102.971 107.417 102.878 107.747 102.716 108.035C102.538 108.337 102.294 108.572 101.965 108.732C101.636 108.893 101.25 108.977 100.79 108.977C100.283 108.977 99.841 108.855 99.4745 108.61C99.0986 108.365 98.8167 108.007 98.61 107.536C98.4127 107.064 98.3093 106.499 98.3093 105.83C98.3093 105.161 98.4127 104.605 98.6194 104.134C98.8261 103.662 99.1174 103.314 99.4839 103.069C99.8504 102.824 100.283 102.701 100.771 102.701C101.034 102.701 101.269 102.729 101.485 102.795C101.702 102.861 101.899 102.956 102.068 103.078C102.237 103.201 102.378 103.351 102.5 103.53ZM31.4053 104.397H33.4538L33.482 104.416C33.4162 103.86 33.2752 103.37 33.0403 102.937C32.8054 102.503 32.5047 102.145 32.1382 101.844C31.7624 101.551 31.3395 101.325 30.8697 101.165C30.3999 101.005 29.8831 100.93 29.3286 100.93C28.4829 100.93 27.7312 101.118 27.0547 101.504C26.3781 101.891 25.8519 102.447 25.4572 103.182C25.0626 103.917 24.8652 104.803 24.8652 105.849C24.8652 106.895 25.0626 107.781 25.4478 108.516C25.8331 109.241 26.3687 109.807 27.0359 110.193C27.703 110.58 28.4642 110.777 29.3193 110.777C29.9394 110.777 30.4844 110.683 30.9731 110.495C31.4617 110.306 31.8751 110.052 32.2322 109.731C32.5893 109.411 32.8712 109.043 33.0779 108.638C33.2846 108.233 33.4162 107.809 33.4726 107.357H31.4241C31.3771 107.62 31.2926 107.847 31.1704 108.045C31.0482 108.242 30.8979 108.412 30.7194 108.553C30.5408 108.695 30.3341 108.798 30.0992 108.874C29.8737 108.94 29.6199 108.977 29.3474 108.977C28.8588 108.977 28.436 108.855 28.0695 108.619C27.703 108.384 27.4211 108.026 27.2144 107.564C27.0077 107.102 26.9043 106.499 26.9043 105.839C26.9043 105.18 26.9983 104.614 27.205 104.143C27.4117 103.681 27.6936 103.323 28.0601 103.078C28.4266 102.833 28.8588 102.711 29.3568 102.711C29.6293 102.711 29.8831 102.748 30.118 102.824C30.3529 102.899 30.5596 103.012 30.7381 103.163C30.9167 103.304 31.067 103.483 31.1798 103.691C31.2925 103.898 31.3677 104.134 31.4053 104.397ZM36.2257 101.033V110.627H38.2459V106.659H42.3523V110.627H44.3726V101.033H42.3523V104.991H38.2459V101.033H36.2257ZM48.9958 110.627H46.8345L50.1421 101.033H52.745L56.0433 110.627H53.8726L53.1654 108.44H49.7058L48.9958 110.627ZM51.4765 103.219L52.6532 106.857H50.22L51.4013 103.219H51.4765ZM58.5051 101.033V110.627H64.6317V108.959H60.5254V101.033H58.5051ZM67.2911 110.627V101.033H69.3114V108.959H73.4177V110.627H67.2911ZM76.0674 101.033V110.617H82.5323V108.949H78.0877V106.659H82.1752V104.991H78.0877V102.701H82.5135V101.033H76.0674ZM93.4418 101.033V110.627H91.694L87.5313 104.586H87.4655V110.627H85.4453V101.033H87.2212L91.3558 107.064H91.4403V101.033H93.4418ZM109.773 101.033V110.627H107.753V101.033H109.773ZM120.758 110.627V101.033H118.757V107.064H118.672L114.538 101.033H112.762V110.627H114.782V104.586H114.848L119.01 110.627H120.758ZM130.089 104.134C130.023 103.907 129.929 103.7 129.817 103.53C129.694 103.351 129.554 103.201 129.384 103.078C129.215 102.956 129.018 102.861 128.802 102.795C128.586 102.729 128.351 102.701 128.088 102.701C127.599 102.701 127.167 102.824 126.8 103.069C126.434 103.314 126.143 103.662 125.936 104.134C125.729 104.605 125.626 105.161 125.626 105.83C125.626 106.499 125.729 107.064 125.926 107.536C126.133 108.007 126.415 108.365 126.791 108.61C127.157 108.855 127.599 108.977 128.106 108.977C128.567 108.977 128.952 108.893 129.281 108.732C129.61 108.572 129.854 108.337 130.033 108.035C130.194 107.747 130.287 107.417 130.295 107.027H128.247V105.5H132.25V106.706C132.25 107.545 132.072 108.271 131.715 108.874C131.358 109.477 130.869 109.948 130.249 110.269C129.629 110.598 128.915 110.759 128.106 110.759C127.214 110.759 126.424 110.561 125.738 110.165C125.062 109.769 124.526 109.204 124.15 108.469C123.775 107.734 123.587 106.857 123.587 105.849C123.587 105.067 123.699 104.379 123.925 103.766C124.15 103.154 124.47 102.635 124.874 102.211C125.278 101.787 125.757 101.467 126.302 101.24C126.847 101.014 127.43 100.911 128.059 100.911C128.604 100.911 129.102 100.986 129.572 101.146C130.042 101.306 130.456 101.523 130.813 101.815C131.179 102.098 131.47 102.447 131.705 102.843C131.94 103.238 132.081 103.672 132.147 104.143H130.089V104.134ZM52.7735 117.996V127.58H59.2384V125.912H54.7938V123.622H58.8813V121.954H54.7938V119.664H59.2196V117.996H52.7735ZM64.0495 117.996L65.9758 121.266H66.051L67.9867 117.996H70.2701L67.3477 122.793L70.3358 127.589H68.0055L66.0416 124.31H65.9664L64.0025 127.589H61.6815L64.6791 122.793L61.7379 117.996H64.0307H64.0495ZM72.3464 127.589H74.5076L75.2176 125.403H78.6772L79.3845 127.589H81.5551L78.2569 117.996H75.654L72.3464 127.589ZM78.1651 123.82L76.9883 120.182H76.9132L75.7318 123.82H78.1651ZM84.0172 117.996H86.5073L89.1384 124.442H89.2511L91.8822 117.996H94.3723V127.589H92.4084V121.341H92.3332L89.8525 127.542H88.5182L86.0468 121.323H85.9717V127.589H84.0078V117.996H84.0172ZM102.078 119.881C102.36 120.088 102.519 120.38 102.557 120.757L102.566 120.767H104.502C104.493 120.192 104.342 119.692 104.042 119.259C103.741 118.825 103.327 118.486 102.801 118.241C102.275 117.996 101.636 117.874 100.941 117.874C100.245 117.874 99.6158 117.996 99.0708 118.241C98.5163 118.486 98.0841 118.825 97.774 119.259C97.4639 119.692 97.3136 120.201 97.3136 120.786C97.3136 121.492 97.5391 122.058 98.0089 122.472C98.4694 122.887 99.1083 123.198 99.9165 123.396L100.959 123.66C101.307 123.745 101.598 123.839 101.843 123.943C102.087 124.046 102.275 124.169 102.397 124.32C102.519 124.47 102.585 124.649 102.585 124.866C102.585 125.092 102.519 125.3 102.378 125.479C102.237 125.658 102.04 125.79 101.786 125.893C101.533 125.997 101.241 126.044 100.894 126.044C100.546 126.044 100.227 125.988 99.954 125.884C99.6815 125.78 99.456 125.62 99.2963 125.403C99.1271 125.187 99.0332 124.923 99.0144 124.602H97.0599C97.0693 125.29 97.2384 125.865 97.5579 126.336C97.8774 126.798 98.319 127.156 98.8922 127.392C99.4654 127.627 100.133 127.75 100.912 127.75C101.692 127.75 102.36 127.627 102.914 127.392C103.468 127.156 103.891 126.826 104.183 126.393C104.474 125.959 104.624 125.45 104.624 124.866C104.624 124.461 104.549 124.103 104.408 123.801C104.267 123.5 104.07 123.226 103.816 123C103.562 122.774 103.262 122.586 102.914 122.425C102.566 122.265 102.181 122.143 101.768 122.048L100.912 121.841C100.696 121.794 100.508 121.737 100.321 121.671C100.133 121.605 99.9728 121.53 99.8319 121.436C99.6909 121.342 99.5876 121.238 99.503 121.106C99.4184 120.974 99.3902 120.823 99.3902 120.654C99.3902 120.446 99.4466 120.258 99.5688 120.098C99.6815 119.928 99.8601 119.805 100.086 119.711C100.311 119.617 100.593 119.57 100.922 119.57C101.411 119.57 101.796 119.674 102.078 119.881Z" fill="#07080E"/>
<path d="M66.9058 72.8934C65.8722 72.8934 64.9889 72.5258 64.2466 71.7813C63.5136 71.0463 63.1377 70.151 63.1471 69.1238V38.9675C63.1471 37.9308 63.5136 37.045 64.256 36.3005C64.9889 35.5655 65.8816 35.1885 66.9058 35.1979H80.39C80.888 35.1979 81.3673 35.2922 81.8277 35.4806C82.2788 35.6691 82.6828 35.933 83.0211 36.2817L92.1358 45.4228C92.4835 45.7715 92.7466 46.1673 92.9346 46.6291C93.1225 47.0814 93.2165 47.562 93.2165 48.0615V52.3493L78.1818 67.3804V72.8934H66.9058ZM82.8801 72.8934C82.6264 72.8934 82.4103 72.7991 82.2224 72.6107C82.0344 72.4222 81.9405 72.2054 81.9405 71.951V69.6893C81.9405 69.4348 81.9969 69.1898 82.1096 68.9353C82.2224 68.6809 82.3539 68.483 82.5043 68.3228L91.619 59.1345L95.6596 63.0925L86.4979 72.3279C86.3381 72.5164 86.1408 72.6578 85.8871 72.752C85.6334 72.8462 85.389 72.8934 85.1353 72.8934H82.8801ZM97.0221 61.7732L93.0285 57.7681L94.3441 56.4487C94.7199 56.0718 95.171 55.8833 95.7066 55.8833C96.2422 55.8833 96.6744 56.0718 97.0221 56.4487L98.3377 57.8152C98.6853 58.1921 98.8545 58.6445 98.8545 59.1628C98.8545 59.6811 98.6853 60.1146 98.3377 60.4539L97.0221 61.7732ZM81.9405 48.3913H89.4578L80.0611 38.9675V46.5066C80.0611 47.0437 80.2397 47.4866 80.6061 47.8542C80.9726 48.2217 81.4143 48.4008 81.9405 48.3913Z" fill="#07080E"/>
</g>
<defs>
<clipPath id="clip0_418_21114">
<rect width="152.15" height="170" fill="white" transform="translate(0.499023)"/>
</clipPath>
</defs>
</svg>
