<svg width="176" height="170" viewBox="0 0 176 170" fill="none" xmlns="http://www.w3.org/2000/svg">
<path d="M71.9582 40.2099L99.6199 53.3809L93.7048 19.2122L66.043 6.04116L71.9582 40.2099Z" fill="#07192B"/>
<path d="M42.356 3.11821L58.8069 91.7072L120.708 12.793L95.837 9.71542L71.9625 40.2091L66.0474 6.04034L42.356 3.11821Z" fill="url(#paint0_linear_885_10638)"/>
<path d="M43.5704 147.528L71.2322 160.699L173.853 29.1074L146.191 15.9365L43.5704 147.528Z" fill="url(#paint1_linear_885_10638)"/>
<path d="M17.0932 3.37345e-05L43.5699 147.528L146.191 15.9364L120.706 12.7937L58.8044 91.7079L42.3536 3.11891L17.0932 3.37345e-05Z" fill="url(#paint2_linear_885_10638)"/>
<path d="M89.5348 113.055C88.7878 113.603 88.6309 114.668 89.1986 115.411L91.2008 118.029C91.6565 118.629 91.6565 119.454 91.2008 120.047L89.2061 122.665C88.6383 123.407 88.7952 124.465 89.5423 125.02L92.187 126.963C92.7921 127.406 93.0237 128.201 92.7547 128.906L91.5669 131.982C91.2307 132.852 91.6789 133.835 92.553 134.15L95.6235 135.252C96.3332 135.507 96.7815 136.205 96.7143 136.955L96.4304 140.241C96.3482 141.171 97.0504 141.989 97.9843 142.041L101.227 142.229C101.974 142.274 102.601 142.821 102.751 143.557L103.401 146.782C103.587 147.705 104.491 148.283 105.403 148.073L108.563 147.33C109.295 147.157 110.057 147.503 110.408 148.178L111.925 151.081C112.358 151.913 113.397 152.221 114.211 151.756L117.027 150.151C117.685 149.776 118.507 149.896 119.037 150.443L121.301 152.791C121.951 153.466 123.026 153.466 123.676 152.791L125.94 150.443C126.463 149.896 127.292 149.776 127.95 150.151L130.766 151.756C131.58 152.221 132.611 151.913 133.052 151.081L134.569 148.178C134.92 147.51 135.674 147.157 136.414 147.33L139.574 148.073C140.486 148.283 141.39 147.705 141.576 146.782L142.226 143.557C142.376 142.814 143.003 142.274 143.75 142.229L146.993 142.041C147.926 141.989 148.629 141.171 148.547 140.241L148.263 136.955C148.195 136.205 148.644 135.5 149.353 135.252L152.424 134.15C153.298 133.835 153.746 132.859 153.41 131.982L152.222 128.906C151.953 128.201 152.185 127.406 152.79 126.963L155.435 125.02C156.182 124.473 156.339 123.407 155.771 122.665L153.776 120.047C153.32 119.454 153.32 118.621 153.776 118.029L155.778 115.411C156.346 114.668 156.189 113.61 155.442 113.055L152.797 111.112C152.192 110.67 151.961 109.874 152.23 109.169L153.417 106.094C153.754 105.223 153.305 104.241 152.431 103.926L149.361 102.823C148.651 102.568 148.203 101.87 148.27 101.12L148.554 97.8342C148.636 96.904 147.934 96.0864 147 96.0338L143.758 95.8463C143.003 95.8013 142.376 95.2537 142.234 94.5185L141.584 91.2928C141.397 90.3776 140.493 89.7925 139.589 90.0025L136.429 90.7452C135.697 90.9177 134.942 90.5727 134.591 89.8975L133.075 87.0019C132.641 86.1692 131.603 85.8691 130.796 86.3267L127.972 87.9321C127.315 88.3072 126.493 88.1871 125.962 87.6395L123.699 85.2915C123.049 84.6164 121.973 84.6164 121.323 85.2915L119.059 87.6395C118.536 88.1871 117.707 88.3072 117.05 87.9321L114.226 86.3267C113.411 85.8616 112.38 86.1692 111.947 87.0019L110.431 89.8975C110.079 90.5652 109.325 90.9177 108.593 90.7452L105.433 90.0025C104.521 89.7925 103.617 90.3701 103.438 91.2928L102.788 94.5185C102.639 95.2612 102.011 95.8088 101.264 95.8463L98.0216 96.0338C97.0878 96.0864 96.3855 96.904 96.4677 97.8342L96.7516 101.12C96.8188 101.87 96.3706 102.575 95.6609 102.823L92.5904 103.926C91.7163 104.241 91.2681 105.216 91.6042 106.094L92.7921 109.169C93.061 109.874 92.8294 110.67 92.2243 111.112L89.5797 113.055H89.5348Z" fill="white"/>
<path d="M105.059 105.779L122.511 135.591L139.963 105.779H132.985L122.518 123.671L111.962 105.779H105.067H105.059Z" fill="#3DD491"/>
<path d="M111.955 105.779L122.556 123.903L132.985 105.779H126.553L122.556 112.748L118.47 105.779H111.955Z" fill="#2C3D4F"/>
<defs>
<linearGradient id="paint0_linear_885_10638" x1="81.6036" y1="7.28176" x2="72.4933" y2="93.1591" gradientUnits="userSpaceOnUse">
<stop stop-color="#061728"/>
<stop offset="0.475142" stop-color="#164272"/>
<stop offset="1" stop-color="#002347"/>
</linearGradient>
<linearGradient id="paint1_linear_885_10638" x1="150.46" y1="31.0142" x2="46.1525" y2="239.206" gradientUnits="userSpaceOnUse">
<stop stop-color="#3DD08F"/>
<stop offset="0.48715" stop-color="#2D7B83"/>
<stop offset="1" stop-color="#125236"/>
</linearGradient>
<linearGradient id="paint2_linear_885_10638" x1="50.0744" y1="3.49883" x2="56.4914" y2="141.742" gradientUnits="userSpaceOnUse">
<stop stop-color="#3CD08E"/>
<stop offset="0.429012" stop-color="#2F7E89"/>
<stop offset="1" stop-color="#105134"/>
</linearGradient>
</defs>
</svg>
