<svg width="791" height="825" viewBox="0 0 791 825" fill="none" xmlns="http://www.w3.org/2000/svg">
<g opacity="0.3" filter="url(#filter0_f_256_3284)">
<ellipse cx="400.872" cy="426.986" rx="189.867" ry="197.266" fill="#00A3FF"/>
</g>
<g opacity="0.3" filter="url(#filter1_f_256_3284)">
<ellipse cx="334.264" cy="368.926" rx="162.59" ry="168.926" fill="#4255FF"/>
</g>
<rect x="140.5" y="199.5" width="524.205" height="351.836" rx="19.5" fill="#E6E9FA" fill-opacity="0.06"/>
<rect x="180" y="239" width="445.205" height="272.836" rx="6" fill="#07080E" fill-opacity="0.8"/>
<rect x="140.5" y="199.5" width="524.205" height="351.836" rx="19.5" stroke="url(#paint0_linear_256_3284)"/>
<rect x="330.617" y="361.767" width="135.926" height="10.8346" rx="5.41732" fill="#E6E9FA" fill-opacity="0.12"/>
<rect x="253.79" y="403.136" width="122.136" height="10.8346" rx="5.41732" fill="#E6E9FA" fill-opacity="0.12"/>
<rect x="431.084" y="403.136" width="122.136" height="10.8346" rx="5.41732" fill="#E6E9FA" fill-opacity="0.12"/>
<rect x="253.79" y="421.85" width="122.136" height="10.8346" rx="5.41732" fill="#E6E9FA" fill-opacity="0.12"/>
<rect x="431.084" y="421.85" width="122.136" height="10.8346" rx="5.41732" fill="#E6E9FA" fill-opacity="0.12"/>
<rect x="253.79" y="440.565" width="122.136" height="10.8346" rx="5.41732" fill="#E6E9FA" fill-opacity="0.12"/>
<rect x="431.084" y="440.565" width="122.136" height="10.8346" rx="5.41732" fill="#E6E9FA" fill-opacity="0.12"/>
<rect x="253.79" y="459.279" width="62.053" height="10.8346" rx="5.41732" fill="#E6E9FA" fill-opacity="0.12"/>
<rect x="431.084" y="459.279" width="62.053" height="10.8346" rx="5.41732" fill="#E6E9FA" fill-opacity="0.12"/>
<rect x="283.338" y="281" width="240.332" height="10.8346" rx="5.41732" fill="#4255FF"/>
<rect x="240" y="310.549" width="122.136" height="10.8346" rx="5.41732" fill="#E6E9FA" fill-opacity="0.12"/>
<rect x="370.016" y="310.549" width="57.1281" height="10.8346" rx="5.41732" fill="#E6E9FA" fill-opacity="0.12"/>
<rect x="435.023" y="310.549" width="131.001" height="10.8346" rx="5.41732" fill="#E6E9FA" fill-opacity="0.12"/>
<rect x="125.178" y="262.142" width="57.6048" height="58.5757" fill="white"/>
<path d="M163.502 297.049H146.034V305.428H163.082C164.09 305.428 165.013 305.01 165.769 304.339C166.441 303.669 166.861 302.664 166.861 301.406C166.885 300.328 166.561 299.27 165.937 298.39C165.265 297.553 164.509 297.049 163.502 297.049ZM164.09 286.912C164.845 286.408 165.181 285.319 165.181 283.895C165.181 282.638 164.845 281.717 164.257 281.13C163.669 280.627 162.913 280.292 162.074 280.292H146.034V287.833H161.738C162.578 287.833 163.418 287.414 164.09 286.912Z" fill="#09B3AF"/>
<path d="M189.703 255.993H123.779C121.68 255.993 120 257.669 120 259.68V325.537C120 327.548 121.68 328.806 123.695 328.806H133.436V341.96L145.529 328.89H189.703C191.719 328.89 192.978 327.632 192.978 325.537V259.764C192.978 257.753 191.718 256.077 189.619 256.077L189.703 255.993ZM178.618 309.366C177.777 310.875 176.518 312.131 175.007 313.053C173.41 314.059 171.647 314.98 169.631 315.399C167.616 315.902 165.433 316.321 163.166 316.321H133.436V269.399H167.197C168.876 269.399 170.303 269.735 171.647 270.489C172.907 271.159 174.083 272.081 175.007 273.17C176.887 275.457 177.899 278.336 177.861 281.297C177.861 283.475 177.273 285.57 176.182 287.581C175.049 289.605 173.277 291.196 171.144 292.106C173.83 292.86 175.93 294.201 177.526 296.128C179.038 298.138 179.793 300.736 179.793 304.004C179.793 306.099 179.373 307.859 178.534 309.366H178.618Z" fill="#09B3AF"/>
<path d="M444.446 215.002L476.667 269.825L508.887 215.002L495.999 215.002L476.667 247.896L457.173 215.002H444.446Z" fill="#3DD491"/>
<path d="M457.333 215L476.746 248.324L495.998 215H484.125L476.746 227.817L469.205 215H457.333Z" fill="#2C3D4F"/>
<path d="M242.344 389.017L203.503 459.622C202.701 461.08 200.64 461.088 199.826 459.638L160.215 389.024C159.328 387.443 160.658 385.528 162.42 385.849L201.303 392.914C201.551 392.959 201.805 392.958 202.053 392.912L240.123 385.859C241.879 385.533 243.215 387.433 242.344 389.017Z" fill="url(#paint1_linear_256_3284)"/>
<path d="M220.215 377.021L191.326 382.766C190.851 382.86 190.5 383.268 190.471 383.758L188.694 414.218C188.652 414.935 189.301 415.492 189.991 415.331L198.034 413.447C198.787 413.271 199.467 413.943 199.312 414.711L196.923 426.587C196.762 427.386 197.501 428.069 198.27 427.832L203.238 426.3C204.008 426.063 204.748 426.749 204.585 427.548L200.788 446.202C200.55 447.369 202.08 448.005 202.717 447.005L203.143 446.336L226.684 398.66C227.078 397.861 226.399 396.951 225.535 397.12L217.255 398.742C216.477 398.894 215.815 398.159 216.035 397.386L221.439 378.376C221.658 377.602 220.994 376.866 220.215 377.021Z" fill="url(#paint2_linear_256_3284)"/>
<path d="M607.74 382H637.851C638.808 382 639.748 381.751 640.575 381.277C641.404 380.802 642.092 380.12 642.569 379.3C643.048 378.478 643.299 377.547 643.298 376.6C643.298 375.652 643.046 374.721 642.567 373.9L622.345 339.186C621.868 338.366 621.18 337.684 620.352 337.21C619.524 336.736 618.585 336.486 617.628 336.486C616.671 336.486 615.732 336.736 614.904 337.21C614.075 337.684 613.388 338.366 612.911 339.186L607.74 348.068L597.631 330.699C597.153 329.879 596.465 329.198 595.636 328.723C594.808 328.25 593.869 328 592.912 328C591.955 328 591.015 328.25 590.188 328.723C589.359 329.198 588.671 329.879 588.193 330.699L563.03 373.9C562.551 374.721 562.299 375.652 562.298 376.6C562.298 377.547 562.549 378.478 563.027 379.3C563.505 380.12 564.192 380.802 565.021 381.277C565.849 381.751 566.789 382 567.745 382H586.647C594.136 382 599.658 378.74 603.459 372.379L612.685 356.543L617.627 348.068L632.458 373.525H612.685L607.74 382ZM586.353 373.513H573.148L592.921 339.573L602.787 356.543L596.181 367.886C593.657 372.013 590.79 373.516 586.339 373.516" fill="#00DC82"/>
<g filter="url(#filter2_d_256_3284)">
<path d="M528.771 624L507.652 607.173L486.534 624V545.993H528.771V624Z" fill="white" fill-opacity="0.2"/>
<path d="M513.785 471.34L519.107 476.914C521.057 478.952 523.976 479.745 526.694 478.952L534.079 476.788C538.219 475.58 542.522 478.059 543.541 482.249L545.365 489.735C546.032 492.478 548.171 494.617 550.914 495.283L558.4 497.108C562.59 498.127 565.068 502.43 563.86 506.569L561.696 513.955C560.904 516.66 561.696 519.591 563.735 521.542L569.308 526.864C572.429 529.833 572.429 534.815 569.308 537.785L563.735 543.107C561.696 545.057 560.904 547.976 561.696 550.694L563.86 558.079C565.068 562.219 562.59 566.522 558.4 567.541L550.914 569.365C548.171 570.032 546.032 572.171 545.365 574.914L543.541 582.4C542.522 586.59 538.219 589.068 534.079 587.86L526.694 585.696C523.989 584.904 521.057 585.696 519.107 587.735L513.785 593.308C510.815 596.429 505.833 596.429 502.864 593.308L497.542 587.735C495.591 585.696 492.672 584.904 489.955 585.696L482.569 587.86C478.43 589.068 474.127 586.59 473.108 582.4L471.283 574.914C470.617 572.171 468.478 570.032 465.735 569.365L458.249 567.541C454.059 566.522 451.58 562.219 452.788 558.079L454.952 550.694C455.745 547.989 454.952 545.057 452.914 543.107L447.34 537.785C444.22 534.815 444.22 529.833 447.34 526.864L452.914 521.542C454.952 519.591 455.745 516.672 454.952 513.955L452.788 506.569C451.58 502.43 454.059 498.127 458.249 497.108L465.735 495.283C468.478 494.617 470.617 492.478 471.283 489.735L473.108 482.249C474.127 478.059 478.43 475.58 482.569 476.788L489.955 478.952C492.66 479.745 495.591 478.952 497.542 476.914L502.864 471.34C505.833 468.22 510.815 468.22 513.785 471.34Z" fill="url(#paint3_linear_256_3284)"/>
<path fill-rule="evenodd" clip-rule="evenodd" d="M489.149 533L500.613 521.537C502.561 519.574 502.561 516.412 500.613 514.463C498.664 512.515 495.488 512.515 493.539 514.463L478.539 529.463C476.591 531.412 476.591 534.574 478.539 536.537L493.539 551.537C494.51 552.515 495.804 553 497.076 553C498.348 553 499.635 552.515 500.613 551.537C502.561 549.574 502.561 546.412 500.613 544.463L489.149 533ZM523.113 551.537L538.113 536.537C540.061 534.574 540.061 531.412 538.113 529.463L523.113 514.463C521.164 512.515 517.988 512.515 516.039 514.463C514.091 516.412 514.091 519.574 516.039 521.537L527.502 533L516.039 544.463C514.091 546.412 514.091 549.574 516.039 551.537C517.017 552.515 518.304 553 519.576 553C520.848 553 522.142 552.515 523.113 551.537Z" fill="#07080E"/>
</g>
<defs>
<filter id="filter0_f_256_3284" x="11.0054" y="29.72" width="779.734" height="794.532" filterUnits="userSpaceOnUse" color-interpolation-filters="sRGB">
<feFlood flood-opacity="0" result="BackgroundImageFix"/>
<feBlend mode="normal" in="SourceGraphic" in2="BackgroundImageFix" result="shape"/>
<feGaussianBlur stdDeviation="100" result="effect1_foregroundBlur_256_3284"/>
</filter>
<filter id="filter1_f_256_3284" x="-28.3267" y="0" width="725.18" height="737.853" filterUnits="userSpaceOnUse" color-interpolation-filters="sRGB">
<feFlood flood-opacity="0" result="BackgroundImageFix"/>
<feBlend mode="normal" in="SourceGraphic" in2="BackgroundImageFix" result="shape"/>
<feGaussianBlur stdDeviation="100" result="effect1_foregroundBlur_256_3284"/>
</filter>
<filter id="filter2_d_256_3284" x="435" y="459" width="146.648" height="175" filterUnits="userSpaceOnUse" color-interpolation-filters="sRGB">
<feFlood flood-opacity="0" result="BackgroundImageFix"/>
<feColorMatrix in="SourceAlpha" type="matrix" values="0 0 0 0 0 0 0 0 0 0 0 0 0 0 0 0 0 0 127 0" result="hardAlpha"/>
<feOffset/>
<feGaussianBlur stdDeviation="5"/>
<feComposite in2="hardAlpha" operator="out"/>
<feColorMatrix type="matrix" values="0 0 0 0 0.0705882 0 0 0 0 0.0901961 0 0 0 0 0.168627 0 0 0 0.15 0"/>
<feBlend mode="normal" in2="BackgroundImageFix" result="effect1_dropShadow_256_3284"/>
<feBlend mode="normal" in="SourceGraphic" in2="effect1_dropShadow_256_3284" result="shape"/>
</filter>
<linearGradient id="paint0_linear_256_3284" x1="665.205" y1="551.836" x2="665.205" y2="199" gradientUnits="userSpaceOnUse">
<stop stop-color="#00A3FF"/>
<stop offset="1" stop-color="#4255FF"/>
</linearGradient>
<linearGradient id="paint1_linear_256_3284" x1="122.414" y1="405.222" x2="164.352" y2="475.767" gradientUnits="userSpaceOnUse">
<stop stop-color="#41D1FF"/>
<stop offset="1" stop-color="#BD34FE"/>
</linearGradient>
<linearGradient id="paint2_linear_256_3284" x1="182.82" y1="386.711" x2="208.758" y2="439.466" gradientUnits="userSpaceOnUse">
<stop stop-color="#FFEA83"/>
<stop offset="0.0833333" stop-color="#FFDD35"/>
<stop offset="1" stop-color="#FFA800"/>
</linearGradient>
<linearGradient id="paint3_linear_256_3284" x1="571.649" y1="595.649" x2="571.649" y2="469" gradientUnits="userSpaceOnUse">
<stop stop-color="#00A3FF"/>
<stop offset="1" stop-color="#4255FF"/>
</linearGradient>
</defs>
</svg>
