<svg width="634" height="474" viewBox="0 0 634 474" fill="none" xmlns="http://www.w3.org/2000/svg">
<g filter="url(#filter0_d_1304_12739)">
<rect x="54" y="39" width="525.205" height="352.836" rx="20" fill="#E6E9FA" fill-opacity="0.06" shape-rendering="crispEdges"/>
<rect x="94" y="79" width="445.205" height="272.836" rx="6" fill="#07080E" fill-opacity="0.05"/>
<rect x="54.5" y="39.5" width="524.205" height="351.836" rx="19.5" stroke="url(#paint0_linear_1304_12739)" shape-rendering="crispEdges"/>
</g>
<rect x="244.617" y="201.768" width="135.926" height="10.8346" rx="5.41732" fill="#07080E" fill-opacity="0.15"/>
<rect x="167.79" y="243.136" width="122.136" height="10.8346" rx="5.41732" fill="#07080E" fill-opacity="0.15"/>
<rect x="345.084" y="243.136" width="122.136" height="10.8346" rx="5.41732" fill="#07080E" fill-opacity="0.15"/>
<rect x="167.79" y="261.851" width="122.136" height="10.8346" rx="5.41732" fill="#07080E" fill-opacity="0.15"/>
<rect x="345.084" y="261.851" width="122.136" height="10.8346" rx="5.41732" fill="#07080E" fill-opacity="0.15"/>
<rect x="167.79" y="280.564" width="122.136" height="10.8346" rx="5.41732" fill="#07080E" fill-opacity="0.15"/>
<rect x="345.084" y="280.564" width="122.136" height="10.8346" rx="5.41732" fill="#07080E" fill-opacity="0.15"/>
<rect x="167.79" y="299.279" width="62.053" height="10.8346" rx="5.41732" fill="#07080E" fill-opacity="0.15"/>
<rect x="345.084" y="299.279" width="62.053" height="10.8346" rx="5.41732" fill="#07080E" fill-opacity="0.15"/>
<rect x="197.338" y="121" width="240.332" height="10.8346" rx="5.41732" fill="#4255FF"/>
<rect x="154" y="150.549" width="122.136" height="10.8346" rx="5.41732" fill="#07080E" fill-opacity="0.15"/>
<rect x="284.016" y="150.549" width="57.1281" height="10.8346" rx="5.41732" fill="#07080E" fill-opacity="0.15"/>
<rect x="349.023" y="150.549" width="131.001" height="10.8346" rx="5.41732" fill="#07080E" fill-opacity="0.15"/>
<rect x="39.1777" y="102.142" width="57.6048" height="58.5757" fill="white"/>
<path d="M77.5019 137.049H60.0337V145.428H77.0818C78.0899 145.428 79.0133 145.01 79.7686 144.339C80.4407 143.668 80.8608 142.663 80.8608 141.406C80.885 140.327 80.561 139.27 79.9367 138.389C79.2646 137.552 78.5092 137.049 77.5019 137.049ZM78.0899 126.911C78.8453 126.408 79.1813 125.319 79.1813 123.895C79.1813 122.637 78.8453 121.716 78.2572 121.13C77.6691 120.627 76.913 120.292 76.0737 120.292H60.0337V127.832H75.7376C76.5777 127.832 77.4179 127.414 78.0899 126.911Z" fill="#09B3AF"/>
<path d="M103.703 95.9932H37.779C35.6802 95.9932 34 97.6688 34 99.6797V165.537C34 167.548 35.6802 168.806 37.695 168.806H47.4364V181.96L59.5294 168.89H103.703C105.719 168.89 106.978 167.632 106.978 165.537V99.7637C106.978 97.7528 105.718 96.0772 103.619 96.0772L103.703 95.9932ZM92.6175 149.366C91.7774 150.875 90.518 152.131 89.0066 153.053C87.4104 154.059 85.6469 154.98 83.6314 155.399C81.6159 155.902 79.4332 156.321 77.1656 156.321H47.4364V109.399H81.1966C82.8761 109.399 84.3035 109.735 85.6469 110.489C86.9071 111.159 88.0832 112.081 89.0066 113.17C90.8873 115.457 91.8985 118.336 91.8614 121.297C91.8614 123.475 91.2733 125.57 90.182 127.581C89.0489 129.605 87.2771 131.196 85.1436 132.106C87.8304 132.86 89.9299 134.201 91.5261 136.128C93.0376 138.138 93.7929 140.736 93.7929 144.004C93.7929 146.099 93.3729 147.859 92.5335 149.366H92.6175Z" fill="#09B3AF"/>
<path d="M358.446 55.002L390.667 109.825L422.887 55.002H409.999L390.667 87.8957L371.173 55.002H358.446Z" fill="#3DD491"/>
<path d="M371.333 55L390.746 88.3237L409.998 55H398.125L390.746 67.8168L383.205 55H371.333Z" fill="#2C3D4F"/>
<path d="M156.344 229.018L117.503 299.622C116.701 301.08 114.64 301.089 113.826 299.638L74.215 229.024C73.3283 227.444 74.658 225.529 76.4202 225.849L115.303 232.914C115.551 232.959 115.805 232.959 116.053 232.913L154.123 225.859C155.879 225.534 157.215 227.434 156.344 229.018Z" fill="url(#paint1_linear_1304_12739)"/>
<path d="M134.215 217.021L105.326 222.766C104.851 222.86 104.5 223.268 104.471 223.758L102.694 254.218C102.652 254.935 103.301 255.492 103.991 255.331L112.034 253.447C112.787 253.271 113.467 253.943 113.312 254.711L110.923 266.587C110.762 267.386 111.501 268.069 112.27 267.832L117.238 266.3C118.008 266.063 118.748 266.749 118.585 267.548L114.788 286.202C114.55 287.369 116.08 288.005 116.717 287.005L117.143 286.336L140.684 238.66C141.078 237.861 140.399 236.951 139.535 237.12L131.255 238.742C130.477 238.894 129.815 238.159 130.035 237.386L135.439 218.376C135.658 217.602 134.994 216.866 134.215 217.021Z" fill="url(#paint2_linear_1304_12739)"/>
<path d="M521.74 222H551.851C552.808 222 553.748 221.751 554.575 221.277C555.404 220.802 556.092 220.12 556.569 219.3C557.048 218.478 557.299 217.547 557.298 216.6C557.298 215.652 557.046 214.721 556.567 213.9L536.345 179.186C535.868 178.366 535.18 177.684 534.352 177.21C533.524 176.736 532.585 176.486 531.628 176.486C530.671 176.486 529.732 176.736 528.904 177.21C528.075 177.684 527.388 178.366 526.911 179.186L521.74 188.068L511.631 170.699C511.153 169.879 510.465 169.198 509.636 168.723C508.808 168.25 507.869 168 506.912 168C505.955 168 505.015 168.25 504.188 168.723C503.359 169.198 502.671 169.879 502.193 170.699L477.03 213.9C476.551 214.721 476.299 215.652 476.298 216.6C476.298 217.547 476.549 218.478 477.027 219.3C477.505 220.12 478.192 220.802 479.021 221.277C479.849 221.751 480.789 222 481.745 222H500.647C508.136 222 513.658 218.74 517.459 212.379L526.685 196.543L531.627 188.068L546.458 213.525H526.685L521.74 222ZM500.353 213.513H487.148L506.921 179.573L516.787 196.543L510.181 207.886C507.657 212.013 504.79 213.516 500.339 213.516" fill="#00DC82"/>
<g filter="url(#filter1_d_1304_12739)">
<path d="M466.771 464L445.652 447.173L424.534 464V385.993H466.771V464Z" fill="#E4E5E5"/>
<path d="M451.785 311.34L457.107 316.914C459.057 318.952 461.976 319.745 464.694 318.952L472.079 316.788C476.219 315.58 480.522 318.059 481.541 322.249L483.365 329.735C484.032 332.478 486.171 334.617 488.914 335.283L496.4 337.108C500.59 338.127 503.068 342.43 501.86 346.569L499.696 353.955C498.904 356.66 499.696 359.591 501.735 361.542L507.308 366.864C510.429 369.833 510.429 374.815 507.308 377.785L501.735 383.107C499.696 385.057 498.904 387.976 499.696 390.694L501.86 398.079C503.068 402.219 500.59 406.522 496.4 407.541L488.914 409.365C486.171 410.032 484.032 412.171 483.365 414.914L481.541 422.4C480.522 426.59 476.219 429.068 472.079 427.86L464.694 425.696C461.989 424.904 459.057 425.696 457.107 427.735L451.785 433.308C448.815 436.429 443.833 436.429 440.864 433.308L435.542 427.735C433.591 425.696 430.672 424.904 427.955 425.696L420.569 427.86C416.43 429.068 412.127 426.59 411.108 422.4L409.283 414.914C408.617 412.171 406.478 410.032 403.735 409.365L396.249 407.541C392.059 406.522 389.58 402.219 390.788 398.079L392.952 390.694C393.745 387.989 392.952 385.057 390.914 383.107L385.34 377.785C382.22 374.815 382.22 369.833 385.34 366.864L390.914 361.542C392.952 359.591 393.745 356.672 392.952 353.955L390.788 346.569C389.58 342.43 392.059 338.127 396.249 337.108L403.735 335.283C406.478 334.617 408.617 332.478 409.283 329.735L411.108 322.249C412.127 318.059 416.43 315.58 420.569 316.788L427.955 318.952C430.66 319.745 433.591 318.952 435.542 316.914L440.864 311.34C443.833 308.22 448.815 308.22 451.785 311.34Z" fill="white" stroke="url(#paint3_linear_1304_12739)" stroke-width="2"/>
<path fill-rule="evenodd" clip-rule="evenodd" d="M427.149 373L438.613 361.537C440.561 359.574 440.561 356.412 438.613 354.463C436.664 352.515 433.488 352.515 431.539 354.463L416.539 369.463C414.591 371.412 414.591 374.574 416.539 376.537L431.539 391.537C432.51 392.515 433.804 393 435.076 393C436.348 393 437.635 392.515 438.613 391.537C440.561 389.574 440.561 386.412 438.613 384.463L427.149 373ZM461.113 391.537L476.113 376.537C478.061 374.574 478.061 371.412 476.113 369.463L461.113 354.463C459.164 352.515 455.988 352.515 454.039 354.463C452.091 356.412 452.091 359.574 454.039 361.537L465.502 373L454.039 384.463C452.091 386.412 452.091 389.574 454.039 391.537C455.017 392.515 456.304 393 457.576 393C458.848 393 460.142 392.515 461.113 391.537Z" fill="url(#paint4_linear_1304_12739)"/>
</g>
<defs>
<filter id="filter0_d_1304_12739" x="0" y="0" width="633.206" height="460.836" filterUnits="userSpaceOnUse" color-interpolation-filters="sRGB">
<feFlood flood-opacity="0" result="BackgroundImageFix"/>
<feColorMatrix in="SourceAlpha" type="matrix" values="0 0 0 0 0 0 0 0 0 0 0 0 0 0 0 0 0 0 127 0" result="hardAlpha"/>
<feOffset dy="15"/>
<feGaussianBlur stdDeviation="27"/>
<feComposite in2="hardAlpha" operator="out"/>
<feColorMatrix type="matrix" values="0 0 0 0 0 0 0 0 0 0 0 0 0 0 0 0 0 0 0.2 0"/>
<feBlend mode="normal" in2="BackgroundImageFix" result="effect1_dropShadow_1304_12739"/>
<feBlend mode="normal" in="SourceGraphic" in2="effect1_dropShadow_1304_12739" result="shape"/>
</filter>
<filter id="filter1_d_1304_12739" x="372" y="298" width="148.648" height="176" filterUnits="userSpaceOnUse" color-interpolation-filters="sRGB">
<feFlood flood-opacity="0" result="BackgroundImageFix"/>
<feColorMatrix in="SourceAlpha" type="matrix" values="0 0 0 0 0 0 0 0 0 0 0 0 0 0 0 0 0 0 127 0" result="hardAlpha"/>
<feOffset/>
<feGaussianBlur stdDeviation="5"/>
<feComposite in2="hardAlpha" operator="out"/>
<feColorMatrix type="matrix" values="0 0 0 0 0.0705882 0 0 0 0 0.0901961 0 0 0 0 0.168627 0 0 0 0.15 0"/>
<feBlend mode="normal" in2="BackgroundImageFix" result="effect1_dropShadow_1304_12739"/>
<feBlend mode="normal" in="SourceGraphic" in2="effect1_dropShadow_1304_12739" result="shape"/>
</filter>
<linearGradient id="paint0_linear_1304_12739" x1="579.205" y1="391.836" x2="579.205" y2="39" gradientUnits="userSpaceOnUse">
<stop stop-color="#00A3FF"/>
<stop offset="1" stop-color="#4255FF"/>
</linearGradient>
<linearGradient id="paint1_linear_1304_12739" x1="36.4144" y1="245.222" x2="78.3518" y2="315.767" gradientUnits="userSpaceOnUse">
<stop stop-color="#41D1FF"/>
<stop offset="1" stop-color="#BD34FE"/>
</linearGradient>
<linearGradient id="paint2_linear_1304_12739" x1="96.8203" y1="226.711" x2="122.758" y2="279.466" gradientUnits="userSpaceOnUse">
<stop stop-color="#FFEA83"/>
<stop offset="0.0833333" stop-color="#FFDD35"/>
<stop offset="1" stop-color="#FFA800"/>
</linearGradient>
<linearGradient id="paint3_linear_1304_12739" x1="509.649" y1="435.649" x2="509.649" y2="309" gradientUnits="userSpaceOnUse">
<stop stop-color="#00A3FF"/>
<stop offset="1" stop-color="#4255FF"/>
</linearGradient>
<linearGradient id="paint4_linear_1304_12739" x1="477.574" y1="393" x2="477.574" y2="353.002" gradientUnits="userSpaceOnUse">
<stop stop-color="#00A3FF"/>
<stop offset="1" stop-color="#4255FF"/>
</linearGradient>
</defs>
</svg>
