<svg width="184" height="173" viewBox="0 0 184 173" fill="none" xmlns="http://www.w3.org/2000/svg">
<g clip-path="url(#clip0_2211_7485)">
<path d="M67.2141 5.22653L7.83702 104.025L13.0155 25.8799L67.2141 5.22653Z" fill="white"/>
<path d="M67.2139 5.22659L77.8476 12.8078L18.4705 111.607L7.83688 104.025L67.2139 5.22659Z" fill="#EAC7CD"/>
<path d="M78.2775 45.22L90.7033 92.0782L54.1277 89.4958L78.2775 45.22Z" fill="white"/>
<path d="M78.2778 45.2197L88.9115 52.8009L101.337 99.6591L90.7036 92.0779L78.2778 45.2197Z" fill="#EAC7CD"/>
<path d="M90.7033 92.0782L101.337 99.6595L64.749 97.0759L54.1277 89.4958L90.7033 92.0782Z" fill="#A56570"/>
<path d="M99.1772 7.60254L147.051 35.3464L132.368 112.729L99.1772 7.60254Z" fill="white"/>
<path d="M147.051 35.3462L157.685 42.9275L143.001 120.323L132.368 112.729L147.051 35.3462Z" fill="#EAC7CD"/>
<path d="M64.664 151.821L75.2977 159.402L42.9251 136.491L32.2915 128.91L64.664 151.821Z" fill="#808080"/>
<path d="M97.315 115.655L102.242 133.859L64.6641 151.821L32.2916 128.91L41.5895 111.722L97.315 115.655Z" fill="white"/>
<path d="M97.3149 115.655L107.949 123.236L112.875 141.44L102.242 133.859L97.3149 115.655Z" fill="#EAC7CD"/>
<path d="M102.242 133.859L112.876 141.44L75.298 159.402L64.6643 151.82L102.242 133.859Z" fill="#A56570"/>
</g>
<path d="M102.015 116.482C101.109 117.144 100.925 118.422 101.607 119.313L104.012 122.453C104.562 123.171 104.561 124.168 104.011 124.886L101.608 128.021C100.925 128.912 101.109 130.191 102.016 130.853L105.198 133.178C105.929 133.712 106.21 134.671 105.883 135.515L104.453 139.203C104.047 140.252 104.585 141.429 105.643 141.808L109.338 143.134C110.192 143.44 110.732 144.283 110.655 145.187L110.318 149.124C110.222 150.246 111.07 151.226 112.195 151.292L116.1 151.518C117.007 151.571 117.765 152.228 117.944 153.119L118.725 156.982C118.949 158.088 120.042 158.79 121.14 158.534L124.943 157.645C125.83 157.438 126.745 157.857 127.169 158.663L128.993 162.138C129.518 163.139 130.768 163.506 131.751 162.948L135.144 161.021C135.938 160.57 136.935 160.714 137.569 161.369L140.289 164.181C141.075 164.994 142.378 164.994 143.164 164.181L145.884 161.369C146.518 160.714 147.516 160.57 148.309 161.021L151.702 162.948C152.685 163.506 153.935 163.139 154.461 162.138L156.285 158.663C156.708 157.857 157.623 157.438 158.51 157.645L162.313 158.534C163.412 158.79 164.505 158.088 164.728 156.982L165.509 153.119C165.689 152.228 166.446 151.571 167.353 151.518L171.259 151.292C172.383 151.226 173.232 150.246 173.136 149.124L172.798 145.187C172.721 144.283 173.262 143.44 174.116 143.134L177.81 141.808C178.869 141.429 179.406 140.252 179 139.203L177.571 135.515C177.243 134.671 177.524 133.712 178.256 133.178L181.438 130.853C182.344 130.191 182.528 128.912 181.845 128.021L179.442 124.886C178.892 124.168 178.892 123.171 179.441 122.453L181.847 119.313C182.529 118.422 182.345 117.144 181.438 116.482L178.256 114.156C177.524 113.622 177.243 112.663 177.571 111.819L179 108.131C179.406 107.082 178.869 105.905 177.81 105.526L174.116 104.2C173.262 103.894 172.721 103.051 172.798 102.147L173.135 98.2112C173.232 97.0887 172.382 96.1083 171.257 96.0438L167.355 95.82C166.447 95.768 165.689 95.1105 165.509 94.2194L164.728 90.3558C164.505 89.2505 163.412 88.5483 162.314 88.804L158.509 89.69C157.622 89.8965 156.708 89.4781 156.285 88.6722L154.46 85.1992C153.935 84.199 152.686 83.8322 151.703 84.3895L148.309 86.3145C147.516 86.7643 146.519 86.6207 145.885 85.9653L143.164 83.153C142.378 82.3404 141.075 82.3404 140.289 83.153L137.569 85.9653C136.935 86.6207 135.938 86.7643 135.145 86.3145L131.75 84.3895C130.767 83.8322 129.518 84.199 128.993 85.1992L127.169 88.6722C126.745 89.4781 125.831 89.8965 124.944 89.69L121.139 88.804C120.041 88.5483 118.949 89.2505 118.725 90.3558L117.945 94.2194C117.765 95.1105 117.006 95.768 116.099 95.82L112.196 96.0438C111.071 96.1083 110.222 97.0887 110.318 98.2112L110.655 102.147C110.732 103.051 110.192 103.894 109.338 104.2L105.643 105.526C104.585 105.905 104.047 107.082 104.453 108.131L105.883 111.819C106.21 112.663 105.929 113.622 105.198 114.156L102.015 116.482Z" fill="url(#paint0_linear_2211_7485)"/>
<g clip-path="url(#clip1_2211_7485)">
<path d="M146.241 103.542L159.381 131.78L160.731 110.231L146.241 103.542Z" fill="white"/>
<path d="M122.61 110.232L123.966 131.803L137.144 103.508L122.61 110.232Z" fill="white"/>
<path d="M146.894 126.914L141.704 114.282L136.488 126.914H146.894Z" fill="white"/>
<path d="M133.759 133.259L131.752 138.164L141.705 143.828L151.649 138.164L149.604 133.259H133.759Z" fill="white"/>
</g>
<defs>
<linearGradient id="paint0_linear_2211_7485" x1="100.363" y1="81.667" x2="182.683" y2="165.667" gradientUnits="userSpaceOnUse">
<stop stop-color="#FF0021"/>
<stop offset="1" stop-color="#8600FF"/>
</linearGradient>
<clipPath id="clip0_2211_7485">
<rect width="145.618" height="160" fill="white" transform="translate(15.3628) rotate(5.18291)"/>
</clipPath>
<clipPath id="clip1_2211_7485">
<rect width="38.1207" height="40.32" fill="white" transform="translate(122.61 103.508)"/>
</clipPath>
</defs>
</svg>
