<svg width="153" height="170" viewBox="0 0 153 170" fill="none" xmlns="http://www.w3.org/2000/svg">
<g clip-path="url(#clip0_1036_5608)">
<path d="M152.167 118.293V51.6972C152.167 45.1177 148.661 39.0443 142.965 35.7591L85.2956 2.46582C79.5995 -0.819336 72.5875 -0.819336 66.8913 2.46582L9.22165 35.7591C3.52554 39.0535 0.0195312 45.1269 0.0195312 51.6972V118.293C0.0195312 124.872 3.52554 130.946 9.22165 134.231L66.8913 167.524C72.5875 170.809 79.5995 170.809 85.2956 167.524L142.965 134.231C148.661 130.946 152.167 124.863 152.167 118.293Z" fill="#E1E1E1" fill-opacity="0.06"/>
<path fill-rule="evenodd" clip-rule="evenodd" d="M92.8967 95.058C92.8967 96.0794 92.7034 96.9444 92.3169 97.6622C91.9304 98.38 91.4059 98.9229 90.7434 99.3002C90.0808 99.6775 89.3354 99.8615 88.5073 99.8615C87.6791 99.8615 86.9245 99.6683 86.2619 99.291C85.5994 98.9137 85.0749 98.3616 84.6884 97.653C84.3019 96.9352 84.1086 96.0702 84.1086 95.0488C84.1086 94.0274 84.3019 93.1624 84.6884 92.4446C85.0749 91.7268 85.5994 91.1839 86.2619 90.8066C86.9245 90.4293 87.6699 90.2361 88.5073 90.2361C89.3447 90.2361 90.0808 90.4293 90.7434 90.8066C91.4059 91.1839 91.9304 91.7268 92.3169 92.4446C92.7034 93.1624 92.8967 94.0274 92.8967 95.0488V95.058ZM90.8906 95.058C90.8906 94.3954 90.7894 93.8341 90.5961 93.3832C90.4029 92.9323 90.1268 92.5826 89.7679 92.3526C89.4091 92.1225 88.995 92.0029 88.5164 92.0029C88.0379 92.0029 87.6238 92.1225 87.265 92.3526C86.9061 92.5918 86.63 92.9323 86.4368 93.3832C86.2435 93.8341 86.1423 94.3954 86.1423 95.058C86.1423 95.7206 86.2435 96.2819 86.4368 96.7328C86.63 97.1837 86.9061 97.5334 87.265 97.7634C87.6238 98.0027 88.0379 98.1131 88.5164 98.1131C88.995 98.1131 89.4091 97.9935 89.7679 97.7634C90.1268 97.5334 90.4029 97.1837 90.5961 96.7328C90.7894 96.2819 90.8906 95.7206 90.8906 95.058ZM54.3308 92.2051C54.6069 92.4168 54.7633 92.702 54.8001 93.0701H54.8094H56.705C56.6958 92.5088 56.5486 92.0211 56.2541 91.5978C55.9596 91.1745 55.5547 90.8432 55.0394 90.604C54.5241 90.3647 53.8983 90.2451 53.2174 90.2451C52.5364 90.2451 51.9199 90.3647 51.3862 90.604C50.8432 90.8432 50.4199 91.1745 50.1163 91.5978C49.8126 92.0211 49.6654 92.518 49.6654 93.0885C49.6654 93.7787 49.8862 94.3308 50.3463 94.7357C50.7972 95.1406 51.423 95.4443 52.2144 95.6375L53.2358 95.8952C53.5763 95.978 53.8615 96.07 54.1008 96.1712C54.34 96.2725 54.5241 96.3921 54.6437 96.5393C54.7633 96.6866 54.8278 96.8614 54.8278 97.073C54.8278 97.2939 54.7633 97.4963 54.6253 97.6712C54.4873 97.846 54.294 97.9749 54.0456 98.0761C53.7971 98.1773 53.5119 98.2233 53.1714 98.2233C52.8309 98.2233 52.518 98.1681 52.2512 98.0669C51.9843 97.9657 51.7635 97.8092 51.607 97.5976C51.4414 97.3859 51.3494 97.1283 51.3309 96.8154H49.4169C49.4261 97.4871 49.5917 98.0485 49.9046 98.5086C50.2175 98.9687 50.65 99.3092 51.2113 99.5392C51.7727 99.7693 52.426 99.8889 53.1898 99.8889C53.9536 99.8889 54.6069 99.7693 55.1498 99.5392C55.6928 99.3092 56.1068 98.9871 56.3921 98.5638C56.6774 98.1405 56.8246 97.6436 56.8246 97.073C56.8246 96.6774 56.751 96.3369 56.613 96.0332C56.4749 95.7295 56.2817 95.4627 56.0332 95.2418C55.7848 95.021 55.4903 94.8369 55.1498 94.6805C54.8094 94.5241 54.4321 94.4044 54.0272 94.3124L53.1898 94.11C52.9781 94.0639 52.7941 94.0087 52.61 93.9443C52.426 93.8799 52.2696 93.8063 52.1315 93.7143C51.9935 93.6222 51.8831 93.521 51.8095 93.3922C51.7266 93.2634 51.699 93.1161 51.699 92.9505C51.699 92.748 51.7542 92.564 51.8739 92.4076C51.9843 92.2511 52.1591 92.1315 52.38 92.0395C52.6008 91.9475 52.8769 91.9015 53.199 91.9015C53.6775 91.9015 54.0548 92.0027 54.3308 92.2051ZM59.4471 90.374V99.7418H65.7782V98.1038H61.4256V95.8677H65.4285V94.2389H61.4256V92.0028H65.7598V90.374H59.4471ZM76.4618 90.374V99.7418H74.7502L70.6737 93.8432H70.6093V99.7418H68.6308V90.374H70.37L74.419 96.2634H74.5018V90.374H76.4618ZM81.3665 99.7418V90.374H79.3881V99.7418H81.3665ZM95.6481 90.374V99.7418H97.6266V96.429H99.0729L100.847 99.7418H103.037L101.051 96.1071C101.079 96.0951 101.106 96.0828 101.133 96.0701C101.648 95.8309 102.034 95.4812 102.301 95.0395C102.568 94.5978 102.706 94.0641 102.706 93.4383C102.706 92.8126 102.577 92.2789 102.31 91.8188C102.044 91.3587 101.666 90.9998 101.16 90.7513C100.663 90.5029 100.056 90.374 99.3474 90.374H95.6481ZM97.6266 94.8371H98.9701C99.3474 94.8371 99.6603 94.7818 99.9087 94.6806C100.157 94.5794 100.341 94.423 100.47 94.2113C100.59 93.9997 100.654 93.742 100.654 93.4383C100.654 93.1347 100.59 92.8678 100.47 92.647C100.35 92.4261 100.157 92.2697 99.9087 92.1592C99.6603 92.0488 99.3382 91.9936 98.9609 91.9936H97.6266V94.8371ZM27.8561 110.223H25.85C25.8132 109.965 25.7396 109.735 25.6291 109.533C25.5187 109.33 25.3715 109.156 25.1966 109.018C25.0218 108.88 24.8194 108.76 24.5893 108.686C24.3592 108.613 24.1108 108.576 23.8439 108.576C23.3562 108.576 22.9329 108.696 22.574 108.935C22.2152 109.174 21.9391 109.524 21.7366 109.975C21.5342 110.435 21.4422 110.987 21.4422 111.631C21.4422 112.275 21.5434 112.864 21.7458 113.315C21.9483 113.766 22.2244 114.116 22.5832 114.346C22.9421 114.576 23.3562 114.695 23.8347 114.695C24.1016 114.695 24.35 114.659 24.5709 114.594C24.8009 114.52 25.0034 114.419 25.1782 114.281C25.3531 114.143 25.5003 113.978 25.6199 113.784C25.7396 113.591 25.8224 113.361 25.8684 113.113H27.8745C27.8192 113.554 27.6904 113.968 27.488 114.364C27.2855 114.76 27.0095 115.119 26.6598 115.432C26.3101 115.744 25.9052 115.993 25.4267 116.177C24.9482 116.361 24.4145 116.444 23.8071 116.444C22.9697 116.444 22.2244 116.25 21.571 115.873C20.9177 115.496 20.3931 114.944 20.0158 114.235C19.6386 113.517 19.4453 112.652 19.4453 111.631C19.4453 110.61 19.6386 109.745 20.025 109.027C20.4115 108.309 20.9269 107.766 21.5894 107.389C22.252 107.012 22.9881 106.818 23.8163 106.818C24.3592 106.818 24.8654 106.892 25.3255 107.048C25.7856 107.205 26.1997 107.426 26.5678 107.711C26.9266 108.005 27.2211 108.355 27.4512 108.778C27.6812 109.202 27.8192 109.68 27.8837 110.223H27.8561ZM30.571 106.938V116.306H36.902V114.668H32.5494V112.432H36.5524V110.803H32.5494V108.567H36.8836V106.938H30.571ZM39.7547 116.306V106.938H43.4539C44.1625 106.938 44.7698 107.067 45.2668 107.315C45.7729 107.564 46.1502 107.922 46.417 108.383C46.6839 108.843 46.8127 109.376 46.8127 110.002C46.8127 110.628 46.6747 111.162 46.4078 111.603C46.141 112.045 45.7545 112.395 45.2391 112.634C45.2124 112.647 45.1853 112.659 45.1579 112.671L47.144 116.306H44.9539L43.1794 112.993H41.7331V116.306H39.7547ZM43.0767 111.401H41.7331V108.557H43.0674C43.4447 108.557 43.7668 108.613 44.0153 108.723C44.2637 108.833 44.457 108.99 44.5766 109.211C44.6962 109.432 44.7606 109.698 44.7606 110.002C44.7606 110.306 44.6962 110.563 44.5766 110.775C44.4478 110.987 44.2637 111.143 44.0153 111.244C43.7668 111.346 43.4539 111.401 43.0767 111.401ZM49.1408 106.947V108.576H52.0027V116.315H53.9627V108.576H56.8338V106.947H49.1408ZM61.3703 106.938V116.306H59.3919V106.938H61.3703ZM64.2967 106.938V116.306H66.2751V112.432H70.0848V110.803H66.2751V108.567H70.4989V106.938H64.2967ZM75.0998 106.938V116.306H73.1214V106.938H75.0998ZM84.2835 110.223H86.2895H86.3171C86.2527 109.68 86.1147 109.202 85.8846 108.778C85.6546 108.355 85.3601 108.005 85.0012 107.711C84.6331 107.426 84.219 107.205 83.7589 107.048C83.2988 106.892 82.7927 106.818 82.2498 106.818C81.4216 106.818 80.6854 107.012 80.0229 107.389C79.3603 107.766 78.845 108.309 78.4585 109.027C78.072 109.745 77.8788 110.61 77.8788 111.631C77.8788 112.652 78.072 113.517 78.4493 114.235C78.8266 114.944 79.3511 115.496 80.0045 115.873C80.6578 116.25 81.4032 116.444 82.2406 116.444C82.8479 116.444 83.3816 116.361 83.8602 116.177C84.3387 115.993 84.7436 115.744 85.0932 115.432C85.4429 115.119 85.719 114.76 85.9214 114.364C86.1239 113.968 86.2527 113.554 86.3079 113.113H84.3018C84.2558 113.361 84.173 113.591 84.0534 113.784C83.9338 113.978 83.7865 114.143 83.6117 114.281C83.4369 114.419 83.2344 114.52 83.0044 114.594C82.7835 114.659 82.535 114.695 82.2682 114.695C81.7897 114.695 81.3756 114.576 81.0167 114.346C80.6578 114.116 80.3818 113.766 80.1793 113.315C79.9769 112.864 79.8756 112.275 79.8756 111.631C79.8756 110.987 79.9677 110.435 80.1701 109.975C80.3726 109.524 80.6486 109.174 81.0075 108.935C81.3664 108.696 81.7897 108.576 82.2774 108.576C82.5443 108.576 82.7927 108.613 83.0228 108.686C83.2528 108.76 83.4553 108.88 83.6301 109.018C83.8049 109.156 83.9522 109.33 84.0626 109.533C84.173 109.735 84.2466 109.965 84.2835 110.223ZM90.4308 116.306H88.3143L91.5535 106.938H94.1024L97.3324 116.306H95.2067L94.5141 114.171H91.1261L90.4308 116.306ZM92.8602 109.073L94.0125 112.625H91.6296L92.7865 109.073H92.8602ZM98.2342 106.947V108.576H101.096V116.315H103.056V108.576H105.927V106.947H98.2342ZM110.473 106.938V116.306H108.494V106.938H110.473ZM121.423 114.226C121.81 113.508 122.003 112.643 122.003 111.622V111.613C122.003 110.591 121.81 109.726 121.423 109.008C121.037 108.291 120.512 107.748 119.85 107.37C119.187 106.993 118.451 106.8 117.613 106.8C116.776 106.8 116.031 106.993 115.368 107.37C114.706 107.748 114.181 108.291 113.795 109.008C113.408 109.726 113.215 110.591 113.215 111.613C113.215 112.634 113.408 113.499 113.795 114.217C114.181 114.925 114.706 115.478 115.368 115.855C116.031 116.232 116.785 116.425 117.613 116.425C118.442 116.425 119.187 116.241 119.85 115.864C120.512 115.487 121.037 114.944 121.423 114.226ZM119.702 109.947C119.896 110.398 119.997 110.959 119.997 111.622C119.997 112.284 119.896 112.846 119.702 113.297C119.509 113.748 119.233 114.097 118.874 114.327C118.515 114.557 118.101 114.677 117.623 114.677C117.144 114.677 116.73 114.566 116.371 114.327C116.012 114.097 115.736 113.748 115.543 113.297C115.35 112.846 115.249 112.284 115.249 111.622C115.249 110.959 115.35 110.398 115.543 109.947C115.736 109.496 116.012 109.156 116.371 108.916C116.73 108.686 117.144 108.567 117.623 108.567C118.101 108.567 118.515 108.686 118.874 108.916C119.233 109.146 119.509 109.496 119.702 109.947ZM132.595 106.938V116.306H130.883L126.807 110.407H126.742V116.306H124.764V106.938H126.503L130.552 112.827H130.635V106.938H132.595ZM35.7422 132.869H37.8587L38.5541 130.735H41.942L42.6346 132.869H44.7603L41.5304 123.502H38.9814L35.7422 132.869ZM41.4405 129.189L40.2881 125.637H40.2145L39.0576 129.189H41.4405ZM47.7053 123.502L49.969 130.615H50.0519L52.3248 123.502H54.5241L51.2941 132.869H48.7452L45.506 123.502H47.7053ZM55.1772 132.869H57.2937L57.989 130.735H61.377L62.0696 132.869H64.1953L60.9654 123.502H58.4164L55.1772 132.869ZM60.8754 129.189L59.7231 125.637H59.6495L58.4926 129.189H60.8754ZM68.5941 123.502V132.869H66.6156V123.502H68.5941ZM71.5204 123.502V132.869V132.879H77.5202V131.241H73.4989V123.502H71.5204ZM81.9557 132.869H79.8392L83.0783 123.502H85.6273L88.8573 132.869H86.7316L86.039 130.735H82.651L81.9557 132.869ZM84.385 125.637L85.5374 129.189H83.1545L84.3114 125.637H84.385ZM91.2771 123.502V132.869H91.2863H95.2893C95.9886 132.869 96.5776 132.759 97.0561 132.529C97.5346 132.308 97.8935 131.995 98.1419 131.609C98.3904 131.222 98.51 130.781 98.51 130.284C98.51 129.824 98.4088 129.437 98.2155 129.097C98.0223 128.756 97.7646 128.498 97.4518 128.314C97.1389 128.121 96.8076 128.029 96.4487 128.011V127.919C96.78 127.845 97.0653 127.725 97.3229 127.551C97.5714 127.367 97.7738 127.146 97.9211 126.87C98.0683 126.594 98.1419 126.272 98.1419 125.903C98.1419 125.434 98.0223 125.011 97.7922 124.652C97.5622 124.293 97.2125 124.008 96.7524 123.805C96.2923 123.603 95.7218 123.502 95.0316 123.502H91.2771ZM94.7279 127.422H93.2556V127.413V125.094H94.7647C95.2064 125.094 95.5469 125.195 95.7862 125.406C96.0254 125.618 96.1451 125.885 96.1451 126.225C96.1451 126.474 96.0806 126.686 95.961 126.86C95.8322 127.044 95.6665 127.173 95.4549 127.275C95.2432 127.376 95.004 127.422 94.7279 127.422ZM94.866 131.25H93.2556V128.756H94.912C95.2248 128.756 95.5009 128.811 95.731 128.922C95.961 129.041 96.1358 129.189 96.2647 129.391C96.3843 129.593 96.4487 129.824 96.4487 130.081C96.4487 130.431 96.3291 130.716 96.0714 130.928C95.823 131.139 95.4181 131.25 94.866 131.25ZM101.077 132.869V123.502H103.056V131.241H107.077V132.879H101.077V132.869ZM109.672 123.502V132.869H116.003V131.231H111.651V128.995H115.654V127.367H111.651V125.13H115.985V123.502H109.672Z" fill="#E6E9FA" fill-opacity="0.5"/>
<path d="M94.6177 55.452C93.9367 56.1054 93.6699 57.0808 93.9367 57.9918L94.6637 60.458C95.0686 61.8383 94.2404 63.283 92.8417 63.6235L90.3387 64.2308C89.4185 64.4517 88.7007 65.1695 88.4799 66.0897L87.8725 68.5926C87.532 69.9914 86.0873 70.8196 84.707 70.4147L82.2408 69.6877C81.339 69.4208 80.3544 69.6877 79.701 70.3687L77.925 72.2275C76.9312 73.2673 75.2656 73.2673 74.2718 72.2275L72.4958 70.3687C71.8424 69.6877 70.867 69.4208 69.956 69.6877L67.4898 70.4147C66.1095 70.8196 64.6648 69.9914 64.3243 68.5926L63.717 66.0897C63.4961 65.1695 62.7783 64.4517 61.8581 64.2308L59.3552 63.6235C57.9564 63.283 57.1282 61.8383 57.5331 60.458L58.2601 57.9918C58.527 57.09 58.2601 56.1054 57.5791 55.452L55.7203 53.676C54.6805 52.6822 54.6805 51.0166 55.7203 50.0228L57.5791 48.2468C58.2601 47.5934 58.527 46.618 58.2601 45.707L57.5331 43.2408C57.1282 41.8605 57.9564 40.4157 59.3552 40.0753L61.8581 39.4679C62.7783 39.2471 63.4961 38.5293 63.717 37.6091L64.3243 35.1061C64.6648 33.7074 66.1095 32.8792 67.4898 33.2841L69.956 34.0111C70.8578 34.2779 71.8424 34.0111 72.4958 33.3301L74.2718 31.4713C75.2656 30.4314 76.9312 30.4314 77.925 31.4713L79.701 33.3301C80.3544 34.0111 81.3298 34.2779 82.2408 34.0111L84.707 33.2841C86.0873 32.8792 87.532 33.7074 87.8725 35.1061L88.4799 37.6091C88.7007 38.5293 89.4185 39.2471 90.3387 39.4679L92.8417 40.0753C94.2404 40.4157 95.0686 41.8605 94.6637 43.2408L93.9367 45.707C93.6699 46.6088 93.9367 47.5934 94.6177 48.2468L96.4765 50.0228C97.5163 51.0166 97.5163 52.6822 96.4765 53.676L94.6177 55.452Z" fill="#E6E9FA" fill-opacity="0.5"/>
</g>
<defs>
<clipPath id="clip0_1036_5608">
<rect width="152.148" height="170" fill="white" transform="translate(0.0195312)"/>
</clipPath>
</defs>
</svg>
