<svg width="153" height="170" viewBox="0 0 153 170" fill="none" xmlns="http://www.w3.org/2000/svg">
<g clip-path="url(#clip0_418_21049)">
<g clip-path="url(#clip1_418_21049)">
<path d="M153.214 118.989V52.0013C153.214 45.383 149.689 39.2739 143.961 35.9694L85.968 2.48031C80.24 -0.824167 73.1887 -0.824167 67.4607 2.48031L9.46801 35.9694C3.74 39.2832 0.214355 45.3923 0.214355 52.0013V118.989C0.214355 125.607 3.74 131.716 9.46801 135.021L67.4607 168.51C73.1887 171.814 80.24 171.814 85.968 168.51L143.961 135.021C149.689 131.716 153.214 125.598 153.214 118.989Z" fill="#07080E" fill-opacity="0.05"/>
<path d="M31.2049 91.313C30.7052 91.0446 30.0945 90.9058 29.382 90.9058H25.662V100.329H27.6515V97.2741H29.3265C30.0482 97.2741 30.6682 97.1445 31.1772 96.8761C31.6861 96.6076 32.0748 96.2374 32.3524 95.756C32.6208 95.2747 32.7596 94.7286 32.7596 94.0992C32.7596 93.4698 32.63 92.9236 32.3617 92.4423C32.0933 91.961 31.7139 91.5907 31.2049 91.313ZM30.5109 94.923C30.3906 95.1636 30.1963 95.3488 29.9464 95.4784C29.6966 95.6079 29.382 95.682 28.9933 95.682H27.6423V92.5349H28.9841C29.3727 92.5349 29.6873 92.5997 29.9372 92.7293C30.187 92.8588 30.3721 93.044 30.5017 93.2754C30.622 93.5068 30.6867 93.7845 30.6867 94.0992C30.6867 94.4139 30.622 94.6823 30.5017 94.923H30.5109Z" fill="#07080E"/>
<path d="M37.3401 96.9871H38.7929L40.5789 100.329H42.7813L40.7732 96.6539C40.7732 96.6539 40.838 96.6354 40.8658 96.6261C41.3747 96.3855 41.7634 96.043 42.041 95.5894C42.3093 95.1359 42.4481 94.599 42.4481 93.9788C42.4481 93.3587 42.3186 92.8126 42.0502 92.3497C41.7819 91.8869 41.4025 91.5352 40.8935 91.276C40.3938 91.0261 39.7831 90.8965 39.0706 90.8965H35.3506V100.319H37.3401V96.9779V96.9871ZM38.6819 92.5349C39.0613 92.5349 39.3852 92.5904 39.635 92.7015C39.8849 92.8126 40.0792 92.9792 40.1995 93.1921C40.3198 93.405 40.3846 93.6734 40.3846 93.9881C40.3846 94.3028 40.3198 94.5527 40.1995 94.7656C40.0792 94.9785 39.8849 95.1266 39.635 95.2377C39.3852 95.3395 39.0706 95.3951 38.6912 95.3951H37.3401V92.5441H38.6819V92.5349Z" fill="#07080E"/>
<path d="M51.5075 98.6903H47.1397V96.441H51.1651V94.7934H47.1397V92.5534H51.489V90.9058H45.141V100.329H51.5075V98.6903Z" fill="#07080E"/>
<path d="M61.0665 95.756C61.3349 95.2747 61.4737 94.7286 61.4737 94.0992C61.4737 93.4698 61.3441 92.9236 61.0758 92.4423C60.8074 91.961 60.428 91.5907 59.919 91.313C59.4193 91.0446 58.8086 90.9058 58.0961 90.9058H54.3761V100.329H56.3656V97.2741H58.0406C58.7623 97.2741 59.3823 97.1445 59.8913 96.8761C60.4002 96.6076 60.7889 96.2374 61.0665 95.756ZM59.2343 94.923C59.114 95.1636 58.9197 95.3488 58.6698 95.4784C58.42 95.6079 58.1053 95.682 57.7167 95.682H56.3656V92.5349H57.7074C58.0961 92.5349 58.4107 92.5997 58.6606 92.7293C58.9104 92.8588 59.0955 93.044 59.225 93.2754C59.3453 93.5068 59.4101 93.7845 59.4101 94.0992C59.4101 94.4139 59.3453 94.6823 59.225 94.923H59.2343Z" fill="#07080E"/>
<path d="M71.5324 100.329L68.2844 90.9058H65.7211L62.4638 100.329H64.6014L65.3047 98.1812H68.71L69.404 100.329H71.5416H71.5324ZM65.8044 96.6261L66.9611 93.0625H67.0351L68.1918 96.6261H65.8044Z" fill="#07080E"/>
<path d="M75.9464 96.9871H77.3992L79.1852 100.329H81.3875L79.3795 96.6539C79.3795 96.6539 79.4443 96.6354 79.472 96.6261C79.981 96.3855 80.3696 96.043 80.6472 95.5894C80.9156 95.1359 81.0544 94.599 81.0544 93.9788C81.0544 93.3587 80.9249 92.8126 80.6565 92.3497C80.3881 91.8869 80.0087 91.5352 79.4998 91.276C79.0001 91.0261 78.3894 90.8965 77.6768 90.8965H73.9569V100.319H75.9464V96.9779V96.9871ZM77.2882 92.5349C77.6676 92.5349 77.9915 92.5904 78.2413 92.7015C78.4911 92.8126 78.6855 92.9792 78.8058 93.1921C78.9261 93.405 78.9908 93.6734 78.9908 93.9881C78.9908 94.3028 78.9261 94.5527 78.8058 94.7656C78.6855 94.9785 78.4911 95.1266 78.2413 95.2377C77.9915 95.3395 77.6768 95.3951 77.2974 95.3951H75.9464V92.5441H77.2882V92.5349Z" fill="#07080E"/>
<path d="M86.0791 98.1812H89.4845L90.1785 100.329H92.3161L89.0681 90.9058H86.5048L83.2475 100.329H85.3851L86.0884 98.1812H86.0791ZM87.8188 93.0625L88.9755 96.6261H86.5881L87.7448 93.0625H87.8188Z" fill="#07080E"/>
<path d="M96.1009 100.329H98.0719V92.5534H100.959V90.9058H93.223V92.5534H96.1009V100.329Z" fill="#07080E"/>
<path d="M105.521 90.9058H103.532V100.329H105.521V90.9058Z" fill="#07080E"/>
<path d="M110.453 99.8936C111.12 100.273 111.869 100.467 112.711 100.467C113.553 100.467 114.294 100.273 114.96 99.9028C115.626 99.5326 116.154 98.9772 116.542 98.2552C116.931 97.5332 117.125 96.6632 117.125 95.6357C117.125 94.6083 116.931 93.7382 116.542 93.0162C116.154 92.2942 115.626 91.7481 114.96 91.3686C114.294 90.9891 113.544 90.8039 112.711 90.8039C111.878 90.8039 111.12 90.9983 110.453 91.3686C109.787 91.7388 109.26 92.2942 108.871 93.0162C108.482 93.7382 108.288 94.6083 108.288 95.6357C108.288 96.6632 108.482 97.5332 108.871 98.2552C109.26 98.9772 109.787 99.5233 110.453 99.9028V99.8936ZM110.611 93.9326C110.805 93.479 111.083 93.1273 111.443 92.8959C111.804 92.6645 112.221 92.5441 112.702 92.5441C113.183 92.5441 113.6 92.6645 113.96 92.8959C114.321 93.1273 114.599 93.479 114.793 93.9326C114.988 94.3861 115.089 94.9508 115.089 95.6172C115.089 96.2837 114.988 96.8483 114.793 97.3018C114.599 97.7554 114.321 98.1071 113.96 98.3385C113.6 98.5699 113.183 98.6903 112.702 98.6903C112.221 98.6903 111.804 98.5699 111.443 98.3385C111.083 98.0979 110.805 97.7554 110.611 97.3018C110.416 96.8483 110.314 96.2837 110.314 95.6172C110.314 94.9508 110.416 94.3861 110.611 93.9326Z" fill="#07080E"/>
<path d="M127.767 100.329V90.9058H125.787V96.839H125.703L121.632 90.9058H119.883V100.329H121.882V94.4046H121.946L126.046 100.329H127.767Z" fill="#07080E"/>
<path d="M25.8193 107.567L22.562 116.99H24.6996L25.4029 114.842H28.8082L29.5023 116.99H31.6399L28.3918 107.567H25.8193ZM25.9119 113.287L27.0686 109.724H27.1426L28.2993 113.287H25.9119Z" fill="#07080E"/>
<path d="M41.9484 116.99V107.567H39.9682V113.5H39.8849L35.8133 107.567H34.0643V116.99H36.0539V111.066H36.1279L40.2273 116.99H41.9484Z" fill="#07080E"/>
<path d="M52.2755 114.805C52.6457 114.102 52.8307 113.26 52.8307 112.278C52.8307 111.297 52.6457 110.455 52.2755 109.761C51.9054 109.067 51.3779 108.52 50.6931 108.141C50.0084 107.761 49.1941 107.576 48.2409 107.576H44.8726V116.999H48.2132C49.1663 116.999 49.9899 116.814 50.6839 116.435C51.3687 116.055 51.9054 115.518 52.2755 114.815V114.805ZM49.629 114.972C49.2218 115.185 48.7314 115.287 48.1391 115.287H46.8714V109.279H48.1391C48.7314 109.279 49.2218 109.381 49.629 109.594C50.0361 109.807 50.3323 110.131 50.5358 110.566C50.7394 111.01 50.8412 111.575 50.8412 112.269C50.8412 112.963 50.7394 113.547 50.5358 113.991C50.3323 114.435 50.0269 114.759 49.629 114.972Z" fill="#07080E"/>
<path d="M64.3978 116.99V109.215H67.285V107.567H59.5396V109.215H62.4268V116.99H64.3978Z" fill="#07080E"/>
<path d="M69.8575 116.99H71.847V113.648H73.2998L75.0858 116.99H77.2882L75.2801 113.315C75.2801 113.315 75.3449 113.297 75.3727 113.287C75.8816 113.047 76.2703 112.704 76.5479 112.251C76.8162 111.797 76.955 111.26 76.955 110.64C76.955 110.02 76.8255 109.474 76.5571 109.011C76.2888 108.548 75.9094 108.196 75.4004 107.937C74.9007 107.687 74.29 107.558 73.5774 107.558H69.8575V116.99ZM73.1888 109.196C73.5682 109.196 73.8921 109.252 74.1419 109.363C74.3918 109.474 74.5861 109.64 74.7064 109.853C74.8267 110.066 74.8915 110.335 74.8915 110.649C74.8915 110.964 74.8267 111.214 74.7064 111.427C74.5861 111.64 74.3918 111.788 74.1419 111.899C73.8921 112.001 73.5775 112.056 73.1981 112.056H71.847V109.205H73.1888V109.196Z" fill="#07080E"/>
<path d="M81.9798 114.842H85.3851L86.0791 116.99H88.2167L84.9687 107.567H82.4054L79.1482 116.99H81.2857L81.989 114.842H81.9798ZM83.7102 109.724L84.8669 113.287H82.4795L83.6362 109.724H83.7102Z" fill="#07080E"/>
<path d="M92.6215 107.567H90.6319V116.99H92.6215V107.567Z" fill="#07080E"/>
<path d="M101.468 113.5H101.385L97.3131 107.567H95.5641V116.99H97.5629V111.066H97.6277L101.727 116.99H103.448V107.567H101.468V113.5Z" fill="#07080E"/>
<path d="M108.371 107.567H106.382V116.99H108.371V107.567Z" fill="#07080E"/>
<path d="M117.208 113.5H117.125L113.063 107.567H111.314V116.99H113.303V111.066H113.377L117.477 116.99H119.198V107.567H117.208V113.5Z" fill="#07080E"/>
<path d="M126.545 111.954V113.454H128.563C128.563 113.824 128.479 114.157 128.313 114.435C128.146 114.731 127.896 114.954 127.573 115.12C127.249 115.277 126.869 115.361 126.416 115.361C125.916 115.361 125.49 115.24 125.12 115C124.759 114.759 124.473 114.407 124.269 113.945C124.065 113.482 123.973 112.926 123.973 112.269C123.973 111.612 124.075 111.057 124.278 110.603C124.482 110.15 124.759 109.798 125.13 109.557C125.49 109.316 125.916 109.196 126.397 109.196C126.656 109.196 126.888 109.233 127.101 109.289C127.313 109.344 127.508 109.446 127.674 109.566C127.841 109.687 127.98 109.835 128.1 110.011C128.22 110.187 128.304 110.381 128.368 110.603H130.395C130.33 110.14 130.182 109.714 129.96 109.326C129.729 108.937 129.442 108.604 129.081 108.317C128.72 108.039 128.313 107.817 127.859 107.66C127.397 107.502 126.906 107.428 126.37 107.428C125.75 107.428 125.167 107.539 124.639 107.752C124.102 107.974 123.64 108.289 123.233 108.706C122.835 109.122 122.52 109.631 122.298 110.233C122.076 110.834 121.965 111.51 121.965 112.278C121.965 113.269 122.15 114.13 122.52 114.852C122.89 115.574 123.418 116.129 124.084 116.518C124.75 116.907 125.528 117.101 126.416 117.101C127.202 117.101 127.906 116.944 128.526 116.62C129.136 116.296 129.618 115.842 129.969 115.25C130.321 114.657 130.497 113.945 130.497 113.121V111.936H126.555L126.545 111.954Z" fill="#07080E"/>
<path d="M45.2427 124.636C44.743 124.367 44.1323 124.228 43.4198 124.228H39.6998V133.651H41.6893V130.597H43.3643C44.086 130.597 44.706 130.467 45.215 130.199C45.7239 129.93 46.1126 129.56 46.3902 129.079C46.6586 128.597 46.7974 128.051 46.7974 127.422C46.7974 126.792 46.6678 126.246 46.3995 125.765C46.1311 125.283 45.7517 124.913 45.2427 124.636ZM44.558 128.245C44.4377 128.486 44.2434 128.671 43.9935 128.801C43.7437 128.93 43.429 129.005 43.0404 129.005H41.6893V125.857H43.0311C43.4198 125.857 43.7344 125.922 43.9842 126.052C44.2341 126.181 44.4192 126.366 44.5487 126.598C44.669 126.829 44.7338 127.107 44.7338 127.422C44.7338 127.736 44.669 128.005 44.5487 128.245H44.558Z" fill="#07080E"/>
<path d="M54.9036 129.958C55.4125 129.717 55.8012 129.375 56.0788 128.921C56.3471 128.468 56.4859 127.931 56.4859 127.311C56.4859 126.69 56.3564 126.144 56.088 125.682C55.8197 125.219 55.4403 124.867 54.9313 124.608C54.4316 124.358 53.8209 124.228 53.1084 124.228H49.3884V133.651H51.3779V130.31H52.8307L54.6167 133.651H56.8191L54.811 129.976C54.811 129.976 54.8758 129.958 54.9036 129.949V129.958ZM51.3779 125.857H52.7197C53.0991 125.857 53.423 125.913 53.6728 126.024C53.9227 126.135 54.117 126.302 54.2373 126.515C54.3576 126.727 54.4224 126.996 54.4224 127.311C54.4224 127.625 54.3576 127.875 54.2373 128.088C54.117 128.301 53.9227 128.449 53.6728 128.56C53.423 128.662 53.1084 128.718 52.729 128.718H51.3779V125.857Z" fill="#07080E"/>
<path d="M65.6841 124.673C65.0178 124.293 64.2683 124.108 63.4354 124.108C62.6026 124.108 61.8438 124.302 61.1775 124.673C60.5113 125.043 59.9838 125.598 59.5952 126.32C59.2065 127.042 59.0122 127.912 59.0122 128.94C59.0122 129.967 59.2065 130.837 59.5952 131.559C59.9838 132.281 60.5113 132.827 61.1775 133.207C61.8438 133.586 62.5934 133.781 63.4354 133.781C64.2775 133.781 65.0178 133.586 65.6841 133.216C66.3503 132.846 66.8778 132.29 67.2665 131.568C67.6551 130.846 67.8494 129.976 67.8494 128.949C67.8494 127.922 67.6551 127.051 67.2665 126.329C66.8778 125.607 66.3503 125.061 65.6841 124.682V124.673ZM65.5268 130.624C65.3324 131.078 65.0548 131.43 64.6939 131.661C64.333 131.892 63.9166 132.013 63.4354 132.013C62.9543 132.013 62.5378 131.892 62.1769 131.661C61.816 131.42 61.5384 131.078 61.3441 130.624C61.1498 130.171 61.048 129.606 61.048 128.94C61.048 128.273 61.1498 127.709 61.3441 127.255C61.5384 126.802 61.816 126.45 62.1769 126.218C62.5378 125.987 62.9543 125.867 63.4354 125.867C63.9166 125.867 64.333 125.987 64.6939 126.218C65.0548 126.45 65.3324 126.802 65.5268 127.255C65.7211 127.709 65.8229 128.273 65.8229 128.94C65.8229 129.606 65.7211 130.171 65.5268 130.624Z" fill="#07080E"/>
<path d="M74.1512 131.393H74.0586L71.7822 124.228H69.5706L72.8279 133.651H75.3912L78.6392 124.228H76.4276L74.1512 131.393Z" fill="#07080E"/>
<path d="M83.0532 124.228H81.0637V133.651H83.0532V124.228Z" fill="#07080E"/>
<path d="M91.8072 124.793C91.1224 124.413 90.3081 124.228 89.3549 124.228H85.9866V133.651H89.3272C90.2803 133.651 91.1039 133.466 91.7979 133.087C92.4827 132.707 93.0194 132.17 93.3895 131.467C93.7597 130.763 93.9448 129.921 93.9448 128.94C93.9448 127.959 93.7597 127.116 93.3895 126.422C93.0194 125.728 92.4919 125.182 91.8072 124.802V124.793ZM91.6498 130.652C91.4463 131.096 91.1409 131.42 90.743 131.633C90.3358 131.846 89.8454 131.948 89.2532 131.948H87.9854V125.941H89.2532C89.8454 125.941 90.3358 126.043 90.743 126.255C91.1501 126.468 91.4463 126.792 91.6498 127.227C91.8534 127.672 91.9552 128.236 91.9552 128.93C91.9552 129.625 91.8534 130.208 91.6498 130.652Z" fill="#07080E"/>
<path d="M98.7104 129.764H102.736V128.116H98.7104V125.876H103.06V124.228H96.7116V133.651H103.078V132.013H98.7104V129.764Z" fill="#07080E"/>
<path d="M111.758 124.793C111.073 124.413 110.259 124.228 109.306 124.228H105.938V133.651H109.278C110.231 133.651 111.055 133.466 111.749 133.087C112.434 132.707 112.97 132.17 113.34 131.467C113.711 130.763 113.896 129.921 113.896 128.94C113.896 127.959 113.711 127.116 113.34 126.422C112.97 125.728 112.443 125.182 111.758 124.802V124.793ZM111.601 130.652C111.397 131.096 111.092 131.42 110.694 131.633C110.287 131.846 109.796 131.948 109.204 131.948H107.936V125.941H109.204C109.796 125.941 110.287 126.043 110.694 126.255C111.101 126.468 111.397 126.792 111.601 127.227C111.804 127.672 111.906 128.236 111.906 128.93C111.906 129.625 111.804 130.208 111.601 130.652Z" fill="#07080E"/>
<path d="M80.6195 61.9244H66.9426V58.0183H80.6195V61.9244ZM86.4863 54.1122H66.9518V50.206H86.4863V54.1122ZM86.4863 46.2906H66.9518V42.3845H86.4863V46.2906ZM90.3913 34.563H63.0375C60.8722 34.563 59.1325 36.3031 59.1325 38.4691V65.8306C59.1325 66.8673 59.5397 67.8577 60.2799 68.5982C61.011 69.3294 62.0104 69.746 63.0468 69.746H90.4006C91.437 69.746 92.4271 69.3387 93.1674 68.5982C93.9077 67.8577 94.3149 66.8673 94.3149 65.8306V38.4691C94.3149 37.4324 93.9077 36.442 93.1674 35.7015C92.4364 34.9702 91.437 34.5537 90.4006 34.5537L90.3913 34.563Z" fill="#07080E"/>
<path d="M38.21 43.3379L37.5252 46.6794C37.4789 46.9108 37.2939 47.0959 37.0625 47.1422L33.7219 47.8272C33.0834 47.9568 33.0834 48.8639 33.7219 49.0027L37.0625 49.6877C37.2939 49.734 37.4789 49.9191 37.5252 50.1505L38.21 53.492C38.3395 54.1307 39.2464 54.1307 39.3852 53.492L40.0699 50.1505C40.1162 49.9191 40.3013 49.734 40.5326 49.6877L43.8732 49.0027C44.5117 48.8731 44.5117 47.966 43.8732 47.8272L40.5326 47.1422C40.3013 47.0959 40.1162 46.9108 40.0699 46.6794L39.3852 43.3379C39.2556 42.6992 38.3488 42.6992 38.21 43.3379Z" fill="#07080E"/>
<path d="M23.0987 60.9618L22.414 64.3033C22.3677 64.5347 22.1826 64.7198 21.9513 64.7661L18.6107 65.4511C17.9722 65.5807 17.9722 66.4878 18.6107 66.6266L21.9513 67.3116C22.1826 67.3579 22.3677 67.543 22.414 67.7744L23.0987 71.1159C23.2283 71.7546 24.1351 71.7546 24.274 71.1159L24.9587 67.7744C25.005 67.543 25.1901 67.3579 25.4214 67.3116L28.762 66.6266C29.4005 66.497 29.4005 65.5899 28.762 65.4511L25.4214 64.7661C25.1901 64.7198 25.005 64.5347 24.9587 64.3033L24.274 60.9618C24.1444 60.3231 23.2375 60.3231 23.0987 60.9618Z" fill="#07080E"/>
<path d="M115.219 43.3379L115.904 46.6794C115.95 46.9108 116.135 47.0959 116.366 47.1422L119.707 47.8272C120.345 47.9568 120.345 48.8639 119.707 49.0027L116.366 49.6877C116.135 49.734 115.95 49.9191 115.904 50.1505L115.219 53.492C115.089 54.1307 114.183 54.1307 114.044 53.492L113.359 50.1505C113.313 49.9191 113.128 49.734 112.896 49.6877L109.556 49.0027C108.917 48.8731 108.917 47.966 109.556 47.8272L112.896 47.1422C113.128 47.0959 113.313 46.9108 113.359 46.6794L114.044 43.3379C114.173 42.6992 115.08 42.6992 115.219 43.3379Z" fill="#07080E"/>
<path d="M130.339 60.9618L131.024 64.3033C131.07 64.5347 131.256 64.7198 131.487 64.7661L134.827 65.4511C135.466 65.5807 135.466 66.4878 134.827 66.6266L131.487 67.3116C131.256 67.3579 131.07 67.543 131.024 67.7744L130.339 71.1159C130.21 71.7546 129.303 71.7546 129.164 71.1159L128.479 67.7744C128.433 67.543 128.248 67.3579 128.017 67.3116L124.676 66.6266C124.038 66.497 124.038 65.5899 124.676 65.4511L128.017 64.7661C128.248 64.7198 128.433 64.5347 128.479 64.3033L129.164 60.9618C129.294 60.3231 130.201 60.3231 130.339 60.9618Z" fill="#07080E"/>
</g>
</g>
<defs>
<clipPath id="clip0_418_21049">
<rect width="152.148" height="170" fill="white" transform="translate(0.57373)"/>
</clipPath>
<clipPath id="clip1_418_21049">
<rect width="153" height="171" fill="white" transform="translate(0.214355)"/>
</clipPath>
</defs>
</svg>
