<svg width="316" height="297" viewBox="0 0 316 297" fill="none" xmlns="http://www.w3.org/2000/svg">
<g clip-path="url(#clip0_6004_10576)">
<path d="M47.8266 134.73C50.402 131.866 53.9219 129.109 58.2808 126.519C62.6509 123.93 67.8767 121.51 73.8519 119.327C75.2832 118.808 76.7588 118.299 78.2775 117.81C78.2147 117.469 78.1514 117.135 78.0941 116.795C77.5683 113.797 77.1024 110.821 76.6896 107.882C76.2763 104.949 75.9222 102.049 75.6267 99.1866C67.9042 100.919 60.8795 102.974 54.6538 105.277C48.4452 107.575 43.019 110.12 38.4763 112.835C33.9449 115.551 30.2803 118.436 27.5941 121.426C27.4219 121.619 27.2557 121.807 27.0946 122.001C26.9344 122.184 26.7797 122.367 26.6362 122.552C26.4872 122.735 26.3437 122.92 26.2002 123.104C26.1877 123.12 26.1753 123.136 26.1628 123.151C26.0253 123.33 25.8934 123.51 25.7671 123.69C25.6227 123.885 25.4834 124.087 25.3502 124.283C25.2239 124.463 25.1082 124.65 24.993 124.83C24.8714 125.022 24.7553 125.214 24.6397 125.401C24.3933 125.823 24.1641 126.24 23.9572 126.66C23.8772 126.821 23.8027 126.983 23.7287 127.139C23.6349 127.333 23.5523 127.528 23.4756 127.717C23.3994 127.901 23.3237 128.08 23.2591 128.259C23.2522 128.275 23.2453 128.291 23.2444 128.303C23.1673 128.498 23.1019 128.688 23.0364 128.878C22.9704 129.074 22.9101 129.271 22.8553 129.468C22.7406 129.855 22.6482 130.245 22.5669 130.635C22.5111 130.916 22.4609 131.197 22.4269 131.485C22.3874 131.772 22.3535 132.06 22.3307 132.349C22.3132 132.571 22.3008 132.799 22.2944 133.022C22.2922 133.05 22.2904 133.072 22.2887 133.095C22.2847 133.145 22.2863 133.195 22.288 133.245C22.2766 133.602 22.282 133.96 22.3041 134.32C22.3087 134.404 22.3128 134.494 22.3229 134.578C22.3216 134.595 22.3259 134.612 22.3246 134.629C22.3371 134.825 22.3556 135.017 22.3793 135.214C22.405 135.456 22.4363 135.699 22.4787 135.943C22.5156 136.186 22.558 136.43 22.6116 136.674C22.6562 136.89 22.7064 137.106 22.7566 137.323C22.7656 137.351 22.769 137.38 22.7784 137.403C22.8341 137.619 22.8895 137.842 22.9564 138.059C22.9918 138.18 23.0267 138.305 23.0621 138.425C23.1073 138.563 23.152 138.706 23.2028 138.845C23.2569 139.011 23.3162 139.183 23.3815 139.35C23.5061 139.69 23.6418 140.03 23.7887 140.372C23.8309 140.476 23.8732 140.58 23.9266 140.684C23.9744 140.789 24.0222 140.893 24.0701 140.997C24.2614 141.415 24.4694 141.834 24.6942 142.254C24.8065 142.464 24.9245 142.674 25.0424 142.885L25.1014 142.99C25.3288 143.377 25.5677 143.759 25.8118 144.147C25.9465 144.359 26.0871 144.566 26.2274 144.778C26.2676 144.837 26.3082 144.89 26.3428 144.949C26.569 145.28 26.8068 145.606 27.0445 145.932C27.0753 145.968 27.1061 146.004 27.1309 146.045C27.364 146.36 27.6082 146.675 27.8691 146.992C28.1185 147.313 28.385 147.631 28.6575 147.943C28.8367 148.158 29.0164 148.368 29.2077 148.573C29.7741 149.21 30.3693 149.838 30.9979 150.469C31.211 150.681 31.4241 150.894 31.6432 151.101C31.8619 151.314 32.0806 151.527 32.3052 151.734C32.5817 151.997 32.8697 152.254 33.1578 152.512C33.4454 152.775 33.739 153.032 34.0382 153.291C34.6049 153.783 35.1887 154.27 35.7953 154.754C35.9956 154.915 36.2015 155.077 36.4075 155.238C36.6129 155.405 36.8244 155.567 37.0363 155.724C37.2157 155.866 37.3955 156.003 37.5753 156.141C37.607 156.165 37.6386 156.19 37.6707 156.21C37.8878 156.372 38.0993 156.534 38.3223 156.691C38.5394 156.854 38.762 157.017 38.9906 157.174C39.2133 157.337 39.4359 157.5 39.6645 157.658C40.1213 157.979 40.5837 158.3 41.0521 158.617C41.968 159.231 42.9121 159.842 43.8846 160.45C43.9223 160.47 43.9539 160.495 43.9916 160.514C44.4995 160.828 45.0129 161.143 45.5379 161.452C45.7893 161.606 46.0406 161.76 46.298 161.909C49.4009 163.724 52.7757 165.505 56.4361 167.219C55.871 166.778 55.3231 166.332 54.7919 165.888C51.8055 163.378 49.343 160.836 47.4458 158.306C45.5538 155.781 44.2165 153.262 43.4694 150.794C42.7223 148.326 42.5653 145.911 43.0247 143.572C43.6095 140.567 45.2458 137.595 47.8211 134.73L47.8266 134.73ZM149.187 50.4508C148.413 49.5291 147.632 48.6236 146.855 47.7408C146.083 46.864 145.315 46.0153 144.54 45.1829C144.529 45.171 144.513 45.1585 144.503 45.1465C143.723 44.3082 142.935 43.4915 142.146 42.6971C139.236 39.7795 136.372 37.2063 133.571 34.9845C130.78 32.7692 128.051 30.8996 125.406 29.3887C122.773 27.8788 120.218 26.7215 117.774 25.9251C115.331 25.1286 112.994 24.6871 110.785 24.6189C110.052 24.5946 109.334 24.6105 108.628 24.6666C107.923 24.7283 107.231 24.8246 106.558 24.967C105.88 25.1035 105.221 25.2862 104.582 25.504C103.936 25.7268 103.31 25.9903 102.703 26.2945C100.263 27.5102 98.0658 29.4212 96.1225 31.9502C94.1788 34.4848 92.4937 37.6489 91.0837 41.3768C89.6733 45.1103 88.5426 49.4191 87.7137 54.2379C86.8779 59.0729 86.3486 64.4295 86.1467 70.2534C86.1091 71.4408 86.0868 72.6461 86.0804 73.8638C86.074 75.0816 86.0834 76.3118 86.1087 77.5544C86.1279 78.8021 86.1634 80.0567 86.2152 81.3182C86.261 82.5848 86.3231 83.8582 86.3898 85.1433C89.2268 84.6463 92.1215 84.1986 95.0749 83.7891C98.0334 83.3855 101.051 83.0202 104.114 82.7032C104.132 82.6989 104.154 82.7007 104.171 82.6965C104.402 78.2775 104.839 74.1599 105.469 70.3759C106.245 65.7318 107.311 61.5912 108.654 58.0033C109.991 54.4205 111.604 51.3848 113.467 48.9556C115.324 46.526 117.441 44.7036 119.787 43.542C120.37 43.2527 120.973 43.0041 121.589 42.7957C122.211 42.5878 122.847 42.42 123.497 42.2868C124.146 42.1593 124.815 42.0668 125.492 42.014C126.174 41.9673 126.864 41.9547 127.574 41.9828C129.704 42.0615 131.957 42.502 134.317 43.2807C136.678 44.065 139.145 45.1986 141.692 46.6682C144.25 48.1443 146.888 49.9563 149.588 52.1087C150.142 52.5492 150.706 53.0072 151.263 53.4815C151.347 53.4044 151.432 53.3328 151.516 53.2612C150.744 52.3117 149.966 51.3729 149.187 50.4508ZM168.21 77.3628C167.146 75.5799 166.078 73.8358 164.991 72.1238C163.914 70.4182 162.824 68.7451 161.725 67.1103C160.626 65.4812 159.525 63.8798 158.409 62.3219C156.787 63.7531 155.158 65.2172 153.531 66.7206C151.899 68.218 150.276 69.7496 148.65 71.3089C147.018 72.8734 145.396 74.4665 143.77 76.093C142.151 77.7199 140.528 79.3801 138.909 81.0685C140.237 81.0839 141.564 81.0993 142.903 81.1211C144.241 81.1429 145.584 81.1707 146.932 81.21C148.281 81.2438 149.64 81.2896 150.998 81.3465C152.361 81.3983 153.736 81.4621 155.109 81.5369C156.488 81.6123 157.861 81.6927 159.221 81.7889C160.588 81.88 161.948 81.9818 163.302 82.0886C164.655 82.1955 166.003 82.3131 167.345 82.4357C167.946 82.4888 168.547 82.5418 169.143 82.6L169.148 82.6004C169.608 82.1729 170.067 81.7565 170.531 81.3405C169.763 79.9945 168.993 78.6708 168.21 77.3628ZM94.9764 176.945C94.4864 175.694 94.0085 174.432 93.5306 173.171C93.0583 171.909 92.592 170.643 92.1321 169.366C91.6718 168.095 91.2175 166.818 90.7753 165.532C90.3326 164.25 89.9014 162.965 89.481 161.685C89.0606 160.406 88.6462 159.121 88.248 157.844C87.8443 156.566 87.4513 155.294 87.0643 154.017C86.6825 152.747 86.3062 151.476 85.9355 150.206C84.7236 152.206 83.5455 154.203 82.3962 156.191C81.2464 158.185 80.131 160.17 79.0447 162.141C77.958 164.118 76.9052 166.091 75.8815 168.05C74.8579 170.009 73.8685 171.959 72.9079 173.901C74.6974 174.528 76.5271 175.142 78.4032 175.737C80.2789 176.338 82.1953 176.92 84.152 177.488C86.1143 178.056 88.1225 178.611 90.1714 179.148C91.5721 179.515 93.0015 179.874 94.4485 180.223C94.5276 180.073 94.6008 179.928 94.6799 179.777C94.9444 179.267 95.209 178.757 95.4795 178.242C95.3118 177.81 95.1441 177.377 94.9764 176.945ZM183.769 107.611C182.918 105.683 182.053 103.782 181.176 101.897C180.298 100.022 179.413 98.164 178.515 96.3328C176.462 96.0534 174.397 95.7954 172.303 95.5463C170.22 95.3036 168.113 95.0758 165.982 94.8629C163.857 94.656 161.713 94.4645 159.546 94.2934C158.777 94.2327 158.008 94.1775 157.238 94.1224C155.834 94.0171 154.417 93.9276 152.994 93.8432C152.715 93.8268 152.43 93.8099 152.151 93.799C151.191 93.74 150.236 93.6926 149.286 93.6511C148.337 93.6041 147.392 93.5631 146.448 93.5277C144.29 93.4468 142.159 93.3847 140.042 93.3462C137.932 93.3081 135.836 93.288 133.768 93.2868C131.699 93.2855 129.656 93.3087 127.63 93.3443C126.176 95.0011 124.731 96.6753 123.291 98.3723C122.45 99.3677 121.613 100.386 120.77 101.398L120.759 101.397C120.171 102.099 119.582 102.813 118.993 103.526C117.566 105.269 116.149 107.029 114.742 108.807C114.362 109.286 113.982 109.764 113.602 110.248L113.613 110.249C112.584 111.56 111.556 112.87 110.537 114.198C109.843 115.11 109.149 116.022 108.46 116.934C107.79 117.826 107.125 118.718 106.46 119.61C106.447 119.631 106.429 119.652 106.416 119.673C105.061 121.5 103.733 123.328 102.423 125.159C101.717 126.142 101.023 127.127 100.328 128.112C99.7342 128.959 99.1399 129.812 98.5515 130.659C97.285 132.499 96.0413 134.334 94.8146 136.165C95.3376 138.134 95.8875 140.117 96.4542 142.101C97.0264 144.085 97.6149 146.076 98.2308 148.075C98.8463 150.08 99.4841 152.086 100.149 154.1C100.809 156.114 101.496 158.13 102.206 160.153C102.293 160.4 102.38 160.647 102.472 160.895C102.565 161.142 102.657 161.39 102.744 161.637L102.729 161.625C102.994 162.383 103.265 163.142 103.542 163.896C103.542 163.891 103.554 163.886 103.554 163.88C103.83 164.645 104.1 165.421 104.382 166.181C105.127 168.179 105.884 170.161 106.665 172.128C107.44 174.101 108.233 176.058 109.045 177.994C109.856 179.936 110.679 181.862 111.521 183.772C113.523 184.12 115.548 184.459 117.608 184.784C119.663 185.102 121.752 185.413 123.866 185.702C124.304 185.759 124.742 185.822 125.186 185.874C124.904 185.192 124.627 184.505 124.351 183.818C123.592 181.925 122.851 180.023 122.122 178.099C121.399 176.181 120.688 174.247 119.995 172.303C119.302 170.36 118.631 168.418 117.982 166.478C117.339 164.544 116.712 162.617 116.107 160.691C115.502 158.766 114.924 156.848 114.363 154.937C113.808 153.027 113.268 151.123 112.756 149.228C113.921 147.47 115.114 145.714 116.324 143.954C117.538 142.2 118.77 140.442 120.025 138.686C120.05 138.649 120.082 138.607 120.107 138.57C120.135 138.421 120.159 138.266 120.188 138.112C120.814 134.579 122.102 131.267 123.889 128.306C125.675 125.346 127.967 122.732 130.604 120.582C132.563 118.988 134.715 117.654 136.994 116.627C137.986 115.42 138.989 114.225 139.996 113.042C141.374 111.418 142.757 109.811 144.144 108.228C146.097 108.203 148.065 108.196 150.06 108.208C152.05 108.22 154.066 108.245 156.097 108.299C158.134 108.348 160.192 108.416 162.265 108.507C164.343 108.598 166.448 108.709 168.568 108.848C170.687 108.982 172.789 109.136 174.872 109.312C176.961 109.488 179.025 109.685 181.066 109.896C182.373 110.033 183.668 110.174 184.957 110.326C184.563 109.418 184.169 108.515 183.769 107.611ZM105.682 94.5234C105.416 94.5471 105.157 94.5713 104.896 94.6011C104.636 94.6308 104.371 94.6546 104.111 94.6788C102.512 94.8375 100.928 95.0087 99.3669 95.1873C99.095 95.2217 98.8236 95.2506 98.5518 95.285L98.5629 95.2859C97.2887 95.4479 96.0204 95.6049 94.768 95.7742C94.2637 95.8406 93.7591 95.9126 93.26 95.9849C91.2584 96.2684 89.2946 96.5716 87.3573 96.8937C87.5781 98.8559 87.8198 100.837 88.0885 102.83C88.3624 104.83 88.6632 106.844 88.9906 108.876C89.0355 109.159 89.0805 109.442 89.131 109.725C89.3922 111.316 89.6698 112.914 89.9687 114.524C89.995 114.689 90.0265 114.859 90.0583 115.023C90.4444 117.093 90.8574 119.177 91.3029 121.274C92.1177 120.115 92.9441 118.951 93.7756 117.792C94.6015 116.634 95.4386 115.476 96.2864 114.325C97.129 113.167 97.9828 112.011 98.8417 110.86C99.7067 109.705 100.577 108.555 101.458 107.406C102.34 106.252 103.225 105.115 104.117 103.984C105.002 102.852 105.898 101.727 106.793 100.613C107.689 99.499 108.589 98.3909 109.495 97.2833C110.401 96.1812 111.306 95.0847 112.211 93.9937C110 94.149 107.823 94.3235 105.682 94.5234Z" fill="#27859A"/>
<path d="M161.512 44.8797C161.471 44.9099 161.434 44.9462 161.393 44.9764C160.559 43.9606 159.718 42.961 158.882 41.9729C158.523 41.5534 158.163 41.1394 157.804 40.7254C157.475 40.3418 157.146 39.9637 156.811 39.5908C157.079 39.8914 157.351 40.2035 157.624 40.51L161.512 44.8797Z" fill="#27859A"/>
<path d="M236.014 46.3517C235.904 46.3318 235.788 46.3115 235.671 46.2967C234.957 46.1844 234.217 46.1148 233.451 46.0879C231.142 45.9951 228.587 46.2628 225.809 46.8706C223.036 47.4732 220.046 48.4219 216.867 49.7022C213.688 50.9824 210.314 52.5994 206.786 54.5339C203.258 56.4684 199.565 58.7252 195.74 61.2957C194.704 61.9907 193.666 62.7134 192.621 63.4524C191.581 64.1974 190.534 64.9586 189.486 65.7365C188.431 66.5195 187.382 67.314 186.331 68.1252C185.275 68.936 184.217 69.7634 183.164 70.6023C184.762 72.8018 186.344 75.067 187.908 77.409C189.478 79.7515 191.026 82.1649 192.557 84.6441C192.785 85.0198 193.019 85.3959 193.247 85.7771C191.277 85.4428 189.284 85.1234 187.272 84.8249C185.782 81.9745 184.27 79.1839 182.724 76.4633C181.189 73.7491 179.626 71.1054 178.046 68.5274C176.467 65.955 174.864 63.4535 173.245 61.0288C171.631 58.6046 169.994 56.2568 168.346 53.9808C168.549 53.818 168.758 53.6557 168.961 53.4985C168.998 53.4622 169.04 53.432 169.075 53.4069C169.931 52.72 170.791 52.0502 171.646 51.3856C172.744 50.5335 173.842 49.698 174.938 48.8848C176.028 48.0656 177.123 47.2635 178.211 46.4887C179.298 45.7139 180.378 44.9553 181.456 44.2245C185.448 41.5275 189.296 39.1544 192.972 37.1199C196.654 35.0857 200.163 33.3844 203.477 32.031C206.791 30.6775 209.909 29.6719 212.792 29.0221C215.686 28.3731 218.343 28.0855 220.743 28.1576C221.542 28.1872 222.311 28.2534 223.054 28.3623C223.796 28.4713 224.508 28.6169 225.188 28.8102C225.868 28.9981 226.517 29.2337 227.135 29.506C227.752 29.7783 228.333 30.0979 228.882 30.4542C229.026 30.5494 229.164 30.6441 229.302 30.7389C229.398 30.8079 229.493 30.8769 229.583 30.9455C229.784 31.101 229.984 31.2621 230.173 31.4224C230.268 31.5025 230.357 31.5822 230.446 31.6674C230.812 32.0036 231.165 32.3612 231.493 32.7448C231.55 32.7996 231.601 32.8651 231.653 32.9251C231.709 32.991 231.76 33.0565 231.811 33.122C231.821 33.134 231.826 33.1455 231.831 33.1515C231.939 33.2774 232.041 33.4083 232.136 33.5444C232.238 33.681 232.339 33.8231 232.434 33.9647C233.028 34.8275 233.547 35.7793 233.997 36.8208C235.124 39.4469 235.803 42.6411 236.014 46.3517Z" fill="#27859A"/>
<path d="M56.7704 181.451C56.6473 181.732 56.5242 182.013 56.4072 182.289L43.4785 174.97C43.6721 175.075 43.8712 175.18 44.0699 175.291C44.3766 175.455 44.6828 175.624 44.9894 175.788C45.2472 175.931 45.5055 176.069 45.7637 176.207C45.8177 176.233 45.8661 176.26 45.92 176.286C46.2323 176.451 46.5445 176.615 46.8627 176.774C47.1805 176.939 47.4987 177.098 47.8165 177.263C48.3017 177.508 48.7925 177.754 49.2834 177.999C49.8337 178.272 50.3952 178.545 50.9572 178.813C51.0544 178.86 51.1516 178.907 51.2493 178.948C51.795 179.209 52.3411 179.464 52.8983 179.721C54.1635 180.312 55.4528 180.883 56.7704 181.451Z" fill="#27859A"/>
<path d="M106.203 202.7C105.055 202.402 103.918 202.095 102.794 201.782C99.9624 201 97.196 200.178 94.4995 199.323C91.8141 198.468 89.1986 197.58 86.6531 196.658C86.1176 197.901 85.5938 199.139 85.0871 200.373C84.5748 201.607 84.0797 202.837 83.6022 204.056C83.1191 205.276 82.6587 206.491 82.2108 207.691C81.768 208.896 81.3428 210.092 80.9408 211.279C78.9733 217.097 77.4849 222.529 76.4855 227.519C75.4801 232.514 74.959 237.055 74.9275 241.076C74.8951 245.109 75.3468 248.62 76.3002 251.529C76.4448 251.97 76.6013 252.402 76.7708 252.812C76.5487 252.856 76.327 252.894 76.1113 252.928C73.2941 253.387 70.7245 253.48 68.4317 253.193C67.671 253.1 66.9416 252.964 66.2436 252.786C65.5456 252.608 64.8841 252.394 64.2489 252.131L64.2433 252.131C63.6081 251.868 63.0037 251.569 62.4364 251.228C61.8694 250.881 61.3334 250.498 60.8292 250.067C58.823 248.35 57.3372 245.936 56.3665 242.892C55.4004 239.859 54.949 236.202 55.0061 231.999C55.0679 227.807 55.6326 223.068 56.7108 217.86C57.783 212.659 59.3576 206.988 61.4344 200.921C61.8575 199.68 62.309 198.436 62.7784 197.176C63.2419 195.922 63.734 194.659 64.2382 193.385C64.7424 192.112 65.2642 190.829 65.8032 189.541C66.0309 189 66.2706 188.449 66.4988 187.903L66.4932 187.902C66.6025 187.654 66.7063 187.405 66.81 187.156L66.8156 187.156C67.0286 186.659 67.2357 186.167 67.4488 185.67C70.0821 186.615 72.7966 187.528 75.5809 188.407C78.3709 189.287 81.2363 190.133 84.1781 190.936C87.1246 191.749 90.142 192.518 93.2297 193.248C96.3229 193.979 99.4861 194.676 102.715 195.327C103.852 197.82 105.015 200.276 106.203 202.7Z" fill="#27859A"/>
<path d="M185.518 155.134C184.959 158.599 183.738 161.844 182.001 164.747C180.269 167.651 178.027 170.206 175.429 172.293C172.837 174.374 169.889 175.985 166.754 176.995C163.624 178.005 160.3 178.419 156.949 178.116C155.897 178.016 154.873 177.857 153.882 177.627C152.896 177.404 151.932 177.11 151.012 176.764C150.086 176.417 149.198 176.017 148.349 175.559C147.493 175.1 146.682 174.584 145.913 174.025L129.332 161.981C129.263 161.931 129.194 161.881 129.12 161.825C129.29 161.95 129.465 162.076 129.64 162.196C129.805 162.304 129.97 162.417 130.136 162.52C130.301 162.628 130.467 162.736 130.638 162.833C130.809 162.942 130.981 163.039 131.153 163.137C131.56 163.37 131.98 163.593 132.407 163.8C132.601 163.894 132.795 163.987 132.996 164.076C133.239 164.19 133.483 164.293 133.728 164.396C133.918 164.472 134.113 164.549 134.309 164.626C134.359 164.641 134.407 164.662 134.457 164.677C134.68 164.762 134.903 164.841 135.133 164.915C135.362 164.994 135.592 165.068 135.822 165.137C136.008 165.191 136.2 165.245 136.392 165.299C136.519 165.332 136.645 165.364 136.771 165.396C136.975 165.451 137.178 165.501 137.388 165.546C137.597 165.596 137.807 165.634 138.022 165.679C138.099 165.697 138.176 165.708 138.254 165.72C138.48 165.766 138.702 165.8 138.929 165.84L138.995 165.846C139.25 165.888 139.505 165.919 139.761 165.951C140.027 165.983 140.3 166.016 140.573 166.037C144.058 166.34 147.514 165.892 150.777 164.825C154.046 163.759 157.112 162.067 159.824 159.884C162.53 157.7 164.878 155.024 166.698 151.988C168.513 148.957 169.801 145.566 170.4 141.953C170.772 139.736 170.854 137.557 170.688 135.465C170.662 135.156 170.63 134.852 170.592 134.553C170.567 134.305 170.536 134.056 170.493 133.813C170.477 133.672 170.454 133.53 170.431 133.394C170.345 132.857 170.235 132.328 170.114 131.804C170 131.326 169.875 130.852 169.732 130.388C169.661 130.154 169.584 129.918 169.507 129.683C169.43 129.454 169.348 129.218 169.265 128.994C169.182 128.763 169.094 128.533 168.999 128.308C168.934 128.146 168.862 127.984 168.791 127.822C168.687 127.573 168.578 127.33 168.462 127.092C168.405 126.964 168.347 126.842 168.284 126.72C168.168 126.482 168.047 126.243 167.919 126.015C167.826 125.845 167.733 125.676 167.634 125.506C167.141 124.646 166.595 123.82 166.001 123.041C165.777 122.75 165.547 122.463 165.312 122.182C165.173 122.015 165.03 121.847 164.88 121.684C164.617 121.39 164.348 121.106 164.072 120.833C163.964 120.718 163.855 120.609 163.74 120.505C163.714 120.475 163.682 120.45 163.657 120.42L178.641 134.154C179.99 135.389 181.18 136.797 182.179 138.34C183.184 139.883 184.004 141.568 184.609 143.354C185.219 145.146 185.613 147.044 185.777 149.018C185.934 150.998 185.857 153.042 185.518 155.134Z" fill="#27859A"/>
<path d="M259.256 79.9898C258.346 85.0593 256.992 90.4905 255.181 96.2488C254.776 97.5358 254.349 98.832 253.892 100.143C253.535 101.182 253.156 102.231 252.769 103.29C247.848 101.001 242.567 98.8577 236.972 96.8624C237.561 95.4447 238.138 94.0262 238.698 92.6174C239.258 91.2086 239.805 89.81 240.324 88.4204C240.849 87.0311 241.35 85.6513 241.828 84.2863C242.3 82.9209 242.755 81.5653 243.18 80.2241C243.419 79.4718 243.652 78.7301 243.873 77.9876C244.071 77.327 244.268 76.6775 244.454 76.0272C244.485 75.9123 244.516 75.803 244.547 75.6937C244.748 74.9942 244.943 74.2999 245.127 73.6102C245.158 73.5009 245.188 73.3972 245.213 73.293C245.379 72.6802 245.534 72.0776 245.688 71.4751C245.851 70.8285 246.014 70.182 246.165 69.5456C246.36 68.7116 246.549 67.8826 246.725 67.0695C246.811 66.6907 246.891 66.3114 246.966 65.9317C247.008 65.7562 247.038 65.5854 247.074 65.415C247.128 65.1566 247.183 64.8926 247.231 64.6338C247.288 64.3421 247.345 64.0504 247.396 63.7582C247.431 63.5934 247.461 63.4336 247.49 63.2683C247.511 63.147 247.532 63.0202 247.553 62.8989C247.78 61.6594 247.978 60.4344 248.145 59.2349C248.259 58.4336 248.361 57.6425 248.45 56.8672C248.481 56.6181 248.506 56.3686 248.531 56.1192C248.576 55.7706 248.608 55.4267 248.641 55.0828C248.677 54.6274 248.723 54.184 248.758 53.7397C248.832 52.8066 248.888 51.8834 248.926 50.9755C248.939 50.7473 248.945 50.5243 248.951 50.3013C248.964 50.0005 248.97 49.7048 248.977 49.4092C248.981 49.2195 248.984 49.0297 248.983 48.8396C248.985 48.6721 248.987 48.5046 248.989 48.3371C248.994 47.9128 248.987 47.4988 248.981 47.0847C248.982 47.001 248.977 46.9223 248.978 46.8441C248.969 46.4523 248.961 46.0605 248.941 45.6733C248.935 45.4605 248.93 45.2477 248.912 45.0396C248.904 44.7874 248.891 44.5349 248.871 44.2874C248.859 44.0182 248.835 43.7481 248.811 43.4836C248.803 43.2985 248.784 43.1126 248.765 42.9323C248.743 42.6455 248.715 42.3528 248.682 42.0707C248.684 42.0429 248.685 42.0207 248.677 41.992C248.639 41.6147 248.59 41.2364 248.541 40.8692C248.523 40.7449 248.51 40.6265 248.491 40.5076C248.45 40.1691 248.398 39.8409 248.34 39.5121C248.321 39.3878 248.302 39.2745 248.284 39.1557C248.218 38.7761 248.152 38.4076 248.075 38.0383C248.043 37.8737 248.011 37.7091 247.973 37.5496C247.846 36.9529 247.713 36.3667 247.562 35.796C247.506 35.5792 247.45 35.368 247.389 35.1508C247.324 34.911 247.253 34.6707 247.182 34.4359C247.119 34.2354 247.061 34.0408 246.993 33.8399C246.673 32.8478 246.312 31.8916 245.913 30.9716C245.81 30.7231 245.7 30.4797 245.584 30.2415C245.474 29.9981 245.359 29.7598 245.237 29.5267C245.126 29.3 245.009 29.0728 244.887 28.8508C244.887 28.8452 244.882 28.8337 244.877 28.8277C244.872 28.8217 244.872 28.8161 244.867 28.8102C244.745 28.5881 244.622 28.3661 244.499 28.1496C244.366 27.9211 244.232 27.6982 244.098 27.4753C243.988 27.3045 243.884 27.1343 243.774 26.9635L255.564 45.0785C257.275 47.7003 258.553 50.763 259.399 54.2443C260.251 57.7316 260.671 61.6376 260.646 65.933C260.626 70.2401 260.165 74.9371 259.256 79.9898Z" fill="#27859A"/>
<path d="M138.726 253.36C138.535 253.502 138.339 253.643 138.149 253.779C136.995 254.615 135.837 255.429 134.693 256.222C133.543 257.014 132.4 257.779 131.26 258.516C126.699 261.459 122.3 263.995 118.073 266.12C113.858 268.235 109.821 269.939 105.98 271.223C102.15 272.508 98.5218 273.373 95.111 273.825C91.7062 274.271 88.5245 274.305 85.5781 273.916C85.0398 273.845 84.5085 273.759 83.9891 273.662C83.4641 273.565 82.9516 273.451 82.446 273.322C81.94 273.198 81.4413 273.053 80.9542 272.903C80.4619 272.746 79.9821 272.574 79.5143 272.392L59.7405 264.712C59.9311 264.783 60.1273 264.854 60.3184 264.92C60.4602 264.97 60.602 265.02 60.7498 265.066C60.9135 265.123 61.0827 265.181 61.2472 265.228C61.3072 265.249 61.362 265.265 61.4169 265.28C61.6084 265.34 61.8059 265.395 62.0034 265.45C62.0968 265.474 62.1846 265.497 62.2781 265.521C62.2948 265.523 62.3111 265.53 62.3278 265.531C62.3612 265.534 62.3882 265.547 62.4212 265.555C62.4867 265.577 62.5527 265.593 62.6187 265.61C62.635 265.617 62.6573 265.618 62.674 265.62C62.8385 265.666 63.009 265.708 63.18 265.744L63.1967 265.745C63.4221 265.802 63.6539 265.848 63.8806 265.888C63.9299 265.903 63.9796 265.913 64.0293 265.922C64.112 265.94 64.1891 265.957 64.2723 265.969C64.4823 266.008 64.6922 266.047 64.9082 266.081L64.9194 266.082C65.2292 266.134 65.5451 266.182 65.8669 266.224C68.9252 266.616 72.2307 266.575 75.7668 266.1C79.3144 265.62 83.093 264.7 87.085 263.35C91.0825 262 95.2887 260.209 99.686 257.985C104.089 255.756 108.678 253.095 113.435 250.006C114.623 249.234 115.819 248.428 117.017 247.601C118.215 246.773 119.421 245.918 120.628 245.041C121.836 244.164 123.051 243.26 124.267 242.344C125.488 241.429 126.706 240.492 127.93 239.543C128.784 240.734 129.638 241.913 130.505 243.077C131.366 244.24 132.24 245.388 133.11 246.518C133.985 247.649 134.867 248.758 135.751 249.845C136.636 250.926 137.527 251.992 138.427 253.024C138.525 253.138 138.628 253.252 138.726 253.36Z" fill="#27859A"/>
<path d="M206.713 184.653C206.293 185.213 205.868 185.771 205.443 186.33C205.399 186.383 205.361 186.441 205.318 186.494C203.698 186.695 202.057 186.89 200.4 187.067C198.189 187.306 195.94 187.525 193.666 187.714C191.392 187.903 189.091 188.068 186.754 188.202C184.422 188.342 182.064 188.452 179.669 188.537C180.629 187.384 181.583 186.229 182.533 185.064C183.488 183.904 184.438 182.733 185.383 181.556C186.328 180.379 187.268 179.195 188.204 178.001C189.145 176.806 190.075 175.6 191.001 174.388C191.932 173.176 192.847 171.957 193.75 170.743C194.653 169.524 195.551 168.304 196.438 167.083C197.325 165.862 198.201 164.634 199.072 163.412C199.942 162.19 200.807 160.962 201.66 159.738C202.223 161.985 202.758 164.223 203.255 166.453C203.757 168.689 204.232 170.911 204.674 173.126C205.11 175.34 205.525 177.541 205.907 179.733C206.192 181.382 206.461 183.018 206.713 184.653Z" fill="#27859A"/>
<path d="M209.158 207.943C209.079 206.534 208.989 205.113 208.883 203.685C208.777 202.263 208.654 200.828 208.527 199.388C205.338 199.806 202.096 200.171 198.803 200.486C195.515 200.797 192.181 201.059 188.795 201.261C185.42 201.47 182 201.619 178.544 201.715C175.089 201.811 171.598 201.854 168.073 201.838C167.065 202.949 166.053 204.054 165.036 205.142C164.534 205.683 164.026 206.224 163.512 206.765C162.569 207.78 161.615 208.784 160.662 209.776C159.141 211.355 157.622 212.911 156.095 214.434C155.614 214.915 155.133 215.397 154.652 215.879C154.171 216.361 153.685 216.836 153.205 217.307C150.714 219.748 148.222 222.122 145.725 224.417C144.685 225.38 143.64 226.326 142.591 227.26C141.709 228.057 140.823 228.847 139.932 229.621C139.372 230.113 138.812 230.6 138.252 231.081C139.062 232.19 139.867 233.287 140.684 234.369C141.496 235.45 142.314 236.515 143.14 237.564C143.965 238.613 144.792 239.645 145.621 240.649C146.455 241.659 147.292 242.642 148.135 243.602C148.521 244.041 148.908 244.474 149.294 244.901C149.686 245.34 150.084 245.768 150.471 246.19C150.864 246.612 151.251 247.028 151.64 247.433C151.836 247.644 152.028 247.844 152.22 248.043C152.411 248.249 152.603 248.443 152.8 248.643C153.313 249.175 153.828 249.69 154.342 250.2C154.857 250.711 155.373 251.209 155.884 251.697C156.395 252.184 156.901 252.66 157.408 253.125C157.805 253.492 158.209 253.848 158.602 254.203C158.968 254.528 159.336 254.847 159.698 255.155L159.704 255.156C160.081 255.487 160.46 255.808 160.833 256.117C161.212 256.432 161.586 256.741 161.965 257.044C161.965 257.044 161.971 257.045 161.971 257.05C162.319 257.329 162.672 257.609 163.021 257.877C163.021 257.882 163.026 257.883 163.026 257.883C163.031 257.889 163.037 257.889 163.042 257.895C163.808 258.486 164.565 259.055 165.319 259.589C165.653 259.834 165.988 260.067 166.323 260.294C166.355 260.319 166.392 260.339 166.424 260.364C166.674 260.534 166.924 260.705 167.17 260.864C167.361 260.997 167.553 261.124 167.745 261.245C168.433 261.69 169.117 262.119 169.792 262.513C170.054 262.673 170.312 262.822 170.57 262.965C170.655 263.017 170.736 263.062 170.822 263.108C171.047 263.238 171.273 263.362 171.499 263.48C171.735 263.611 171.972 263.736 172.204 263.855C172.338 263.927 172.468 263.993 172.597 264.059C173.4 264.469 174.2 264.845 174.987 265.181C176.624 265.886 178.223 266.437 179.779 266.833C178.683 266.009 177.58 265.134 176.465 264.202C174.525 262.574 172.553 260.781 170.566 258.819C168.584 256.868 166.587 254.755 164.579 252.484C163.766 251.565 162.955 250.618 162.151 249.649C161.347 248.686 160.545 247.695 159.75 246.688C158.955 245.68 158.161 244.656 157.374 243.616C156.587 242.582 155.807 241.526 155.021 240.463C157.403 238.416 159.791 236.296 162.173 234.104C164.56 231.912 166.942 229.652 169.324 227.32C171.706 224.987 174.087 222.593 176.457 220.126C178.827 217.664 181.19 215.14 183.542 212.549C186.927 212.575 190.281 212.55 193.596 212.47C196.915 212.392 200.194 212.259 203.433 212.073C205.415 211.962 207.377 211.826 209.323 211.678C209.28 210.445 209.227 209.2 209.158 207.943ZM147.275 201.163C145.886 201.076 144.491 200.983 143.098 200.878C141.704 200.78 140.305 200.669 138.908 200.548C137.51 200.426 136.108 200.293 134.7 200.154C133.298 200.016 131.903 199.861 130.519 199.707C129.136 199.547 127.759 199.377 126.394 199.202C125.033 199.033 123.674 198.848 122.332 198.664C120.985 198.473 119.649 198.279 118.319 198.079C119.327 200.081 120.349 202.05 121.39 203.988C122.431 205.931 123.486 207.841 124.559 209.726C125.632 211.615 126.72 213.467 127.82 215.292C128.92 217.122 130.04 218.915 131.168 220.681C132.848 219.221 134.536 217.722 136.227 216.19C136.982 215.501 137.737 214.806 138.5 214.101C137.55 212.349 136.62 210.566 135.697 208.766C136.976 208.962 138.262 209.153 139.559 209.339C140.713 209.497 141.866 209.661 143.032 209.815C144.142 208.74 145.255 207.649 146.368 206.546C148.059 204.863 149.748 203.147 151.433 201.397C150.048 201.327 148.664 201.251 147.275 201.163Z" fill="#27859A"/>
<path d="M213.563 103.285C211.514 102.738 209.432 102.204 207.314 101.691C205.404 101.233 203.471 100.79 201.504 100.355L201.499 100.354C201.283 100.31 201.069 100.259 200.854 100.214C198.67 99.7456 196.446 99.2962 194.187 98.8664C194.747 100.084 195.301 101.307 195.854 102.535C196.407 103.769 196.954 105.008 197.495 106.253C198.036 107.502 198.576 108.758 199.104 110.023C199.637 111.295 200.159 112.571 200.674 113.858C201.194 115.145 201.698 116.437 202.196 117.728C202.694 119.025 203.18 120.32 203.655 121.615C204.136 122.916 204.605 124.216 205.068 125.521C205.532 126.821 205.989 128.125 206.441 129.435C207.676 127.359 208.882 125.291 210.048 123.232C210.491 122.451 210.928 121.67 211.36 120.888C210.847 119.718 210.337 118.572 209.817 117.419C209.283 116.236 208.742 115.059 208.201 113.888C210.321 114.301 212.407 114.734 214.456 115.186C215.195 113.786 215.922 112.39 216.632 110.999C217.66 108.984 218.653 106.984 219.606 104.992C217.629 104.405 215.616 103.838 213.563 103.285ZM304.278 159.255C304.13 157.432 303.785 155.617 303.254 153.82C302.723 152.029 302.011 150.252 301.118 148.494C300.231 146.741 299.162 145.008 297.923 143.301L287.849 129.373C288.015 129.61 288.176 129.841 288.337 130.077C288.513 130.337 288.688 130.602 288.858 130.867C289.043 131.15 289.227 131.438 289.407 131.726C289.634 132.107 289.863 132.483 290.074 132.863C290.231 133.138 290.389 133.419 290.535 133.698C290.55 133.722 290.559 133.745 290.574 133.769C290.696 133.996 290.813 134.223 290.93 134.45C290.964 134.515 290.997 134.584 291.026 134.648C291.167 134.927 291.302 135.206 291.431 135.485C291.45 135.525 291.469 135.566 291.489 135.607C291.627 135.908 291.761 136.209 291.893 136.516C292.012 136.794 292.124 137.076 292.236 137.359C292.306 137.538 292.381 137.722 292.445 137.906C292.514 138.096 292.583 138.286 292.653 138.476C292.918 139.229 293.151 139.979 293.349 140.733C293.396 140.915 293.443 141.103 293.49 141.292C293.507 141.354 293.519 141.417 293.537 141.48C293.582 141.69 293.632 141.901 293.677 142.117C293.726 142.35 293.774 142.588 293.818 142.821C293.878 143.127 293.932 143.439 293.974 143.755C294.011 143.993 294.049 144.23 294.074 144.473C294.108 144.749 294.143 145.026 294.166 145.301C294.168 145.346 294.176 145.386 294.178 145.425C294.194 145.589 294.208 145.757 294.212 145.92C294.235 146.134 294.246 146.347 294.251 146.566C294.259 146.678 294.267 146.79 294.264 146.902C294.276 147.104 294.282 147.311 294.277 147.518C294.283 147.652 294.284 147.786 294.279 147.915C294.283 148.144 294.276 148.378 294.269 148.607C294.24 149.543 294.166 150.482 294.035 151.427C293.302 156.818 290.965 161.914 287.228 166.643C283.485 171.372 278.347 175.728 272.006 179.642C265.687 183.552 258.181 187.017 249.705 189.98C248.638 190.354 247.556 190.716 246.462 191.077C245.967 191.239 245.466 191.401 244.961 191.556C243.897 191.891 242.823 192.22 241.732 192.536C241.095 192.726 240.459 192.905 239.816 193.089C239.764 193.108 239.707 193.12 239.656 193.132C238.962 193.329 238.263 193.52 237.553 193.71C236.848 193.9 236.139 194.079 235.423 194.263C234.708 194.446 233.988 194.624 233.261 194.802C233.004 194.871 232.747 194.929 232.49 194.992C231.718 195.177 230.935 195.361 230.153 195.54C229.834 195.61 229.514 195.685 229.194 195.755C228.532 195.904 227.865 196.047 227.192 196.189C226.291 196.381 225.391 196.567 224.479 196.746C223.573 196.932 222.657 197.105 221.735 197.278C221.887 198.833 222.023 200.38 222.143 201.915C222.268 203.456 222.377 204.985 222.465 206.501C222.558 208.023 222.635 209.532 222.685 211.022C222.741 212.519 222.77 213.997 222.783 215.462C222.834 223.765 222.297 231.423 221.206 238.361C220.101 245.321 218.438 251.544 216.233 256.958C214.028 262.378 211.288 266.973 208.036 270.673C204.789 274.373 201.042 277.174 196.822 278.998C195.573 279.542 194.31 279.99 193.02 280.346C191.73 280.708 190.42 280.973 189.089 281.148C187.763 281.323 186.416 281.406 185.048 281.404C183.687 281.398 182.303 281.305 180.899 281.127C180.366 281.057 179.834 280.976 179.298 280.878C179.049 280.836 178.801 280.788 178.552 280.741C177.189 280.471 175.809 280.122 174.419 279.694C174.184 279.619 173.948 279.545 173.714 279.465C173.446 279.376 173.178 279.288 172.906 279.189C172.633 279.094 172.36 278.995 172.088 278.895C171.815 278.795 171.543 278.69 171.271 278.585C171.07 278.507 170.863 278.424 170.657 278.34C170.537 278.292 170.424 278.244 170.304 278.195C170.082 278.099 169.859 278.009 169.631 277.907C169.1 277.681 168.57 277.438 168.04 277.189L183.777 284.652C184.836 285.154 185.894 285.607 186.938 286.019C187.988 286.431 189.029 286.799 190.064 287.115C191.098 287.437 192.131 287.708 193.15 287.934C194.17 288.16 195.182 288.34 196.186 288.47C197.529 288.649 198.856 288.742 200.167 288.751C201.478 288.759 202.769 288.677 204.043 288.515C205.312 288.347 206.571 288.099 207.803 287.761C209.035 287.417 210.252 286.993 211.442 286.478C215.481 284.74 219.061 282.077 222.16 278.55C225.264 275.023 227.875 270.635 229.966 265.458C232.056 260.292 233.63 254.341 234.66 247.689C235.682 241.058 236.171 233.731 236.086 225.789C236.073 224.39 236.039 222.968 235.978 221.538C235.923 220.109 235.846 218.667 235.753 217.212C235.661 215.757 235.552 214.296 235.427 212.822C235.308 211.348 235.167 209.867 235.021 208.38C244.732 206.604 253.722 204.291 261.803 201.497C269.913 198.695 277.086 195.405 283.132 191.686C289.189 187.961 294.097 183.817 297.666 179.304C301.229 174.796 303.452 169.93 304.139 164.771C304.386 162.924 304.43 161.083 304.278 159.255ZM278.057 139.632C277.327 138.294 276.434 136.961 275.396 135.627C275.365 135.591 275.34 135.556 275.309 135.52C275.151 135.317 274.993 135.12 274.824 134.917C273.909 133.794 272.887 132.68 271.764 131.568C271.613 131.417 271.457 131.265 271.3 131.118C270.456 130.303 269.561 129.494 268.61 128.687C268.469 128.564 268.321 128.441 268.174 128.323C267.927 128.114 267.674 127.909 267.415 127.704C266.988 127.358 266.556 127.011 266.107 126.668C265.747 126.394 265.387 126.119 265.017 125.844C264.942 125.794 264.868 125.737 264.794 125.681C264.481 125.455 264.169 125.224 263.844 124.997C263.293 124.602 262.724 124.205 262.138 123.817C261.83 123.603 261.515 123.394 261.195 123.184C260.758 122.898 260.316 122.612 259.867 122.325C259.558 122.127 259.243 121.929 258.927 121.737C258.762 121.629 258.59 121.526 258.413 121.422C257.799 121.044 257.167 120.664 256.529 120.296C256.234 120.121 255.934 119.952 255.628 119.777C255.22 119.544 254.813 119.311 254.393 119.082C253.888 118.802 253.372 118.521 252.851 118.239C252.464 118.03 252.07 117.826 251.677 117.621C251.371 117.457 251.063 117.299 250.756 117.141C249.403 116.453 248.011 115.767 246.579 115.09C246.443 115.029 246.314 114.963 246.179 114.902C245.952 114.794 245.724 114.693 245.497 114.591C245.075 114.39 244.648 114.2 244.22 114.004C243.327 113.604 242.416 113.208 241.5 112.811C241.115 112.647 240.729 112.482 240.338 112.323C239.953 112.158 239.563 111.993 239.166 111.833C238.585 111.592 237.993 111.355 237.4 111.118C235.519 110.372 233.587 109.638 231.603 108.923C231.354 109.44 231.106 109.956 230.852 110.478C230.598 110.995 230.344 111.517 230.089 112.039C229.154 113.949 228.189 115.868 227.191 117.795C227.111 117.951 227.031 118.107 226.946 118.262C226.213 119.674 225.461 121.096 224.693 122.521C223.93 123.942 223.144 125.372 222.348 126.801C220.728 129.702 219.046 132.621 217.301 135.546C217.23 135.668 217.153 135.791 217.081 135.914C215.905 137.889 214.701 139.861 213.462 141.842C212.788 142.924 212.108 144.01 211.417 145.095C212.379 148.396 213.285 151.686 214.131 154.966C214.976 158.252 215.765 161.533 216.495 164.793C217.224 168.058 217.887 171.307 218.496 174.535C219.098 177.768 219.646 180.98 220.124 184.164C223.846 183.463 227.434 182.684 230.871 181.832C230.554 180.31 230.221 178.774 229.871 177.238C229.159 174.108 228.392 170.968 227.565 167.813C226.743 164.663 225.865 161.503 224.927 158.333C226.79 155.401 228.591 152.47 230.329 149.556C232.068 146.636 233.744 143.734 235.345 140.843C236.953 137.952 238.492 135.078 239.967 132.221C241.437 129.37 242.838 126.541 244.17 123.729C249.183 125.561 253.862 127.512 258.17 129.545C262.5 131.586 266.453 133.714 270.003 135.9C273.57 138.093 276.723 140.342 279.435 142.624C279.065 141.634 278.606 140.631 278.057 139.632Z" fill="#27859A"/>
<path d="M231.658 32.9258C231.607 32.8659 231.556 32.8004 231.499 32.7455C231.607 32.8659 231.715 32.9917 231.817 33.1227C231.766 33.0572 231.715 32.9917 231.658 32.9258ZM22.5724 130.636C22.5166 130.917 22.4664 131.198 22.4325 131.486C22.4715 131.204 22.5222 130.917 22.578 130.637C22.6537 130.246 22.7517 129.857 22.8608 129.469C22.7461 129.856 22.6537 130.246 22.5724 130.636ZM157.624 40.5106C157.351 40.204 157.079 39.8919 156.811 39.5914C157.146 39.9643 157.475 40.3423 157.803 40.7259C158.163 41.1399 158.523 41.5539 158.882 41.9735C158.461 41.482 158.04 40.9961 157.624 40.5106Z" fill="#58C4DC"/>
<path d="M294.264 148.607C294.27 148.378 294.278 148.144 294.273 147.915C294.278 147.786 294.277 147.652 294.271 147.518C294.276 147.311 294.27 147.104 294.258 146.902C294.261 146.79 294.253 146.678 294.245 146.566C294.24 146.347 294.229 146.134 294.207 145.92C294.203 145.758 294.188 145.589 294.173 145.425C294.17 145.386 294.162 145.346 294.16 145.302C294.137 145.026 294.103 144.749 294.069 144.473C294.043 144.23 294.005 143.993 293.968 143.755C293.926 143.439 293.872 143.127 293.812 142.821C293.769 142.588 293.72 142.35 293.671 142.117C293.627 141.901 293.576 141.69 293.531 141.48C293.514 141.417 293.502 141.354 293.484 141.292C293.437 141.103 293.391 140.915 293.343 140.733C293.145 139.979 292.913 139.229 292.647 138.476C292.578 138.286 292.509 138.096 292.44 137.906C292.376 137.723 292.3 137.538 292.23 137.359C292.118 137.076 292.006 136.794 291.888 136.516C291.755 136.209 291.622 135.908 291.483 135.607C291.464 135.566 291.444 135.525 291.425 135.485C291.296 135.206 291.161 134.927 291.02 134.648C290.875 134.357 290.725 134.06 290.568 133.769C290.553 133.745 290.544 133.722 290.529 133.698C290.377 133.418 290.225 133.144 290.068 132.863C289.857 132.483 289.629 132.107 289.401 131.726C289.222 131.438 289.037 131.15 288.852 130.867C288.682 130.602 288.507 130.337 288.331 130.077C288.17 129.841 288.009 129.61 287.843 129.373C285.774 126.461 283.234 123.622 280.261 120.873C275.234 116.223 268.965 111.839 261.653 107.797C258.838 106.239 255.873 104.737 252.764 103.29C247.842 101.001 242.562 98.8574 236.967 96.8622C237.555 95.4445 238.133 94.026 238.692 92.6172C239.252 91.2084 239.8 89.8098 240.319 88.4201C240.843 87.0309 241.345 85.6511 241.823 84.2861C242.295 82.9207 242.749 81.5651 243.175 80.2239C243.414 79.4716 243.646 78.7299 243.867 77.9873C244.065 77.3268 244.262 76.6773 244.448 76.027C244.48 75.9121 244.511 75.8028 244.542 75.6935C244.743 74.994 244.938 74.2997 245.121 73.61C245.152 73.5007 245.183 73.3969 245.208 73.2927C245.374 72.68 245.528 72.0774 245.682 71.4748C245.845 70.8283 246.008 70.1817 246.16 69.5454C246.354 68.7114 246.543 67.8824 246.719 67.0693C246.805 66.6905 246.886 66.3112 246.961 65.9315C247.002 65.756 247.033 65.5851 247.069 65.4147C247.123 65.1563 247.177 64.8924 247.226 64.6336C247.282 64.3419 247.339 64.0502 247.39 63.758C247.446 63.4718 247.497 63.1853 247.548 62.8987C247.774 61.6592 247.972 60.4342 248.14 59.2347C248.253 58.4334 248.355 57.6423 248.444 56.8669C248.475 56.6179 248.5 56.3684 248.526 56.1189C248.57 55.7704 248.603 55.4265 248.636 55.0826C248.671 54.6272 248.718 54.1837 248.753 53.7394C248.826 52.8064 248.882 51.8832 248.921 50.9753C248.933 50.7471 248.939 50.5241 248.946 50.3011C248.958 50.0003 248.965 49.7046 248.971 49.4089C248.975 49.2192 248.979 49.0295 248.977 48.8394C248.979 48.6719 248.981 48.5044 248.983 48.3369C248.988 47.9126 248.982 47.4986 248.975 47.0845C248.976 47.0008 248.971 46.9221 248.972 46.8439C248.964 46.4521 248.955 46.0602 248.935 45.6731C248.93 45.4603 248.919 45.247 248.907 45.0393C248.899 44.7872 248.885 44.5347 248.865 44.2872C248.853 44.018 248.829 43.7479 248.805 43.4834C248.798 43.2983 248.779 43.1124 248.759 42.9321C248.737 42.6453 248.71 42.3525 248.676 42.0704C248.678 42.0427 248.68 42.0205 248.671 41.9918C248.633 41.6144 248.585 41.2362 248.535 40.869C248.517 40.7446 248.504 40.6263 248.485 40.5074C248.445 40.1689 248.392 39.8406 248.334 39.5119C248.316 39.3875 248.297 39.2743 248.278 39.1554C248.213 38.7759 248.147 38.4074 248.069 38.038C248.037 37.8735 248.005 37.7089 247.968 37.5494C247.841 36.9526 247.708 36.3665 247.557 35.7958C247.501 35.579 247.445 35.3678 247.383 35.1506C247.318 34.9107 247.247 34.6704 247.176 34.4357C247.113 34.2352 247.056 34.0406 246.988 33.8396C246.668 32.8476 246.306 31.8914 245.908 30.9714C245.804 30.7229 245.694 30.4795 245.579 30.2413C245.469 29.9979 245.353 29.7596 245.231 29.5265C245.12 29.2998 245.004 29.0726 244.881 28.8506C244.881 28.845 244.877 28.8335 244.872 28.8275C244.866 28.8215 244.867 28.8159 244.862 28.8099C244.739 28.5879 244.616 28.3659 244.493 28.1494C244.36 27.9209 244.226 27.698 244.092 27.4751C243.983 27.3043 243.878 27.134 243.768 26.9633C241.933 24.1527 239.632 21.8363 236.851 20.0577C235.859 19.415 234.821 18.8524 233.733 18.3642C232.65 17.8763 231.522 17.4687 230.354 17.1307C229.186 16.7982 227.974 16.5348 226.715 16.3517C225.463 16.1689 224.171 16.0558 222.834 16.0173C219.65 15.9337 216.244 16.2627 212.636 17.0062C209.034 17.7501 205.226 18.9025 201.234 20.4595C197.254 22.0174 193.091 23.9744 188.762 26.3263C184.444 28.6735 179.967 31.416 175.352 34.5501C174.202 35.3311 173.045 36.1395 171.887 36.9701C170.728 37.8007 169.567 38.6535 168.405 39.5286C167.237 40.4032 166.073 41.2949 164.903 42.2028C163.773 43.086 162.637 43.9799 161.507 44.8798C161.465 44.91 161.429 44.9463 161.387 44.9765C160.553 43.9607 159.713 42.9611 158.877 41.973C158.517 41.5534 158.158 41.1394 157.798 40.7254C157.469 40.3419 157.14 39.9638 156.805 39.5909C156.656 39.4171 156.502 39.2484 156.352 39.0801C155.513 38.1365 154.666 37.2146 153.818 36.315C152.974 35.4213 152.124 34.5439 151.271 33.6998C147.86 30.3234 144.478 27.3572 141.136 24.8022C137.805 22.2592 134.52 20.1222 131.286 18.3972C128.064 16.6731 124.899 15.3615 121.808 14.4525C118.723 13.5551 115.706 13.0599 112.78 12.9798C111.555 12.9446 110.341 12.9829 109.149 13.0956C107.957 13.2082 106.782 13.3893 105.619 13.6439C104.46 13.899 103.319 14.228 102.194 14.631C101.074 15.0344 99.9655 15.5113 98.8796 16.0571C95.2074 17.9019 91.9179 20.5091 89.0388 23.8137C86.154 27.1178 83.6732 31.13 81.6224 35.8021C79.56 40.4788 77.9213 45.8261 76.7333 51.7845C75.5384 57.7592 74.7925 64.3672 74.5223 71.5549C74.4725 72.8251 74.4432 74.1193 74.4302 75.4203C74.4224 76.7274 74.4248 78.0465 74.449 79.3728C74.4673 80.7043 74.5014 82.0482 74.5457 83.4041C74.5905 84.7544 74.6511 86.1172 74.722 87.4919C65.8828 89.5213 57.7488 91.9919 50.4646 94.8482C43.2091 97.6956 36.7858 100.938 31.3449 104.521C25.9104 108.094 21.4407 112.016 18.091 116.239C14.7357 120.461 12.494 124.996 11.5099 129.791C10.5306 134.598 10.8836 139.359 12.4452 144.009C14.0111 148.676 16.8023 153.233 20.6895 157.614C24.5968 162.024 29.6228 166.254 35.6437 170.239C37.8073 171.667 40.0965 173.066 42.5174 174.431C42.5439 174.45 42.5765 174.463 42.603 174.482C42.6942 174.534 42.791 174.586 42.8878 174.639L42.8934 174.639C43.0865 174.75 43.2796 174.86 43.4728 174.97C43.6663 175.075 43.8655 175.18 44.0642 175.291C44.3708 175.454 44.677 175.624 44.9837 175.788C45.2899 175.957 45.6021 176.122 45.9143 176.286C46.2265 176.45 46.5387 176.615 46.8569 176.774C47.1747 176.939 47.4929 177.098 47.8107 177.263C48.296 177.508 48.7868 177.753 49.2776 177.999C49.828 178.271 50.3895 178.545 50.9514 178.813C51.0486 178.86 51.1459 178.906 51.2435 178.948C51.7892 179.209 52.3353 179.464 52.8925 179.72C54.1578 180.312 55.4471 180.883 56.7647 181.451C56.6416 181.732 56.5185 182.013 56.4014 182.289C55.9219 183.391 55.4541 184.488 54.9973 185.587C54.4235 186.961 53.8613 188.33 53.3166 189.69C52.7775 191.05 52.2505 192.4 51.7466 193.741C51.2478 195.087 50.7671 196.418 50.31 197.735C47.7287 205.221 45.8415 212.225 44.6479 218.68C43.447 225.157 42.9449 231.091 43.1418 236.41C43.3369 241.751 44.2309 246.477 45.8348 250.521C47.4433 254.577 49.7561 257.95 52.7847 260.564C53.6819 261.345 54.6301 262.046 55.6235 262.672C56.617 263.298 57.6615 263.844 58.7512 264.316C59.0768 264.453 59.4028 264.585 59.7348 264.712C59.9254 264.783 60.1216 264.854 60.3127 264.92C60.4545 264.97 60.5963 265.02 60.7441 265.066C60.9077 265.123 61.0769 265.181 61.2415 265.228C61.3014 265.249 61.3563 265.265 61.4111 265.28C61.6026 265.34 61.8002 265.395 61.9977 265.45C62.0911 265.474 62.1789 265.497 62.2723 265.521C62.289 265.523 62.3053 265.53 62.322 265.531C62.3555 265.534 62.3824 265.547 62.4154 265.555C62.4977 265.578 62.5855 265.602 62.6682 265.62C62.8328 265.666 63.0033 265.708 63.1743 265.744L63.191 265.745C63.4164 265.802 63.6482 265.848 63.8749 265.888C63.9242 265.903 63.9739 265.913 64.0236 265.922C64.1063 265.94 64.1834 265.957 64.2666 265.969C64.4765 266.008 64.6865 266.047 64.9025 266.081L64.9137 266.082C65.2235 266.134 65.5393 266.182 65.8612 266.224C68.9195 266.616 72.225 266.575 75.7611 266.1C79.3087 265.62 83.0873 264.7 87.0793 263.35C91.0768 262 95.283 260.208 99.6803 257.985C104.084 255.756 108.672 253.095 113.43 250.006C114.618 249.234 115.814 248.428 117.012 247.601C118.209 246.773 119.415 245.918 120.622 245.041C121.83 244.164 123.045 243.26 124.261 242.344C125.483 241.429 126.7 240.492 127.925 239.543C128.778 240.734 129.632 241.913 130.499 243.077C131.361 244.24 132.234 245.388 133.104 246.518C133.979 247.649 134.861 248.758 135.746 249.845C136.63 250.926 137.522 251.992 138.421 253.024C138.519 253.138 138.622 253.252 138.72 253.36C142.226 257.381 145.748 260.99 149.259 264.167C152.88 267.454 156.485 270.287 160.056 272.648C162.741 274.425 165.402 275.942 168.034 277.189C168.564 277.438 169.094 277.681 169.626 277.908C169.853 278.009 170.076 278.1 170.298 278.195C170.418 278.244 170.532 278.292 170.651 278.341C170.858 278.424 171.064 278.507 171.266 278.585C171.538 278.69 171.81 278.795 172.082 278.895C172.354 278.995 172.627 279.094 172.9 279.189C173.172 279.288 173.44 279.377 173.708 279.465C173.943 279.545 174.178 279.619 174.413 279.694C175.803 280.122 177.183 280.471 178.547 280.741C178.795 280.788 179.044 280.836 179.293 280.878C179.829 280.976 180.361 281.057 180.893 281.127C182.298 281.305 183.681 281.398 185.043 281.405C186.411 281.406 187.757 281.323 189.083 281.148C190.414 280.974 191.725 280.708 193.015 280.346C194.304 279.99 195.568 279.542 196.816 278.998C201.036 277.174 204.784 274.373 208.03 270.673C211.283 266.973 214.023 262.378 216.228 256.958C218.432 251.544 220.095 245.321 221.2 238.361C222.291 231.423 222.829 223.765 222.778 215.462C222.764 213.997 222.735 212.519 222.68 211.023C222.629 209.532 222.552 208.023 222.459 206.501C222.371 204.985 222.262 203.456 222.137 201.915C222.017 200.38 221.881 198.833 221.729 197.278C222.651 197.105 223.568 196.932 224.474 196.746C225.385 196.567 226.285 196.381 227.186 196.189C227.859 196.047 228.526 195.904 229.189 195.755C229.508 195.685 229.828 195.61 230.147 195.54C230.93 195.361 231.712 195.177 232.484 194.992C232.741 194.929 232.998 194.871 233.256 194.802C233.982 194.624 234.702 194.446 235.418 194.263C236.133 194.079 236.842 193.9 237.547 193.71C238.257 193.52 238.956 193.329 239.65 193.133C239.702 193.12 239.759 193.108 239.811 193.089C240.453 192.905 241.089 192.726 241.727 192.536C242.817 192.22 243.891 191.891 244.955 191.556C245.461 191.401 245.961 191.239 246.456 191.077C247.55 190.716 248.633 190.354 249.699 189.98C258.175 187.017 265.681 183.552 272 179.642C278.342 175.728 283.479 171.372 287.222 166.643C290.959 161.915 293.296 156.818 294.03 151.427C294.16 150.482 294.235 149.543 294.264 148.607ZM168.967 53.4992C169.004 53.4629 169.045 53.4327 169.081 53.4076C169.937 52.7207 170.797 52.0509 171.651 51.3863C172.75 50.5342 173.848 49.6987 174.943 48.8855C176.034 48.0663 177.129 47.2642 178.216 46.4894C179.303 45.7146 180.384 44.956 181.462 44.2252C185.454 41.5282 189.302 39.1551 192.978 37.1206C196.66 35.0864 200.169 33.3852 203.483 32.0317C206.797 30.6782 209.915 29.6726 212.797 29.0228C215.691 28.3738 218.349 28.0862 220.749 28.1583C221.548 28.1879 222.317 28.2541 223.059 28.3631C223.802 28.472 224.514 28.6176 225.194 28.811C225.874 28.9988 226.523 29.2344 227.14 29.5067C227.758 29.779 228.338 30.0986 228.888 30.4549C229.031 30.5501 229.17 30.6449 229.308 30.7396C229.403 30.8086 229.499 30.8776 229.589 30.9462C229.79 31.1017 229.99 31.2629 230.179 31.4231C230.274 31.5032 230.363 31.5829 230.451 31.6681C230.817 32.0043 231.17 32.3619 231.499 32.7455C231.556 32.8003 231.607 32.8658 231.658 32.9258C231.715 32.9917 231.766 33.0572 231.817 33.1227C231.827 33.1347 231.832 33.1462 231.837 33.1522C231.945 33.2781 232.046 33.4091 232.142 33.5451C232.244 33.6817 232.344 33.8238 232.44 33.9654C233.033 34.8282 233.552 35.78 234.003 36.8215C235.13 39.4476 235.808 42.6418 236.02 46.3524C236.036 46.5828 236.045 46.8127 236.055 47.0482C236.226 51.0629 235.869 55.6563 234.989 60.7617C234.109 65.8782 232.7 71.5063 230.758 77.5784C230.363 78.8158 229.938 80.0732 229.497 81.3348C229.055 82.602 228.589 83.8786 228.101 85.1645C227.618 86.4508 227.112 87.7465 226.595 89.0469C226.077 90.3528 225.541 91.6685 224.989 92.9828C222.079 92.1273 219.105 91.3168 216.065 90.546C213.031 89.7812 209.937 89.0564 206.778 88.3711C203.636 87.6928 200.435 87.0545 197.179 86.4622C195.88 86.2255 194.57 85.9936 193.252 85.7778C191.283 85.4435 189.29 85.1241 187.278 84.8256C185.787 81.9752 184.275 79.1846 182.729 76.464C181.194 73.7498 179.631 71.1061 178.052 68.5281C176.472 65.9557 174.87 63.4542 173.25 61.0295C171.636 58.6053 170 56.2575 168.352 53.9815C168.555 53.8187 168.764 53.6564 168.967 53.4992ZM102.729 161.625C102.641 161.383 102.554 161.142 102.472 160.895C102.38 160.647 102.293 160.4 102.206 160.153C101.496 158.13 100.809 156.114 100.149 154.101C99.484 152.087 98.8462 150.08 98.2307 148.076C97.6148 146.077 97.0263 144.086 96.4541 142.101C95.8874 140.117 95.3375 138.135 94.8145 136.166C96.0411 134.334 97.2849 132.499 98.5514 130.66C99.1398 129.812 99.7341 128.959 100.328 128.112C101.022 127.127 101.717 126.143 102.423 125.159C103.733 123.329 105.061 121.5 106.416 119.674C106.429 119.652 106.447 119.631 106.46 119.61C107.125 118.718 107.789 117.826 108.46 116.935C109.148 116.022 109.843 115.11 110.537 114.198C111.556 112.87 112.574 111.554 113.602 110.249C113.982 109.765 114.362 109.286 114.741 108.808C116.149 107.03 117.566 105.27 118.993 103.527C119.582 102.813 120.171 102.1 120.76 101.392C121.603 100.374 122.444 99.3733 123.291 98.3728C124.731 96.6758 126.176 95.0015 127.629 93.3448C129.656 93.3092 131.699 93.286 133.768 93.2872C135.836 93.2885 137.932 93.3086 140.042 93.3467C142.159 93.3852 144.29 93.4472 146.448 93.5282C147.392 93.5636 148.337 93.6046 149.286 93.6516C150.236 93.6931 151.191 93.7405 152.151 93.7995C152.43 93.8104 152.715 93.8273 152.994 93.8437C154.417 93.9281 155.834 94.0176 157.238 94.1229C158.008 94.178 158.777 94.2332 159.546 94.2939C161.713 94.465 163.857 94.6565 165.982 94.8634C168.113 95.0763 170.22 95.3041 172.303 95.5468C174.397 95.7959 176.462 96.0539 178.515 96.3333C179.413 98.1645 180.298 100.023 181.176 101.897C182.053 103.782 182.918 105.684 183.769 107.612C184.169 108.515 184.563 109.418 184.957 110.327C185.407 111.368 185.851 112.415 186.289 113.472C187.12 115.454 187.932 117.452 188.731 119.476C189.535 121.507 190.316 123.541 191.07 125.574C191.833 127.618 192.569 129.66 193.288 131.706C194.001 133.752 194.697 135.802 195.37 137.855C196.044 139.909 196.695 141.961 197.329 144.017C196.062 145.929 194.779 147.84 193.467 149.754C192.156 151.662 190.822 153.574 189.46 155.484C188.098 157.394 186.72 159.302 185.313 161.209C183.907 163.115 182.478 165.02 181.028 166.917C179.577 168.815 178.117 170.694 176.647 172.551C175.177 174.408 173.698 176.241 172.215 178.058C170.727 179.868 169.228 181.661 167.732 183.432C166.229 185.202 164.718 186.949 163.203 188.668C161.07 188.634 158.921 188.576 156.752 188.5C154.594 188.425 152.415 188.325 150.221 188.208C148.033 188.086 145.835 187.946 143.616 187.782C141.403 187.618 139.175 187.431 136.933 187.215C134.696 187.005 132.488 186.769 130.305 186.513C128.583 186.316 126.873 186.102 125.186 185.874C124.742 185.822 124.304 185.76 123.866 185.703C121.752 185.413 119.663 185.103 117.608 184.784C115.548 184.46 113.523 184.121 111.521 183.773C110.679 181.862 109.856 179.936 109.045 177.995C108.233 176.058 107.44 174.101 106.665 172.129C105.884 170.162 105.127 168.179 104.382 166.181C104.1 165.422 103.817 164.667 103.541 163.902C103.265 163.143 102.994 162.384 102.729 161.625ZM85.9354 150.207C86.3061 151.477 86.6824 152.747 87.0642 154.018C87.4512 155.295 87.8442 156.566 88.2479 157.844C88.6461 159.122 89.0605 160.406 89.4809 161.686C89.9013 162.965 90.3325 164.251 90.7752 165.532C91.2174 166.819 91.6717 168.095 92.132 169.367C92.5919 170.644 93.0582 171.91 93.5305 173.171C94.0084 174.433 94.4863 175.694 94.9762 176.946C95.144 177.378 95.3117 177.81 95.4794 178.243C95.8011 179.067 96.1289 179.887 96.4571 180.7C95.7801 180.541 95.1143 180.382 94.4484 180.223C93.0014 179.874 91.572 179.516 90.1713 179.148C88.1224 178.612 86.1142 178.057 84.1519 177.488C82.1952 176.92 80.2787 176.339 78.4031 175.738C76.527 175.143 74.6972 174.529 72.9078 173.901C73.8684 171.96 74.8578 170.009 75.8814 168.05C76.9051 166.091 77.9579 164.118 79.0446 162.142C80.1309 160.171 81.2463 158.186 82.3961 156.192C83.5454 154.204 84.7234 152.207 85.9354 150.207ZM87.3572 96.8942C89.2945 96.5721 91.2583 96.2689 93.2598 95.9854C93.7589 95.913 94.2636 95.8411 94.7678 95.7747C96.0151 95.5994 97.2723 95.4415 98.5517 95.2855C98.8235 95.251 99.0949 95.2222 99.3668 95.1877C100.928 95.0092 102.512 94.838 104.111 94.6737C104.371 94.6495 104.631 94.6253 104.896 94.6015C105.157 94.5718 105.416 94.5476 105.682 94.5238C107.822 94.324 110 94.1494 112.21 93.9942C111.306 95.0851 110.401 96.1817 109.495 97.2837C108.589 98.3914 107.689 99.4994 106.793 100.613C105.898 101.728 105.002 102.853 104.116 103.984C103.225 105.115 102.339 106.253 101.458 107.407C100.577 108.556 99.7065 109.705 98.8416 110.861C97.9827 112.011 97.1289 113.168 96.2863 114.325C95.4385 115.476 94.6014 116.634 93.7755 117.793C92.944 118.951 92.1176 120.115 91.3028 121.275C90.8572 119.177 90.4442 117.094 90.0582 115.024C90.0263 114.859 89.9949 114.689 89.9686 114.525C89.6697 112.914 89.3921 111.316 89.1309 109.725C89.0803 109.442 89.0354 109.159 88.9905 108.876C88.6631 106.844 88.3623 104.831 88.0884 102.831C87.8197 100.837 87.578 98.8564 87.3572 96.8942ZM182.533 185.064C183.488 183.904 184.438 182.733 185.384 181.556C186.329 180.379 187.269 179.196 188.204 178.001C189.145 176.807 190.075 175.6 191.001 174.388C191.932 173.176 192.847 171.958 193.75 170.744C194.654 169.524 195.552 168.304 196.439 167.083C197.325 165.862 198.202 164.635 199.072 163.413C199.942 162.19 200.807 160.962 201.661 159.739C202.223 161.985 202.759 164.223 203.255 166.453C203.757 168.689 204.232 170.912 204.674 173.126C205.111 175.34 205.525 177.541 205.907 179.734C206.192 181.382 206.461 183.019 206.713 184.654C206.799 185.197 206.88 185.74 206.96 186.283C206.416 186.357 205.867 186.425 205.318 186.494C203.698 186.696 202.057 186.89 200.4 187.067C198.189 187.306 195.941 187.525 193.666 187.714C191.392 187.904 189.091 188.069 186.754 188.203C184.422 188.343 182.064 188.453 179.669 188.538C180.629 187.384 181.583 186.23 182.533 185.064ZM211.36 120.888C210.928 121.67 210.491 122.451 210.048 123.232C208.882 125.292 207.676 127.359 206.441 129.436C205.989 128.126 205.532 126.821 205.068 125.522C204.605 124.217 204.135 122.917 203.655 121.616C203.18 120.321 202.693 119.025 202.196 117.728C201.698 116.437 201.194 115.146 200.674 113.858C200.158 112.572 199.637 111.295 199.104 110.024C198.576 108.758 198.036 107.503 197.495 106.253C196.954 105.009 196.407 103.77 195.854 102.536C195.301 101.308 194.747 100.085 194.187 98.8669C196.446 99.2967 198.67 99.7461 200.853 100.215C201.069 100.26 201.283 100.31 201.498 100.355L201.504 100.355C203.471 100.79 205.404 101.233 207.314 101.691C209.432 102.205 211.514 102.738 213.562 103.286C215.616 103.839 217.628 104.406 219.606 104.992C218.653 106.984 217.659 108.985 216.631 110.999C215.922 112.391 215.195 113.786 214.456 115.187C214.12 115.82 213.785 116.453 213.443 117.085C212.76 118.35 212.072 119.614 211.36 120.888ZM153.531 66.7211C155.158 65.2177 156.787 63.7536 158.409 62.3224C159.525 63.8803 160.626 65.4816 161.725 67.1108C162.824 68.7455 163.914 70.4187 164.991 72.1243C166.078 73.8363 167.146 75.5803 168.21 77.3632C168.993 78.6712 169.763 79.995 170.531 81.341C170.812 81.8326 171.087 82.3237 171.368 82.8208C170.628 82.7457 169.894 82.671 169.148 82.6009L169.142 82.6005C168.547 82.5423 167.946 82.4893 167.344 82.4362C166.003 82.3135 164.655 82.196 163.301 82.0891C161.947 81.9822 160.588 81.8749 159.221 81.7894C157.861 81.6932 156.488 81.6127 155.109 81.5374C153.736 81.4625 152.361 81.3988 150.997 81.347C149.639 81.2901 148.281 81.2443 146.932 81.2105C145.584 81.1712 144.241 81.1434 142.902 81.1215C141.564 81.0997 140.237 81.0843 138.909 81.069C140.528 79.3805 142.15 77.7203 143.77 76.0934C145.396 74.467 147.018 72.8739 148.65 71.3094C150.276 69.75 151.899 68.2184 153.531 66.7211ZM87.7136 54.2384C88.5425 49.4196 89.6732 45.1108 91.0836 41.3773C92.4936 37.6494 94.1787 34.4853 96.1224 31.9507C98.0657 29.4217 100.263 27.5106 102.702 26.2949C103.31 25.9908 103.936 25.7273 104.581 25.5044C105.221 25.2867 105.88 25.104 106.558 24.9675C107.231 24.825 107.923 24.7287 108.628 24.6671C109.333 24.611 110.052 24.5951 110.785 24.6194C112.994 24.6876 115.331 25.1291 117.774 25.9255C120.218 26.7219 122.772 27.8792 125.406 29.3892C128.051 30.9001 130.78 32.7696 133.571 34.985C136.372 37.2068 139.236 39.7799 142.145 42.6976C142.935 43.492 143.723 44.3086 144.503 45.147C144.513 45.159 144.529 45.1714 144.539 45.1834C145.315 46.0158 146.083 46.8644 146.855 47.7413C147.632 48.6241 148.413 49.5295 149.186 50.4512C149.966 51.3734 150.744 52.3122 151.516 53.2616C151.431 53.3332 151.347 53.4048 151.263 53.482C148.979 55.4923 146.69 57.5749 144.401 59.719C142.029 61.9347 139.662 64.218 137.296 66.5627C134.935 68.9079 132.575 71.3147 130.222 73.7778C127.875 76.2414 125.528 78.7665 123.2 81.3489C119.915 81.4809 116.683 81.656 113.497 81.8851C110.334 82.1049 107.229 82.3795 104.171 82.6969C104.154 82.7012 104.131 82.6994 104.114 82.7036C101.05 83.0206 98.0333 83.386 95.0748 83.7895C92.1214 84.1991 89.2267 84.6468 86.3897 85.1437C86.323 83.8587 86.2609 82.5853 86.2151 81.3187C86.1633 80.0572 86.1278 78.8026 86.1085 77.5549C86.0833 76.3123 86.0739 75.0821 86.0803 73.8643C86.0867 72.6466 86.109 71.4412 86.1466 70.2539C86.3484 64.43 86.8778 59.0734 87.7136 54.2384ZM56.4527 167.221L56.4471 167.22C52.7867 165.506 49.4119 163.726 46.309 161.91C46.0516 161.761 45.8003 161.608 45.5489 161.454C45.0239 161.144 44.5105 160.83 44.0026 160.516C43.9649 160.496 43.9333 160.471 43.8956 160.451C42.9231 159.844 41.979 159.233 41.0632 158.618C40.5948 158.302 40.1324 157.98 39.6755 157.659C39.4469 157.502 39.2243 157.339 39.0017 157.176C38.773 157.018 38.5504 156.855 38.3334 156.693C38.1103 156.535 37.8988 156.373 37.6818 156.211C37.6496 156.192 37.618 156.167 37.5863 156.142C37.4065 156.005 37.2267 155.868 37.0473 155.725C36.8354 155.569 36.6239 155.407 36.4185 155.239C36.2126 155.078 36.0067 154.916 35.8063 154.755C35.1997 154.271 34.6159 153.784 34.0492 153.292C33.75 153.034 33.4564 152.776 33.1688 152.513C32.8808 152.255 32.5927 151.998 32.3163 151.736C32.0916 151.528 31.8729 151.315 31.6542 151.102C31.4351 150.895 31.222 150.683 31.0089 150.47C30.3803 149.839 29.7851 149.211 29.2187 148.574C29.0274 148.369 28.8478 148.159 28.6685 147.944C28.396 147.632 28.1295 147.315 27.8801 146.993C27.6192 146.676 27.375 146.361 27.1419 146.046C27.1171 146.005 27.0863 145.969 27.0555 145.933C26.8122 145.607 26.58 145.281 26.3538 144.95C26.3192 144.892 26.2786 144.838 26.2384 144.779C26.0921 144.572 25.9519 144.36 25.8228 144.148C25.5787 143.76 25.3398 143.378 25.1124 142.991L25.0534 142.886C24.9355 142.676 24.8175 142.465 24.7052 142.255C24.4804 141.835 24.2724 141.416 24.0811 140.999C24.0333 140.894 23.9854 140.79 23.9376 140.686C23.8842 140.581 23.8419 140.477 23.7997 140.373C23.6528 140.032 23.5171 139.691 23.3925 139.352C23.3272 139.185 23.268 139.012 23.2138 138.846C23.163 138.708 23.1183 138.564 23.0731 138.427C23.0377 138.307 23.0028 138.181 22.9674 138.061C22.9005 137.843 22.8452 137.621 22.7894 137.404C22.78 137.381 22.7766 137.353 22.7677 137.324C22.7175 137.108 22.6673 136.892 22.6226 136.676C22.569 136.431 22.5266 136.187 22.4897 135.944C22.4473 135.701 22.416 135.458 22.3903 135.215C22.3666 135.018 22.3481 134.827 22.3356 134.63C22.3369 134.613 22.3326 134.596 22.3339 134.58C22.3238 134.495 22.3197 134.405 22.3151 134.321C22.293 133.962 22.2876 133.604 22.299 133.247C22.2974 133.196 22.2957 133.146 22.2997 133.096C22.3014 133.074 22.3032 133.051 22.3054 133.024C22.3118 132.801 22.3242 132.573 22.3417 132.35C22.3645 132.062 22.3984 131.774 22.438 131.486C22.4719 131.198 22.5221 130.917 22.5779 130.637C22.6592 130.246 22.7516 129.857 22.8663 129.469C22.9211 129.272 22.9814 129.076 23.0474 128.88C23.1129 128.689 23.1784 128.499 23.2554 128.304C23.2563 128.293 23.2632 128.277 23.2701 128.26C23.3347 128.081 23.4105 127.903 23.4866 127.719C23.5633 127.529 23.6459 127.334 23.7397 127.141C23.8137 126.984 23.8882 126.823 23.9682 126.661C24.1751 126.242 24.4043 125.824 24.6507 125.402C24.7663 125.215 24.8824 125.023 25.004 124.832C25.1192 124.651 25.2349 124.464 25.3612 124.284C25.4945 124.088 25.6337 123.887 25.7781 123.691C25.9044 123.511 26.0363 123.332 26.1738 123.153C26.1863 123.137 26.1987 123.121 26.2112 123.105C26.3491 122.921 26.4982 122.737 26.6473 122.553C26.7908 122.369 26.9454 122.185 27.1056 122.002C27.2667 121.808 27.4329 121.62 27.6052 121.427C30.2913 118.437 33.9559 115.552 38.4874 112.836C43.03 110.121 48.4562 107.576 54.6648 105.278C60.8905 102.975 67.9152 100.92 75.6377 99.188C75.9332 102.05 76.2873 104.951 76.7006 107.884C77.1134 110.822 77.5793 113.798 78.1051 116.796C78.1624 117.136 78.2257 117.471 78.2885 117.811C78.7614 120.486 79.2831 123.182 79.8476 125.903C80.4912 128.972 81.1832 132.066 81.9352 135.182C80.0564 138.102 78.2286 141.015 76.463 143.921C74.6918 146.827 72.9827 149.726 71.3363 152.614C69.6899 155.502 68.1005 158.377 66.5793 161.242C65.0525 164.105 63.5943 166.952 62.1992 169.781C60.2129 168.948 58.3013 168.093 56.4582 167.221L56.4527 167.221ZM117.507 231.741C116.374 232.59 115.254 233.43 114.13 234.241C113.012 235.058 111.895 235.852 110.78 236.625C109.671 237.392 108.564 238.138 107.464 238.856C103.403 241.508 99.5046 243.805 95.7919 245.736C92.0909 247.662 88.5803 249.235 85.2843 250.433C82.2534 251.541 79.404 252.338 76.7651 252.812C76.543 252.856 76.3213 252.894 76.1056 252.927C73.2885 253.387 70.7189 253.48 68.426 253.193C67.6653 253.099 66.9359 252.964 66.238 252.786C65.54 252.608 64.8785 252.393 64.2432 252.131L64.2377 252.13C63.6024 251.868 62.9981 251.569 62.4307 251.228C61.8637 250.881 61.3277 250.498 60.8235 250.067C58.8174 248.349 57.3315 245.935 56.3608 242.891C55.3947 239.859 54.9433 236.202 55.0004 231.998C55.0622 227.806 55.6269 223.067 56.7052 217.86C57.7774 212.658 59.3519 206.987 61.4287 200.92C61.8519 199.68 62.3033 198.436 62.7727 197.176C63.2362 195.922 63.7284 194.658 64.2326 193.385C64.7368 192.112 65.2586 190.828 65.7975 189.541C66.0257 188.994 66.2594 188.448 66.4875 187.902C66.5969 187.654 66.7006 187.405 66.8043 187.156C67.017 186.664 67.23 186.167 67.4431 185.669C70.0765 186.615 72.7909 187.528 75.5753 188.407C78.3652 189.287 81.2307 190.133 84.1725 190.935C87.119 191.749 90.1363 192.518 93.224 193.248C96.3173 193.979 99.4805 194.675 102.709 195.327C103.847 197.82 105.009 200.275 106.197 202.7C106.443 203.216 106.699 203.728 106.95 204.24C108.401 207.171 109.889 210.049 111.405 212.868C112.926 215.693 114.479 218.464 116.059 221.176C117.644 223.889 119.257 226.542 120.903 229.131C119.768 230.014 118.634 230.885 117.507 231.741ZM138.505 214.102C137.743 214.807 136.988 215.502 136.232 216.191C134.542 217.723 132.853 219.222 131.174 220.682C130.046 218.916 128.926 217.123 127.826 215.293C126.725 213.468 125.638 211.616 124.565 209.727C123.491 207.842 122.437 205.932 121.396 203.989C120.355 202.051 119.333 200.082 118.325 198.08C119.655 198.28 120.99 198.474 122.338 198.665C123.68 198.849 125.039 199.034 126.399 199.203C127.765 199.378 129.142 199.548 130.525 199.708C131.909 199.862 133.304 200.016 134.706 200.155C136.114 200.294 137.516 200.427 138.914 200.549C140.311 200.67 141.71 200.781 143.104 200.879C144.497 200.984 145.891 201.077 147.281 201.164C148.67 201.252 150.054 201.328 151.439 201.398C149.753 203.148 148.065 204.864 146.373 206.547C145.26 207.65 144.148 208.741 143.037 209.816C142.455 210.373 141.879 210.926 141.303 211.478C140.369 212.366 139.437 213.237 138.505 214.102ZM208.297 234.621C207.543 240.195 206.411 245.163 204.929 249.444C203.447 253.736 201.615 257.336 199.458 260.161C197.306 262.992 194.833 265.049 192.069 266.256C191.378 266.559 190.669 266.81 189.941 267.01C189.213 267.21 188.461 267.357 187.697 267.453C186.933 267.549 186.149 267.599 185.348 267.592C184.546 267.59 183.727 267.536 182.894 267.432C181.878 267.307 180.839 267.107 179.779 266.834C178.224 266.437 176.624 265.886 174.987 265.181C174.2 264.845 173.4 264.469 172.597 264.059C172.468 263.993 172.338 263.927 172.204 263.855C171.972 263.736 171.735 263.611 171.499 263.481C171.273 263.362 171.047 263.238 170.822 263.109C170.736 263.063 170.655 263.018 170.57 262.966C170.312 262.823 170.055 262.674 169.792 262.514C169.117 262.119 168.433 261.691 167.745 261.245C167.553 261.124 167.361 260.997 167.17 260.865C166.924 260.706 166.674 260.535 166.424 260.364C166.393 260.34 166.355 260.32 166.323 260.295C165.988 260.067 165.653 259.834 165.319 259.59C164.565 259.055 163.809 258.487 163.042 257.896C163.037 257.89 163.032 257.889 163.026 257.883C163.026 257.883 163.021 257.883 163.021 257.877C162.672 257.609 162.319 257.33 161.971 257.051C161.971 257.045 161.966 257.045 161.966 257.045C161.586 256.741 161.212 256.432 160.833 256.117C160.46 255.808 160.081 255.488 159.703 255.162L159.698 255.162C159.336 254.848 158.969 254.528 158.602 254.203C158.209 253.848 157.806 253.492 157.408 253.125C156.901 252.661 156.395 252.185 155.884 251.697C155.373 251.21 154.857 250.711 154.343 250.201C153.828 249.691 153.313 249.175 152.8 248.643C152.603 248.443 152.411 248.249 152.22 248.044C152.028 247.844 151.836 247.645 151.64 247.434C151.251 247.029 150.864 246.613 150.471 246.19C150.084 245.769 149.686 245.34 149.294 244.902C148.908 244.474 148.521 244.041 148.136 243.603C147.292 242.642 146.456 241.66 145.621 240.649C144.792 239.645 143.966 238.613 143.14 237.564C142.315 236.516 141.496 235.451 140.684 234.37C139.867 233.288 139.062 232.191 138.253 231.082C138.812 230.601 139.372 230.114 139.932 229.622C140.823 228.848 141.71 228.057 142.591 227.261C143.64 226.327 144.685 225.381 145.725 224.418C148.222 222.123 150.714 219.749 153.205 217.308C153.685 216.837 154.171 216.361 154.652 215.879C155.133 215.398 155.614 214.916 156.095 214.434C157.623 212.912 159.141 211.355 160.662 209.776C161.615 208.784 162.569 207.781 163.512 206.766C164.026 206.225 164.534 205.684 165.037 205.142C166.053 204.055 167.066 202.95 168.073 201.839C171.598 201.855 175.089 201.812 178.544 201.716C182 201.619 185.421 201.47 188.796 201.262C192.181 201.06 195.515 200.797 198.803 200.487C202.096 200.171 205.338 199.807 208.527 199.388C208.655 200.829 208.777 202.263 208.883 203.686C208.989 205.113 209.079 206.534 209.158 207.943C209.227 209.201 209.28 210.445 209.323 211.678C209.334 211.83 209.339 211.981 209.343 212.133C209.385 213.522 209.412 214.893 209.411 216.245C209.429 222.914 209.05 229.064 208.297 234.621ZM280.398 150.385C279.911 153.861 278.109 157.301 275.112 160.608C272.115 163.914 267.934 167.082 262.701 170.022C257.474 172.957 251.216 175.665 244.047 178.056C239.942 179.425 235.541 180.693 230.871 181.833C227.434 182.685 223.846 183.463 220.124 184.164C219.646 180.98 219.098 177.768 218.495 174.535C217.887 171.308 217.224 168.059 216.495 164.794C215.765 161.534 214.976 158.253 214.131 154.967C213.285 151.687 212.379 148.396 211.417 145.096C212.108 144.011 212.788 142.924 213.462 141.843C214.701 139.862 215.905 137.889 217.081 135.914C217.153 135.791 217.229 135.669 217.301 135.546C219.046 132.621 220.728 129.703 222.347 126.802C223.144 125.373 223.93 123.943 224.692 122.522C225.461 121.096 226.212 119.674 226.946 118.263C227.031 118.107 227.111 117.952 227.19 117.796C228.189 115.868 229.154 113.949 230.089 112.039C230.344 111.517 230.598 110.995 230.852 110.479C231.106 109.957 231.354 109.44 231.602 108.923C233.587 109.639 235.519 110.372 237.4 111.119C237.993 111.356 238.585 111.592 239.166 111.834C239.563 111.994 239.953 112.159 240.338 112.323C240.729 112.483 241.12 112.647 241.5 112.812C242.416 113.208 243.326 113.604 244.22 114.004C244.647 114.2 245.075 114.39 245.497 114.591C245.724 114.693 245.952 114.795 246.179 114.902C246.314 114.963 246.443 115.029 246.579 115.09C248.011 115.768 249.403 116.453 250.756 117.141C251.063 117.3 251.37 117.458 251.677 117.622C252.07 117.826 252.463 118.03 252.851 118.24C253.372 118.521 253.888 118.802 254.393 119.082C254.812 119.311 255.22 119.544 255.628 119.778C255.934 119.953 256.234 120.122 256.529 120.296C257.167 120.665 257.798 121.045 258.413 121.423C258.59 121.526 258.761 121.629 258.927 121.737C259.242 121.93 259.558 122.128 259.867 122.325C260.315 122.612 260.758 122.899 261.195 123.185C261.515 123.394 261.829 123.604 262.138 123.818C262.724 124.205 263.292 124.602 263.844 124.998C264.168 125.224 264.481 125.45 264.794 125.682C264.868 125.738 264.942 125.794 265.017 125.845C265.387 126.12 265.747 126.394 266.106 126.668C266.556 127.011 266.988 127.358 267.415 127.705C267.674 127.904 267.927 128.114 268.174 128.324C268.321 128.441 268.469 128.565 268.61 128.688C269.561 129.495 270.456 130.303 271.3 131.119C271.457 131.265 271.613 131.417 271.764 131.569C272.887 132.68 273.909 133.795 274.824 134.918C274.993 135.121 275.151 135.318 275.309 135.52C275.34 135.556 275.365 135.592 275.396 135.628C276.434 136.962 277.327 138.295 278.057 139.632C278.606 140.631 279.065 141.634 279.435 142.625C280.416 145.262 280.749 147.864 280.398 150.385Z" fill="#58C4DC"/>
<path d="M170.4 141.953C169.801 145.566 168.513 148.957 166.698 151.988C164.878 155.024 162.53 157.7 159.824 159.884C157.111 162.067 154.046 163.759 150.777 164.825C147.514 165.892 144.058 166.34 140.573 166.037C140.3 166.016 140.027 165.983 139.761 165.951C139.505 165.919 139.25 165.888 138.995 165.846L138.929 165.84C138.702 165.8 138.48 165.766 138.254 165.72C138.176 165.708 138.099 165.697 138.022 165.679C137.807 165.634 137.597 165.596 137.388 165.546C137.178 165.501 136.974 165.451 136.771 165.396C136.645 165.37 136.518 165.337 136.392 165.299C136.2 165.245 136.008 165.191 135.822 165.137C135.592 165.068 135.362 164.994 135.133 164.915C134.903 164.841 134.68 164.762 134.457 164.677C134.407 164.662 134.358 164.641 134.309 164.626C134.113 164.549 133.918 164.472 133.727 164.396C133.483 164.293 133.239 164.19 132.996 164.076C132.795 163.987 132.601 163.894 132.406 163.8C131.98 163.593 131.56 163.37 131.153 163.137C130.981 163.039 130.81 162.936 130.638 162.833C130.473 162.731 130.301 162.628 130.136 162.52C129.97 162.417 129.805 162.304 129.64 162.196C129.465 162.076 129.289 161.95 129.12 161.825C127.227 160.452 125.569 158.79 124.205 156.899C122.369 154.368 121.053 151.442 120.346 148.257C119.672 145.214 119.566 141.942 120.107 138.57C120.135 138.421 120.159 138.267 120.188 138.112C120.814 134.58 122.102 131.267 123.888 128.306C125.675 125.346 127.967 122.733 130.604 120.582C132.563 118.988 134.715 117.655 136.994 116.627C137.79 116.266 138.606 115.944 139.43 115.663C142.623 114.568 146.025 114.077 149.467 114.304C152.925 114.532 156.103 115.47 158.894 116.97C160.518 117.847 162.01 118.909 163.348 120.133C163.453 120.23 163.552 120.322 163.656 120.42C163.682 120.45 163.714 120.475 163.739 120.505C163.855 120.609 163.964 120.718 164.072 120.833C164.348 121.106 164.617 121.39 164.88 121.684C165.03 121.847 165.173 122.015 165.311 122.182C165.547 122.463 165.777 122.75 166.001 123.041C166.595 123.82 167.141 124.646 167.634 125.506C167.733 125.67 167.826 125.84 167.919 126.015C168.047 126.243 168.168 126.482 168.284 126.72C168.341 126.842 168.404 126.97 168.462 127.092C168.577 127.33 168.687 127.573 168.791 127.822C168.862 127.984 168.934 128.146 168.999 128.308C169.094 128.533 169.182 128.763 169.265 128.994C169.348 129.218 169.43 129.454 169.507 129.683C169.584 129.918 169.661 130.154 169.732 130.388C169.875 130.852 170 131.326 170.114 131.804C170.235 132.328 170.345 132.856 170.431 133.394C170.454 133.53 170.476 133.672 170.493 133.813C170.536 134.056 170.567 134.305 170.592 134.553C170.63 134.852 170.662 135.162 170.688 135.465C170.854 137.557 170.772 139.736 170.4 141.953Z" fill="#58C4DC"/>
<path d="M129.12 161.825C129.29 161.95 129.465 162.075 129.64 162.195C129.539 162.126 129.438 162.057 129.332 161.981C129.263 161.931 129.194 161.881 129.12 161.825Z" fill="#58C4DC"/>
<path d="M170.08 131.662C170.093 131.708 170.101 131.753 170.114 131.804C170 131.326 169.875 130.852 169.732 130.388C169.862 130.806 169.979 131.235 170.08 131.662Z" fill="#58C4DC"/>
</g>
<defs>
<clipPath id="clip0_6004_10576">
<rect width="294.709" height="273.794" fill="white" transform="translate(21.5469 0.0834961) rotate(4.51342)"/>
</clipPath>
</defs>
</svg>
