<svg width="153" height="170" viewBox="0 0 153 170" fill="none" xmlns="http://www.w3.org/2000/svg">
<g clip-path="url(#clip0_1036_5530)">
<path d="M152.148 118.293V51.6972C152.148 45.1177 148.642 39.0443 142.946 35.7591L85.2761 2.46582C79.5799 -0.819336 72.5679 -0.819336 66.8718 2.46582L9.20212 35.7591C3.50601 39.0535 0 45.1269 0 51.6972V118.293C0 124.872 3.50601 130.946 9.20212 134.231L66.8718 167.524C72.5679 170.809 79.5799 170.809 85.2761 167.524L142.946 134.231C148.642 130.946 152.148 124.863 152.148 118.293Z" fill="#E1E1E1" fill-opacity="0.06"/>
<path fill-rule="evenodd" clip-rule="evenodd" d="M89.2327 105.944C89.6192 105.226 89.8125 104.361 89.8125 103.34V103.33C89.8125 102.309 89.6192 101.444 89.2327 100.726C88.8463 100.008 88.3217 99.4563 87.6592 99.0882C86.9966 98.7201 86.2605 98.5269 85.4231 98.5269C84.5857 98.5269 83.8403 98.7109 83.1778 99.0882C82.5152 99.4655 81.9907 100.008 81.6042 100.726C81.2177 101.444 81.0245 102.309 81.0245 103.33C81.0245 104.352 81.2177 105.217 81.6042 105.935C81.9907 106.643 82.5152 107.195 83.1778 107.573C83.8403 107.95 84.5949 108.143 85.4231 108.143C86.2513 108.143 86.9966 107.959 87.6592 107.582C88.3217 107.204 88.8463 106.662 89.2327 105.944ZM87.512 101.665C87.7052 102.116 87.8064 102.677 87.8064 103.34C87.8064 104.002 87.7052 104.563 87.512 105.014C87.3187 105.465 87.0426 105.806 86.6838 106.045C86.3249 106.275 85.9108 106.395 85.4323 106.395C84.9538 106.395 84.5397 106.275 84.1808 106.045C83.8219 105.815 83.5458 105.465 83.3526 105.014C83.1594 104.563 83.0581 104.002 83.0581 103.34C83.0581 102.677 83.1594 102.116 83.3526 101.665C83.5458 101.214 83.8219 100.864 84.1808 100.634C84.5397 100.404 84.9538 100.284 85.4323 100.284C85.9108 100.284 86.3249 100.404 86.6838 100.634C87.0426 100.864 87.3187 101.214 87.512 101.665ZM33.0265 108.024H36.3485V108.014C37.3055 108.014 38.1245 107.83 38.8054 107.453C39.4956 107.085 40.0201 106.542 40.3882 105.843C40.7563 105.143 40.9403 104.297 40.9403 103.33C40.9403 102.364 40.7563 101.527 40.3882 100.828C40.0201 100.128 39.4956 99.5944 38.8146 99.2171C38.1337 98.8399 37.3147 98.6558 36.3761 98.6558H33.0265V108.024ZM36.2656 106.33H35.005V100.358H36.2656C36.8546 100.358 37.3515 100.469 37.7472 100.671C38.1429 100.874 38.4466 101.196 38.649 101.637C38.8514 102.07 38.9527 102.631 38.9527 103.33C38.9527 104.03 38.8514 104.6 38.649 105.042C38.4466 105.484 38.1521 105.806 37.7472 106.018C37.3423 106.229 36.8546 106.33 36.2656 106.33ZM43.6916 98.6558V108.014H50.0227V106.386H45.6701V104.149H49.673V102.521H45.6701V100.285H50.0043V98.6558H43.6916ZM54.5592 98.6558L56.823 105.778H56.9058L59.1787 98.6558H61.378L58.1481 108.024H55.5991L52.3599 98.6558H54.5592ZM63.7889 98.6558V108.014H70.12V106.386H65.7674V104.149H69.7703V102.521H65.7674V100.285H70.1016V98.6558H63.7889ZM72.9726 108.024V98.6558H74.951V106.395H78.9724V108.024H72.9726ZM92.564 108.024V98.6558H96.2632C96.9718 98.6558 97.5791 98.7938 98.076 99.0607C98.5729 99.3276 98.9594 99.7049 99.2263 100.183C99.4932 100.662 99.622 101.214 99.622 101.831C99.622 102.447 99.484 102.999 99.2171 103.478C98.9502 103.956 98.5637 104.324 98.0484 104.591C97.5423 104.858 96.9258 104.987 96.208 104.987H94.5516V108.014H92.5732L92.564 108.024ZM95.8859 103.395H94.5516V100.266H95.8859C96.2632 100.266 96.5853 100.331 96.8337 100.459C97.0822 100.588 97.2754 100.772 97.3951 101.002C97.5147 101.242 97.5791 101.508 97.5791 101.821C97.5791 102.134 97.5239 102.401 97.3951 102.64C97.2662 102.88 97.0822 103.064 96.8337 103.192C96.5853 103.33 96.2632 103.395 95.8859 103.395ZM102.199 98.6558V108.014H108.53V106.386H104.177V104.149H108.18V102.521H104.177V100.285H108.511V98.6558H102.199ZM114.704 108.024H111.382V98.6558H114.732C115.671 98.6558 116.49 98.8399 117.171 99.2171C117.852 99.5944 118.376 100.128 118.744 100.828C119.112 101.527 119.296 102.364 119.296 103.33C119.296 104.297 119.112 105.143 118.744 105.843C118.376 106.542 117.852 107.085 117.161 107.453C116.48 107.83 115.661 108.014 114.704 108.014V108.024ZM113.361 106.33H114.622C115.211 106.33 115.698 106.229 116.103 106.018C116.508 105.806 116.803 105.484 117.005 105.042C117.207 104.6 117.309 104.03 117.309 103.33C117.309 102.631 117.207 102.07 117.005 101.637C116.803 101.196 116.499 100.874 116.103 100.671C115.707 100.469 115.211 100.358 114.622 100.358H113.361V106.33ZM31.2598 115.22V124.587L31.269 124.606H35.2719C35.9713 124.606 36.5602 124.495 37.0387 124.265C37.5172 124.044 37.8761 123.732 38.1245 123.345C38.373 122.959 38.4926 122.517 38.4926 122.02C38.4926 121.551 38.3914 121.155 38.1982 120.824C38.0049 120.492 37.7473 120.226 37.4344 120.042C37.1215 119.857 36.7902 119.756 36.4314 119.738V119.646C36.7626 119.572 37.0479 119.443 37.3056 119.269C37.554 119.094 37.7565 118.864 37.9037 118.588C38.0509 118.312 38.1245 117.989 38.1245 117.621C38.1245 117.143 38.0049 116.729 37.7749 116.37C37.5448 116.011 37.1951 115.726 36.735 115.523C36.2749 115.321 35.7044 115.22 35.0142 115.22H31.2598ZM34.7106 119.14H33.2382V116.821H34.7474C35.1891 116.821 35.5295 116.922 35.7688 117.134C36.0081 117.345 36.1277 117.612 36.1277 117.953C36.1277 118.201 36.0725 118.413 35.9436 118.588C35.8148 118.762 35.6492 118.891 35.4375 118.992C35.2259 119.094 34.9866 119.14 34.7106 119.14ZM34.8486 122.968H33.2382V120.474H34.8946C35.2075 120.474 35.4835 120.529 35.7136 120.64C35.9436 120.759 36.1185 120.907 36.2473 121.109C36.3669 121.311 36.4314 121.541 36.4314 121.799C36.4314 122.149 36.3117 122.434 36.0541 122.646C35.8056 122.857 35.4007 122.968 34.8486 122.968ZM40.5077 115.22H42.7254L44.8603 119.25H44.9523L47.0872 115.22H49.3049L45.891 121.275V124.587H43.9217V121.275L40.5077 115.22ZM55.9581 115.22V124.578H62.2892V122.949H57.9366V120.713H61.9395V119.085H57.9366V116.848H62.2708V115.22H55.9581ZM66.9912 115.22L68.8776 118.413H68.9513L70.8469 115.22H73.083L70.2211 119.904L73.1474 124.587H70.8653L68.9421 121.385H68.8684L66.9452 124.587H64.6723L67.6077 119.904L64.7275 115.22H66.9728H66.9912ZM75.6321 115.22V124.587L75.6413 124.578H77.6198V121.551H79.2762C79.9939 121.551 80.6105 121.422 81.1166 121.155C81.6319 120.888 82.0184 120.52 82.2853 120.042C82.5521 119.563 82.6902 119.011 82.6902 118.394C82.6902 117.778 82.5613 117.226 82.2945 116.747C82.0276 116.269 81.6411 115.891 81.1442 115.625C80.6473 115.358 80.04 115.22 79.3314 115.22H75.6321ZM77.6198 119.959H78.9541C79.3314 119.959 79.6535 119.894 79.9019 119.756C80.1504 119.627 80.3344 119.443 80.4633 119.204C80.5921 118.965 80.6473 118.698 80.6473 118.385C80.6473 118.072 80.5829 117.805 80.4633 117.566C80.3436 117.336 80.1504 117.152 79.9019 117.023C79.6535 116.894 79.3314 116.83 78.9541 116.83H77.6198V119.959ZM85.267 124.578V115.22H91.5796V116.848H87.2454V119.085H91.2483V120.713H87.2454V122.949H91.598V124.578H85.267ZM94.4412 115.22V124.587H96.4197V121.275H97.866L99.6404 124.587H101.831L99.8444 120.953L99.883 120.935C99.8973 120.929 99.9116 120.922 99.9257 120.916C100.441 120.676 100.827 120.336 101.094 119.885C101.361 119.443 101.499 118.91 101.499 118.284C101.499 117.658 101.37 117.124 101.104 116.664C100.837 116.204 100.459 115.845 99.9533 115.597C99.4564 115.348 98.849 115.22 98.1405 115.22H94.4412ZM96.4197 119.683H97.7632C98.1405 119.683 98.4534 119.627 98.7018 119.526C98.9503 119.425 99.1343 119.269 99.2631 119.057C99.392 118.845 99.4472 118.588 99.4472 118.284C99.4472 117.98 99.3828 117.713 99.2631 117.493C99.1435 117.272 98.9503 117.115 98.7018 117.005C98.4534 116.894 98.1313 116.839 97.754 116.839H96.4197V119.683ZM103.827 116.858V115.229H111.52V116.858H108.649V124.597H106.689V116.858H103.827ZM118.698 117.06C118.974 117.263 119.131 117.548 119.167 117.916L119.177 117.925H121.072C121.063 117.364 120.916 116.876 120.621 116.453C120.327 116.03 119.922 115.698 119.407 115.459C118.891 115.22 118.266 115.1 117.585 115.1C116.904 115.1 116.287 115.22 115.753 115.459C115.21 115.698 114.787 116.03 114.483 116.453C114.18 116.876 114.033 117.373 114.033 117.944C114.033 118.634 114.253 119.186 114.714 119.591C115.164 119.996 115.79 120.299 116.582 120.493L117.603 120.75C117.943 120.833 118.229 120.925 118.468 121.026C118.707 121.127 118.891 121.247 119.011 121.394C119.131 121.542 119.195 121.716 119.195 121.928C119.195 122.149 119.131 122.351 118.992 122.526C118.854 122.701 118.661 122.83 118.413 122.931C118.164 123.032 117.879 123.078 117.539 123.078C117.198 123.078 116.885 123.023 116.618 122.922C116.351 122.821 116.131 122.664 115.974 122.453C115.809 122.241 115.717 121.983 115.698 121.67H113.784C113.793 122.342 113.959 122.904 114.272 123.364C114.585 123.815 115.017 124.164 115.579 124.394C116.14 124.624 116.793 124.744 117.557 124.744C118.321 124.744 118.974 124.624 119.517 124.394C120.06 124.164 120.474 123.842 120.759 123.419C121.045 122.996 121.192 122.499 121.192 121.928C121.192 121.532 121.118 121.183 120.98 120.888C120.842 120.594 120.649 120.327 120.4 120.106C120.152 119.885 119.857 119.701 119.517 119.545C119.177 119.388 118.799 119.269 118.394 119.177L117.557 118.974C117.345 118.928 117.161 118.873 116.977 118.809C116.793 118.744 116.637 118.671 116.499 118.579C116.361 118.486 116.259 118.385 116.177 118.256C116.094 118.128 116.066 117.98 116.066 117.815C116.066 117.612 116.121 117.428 116.241 117.272C116.351 117.106 116.526 116.987 116.747 116.895C116.968 116.802 117.244 116.756 117.566 116.756C118.045 116.756 118.422 116.858 118.698 117.06Z" fill="#E6E9FA" fill-opacity="0.5"/>
<path d="M77.8042 67.4516L84.8899 71.2705C87.5769 72.7152 90.7424 70.4147 90.1995 67.4148L88.7548 59.4917C88.5339 58.2863 88.9388 57.0532 89.8222 56.2066L95.6472 50.6485C97.8557 48.5412 96.641 44.8144 93.6227 44.4095L85.6444 43.3328C84.4298 43.1672 83.3807 42.4034 82.847 41.2991L79.3594 34.0387C78.0343 31.2872 74.1234 31.2872 72.7983 34.0387L69.3107 41.2991C68.777 42.4034 67.7279 43.1672 66.5132 43.3328L58.535 44.4095C55.5075 44.8144 54.302 48.5412 56.5105 50.6485L62.3355 56.2066C63.2189 57.0532 63.6238 58.2863 63.4029 59.4917L61.9582 67.4148C61.4153 70.4147 64.5808 72.7152 67.2678 71.2705L74.3534 67.4516C75.4301 66.8718 76.7276 66.8718 77.8042 67.4516Z" fill="#E6E9FA" fill-opacity="0.5"/>
</g>
<defs>
<clipPath id="clip0_1036_5530">
<rect width="152.148" height="170" fill="white"/>
</clipPath>
</defs>
</svg>
