<svg width="34" height="34" viewBox="0 0 34 34" fill="none" xmlns="http://www.w3.org/2000/svg">
<g clip-path="url(#clip0_409_10811)">
<path d="M28.7292 2H5.27117C3.69889 2 2.42432 3.31167 2.42432 4.92969V29.0703C2.42432 30.6883 3.69889 32 5.27117 32H28.7292C30.3015 32 31.5761 30.6883 31.5761 29.0703V4.92969C31.5761 3.31167 30.3015 2 28.7292 2Z" fill="#3178C6"/>
<path d="M28.7292 2H5.27117C3.69889 2 2.42432 3.31167 2.42432 4.92969V29.0703C2.42432 30.6883 3.69889 32 5.27117 32H28.7292C30.3015 32 31.5761 30.6883 31.5761 29.0703V4.92969C31.5761 3.31167 30.3015 2 28.7292 2Z" fill="#3178C6"/>
<path fill-rule="evenodd" clip-rule="evenodd" d="M20.4701 25.8725V28.8058C20.9334 29.0502 21.4814 29.2335 22.1141 29.3557C22.7468 29.4779 23.4136 29.5391 24.1146 29.5391C24.7978 29.5391 25.4467 29.4719 26.0616 29.3374C26.6765 29.203 27.2156 28.9814 27.679 28.6728C28.1423 28.3643 28.5092 27.9609 28.7794 27.4629C29.0497 26.9648 29.1849 26.3492 29.1849 25.6159C29.1849 25.0842 29.1077 24.6182 28.9532 24.218C28.7987 23.8177 28.576 23.4618 28.2849 23.1501C27.9938 22.8385 27.6448 22.5588 27.2379 22.3113C26.8309 22.0638 26.372 21.8301 25.8611 21.6102C25.4869 21.4512 25.1512 21.297 24.8542 21.1473C24.5572 20.9975 24.3047 20.8447 24.0968 20.6889C23.8888 20.5331 23.7284 20.3681 23.6156 20.1939C23.5027 20.0197 23.4463 19.8227 23.4463 19.6027C23.4463 19.4011 23.4968 19.2192 23.5978 19.0573C23.6988 18.8953 23.8414 18.7563 24.0255 18.6402C24.2097 18.5241 24.4354 18.434 24.7027 18.3698C24.9701 18.3056 25.2671 18.2736 25.5938 18.2736C25.8314 18.2736 26.0824 18.2919 26.3468 18.3286C26.6111 18.3652 26.877 18.4218 27.1443 18.4981C27.4116 18.5745 27.6715 18.6708 27.924 18.7869C28.1765 18.903 28.4096 19.0374 28.6235 19.1902V16.4495C28.1899 16.2784 27.7161 16.1516 27.2022 16.0691C26.6884 15.9866 26.0987 15.9453 25.4334 15.9453C24.7562 15.9453 24.1146 16.0202 23.5087 16.1699C22.9027 16.3196 22.3696 16.5533 21.9091 16.8711C21.4487 17.1889 21.0849 17.5937 20.8176 18.0857C20.5503 18.5776 20.4166 19.1657 20.4166 19.8502C20.4166 20.724 20.6616 21.4696 21.1518 22.0868C21.6418 22.704 22.3859 23.2265 23.3839 23.6543C23.776 23.8193 24.1414 23.9812 24.48 24.1401C24.8186 24.299 25.1112 24.464 25.3576 24.6351C25.6042 24.8062 25.7987 24.9925 25.9414 25.1942C26.0839 25.3958 26.1552 25.625 26.1552 25.8817C26.1552 26.0711 26.1106 26.2468 26.0215 26.4087C25.9324 26.5707 25.7973 26.7112 25.6161 26.8304C25.4349 26.9496 25.2092 27.0427 24.9389 27.1099C24.6685 27.1772 24.3522 27.2108 23.9898 27.2108C23.372 27.2108 22.7602 27.0993 22.1542 26.8762C21.5483 26.6532 20.9869 26.3186 20.4701 25.8725ZM15.6783 18.6454H19.3348V16.2383H9.14307V18.6454H12.7817V29.3633H15.6783V18.6454Z" fill="white"/>
</g>
<defs>
<clipPath id="clip0_409_10811">
<rect width="29.1517" height="30" fill="white" transform="translate(2.42432 2)"/>
</clipPath>
</defs>
</svg>
