<svg width="153" height="170" viewBox="0 0 153 170" fill="none" xmlns="http://www.w3.org/2000/svg">
<g clip-path="url(#clip0_418_21134)">
<path d="M152.234 118.293V51.6972C152.234 45.1177 148.728 39.0443 143.032 35.7591L85.3625 2.46582C79.6664 -0.819336 72.6544 -0.819336 66.9582 2.46582L9.28855 35.7591C3.59243 39.0535 0.0864258 45.1269 0.0864258 51.6972V118.293C0.0864258 124.872 3.59243 130.946 9.28855 134.231L66.9582 167.524C72.6544 170.809 79.6664 170.809 85.3625 167.524L143.032 134.231C148.728 130.946 152.234 124.863 152.234 118.293Z" fill="#07080E" fill-opacity="0.05"/>
<path fill-rule="evenodd" clip-rule="evenodd" d="M94.8032 103.34C94.8032 104.361 94.61 105.226 94.2235 105.944C93.837 106.662 93.3125 107.205 92.6499 107.582C91.9874 107.959 91.242 108.143 90.4138 108.143C89.5856 108.143 88.8311 107.95 88.1685 107.573C87.5059 107.196 86.9814 106.644 86.5949 105.935C86.2084 105.217 86.0152 104.352 86.0152 103.331C86.0152 102.309 86.2084 101.444 86.5949 100.727C86.9814 100.009 87.5059 99.4659 88.1685 99.0886C88.8311 98.7113 89.5764 98.5181 90.4138 98.5181C91.2512 98.5181 91.9874 98.7113 92.6499 99.0886C93.3125 99.4659 93.837 100.009 94.2235 100.727C94.61 101.444 94.8032 102.309 94.8032 103.331V103.34ZM92.7972 103.34C92.7972 102.677 92.6959 102.116 92.5027 101.665C92.3094 101.214 92.0334 100.865 91.6745 100.635C91.3156 100.405 90.9015 100.285 90.423 100.285C89.9445 100.285 89.5304 100.405 89.1715 100.635C88.8126 100.874 88.5366 101.214 88.3433 101.665C88.1501 102.116 88.0489 102.677 88.0489 103.34C88.0489 104.003 88.1501 104.564 88.3433 105.015C88.5366 105.466 88.8126 105.815 89.1715 106.045C89.5304 106.275 89.9445 106.395 90.423 106.395C90.9015 106.395 91.3156 106.275 91.6745 106.045C92.0334 105.815 92.3094 105.466 92.5027 105.015C92.6959 104.564 92.7972 104.003 92.7972 103.34ZM29.3673 108.024V98.656H33.0666C33.7752 98.656 34.3825 98.7848 34.8794 99.0333C35.3763 99.2818 35.7628 99.6406 36.0297 100.101C36.2965 100.561 36.4254 101.095 36.4254 101.72C36.4254 102.346 36.2873 102.88 36.0205 103.321C35.7536 103.763 35.3671 104.113 34.8518 104.352C34.825 104.365 34.7979 104.377 34.7705 104.389L36.7566 108.024H34.5665L32.7921 104.711H31.3458V108.024H29.3673ZM32.6893 103.119H31.3458V100.276H32.6801C33.0574 100.276 33.3795 100.331 33.6279 100.441C33.8764 100.552 34.0696 100.717 34.1893 100.929C34.3089 101.15 34.3733 101.417 34.3733 101.72C34.3733 102.024 34.3089 102.282 34.1893 102.493C34.0604 102.705 33.8764 102.861 33.6279 102.963C33.3795 103.064 33.0666 103.119 32.6893 103.119ZM39.1122 108.024V98.656H45.4249V100.285H41.0907V102.521H45.0936V104.15H41.0907V106.386H45.4433V108.024H39.1122ZM47.7806 108.024H49.8879L50.5832 105.889H53.9711L54.6638 108.024H56.7894L53.5595 98.656H51.0105L47.7806 108.024ZM53.4696 104.343L52.3172 100.791H52.2436L51.0867 104.343H53.4696ZM59.2095 108.024V98.656H61.188V106.395H65.2093V108.033H59.2095V108.024ZM71.5129 98.656L74.1907 108.024H76.1231L77.8992 101.895H77.9728L79.758 108.024H81.6904L84.3682 98.656H82.2057L80.6506 105.18H80.5678L78.8654 98.656H77.0158L75.3042 105.162H75.2305L73.6754 98.656H71.5129ZM97.5547 98.656V108.024H99.5331V104.711H100.979L102.754 108.024H104.944L102.958 104.389C102.985 104.377 103.012 104.365 103.039 104.352C103.554 104.113 103.941 103.763 104.208 103.321C104.475 102.88 104.613 102.346 104.613 101.72C104.613 101.095 104.484 100.561 104.217 100.101C103.95 99.6406 103.573 99.2818 103.067 99.0333C102.57 98.7848 101.963 98.656 101.254 98.656H97.5547ZM99.5331 103.119H100.877C101.254 103.119 101.567 103.064 101.815 102.963C102.064 102.861 102.248 102.705 102.377 102.493C102.496 102.282 102.561 102.024 102.561 101.72C102.561 101.417 102.496 101.15 102.377 100.929C102.257 100.717 102.064 100.552 101.815 100.441C101.567 100.331 101.245 100.276 100.867 100.276H99.5331V103.119ZM107.3 108.024V98.656H109.279V106.395H113.3V108.033H107.3V108.024ZM115.895 108.024H119.217C120.174 108.024 120.993 107.84 121.674 107.462C122.364 107.085 122.888 106.542 123.256 105.843C123.624 105.144 123.809 104.297 123.809 103.331C123.809 102.364 123.624 101.527 123.256 100.828C122.888 100.128 122.364 99.5946 121.683 99.2173C121.002 98.8401 120.183 98.656 119.244 98.656H115.895V108.024ZM119.134 106.321H117.873V100.349H119.134C119.723 100.349 120.22 100.46 120.615 100.662C121.011 100.865 121.315 101.187 121.517 101.628C121.72 102.061 121.821 102.622 121.821 103.321C121.821 104.021 121.72 104.591 121.517 105.033C121.315 105.475 121.02 105.797 120.615 106.009C120.21 106.22 119.723 106.321 119.134 106.321ZM36.2594 118.505H34.2533C34.2165 118.247 34.1429 118.017 34.0325 117.815C33.922 117.612 33.7748 117.438 33.6 117.3C33.4251 117.162 33.2227 117.042 32.9926 116.968C32.7626 116.895 32.5141 116.858 32.2472 116.858C31.7595 116.858 31.3362 116.978 30.9774 117.217C30.6185 117.456 30.3424 117.806 30.14 118.257C29.9375 118.717 29.8455 119.269 29.8455 119.913C29.8455 120.557 29.9467 121.146 30.1492 121.597C30.3516 122.048 30.6277 122.398 30.9866 122.628C31.3454 122.858 31.7595 122.977 32.238 122.977C32.5049 122.977 32.7534 122.941 32.9742 122.876C33.2043 122.802 33.4067 122.701 33.5816 122.563C33.7564 122.425 33.9036 122.26 34.0233 122.066C34.1429 121.873 34.2257 121.643 34.2717 121.395H36.2778C36.2226 121.836 36.0937 122.25 35.8913 122.646C35.6888 123.042 35.4128 123.401 35.0631 123.713C34.7134 124.026 34.3085 124.275 33.83 124.459C33.3515 124.643 32.8086 124.726 32.2104 124.726C31.373 124.726 30.6277 124.532 29.9743 124.155C29.321 123.778 28.7965 123.226 28.4192 122.517C28.0419 121.799 27.8486 120.934 27.8486 119.913C27.8486 118.892 28.0419 118.027 28.4284 117.309C28.8149 116.591 29.3302 116.048 29.9927 115.671C30.6553 115.294 31.3914 115.1 32.2196 115.1C32.7626 115.1 33.2687 115.174 33.7288 115.33C34.1981 115.487 34.603 115.708 34.9711 115.993C35.33 116.287 35.6244 116.637 35.8545 117.06C36.0845 117.484 36.2226 117.962 36.287 118.505H36.2594ZM38.9743 115.22V124.588H40.9528V120.713H44.9741V124.588H46.9525V115.22H44.9741V119.085H40.9528V115.22H38.9743ZM51.4708 124.588H49.3635L52.5935 115.22H55.1425L58.3724 124.588H56.2467L55.5541 122.453H52.1661L51.4708 124.588ZM53.9002 117.355L55.0526 120.907H52.6697L53.8266 117.355H53.9002ZM60.7925 115.22V124.588V124.597H66.7923V122.959H62.771V115.22H60.7925ZM69.3966 124.588V115.22H71.375V122.959H75.3964V124.597H69.3966V124.588ZM77.9912 115.22V124.588H84.3223V122.95H79.9697V120.713H83.9726V119.085H79.9697V116.849H84.3039V115.22H77.9912ZM95.0151 115.22V124.588H93.3035L89.227 118.689H89.1534V124.588H87.1749V115.22H88.9141L92.963 121.109H93.0459V115.22H95.0151ZM104.138 118.229L104.143 118.247L104.134 118.229H104.138ZM106.149 118.229H104.138C104.074 118.015 103.984 117.819 103.877 117.658C103.757 117.483 103.619 117.336 103.453 117.217C103.288 117.097 103.094 117.005 102.883 116.94C102.671 116.876 102.441 116.839 102.183 116.839C101.705 116.839 101.282 116.959 100.923 117.198C100.564 117.437 100.279 117.778 100.076 118.229C99.8736 118.68 99.7724 119.232 99.7724 119.885C99.7724 120.539 99.8736 121.091 100.067 121.551C100.269 122.011 100.545 122.361 100.913 122.591C101.272 122.83 101.705 122.949 102.202 122.949C102.653 122.949 103.03 122.867 103.352 122.71C103.674 122.554 103.913 122.324 104.079 122.029C104.237 121.748 104.328 121.425 104.336 121.045H102.331V119.554H106.251V120.732C106.251 121.551 106.076 122.259 105.726 122.848C105.376 123.437 104.898 123.897 104.291 124.21C103.683 124.532 102.984 124.689 102.193 124.689C101.318 124.689 100.545 124.495 99.8736 124.109C99.2111 123.722 98.6865 123.17 98.3185 122.453C97.9504 121.735 97.7663 120.879 97.7663 119.894C97.7663 119.14 97.8768 118.459 98.0976 117.861C98.3185 117.263 98.6313 116.756 99.027 116.342C99.4227 115.928 99.892 115.615 100.426 115.395C100.959 115.183 101.53 115.072 102.147 115.072C102.68 115.072 103.168 115.146 103.628 115.303C104.088 115.459 104.493 115.671 104.843 115.956C105.202 116.232 105.487 116.572 105.717 116.959C105.947 117.345 106.085 117.769 106.149 118.229ZM109.021 124.588V115.22H115.333V116.849H110.999V119.085H115.002V120.713H110.999V122.95H115.352V124.588H109.021ZM122.815 117.051C123.091 117.263 123.247 117.548 123.284 117.916H123.302H125.198C125.189 117.355 125.032 116.867 124.747 116.444C124.453 116.02 124.048 115.689 123.532 115.45C123.017 115.211 122.391 115.091 121.71 115.091C121.029 115.091 120.422 115.211 119.879 115.45C119.336 115.689 118.913 116.02 118.609 116.444C118.306 116.867 118.158 117.364 118.158 117.934C118.158 118.624 118.379 119.177 118.839 119.582C119.29 119.986 119.916 120.29 120.707 120.483L121.729 120.741C122.069 120.824 122.355 120.916 122.594 121.017C122.833 121.118 123.017 121.238 123.137 121.385C123.256 121.532 123.321 121.707 123.321 121.919C123.321 122.14 123.256 122.342 123.118 122.517C122.98 122.692 122.787 122.821 122.539 122.922C122.29 123.023 122.014 123.069 121.664 123.069C121.315 123.069 121.011 123.014 120.744 122.913C120.477 122.811 120.256 122.655 120.1 122.443C119.934 122.232 119.842 121.974 119.824 121.661H117.91C117.919 122.333 118.085 122.894 118.398 123.354C118.71 123.814 119.143 124.155 119.704 124.385C120.266 124.615 120.928 124.735 121.683 124.735C122.437 124.735 123.091 124.615 123.634 124.385C124.177 124.155 124.591 123.833 124.876 123.41C125.161 122.986 125.308 122.489 125.308 121.919C125.308 121.523 125.235 121.183 125.097 120.879C124.959 120.575 124.765 120.308 124.517 120.088C124.269 119.867 123.974 119.683 123.634 119.526C123.293 119.37 122.916 119.25 122.511 119.158L121.674 118.956C121.462 118.91 121.278 118.855 121.094 118.79C120.91 118.726 120.753 118.652 120.615 118.56C120.477 118.468 120.367 118.367 120.293 118.238C120.21 118.109 120.183 117.962 120.183 117.796C120.183 117.594 120.238 117.41 120.358 117.253C120.468 117.097 120.643 116.977 120.864 116.885C121.085 116.793 121.361 116.747 121.683 116.747C122.161 116.747 122.539 116.848 122.815 117.051Z" fill="#07080E"/>
<path fill-rule="evenodd" clip-rule="evenodd" d="M64.0042 34C62.6969 34 61.4441 34.5213 60.526 35.4395C59.6 36.3655 59.0864 37.6183 59.0864 38.9177V64.0823C59.0864 65.3895 59.6078 66.6423 60.526 67.5605C61.4519 68.4864 62.7047 69 64.0042 69H89.1687C90.4759 69 91.7287 68.4787 92.6469 67.5605C93.5651 66.6423 94.0864 65.3817 94.0864 64.0823V38.9177C94.0864 37.6105 93.5651 36.3577 92.6469 35.4395C91.7209 34.5136 90.4681 34 89.1687 34H64.0042ZM72.8203 47.7417C73.1082 47.4304 73.2716 47.018 73.2638 46.59C73.2638 46.1621 73.0849 45.7574 72.7814 45.4618C72.4779 45.1661 72.0733 44.9871 71.6531 44.9793C71.2252 44.9793 70.8127 45.1272 70.5015 45.4229L65.576 50.3484C65.2647 50.6596 65.0935 51.072 65.0935 51.5078C65.0935 51.9435 65.2647 52.3637 65.576 52.6672L70.5015 57.5927C70.8127 57.8806 71.2252 58.044 71.6531 58.0362C72.0811 58.0362 72.4857 57.8573 72.7814 57.5538C73.0771 57.2503 73.2561 56.8457 73.2638 56.4255C73.2638 55.9976 73.116 55.5851 72.8203 55.2739L69.0542 51.5078L72.8203 47.7417ZM82.6714 45.4229C82.5235 45.2594 82.3368 45.1349 82.1422 45.0416C81.9399 44.9482 81.722 44.9015 81.5042 44.9015C81.2863 44.9015 81.0684 44.9404 80.8583 45.0182C80.656 45.1038 80.4693 45.2205 80.3136 45.3762C80.158 45.5318 80.0335 45.7185 79.9557 45.9209C79.8701 46.1232 79.8312 46.341 79.839 46.5667C79.839 46.7846 79.8934 47.0024 79.979 47.2048C80.0724 47.4071 80.1969 47.586 80.3603 47.7339L84.1264 51.5L80.3603 55.2661C80.1969 55.414 80.0724 55.6007 79.979 55.7952C79.8857 55.9976 79.839 56.2154 79.839 56.4333C79.839 56.6512 79.8779 56.8691 79.9557 57.0791C80.0413 57.2815 80.158 57.4682 80.3136 57.6238C80.4693 57.7795 80.656 57.904 80.8583 57.9818C81.0606 58.0674 81.2785 58.1063 81.5042 58.0985C81.722 58.0985 81.9399 58.044 82.1422 57.9584C82.3445 57.865 82.5235 57.7406 82.6714 57.5771L87.5969 52.6516C87.9081 52.3404 88.0793 51.928 88.0793 51.4922C88.0793 51.0565 87.9081 50.6363 87.5969 50.3328L82.6714 45.4073V45.4229Z" fill="#07080E"/>
</g>
<defs>
<clipPath id="clip0_418_21134">
<rect width="152.148" height="170" fill="white" transform="translate(0.42627)"/>
</clipPath>
</defs>
</svg>
