<svg width="194" height="159" viewBox="0 0 194 159" fill="none" xmlns="http://www.w3.org/2000/svg">
<g clip-path="url(#clip0_5002_15356)">
<path d="M127.222 158.666C127.827 157.717 126.848 157.962 126.56 157.904C124.285 157.53 121.996 157.228 119.721 156.912C108.692 155.373 97.6774 153.834 86.6484 152.295C73.6324 150.483 60.6309 148.657 47.615 146.845C37.6658 145.45 27.7167 144.069 17.7532 142.66C16.8317 142.53 15.9534 142.358 15.2911 141.538C10.6261 135.857 5.9179 130.205 1.2385 124.539C1.06572 124.323 0.806558 124.122 0.878549 123.777C1.2673 123.978 1.67045 124.122 2.11679 124.194C7.45851 124.899 12.7858 125.589 18.1131 126.337C28.2926 127.761 38.4577 129.227 48.6228 130.651C58.8023 132.075 68.9818 133.456 79.1613 134.865C90.6511 136.461 102.126 138.072 113.602 139.668C117.158 143.58 120.254 147.866 123.666 151.893C125.264 153.791 126.589 155.919 128.504 157.545C128.907 158.12 127.28 157.919 128.072 158.652H127.194L127.222 158.666Z" fill="#72682A"/>
<path d="M113.63 139.683C102.155 138.087 90.6653 136.476 79.19 134.879C69.0105 133.47 58.831 132.089 48.6515 130.666C38.472 129.242 28.3069 127.775 18.1418 126.351C12.8145 125.603 7.47279 124.899 2.14547 124.208C1.68473 124.151 1.29598 123.993 0.907227 123.791C1.06561 120.8 1.84311 117.924 2.41903 115.004C8.07751 86.1837 13.7792 57.3776 19.4809 28.5714C20.5607 23.1496 21.727 17.7422 22.7204 12.2916C23.0084 10.7671 23.6851 10.4651 25.0241 10.7528C25.5857 10.8822 26.1904 10.8534 26.7807 10.8822C26.9103 10.8966 27.0399 10.9253 27.1695 10.9397C27.6878 11.2417 28.2493 11.1986 28.8253 11.1842C28.9548 11.1986 29.0988 11.2274 29.2284 11.2417C29.6459 11.4862 30.1067 11.4575 30.5818 11.4431C30.8266 11.4718 31.0714 11.5006 31.3161 11.5294C31.8345 11.7882 32.396 11.7882 32.9575 11.7595C33.1879 11.7882 33.4327 11.8026 33.663 11.8314C34.0806 12.0902 34.5413 12.119 35.0165 12.0471C35.2612 12.0759 35.4916 12.1046 35.7364 12.119C36.2547 12.421 36.8162 12.3779 37.3922 12.3635C37.5217 12.3779 37.6657 12.4066 37.7953 12.421C38.2129 12.6655 38.6736 12.6367 39.1343 12.6224C39.3791 12.6511 39.6239 12.6799 39.8686 12.7086C40.2862 12.9531 40.7469 12.9244 41.1933 12.91C41.438 12.9387 41.6828 12.9675 41.9276 12.9963C42.4459 13.2551 43.0074 13.2551 43.569 13.2264C43.8137 13.2551 44.0441 13.2695 44.2889 13.2983C44.8072 13.6003 45.3687 13.5572 45.9447 13.5284C46.0886 13.5428 46.2182 13.5715 46.3622 13.5859C46.7798 13.8304 47.2405 13.8016 47.7012 13.7873C47.946 13.816 48.1908 13.8448 48.4355 13.8735C48.8531 14.118 49.3138 14.0893 49.7746 14.0749C50.0193 14.1037 50.2641 14.1324 50.5089 14.1612C51.0272 14.42 51.5887 14.42 52.1503 14.3913C52.395 14.42 52.6254 14.4344 52.8702 14.4632C53.3885 14.7652 53.95 14.7221 54.526 14.7077C54.6555 14.7221 54.7995 14.7508 54.9291 14.7652C55.3467 15.0097 55.8218 14.9809 56.2825 14.9665C56.5273 14.9953 56.7721 15.0241 57.0168 15.0528C57.4344 15.2973 57.8951 15.2686 58.3559 15.2542C58.6006 15.2829 58.8454 15.3117 59.0902 15.3405C59.6085 15.5993 60.1556 15.5993 60.7172 15.5706C60.9619 15.5993 61.1923 15.6137 61.4371 15.6425C61.9554 15.9445 62.5169 15.9157 63.0929 15.8726C63.2368 15.887 63.3664 15.9157 63.5104 15.9301C63.928 16.2033 64.3887 16.1746 64.8494 16.1314C65.0942 16.1602 65.339 16.189 65.5694 16.2177C65.9869 16.4622 66.4476 16.4335 66.9084 16.4191C67.1532 16.4478 67.3979 16.4766 67.6427 16.5054C68.161 16.7498 68.7225 16.7642 69.2841 16.7355C69.5288 16.7642 69.7592 16.7786 70.004 16.8074C70.5223 17.1094 71.0838 17.0662 71.6598 17.0519C71.7894 17.0662 71.9333 17.095 72.0629 17.1094C72.4805 17.3826 72.9412 17.3539 73.4019 17.3107C73.6467 17.3395 73.8915 17.3683 74.1219 17.397C74.5394 17.6415 75.0001 17.6127 75.4609 17.5984C75.7057 17.6271 75.9504 17.6559 76.1952 17.6846C76.7135 17.9435 77.2751 17.9435 77.8366 17.9147C78.0814 17.9435 78.3117 17.9579 78.5421 17.9867C79.0604 18.2887 79.622 18.2599 80.1979 18.2311C80.3275 18.2455 80.457 18.2743 80.5866 18.2887C81.0042 18.5619 81.4793 18.5332 81.9401 18.49C82.1848 18.5188 82.4152 18.5475 82.66 18.5763C83.0775 18.8208 83.5383 18.792 83.999 18.7776C84.2438 18.8064 84.4885 18.8352 84.7333 18.8639C85.2516 19.1228 85.8132 19.1228 86.3747 19.094C86.6195 19.1228 86.8498 19.1372 87.0946 19.1659C87.6129 19.4823 88.1745 19.4536 88.7504 19.4104C88.88 19.4248 89.0096 19.4536 89.1391 19.4679C89.5567 19.7412 90.0318 19.7124 90.4926 19.6693C90.7373 19.6981 90.9677 19.7268 91.2125 19.7556C91.63 19.9857 92.1052 19.9713 92.5659 19.9569C92.8107 19.9857 93.0554 20.0144 93.3002 20.0432C93.8185 20.3021 94.3801 20.3021 94.9416 20.2733C95.172 20.3021 95.4167 20.3165 95.6471 20.3452C96.0647 20.6041 96.5254 20.6329 97.0005 20.5609C97.2453 20.5897 97.4757 20.6185 97.7204 20.6329C98.138 20.9061 98.5987 20.8773 99.0595 20.8342C99.3042 20.863 99.5346 20.8917 99.7794 20.9205C100.298 21.1793 100.874 21.165 101.435 21.165C101.579 21.1793 101.709 21.2081 101.853 21.2225C102.371 21.467 102.933 21.4814 103.494 21.4526C103.724 21.4814 103.969 21.4957 104.2 21.5245C104.617 21.7834 105.078 21.8121 105.553 21.7402C105.798 21.769 106.028 21.7978 106.273 21.8121C106.791 22.1141 107.353 22.071 107.929 22.0566C108.058 22.071 108.202 22.0998 108.332 22.1141C108.749 22.3586 109.21 22.3299 109.685 22.3155C109.93 22.3442 110.175 22.373 110.42 22.4018C110.837 22.6463 111.298 22.6175 111.759 22.6031C112.003 22.6319 112.248 22.6606 112.493 22.6894C113.011 22.9483 113.573 22.9483 114.134 22.9195C114.379 22.9483 114.609 22.9627 114.854 22.9914C115.373 23.2934 115.934 23.2503 116.51 23.2359C116.64 23.2503 116.784 23.279 116.913 23.2934C117.331 23.5379 117.791 23.5091 118.252 23.4948C118.497 23.5235 118.742 23.5523 118.987 23.5811C119.404 23.8255 119.865 23.7968 120.311 23.7824C120.556 23.8112 120.801 23.8399 121.045 23.8687C121.564 24.1276 122.111 24.1276 122.672 24.0988C122.917 24.1276 123.148 24.1419 123.392 24.1707C123.911 24.4727 124.472 24.4296 125.048 24.4152C125.178 24.4296 125.322 24.4583 125.451 24.4727C125.869 24.746 126.33 24.7172 126.79 24.6741C127.035 24.7028 127.265 24.7316 127.51 24.7603C127.928 25.0048 128.389 24.9761 128.849 24.9617C129.094 24.9904 129.339 25.0192 129.584 25.048C130.102 25.2925 130.663 25.3068 131.211 25.2781C131.455 25.3068 131.686 25.3212 131.93 25.35C132.449 25.652 133.01 25.6088 133.586 25.5945C133.716 25.6088 133.86 25.6376 133.989 25.652C134.306 25.8821 134.666 25.8965 135.04 25.8533C135.285 25.8821 135.516 25.9252 135.76 25.954C135.933 26.0978 136.106 26.256 136.264 26.3998C136.264 26.6443 136.293 26.9032 136.236 27.1333C134.335 36.8264 132.434 46.5196 130.519 56.2127C128.82 64.8128 127.078 73.3842 125.394 81.9843C123.45 91.9219 121.564 101.86 119.634 111.797C118.425 118.053 117.216 124.323 115.92 130.551C115.286 133.585 115.027 136.72 113.846 139.64L113.63 139.683ZM92.2923 127.257C94.2505 127.214 95.7335 127.2 97.1733 126.883C103.206 125.589 107.468 122.253 109.253 116.184C111.183 109.64 109.628 104.161 104.214 99.803C101.118 97.3006 97.6484 95.3591 94.3945 93.1012C93.0986 92.1952 91.8316 91.2316 91.3133 89.6784C90.0318 85.8529 93.473 82.3439 97.5909 83.1924C100.125 83.7101 101.694 85.3352 102.774 87.55C103.005 88.0102 103.105 88.5998 103.912 88.2403C106.446 87.0754 109.009 85.9536 111.557 84.8175C112.09 84.573 112.291 84.2854 112.032 83.667C111.01 81.1933 109.729 78.8492 107.511 77.2528C102.443 73.5999 96.799 72.8664 90.8669 74.5059C82.012 76.9652 77.5342 88.0677 82.1128 96.035C83.999 99.3284 86.9794 101.471 90.075 103.485C92.6091 105.139 95.316 106.505 97.5189 108.662C100.672 111.74 98.7715 116.054 95.5319 117.161C92.8395 118.082 90.2334 117.794 87.6561 116.73C84.8485 115.58 83.1927 113.307 81.8825 110.719C81.5801 110.129 81.3641 109.741 80.5722 110.086C78.0669 111.164 75.5329 112.2 72.97 113.163C72.1637 113.465 72.0629 113.811 72.3509 114.544C73.3588 117.248 74.8274 119.649 76.9583 121.62C81.4217 125.762 86.893 127.085 92.2779 127.243L92.2923 127.257ZM50.9984 121.562C52.5966 121.562 53.9068 121.404 55.1883 121.116C61.7538 119.664 65.2958 115.177 66.7356 108.978C68.233 102.564 69.3705 96.0638 70.6519 89.6065C71.7894 83.8683 72.8692 78.1157 74.0067 72.3631C74.1363 71.7159 74.2514 71.1407 73.4164 71.0256C70.5655 70.6229 67.7003 70.2634 64.8494 69.8607C63.9568 69.7313 63.6832 70.134 63.5392 70.9681C63.0497 73.7006 62.4594 76.4187 61.9266 79.1512C60.7892 84.9469 59.7381 90.757 58.5143 96.5384C57.6936 100.45 57.2328 104.448 55.9226 108.259C55.4906 109.525 54.8427 110.647 53.5469 111.279C50.7105 112.66 47.0677 111.697 45.3975 109.036C44.908 108.245 44.4761 107.411 44.1449 106.548C43.8425 105.757 43.5978 105.498 42.6907 105.901C40.2142 106.965 37.7233 107.957 35.2612 109.036C34.3829 109.424 34.3397 109.784 34.5845 110.575C35.3044 112.804 36.4131 114.803 38.0401 116.471C41.6684 120.182 46.2902 121.332 50.9984 121.562Z" fill="#F4DF2F"/>
<path d="M113.631 139.683C114.812 136.763 115.071 133.628 115.704 130.594C117.014 124.352 118.209 118.096 119.419 111.84C121.348 101.903 123.234 91.965 125.178 82.0274C126.863 73.4272 128.605 64.8415 130.304 56.2557C132.219 46.5626 134.119 36.8695 136.02 27.1763C136.063 26.9462 136.034 26.6874 136.049 26.4429C136.236 26.4716 136.423 26.5004 136.61 26.5292C136.697 26.673 136.769 26.8024 136.855 26.9462L136.826 27.0037H136.898C136.927 27.1044 136.985 27.1619 137.071 27.1907V27.277H137.157C137.186 27.3777 137.244 27.4352 137.33 27.4783C137.33 27.579 137.359 27.6365 137.474 27.6365C137.661 27.881 137.834 28.1399 138.021 28.3844C138.122 28.485 138.209 28.5857 138.309 28.6864L138.281 28.7295H138.338C138.367 28.8302 138.424 28.9021 138.511 28.9453C138.511 29.0459 138.54 29.1034 138.64 29.1034C138.828 29.3479 139 29.6068 139.188 29.8513L139.202 29.8657C139.274 29.952 139.346 30.0382 139.418 30.1102V30.1964H139.504C139.519 30.2971 139.576 30.3546 139.648 30.3834C139.706 30.4553 139.749 30.5272 139.807 30.5991C139.994 30.8436 140.167 31.0737 140.354 31.3182L140.325 31.3613H140.383C140.411 31.462 140.469 31.5339 140.555 31.5771C140.555 31.6777 140.584 31.7209 140.685 31.7353C140.872 31.9941 141.045 32.2386 141.232 32.4975L141.247 32.5119C141.319 32.5982 141.391 32.6844 141.463 32.7707V32.857H141.549C141.578 32.9577 141.621 33.0152 141.707 33.0584C141.75 33.1303 141.808 33.1878 141.851 33.2597C142.038 33.5042 142.226 33.7487 142.413 33.9932L142.427 34.0219C142.456 34.1226 142.514 34.1945 142.6 34.2376C142.6 34.3383 142.629 34.3958 142.73 34.3958C142.73 34.4677 142.758 34.4965 142.816 34.5109C142.888 34.5972 142.946 34.6835 143.018 34.7698C143.104 34.8992 143.19 35.0142 143.262 35.1437C143.363 35.2443 143.449 35.345 143.55 35.4457L143.521 35.4888H143.579C143.608 35.5895 143.665 35.6614 143.752 35.7046C143.752 35.8052 143.781 35.8628 143.881 35.8628C144.069 36.1072 144.241 36.3661 144.429 36.6106L144.443 36.625C144.515 36.7113 144.587 36.7975 144.659 36.8695V36.9557H144.745C144.76 37.0564 144.803 37.1139 144.889 37.1427C144.947 37.2146 145.004 37.2865 145.048 37.3584C145.235 37.6029 145.422 37.833 145.595 38.0775L145.566 38.1206H145.624C145.652 38.2213 145.71 38.2788 145.796 38.322C145.796 38.4227 145.825 38.4658 145.926 38.4802C146.113 38.7247 146.286 38.9835 146.473 39.228L146.487 39.2424C146.559 39.3287 146.631 39.415 146.703 39.4869V39.5732H146.79C146.819 39.6738 146.862 39.7314 146.948 39.7745C146.991 39.8464 147.049 39.904 147.092 39.9759C147.279 40.2203 147.467 40.4648 147.654 40.6949L147.683 40.7237C147.711 40.8244 147.769 40.8963 147.855 40.9394C147.855 41.0401 147.884 41.0976 147.985 41.0976C147.985 41.1695 148.014 41.1983 148.071 41.2127C148.143 41.299 148.201 41.3852 148.273 41.4715C148.359 41.601 148.446 41.716 148.518 41.8455C148.618 41.9461 148.705 42.0468 148.806 42.1475L148.777 42.1906H148.834C148.863 42.2913 148.921 42.3632 149.022 42.4063C149.022 42.507 149.05 42.5501 149.151 42.5645C149.338 42.809 149.511 43.0679 149.698 43.3124L149.727 43.3555C149.756 43.4562 149.813 43.5281 149.9 43.5712L149.914 43.6863L150.015 43.715C150.101 43.8876 150.202 44.0458 150.289 44.2184L150.245 44.2615H150.303C150.375 44.3335 150.447 44.4054 150.505 44.4917C150.476 44.5923 150.505 44.6355 150.62 44.6498C150.663 44.7793 150.706 44.9231 150.735 45.0525C150.721 45.3258 150.692 45.599 150.677 45.8723C150.663 46.0017 150.649 46.1168 150.62 46.2462C150.418 46.4619 150.418 46.7064 150.49 46.9653C150.433 47.3104 150.375 47.6556 150.317 47.9864C150.159 48.1014 150.116 48.2596 150.202 48.4322C150.145 48.7486 150.087 49.0793 150.044 49.3957C149.828 49.6546 149.785 49.9422 149.828 50.2586C149.799 50.46 149.785 50.6613 149.756 50.8627C149.497 51.2078 149.453 51.5961 149.511 52.0132C149.497 52.157 149.468 52.2864 149.453 52.4159C149.266 52.6316 149.223 52.8761 149.281 53.1493C149.238 53.4801 149.194 53.8109 149.151 54.1273C148.921 54.3574 148.892 54.645 148.935 54.947C148.906 55.1627 148.892 55.3784 148.863 55.6085C148.82 55.7667 148.777 55.9249 148.734 56.0831C148.676 56.4139 148.633 56.7447 148.575 57.0898C148.359 57.3199 148.345 57.6076 148.359 57.8952C148.33 58.1109 148.316 58.341 148.287 58.5568C148.071 58.7869 148.057 59.0745 148.071 59.3621C148.071 59.4772 148.057 59.5778 148.042 59.6929C147.985 59.9805 147.927 60.2682 147.855 60.5558C147.798 60.8722 147.754 61.1886 147.697 61.505C147.539 61.62 147.495 61.7782 147.582 61.9508C147.524 62.2672 147.481 62.598 147.423 62.9144C147.207 63.1732 147.164 63.4608 147.207 63.7772C147.179 63.9786 147.164 64.1799 147.135 64.3813C146.876 64.7264 146.833 65.1147 146.905 65.5318C146.891 65.6756 146.862 65.805 146.847 65.9345C146.66 66.1502 146.617 66.3947 146.675 66.6679C146.631 66.9987 146.588 67.3295 146.545 67.6459C146.372 67.7753 146.329 67.9335 146.387 68.1348C146.343 68.4656 146.286 68.7964 146.243 69.1128C146.199 69.271 146.156 69.4292 146.113 69.5874C146.056 69.9181 146.012 70.2633 145.955 70.5941C145.796 70.7091 145.753 70.8673 145.825 71.0543C145.768 71.3994 145.71 71.7302 145.652 72.0754C145.494 72.1904 145.451 72.3486 145.523 72.5356C145.48 72.852 145.422 73.1827 145.379 73.4991C145.321 73.6861 145.278 73.8874 145.22 74.0744C145.163 74.3908 145.12 74.7072 145.062 75.0236C144.904 75.1386 144.86 75.2968 144.947 75.4694C144.889 75.7858 144.846 76.1166 144.788 76.433C144.572 76.6918 144.529 76.9795 144.573 77.2958C144.544 77.4972 144.529 77.6985 144.501 77.8999C144.241 78.245 144.198 78.6333 144.256 79.0504C144.241 79.1798 144.213 79.3236 144.198 79.4531C143.953 79.7695 143.939 80.1434 143.968 80.5173C143.939 80.733 143.925 80.9487 143.896 81.1645C143.694 81.3946 143.593 81.6247 143.881 81.8692C143.536 82.0417 143.637 82.3581 143.608 82.6314C143.421 82.8615 143.32 83.0916 143.593 83.3361C143.233 83.4943 143.349 83.825 143.32 84.1127C143.161 84.2277 143.118 84.3859 143.19 84.5729C143.133 84.918 143.075 85.2488 143.018 85.594C142.859 85.709 142.816 85.8672 142.888 86.0542C142.83 86.3993 142.773 86.7301 142.715 87.0753C142.557 87.1903 142.514 87.3485 142.6 87.5355C142.542 87.8806 142.485 88.2114 142.427 88.5566C142.269 88.6716 142.226 88.8298 142.312 89.0024C142.254 89.3188 142.211 89.6496 142.154 89.9659C141.938 90.2248 141.894 90.5124 141.938 90.8288C141.909 91.0302 141.894 91.2315 141.866 91.4329C141.606 91.778 141.563 92.1663 141.635 92.5834C141.621 92.7272 141.592 92.8566 141.578 92.9861C141.391 93.2018 141.347 93.4463 141.405 93.7195C141.362 94.0503 141.319 94.3811 141.275 94.6975C141.045 94.9276 141.031 95.2152 141.059 95.5172C141.031 95.7329 141.016 95.963 140.987 96.1787C140.771 96.4089 140.743 96.6965 140.757 96.9985C140.728 97.2142 140.714 97.4299 140.685 97.66C140.527 97.7751 140.483 97.9333 140.555 98.1203C140.512 98.4367 140.455 98.7674 140.411 99.0838C140.354 99.2708 140.296 99.4721 140.253 99.6591C140.195 99.9755 140.152 100.292 140.095 100.608C139.936 100.723 139.893 100.882 139.965 101.068C139.907 101.414 139.85 101.744 139.792 102.09C139.634 102.205 139.591 102.363 139.677 102.535C139.62 102.866 139.576 103.183 139.519 103.513C139.317 103.772 139.26 104.06 139.303 104.376C139.274 104.606 139.245 104.822 139.216 105.052C139.029 105.282 139 105.541 139.044 105.814C139 106.073 138.972 106.318 138.928 106.577C138.727 106.778 138.712 107.022 138.756 107.281C138.712 107.612 138.655 107.943 138.612 108.274C138.396 108.504 138.367 108.791 138.381 109.093C138.352 109.309 138.338 109.539 138.309 109.755C138.093 109.985 138.079 110.273 138.093 110.56C138.065 110.776 138.036 111.006 138.021 111.222C137.863 111.337 137.82 111.495 137.906 111.682C137.849 112.027 137.791 112.358 137.733 112.703C137.575 112.818 137.532 112.976 137.604 113.163C137.546 113.508 137.489 113.839 137.431 114.184C137.215 114.414 137.201 114.702 137.215 114.99C137.186 115.205 137.157 115.436 137.143 115.651C136.927 115.881 136.913 116.169 136.941 116.457C136.913 116.658 136.898 116.874 136.869 117.075C136.668 117.334 136.61 117.622 136.654 117.938C136.625 118.168 136.596 118.384 136.567 118.6C136.337 118.93 136.308 119.304 136.337 119.692C136.322 119.836 136.294 119.98 136.279 120.124C136.034 120.44 136.02 120.8 136.034 121.174C136.006 121.39 135.991 121.62 135.962 121.835C135.919 121.994 135.876 122.152 135.833 122.31C135.775 122.641 135.732 122.986 135.674 123.317C135.487 123.547 135.401 123.777 135.66 124.021C135.314 124.18 135.401 124.51 135.386 124.798C135.228 124.913 135.185 125.071 135.271 125.258C135.214 125.603 135.156 125.934 135.099 126.279C134.911 126.509 134.839 126.739 135.084 126.984C134.739 127.156 134.825 127.473 134.811 127.761C134.595 127.991 134.58 128.278 134.609 128.566C134.58 128.767 134.566 128.969 134.537 129.184C134.494 129.371 134.436 129.573 134.393 129.76C134.35 130.062 134.292 130.364 134.249 130.651C133.99 130.996 133.947 131.385 134.019 131.802C134.004 131.946 133.975 132.075 133.961 132.204C133.774 132.42 133.731 132.665 133.788 132.938C133.745 133.269 133.702 133.585 133.659 133.916C133.486 134.045 133.443 134.203 133.5 134.405C133.457 134.736 133.4 135.066 133.356 135.397C133.169 135.627 133.068 135.857 133.342 136.102C132.982 136.26 133.083 136.591 133.068 136.864C132.91 136.979 132.867 137.137 132.939 137.324C132.881 137.669 132.824 138 132.766 138.345C132.55 138.575 132.536 138.863 132.55 139.151C132.521 139.366 132.507 139.597 132.478 139.812C132.32 139.927 132.276 140.085 132.363 140.258C132.305 140.603 132.248 140.934 132.19 141.279C132.032 141.394 131.989 141.552 132.075 141.725C132.017 142.041 131.96 142.372 131.917 142.689C131.701 142.947 131.657 143.235 131.701 143.551C131.672 143.753 131.657 143.954 131.629 144.155C131.269 144.889 131.24 145.709 131.153 146.5C131.11 146.816 131.067 147.118 131.024 147.434C130.822 147.665 130.721 147.895 131.009 148.139C130.678 148.312 130.75 148.628 130.736 148.901C130.693 149.06 130.649 149.218 130.606 149.376C130.549 149.707 130.506 150.052 130.448 150.383C130.29 150.498 130.246 150.656 130.318 150.843C130.261 151.188 130.203 151.519 130.146 151.864C129.93 152.094 129.915 152.382 129.93 152.669C129.901 152.885 129.872 153.115 129.858 153.331C129.699 153.446 129.656 153.604 129.742 153.777C129.685 154.122 129.627 154.453 129.57 154.798C129.354 155.028 129.339 155.315 129.368 155.603C129.339 155.804 129.31 156.006 129.296 156.207C128.85 156.509 129.296 157.358 128.547 157.473C126.632 155.848 125.322 153.705 123.71 151.821C120.297 147.794 117.216 143.494 113.645 139.596L113.631 139.683Z" fill="#E0CA30"/>
<path d="M92.2929 127.257C86.8936 127.099 81.4367 125.776 76.9733 121.634C74.8424 119.664 73.3738 117.262 72.3659 114.558C72.0923 113.81 72.1787 113.48 72.985 113.178C75.5479 112.214 78.0676 111.179 80.5872 110.1C81.3791 109.755 81.5951 110.143 81.8975 110.733C83.2077 113.321 84.8635 115.594 87.6711 116.744C90.2484 117.809 92.8545 118.096 95.5469 117.176C98.8009 116.054 100.701 111.754 97.5339 108.676C95.331 106.533 92.6241 105.153 90.09 103.499C86.9944 101.486 84.014 99.3427 82.1278 96.0493C77.5492 88.082 82.0271 76.9938 90.8819 74.5202C96.814 72.8663 102.458 73.6142 107.526 77.2671C109.744 78.8634 111.011 81.1932 112.047 83.6812C112.292 84.2852 112.105 84.5873 111.572 84.8317C109.024 85.9679 106.461 87.0896 103.927 88.2545C103.135 88.6141 103.02 88.0388 102.789 87.5642C101.709 85.3351 100.14 83.7244 97.6059 83.2066C93.4736 82.3581 90.0468 85.8672 91.3283 89.6927C91.8466 91.2603 93.1136 92.2238 94.4095 93.1155C97.6635 95.3734 101.133 97.3149 104.229 99.8173C109.628 104.175 111.183 109.654 109.268 116.198C107.483 122.252 103.221 125.589 97.1883 126.898C95.7485 127.214 94.2655 127.228 92.3073 127.272L92.2929 127.257Z" fill="#030301"/>
<path d="M50.9993 121.562C46.2911 121.332 41.6549 120.182 38.041 116.471C36.414 114.803 35.3053 112.79 34.5854 110.575C34.3262 109.784 34.3694 109.424 35.2621 109.036C37.7242 107.957 40.2295 106.951 42.6916 105.901C43.5986 105.513 43.8434 105.771 44.1458 106.548C44.4769 107.411 44.9089 108.245 45.3984 109.036C47.0686 111.697 50.7113 112.675 53.5478 111.28C54.8436 110.647 55.4915 109.525 55.9235 108.259C57.2337 104.448 57.6944 100.45 58.5151 96.5385C59.739 90.7571 60.79 84.947 61.9275 79.1513C62.4602 76.4188 63.065 73.715 63.5401 70.9682C63.6841 70.1197 63.9576 69.7314 64.8503 69.8608C67.7012 70.2635 70.5664 70.6086 73.4172 71.0257C74.2523 71.1408 74.1371 71.716 74.0076 72.3632C72.8701 78.1014 71.7902 83.854 70.6528 89.6066C69.3857 96.0783 68.2339 102.564 66.7365 108.978C65.2967 115.177 61.7691 119.678 55.1892 121.116C53.8933 121.404 52.5831 121.562 50.9993 121.562Z" fill="#030301"/>
</g>
<path d="M112.047 35.4812C111.14 36.1432 110.956 37.4211 111.639 38.3121L114.044 41.4525C114.593 42.1703 114.593 43.1677 114.043 43.8852L111.64 47.0207C110.957 47.9117 111.141 49.1901 112.047 49.8523L115.23 52.1771C115.961 52.7114 116.242 53.6704 115.915 54.5148L114.485 58.2026C114.079 59.2511 114.616 60.4283 115.675 60.808L119.369 62.1331C120.223 62.4395 120.764 63.2824 120.687 64.1864L120.35 68.1237C120.253 69.2457 121.102 70.2258 122.226 70.291L126.132 70.5176C127.039 70.5703 127.796 71.2276 127.976 72.1182L128.757 75.9815C128.98 77.0873 130.074 77.7896 131.172 77.533L134.975 76.6448C135.862 76.4376 136.777 76.8562 137.201 77.6629L139.024 81.1375C139.55 82.1385 140.8 82.5054 141.783 81.9471L145.176 80.0202C145.969 79.5698 146.967 79.7132 147.601 80.3688L150.321 83.1805C151.107 83.9931 152.41 83.9931 153.196 83.1805L155.916 80.3688C156.55 79.7132 157.548 79.5698 158.341 80.0202L161.734 81.9471C162.717 82.5054 163.967 82.1385 164.493 81.1375L166.316 77.6629C166.74 76.8562 167.655 76.4376 168.542 76.6448L172.345 77.533C173.443 77.7896 174.537 77.0873 174.76 75.9815L175.541 72.1182C175.721 71.2276 176.478 70.5703 177.385 70.5176L181.29 70.291C182.415 70.2258 183.263 69.2457 183.167 68.1237L182.83 64.1864C182.753 63.2824 183.293 62.4395 184.148 62.1331L187.842 60.808C188.9 60.4283 189.438 59.2511 189.032 58.2026L187.602 54.5148C187.275 53.6704 187.556 52.7114 188.287 52.1771L191.47 49.8523C192.376 49.1901 192.56 47.9117 191.877 47.0207L189.474 43.8852C188.924 43.1677 188.924 42.1703 189.473 41.4525L191.878 38.3121C192.561 37.4211 192.376 36.1432 191.47 35.4812L188.287 33.1559C187.556 32.6216 187.275 31.6626 187.602 30.8182L189.032 27.1304C189.438 26.0819 188.9 24.9047 187.842 24.525L184.148 23.1999C183.293 22.8935 182.753 22.0506 182.83 21.1466L183.167 17.2107C183.263 16.0882 182.414 15.1078 181.289 15.0433L177.386 14.8195C176.479 14.7675 175.72 14.11 175.54 13.2189L174.76 9.35527C174.536 8.25 173.444 7.54777 172.346 7.8035L168.541 8.68955C167.654 8.89601 166.74 8.47766 166.317 7.67174L164.492 4.19872C163.967 3.19853 162.718 2.83175 161.735 3.38906L158.341 5.31403C157.547 5.7638 156.55 5.62019 155.916 4.96485L153.196 2.15249C152.41 1.3399 151.107 1.3399 150.321 2.15249L147.6 4.96485C146.966 5.62019 145.97 5.7638 145.176 5.31403L141.782 3.38906C140.799 2.83175 139.55 3.19853 139.025 4.19872L137.2 7.67174C136.777 8.47766 135.863 8.89601 134.976 8.68955L131.171 7.8035C130.073 7.54777 128.98 8.25 128.757 9.35528L127.976 13.2189C127.796 14.11 127.038 14.7675 126.131 14.8195L122.228 15.0433C121.103 15.1078 120.254 16.0882 120.35 17.2107L120.687 21.1466C120.764 22.0506 120.223 22.8935 119.369 23.1999L115.675 24.525C114.616 24.9047 114.079 26.0819 114.485 27.1304L115.915 30.8182C116.242 31.6626 115.961 32.6216 115.23 33.1559L112.047 35.4812Z" fill="white"/>
<path d="M155.271 47.8691C156.573 49.9946 158.267 51.5569 161.262 51.5569C163.778 51.5569 165.386 50.2993 165.386 48.5615C165.386 46.4791 163.734 45.7416 160.965 44.5301L159.446 43.8787C155.064 42.0117 152.153 39.6728 152.153 34.7284C152.153 30.1738 155.623 26.7065 161.047 26.7065C164.908 26.7065 167.684 28.0504 169.684 31.5689L164.955 34.6053C163.914 32.7383 162.79 32.0028 161.047 32.0028C159.303 32.0028 158.14 33.1312 158.14 34.6053C158.14 36.4272 159.269 37.1647 161.874 38.2931L163.393 38.9435C168.553 41.1562 171.466 43.4119 171.466 48.4836C171.466 53.9512 167.171 56.9465 161.403 56.9465C155.634 56.9465 152.119 54.2589 150.336 50.7363L155.271 47.8691ZM133.818 48.3953C134.772 50.0879 135.64 51.519 137.727 51.519C139.813 51.519 140.981 50.7383 140.981 47.7029V27.0533H147.053V47.785C147.053 54.0732 143.367 56.9353 137.985 56.9353C133.123 56.9353 130.307 54.4189 128.875 51.3876L133.818 48.3953Z" fill="#0B0C15"/>
<defs>
<clipPath id="clip0_5002_15356">
<rect width="150" height="148" fill="white" transform="translate(0.878906 10.6665)"/>
</clipPath>
</defs>
</svg>
