<svg xmlns="http://www.w3.org/2000/svg" fill="none" viewBox="0 0 37 32" class="size-8 fill-current text-body-gray group-hover:text-white" alt="bluesky"><path fill="currentColor" d="M8.054 2.154c4.127 3.128 8.566 9.47 10.196 12.874v8.99c0-.191-.073.025-.23.491-.851 2.522-4.173 12.366-11.77 4.497-4-4.144-2.148-8.287 5.133-9.538-4.165.715-8.848-.467-10.133-5.103-.37-1.334-1-9.548-1-10.657 0-5.558 4.826-3.81 7.804-1.554m20.392 0c-4.127 3.128-8.566 9.47-10.196 12.874v8.99c0-.191.073.025.23.491.851 2.522 4.173 12.366 11.77 4.497 4-4.144 2.148-8.287-5.133-9.538 4.165.715 8.848-.467 10.133-5.103.37-1.334 1-9.548 1-10.657 0-5.558-4.825-3.81-7.804-1.554"></path></svg>