<svg xml:space="preserve" viewBox="0 0 12.5 9.1" y="0px" x="0px" id="Layer_1" version="1.1" xmlns:xlink="http://www.w3.org/1999/xlink" xmlns="http://www.w3.org/2000/svg" class="size-4 fill-current" style="">
<path xmlns="http://www.w3.org/2000/svg" d="M12.2,0.3c0.2,0.2,0.3,0.5,0.3,0.8S12.4,1.8,12.2,2L5.4,8.8C5.2,9,4.9,9.1,4.6,9.1S4,9,3.8,8.8L0.3,5.4C0.1,5.1,0,4.9,0,4.5  c0-0.3,0.1-0.6,0.3-0.8c0.2-0.2,0.5-0.3,0.8-0.3c0.3,0,0.6,0.1,0.8,0.3l2.6,2.6l5.9-5.9C10.8,0.1,11,0,11.4,0  C11.7,0,12,0.1,12.2,0.3z"></path>
</svg>