<svg width="16" height="16" viewBox="0 0 16 16" fill="none" xmlns="http://www.w3.org/2000/svg">
                        <g clip-path="url(#clip0_1833_525)">
                          <path d="M4.02502 15.55C3.80002 15.55 3.57502 15.475 3.40002 15.35C3.05002 15.1 2.85002 14.65 2.92502 14.225L3.57502 10.2L0.77502 7.32501C0.47502 7.02501 0.37502 6.57501 0.50002 6.15001C0.62502 5.75001 0.97502 5.45001 1.37502 5.40001L5.25002 4.77501L7.00002 1.10001C7.20002 0.700012 7.57502 0.450012 8.00002 0.450012C8.42502 0.450012 8.82502 0.700012 9.00002 1.10001L10.75 4.75001L14.6 5.35001C15 5.42501 15.35 5.70001 15.475 6.10001C15.625 6.52501 15.5 6.97501 15.2 7.27501L12.425 10.175L13.075 14.225C13.15 14.675 12.975 15.1 12.6 15.35C12.25 15.6 11.825 15.625 11.45 15.425L8.00002 13.55L4.55002 15.425C4.40002 15.525 4.20002 15.55 4.02502 15.55ZM1.57502 6.50001C1.57502 6.50001 1.57502 6.52501 1.57502 6.55001L4.50002 9.55001C4.67502 9.72501 4.75002 10 4.72502 10.25L4.05002 14.425C4.05002 14.425 4.05002 14.425 4.05002 14.45L7.65002 12.5C7.87502 12.375 8.15002 12.375 8.40002 12.5L12 14.45C12 14.45 12 14.45 12 14.425L11.325 10.225C11.275 9.97501 11.375 9.72501 11.55 9.52501L14.475 6.52501C14.5 6.50001 14.475 6.47501 14.475 6.47501L10.45 5.85001C10.2 5.80001 9.97502 5.65001 9.87502 5.40001L8.00002 1.60001L6.20002 5.42501C6.10002 5.65001 5.87502 5.82501 5.62502 5.87501L1.57502 6.50001Z" fill="#FFA645"></path>
                        </g>
                        <defs>
                          <clipPath id="clip0_1833_525">
                            <rect width="16" height="16" fill="white"></rect>
                          </clipPath>
                        </defs>
                      </svg>