<svg width="14" height="14" viewBox="0 0 14 14" fill="none" xmlns="http://www.w3.org/2000/svg" class="fill-current">
                        <path d="M12.6008 6.6501L8.07266 2.05635C7.87578 1.85947 7.56953 1.85947 7.37266 2.05635C7.17578 2.25322 7.17578 2.55947 7.37266 2.75635L11.0477 6.49697H1.75078C1.48828 6.49697 1.26953 6.71572 1.26953 6.97822C1.26953 7.24072 1.48828 7.48135 1.75078 7.48135H11.0914L7.37266 11.2657C7.17578 11.4626 7.17578 11.7688 7.37266 11.9657C7.46016 12.0532 7.59141 12.097 7.72266 12.097C7.85391 12.097 7.98516 12.0532 8.07266 11.9438L12.6008 7.3501C12.7977 7.15322 12.7977 6.84697 12.6008 6.6501Z"></path>
                      </svg>