<svg width="22" height="22" viewBox="0 0 22 22" fill="none" xmlns="http://www.w3.org/2000/svg" class="fill-current">
                <path d="M11.0297 14.4303C12.9241 14.4303 14.4598 12.8946 14.4598 11.0002C14.4598 9.1058 12.9241 7.57008 11.0297 7.57008C9.13526 7.57008 7.59955 9.1058 7.59955 11.0002C7.59955 12.8946 9.13526 14.4303 11.0297 14.4303Z"></path>
                <path d="M14.7554 1.83334H7.2446C4.25804 1.83334 1.83331 4.25807 1.83331 7.24463V14.6962C1.83331 17.7419 4.25804 20.1667 7.2446 20.1667H14.6962C17.7419 20.1667 20.1666 17.7419 20.1666 14.7554V7.24463C20.1666 4.25807 17.7419 1.83334 14.7554 1.83334ZM11.0295 15.4946C8.51611 15.4946 6.53493 13.4543 6.53493 11C6.53493 8.5457 8.54568 6.50538 11.0295 6.50538C13.4838 6.50538 15.4946 8.5457 15.4946 11C15.4946 13.4543 13.5134 15.4946 11.0295 15.4946ZM17.2392 6.91936C16.9435 7.24463 16.5 7.42205 15.9973 7.42205C15.5537 7.42205 15.1102 7.24463 14.7554 6.91936C14.4301 6.59409 14.2527 6.18011 14.2527 5.67742C14.2527 5.17473 14.4301 4.79033 14.7554 4.43549C15.0806 4.08065 15.4946 3.90323 15.9973 3.90323C16.4408 3.90323 16.914 4.08065 17.2392 4.40592C17.5349 4.79032 17.7419 5.23387 17.7419 5.70699C17.7123 6.18011 17.5349 6.59409 17.2392 6.91936Z"></path>
                <path d="M16.0276 4.96753C15.6432 4.96753 15.3179 5.2928 15.3179 5.67721C15.3179 6.06162 15.6432 6.38688 16.0276 6.38688C16.412 6.38688 16.7373 6.06162 16.7373 5.67721C16.7373 5.2928 16.4416 4.96753 16.0276 4.96753Z"></path>
              </svg>