<svg width="22" height="22" viewBox="0 0 22 22" fill="none" xmlns="http://www.w3.org/2000/svg" class="fill-current">
                <path d="M20.1236 5.91252C20.2461 5.76968 20.0864 5.58302 19.9051 5.64988C19.5004 5.79912 19.1307 5.89757 18.5838 5.95833C19.2564 5.58378 19.5693 5.04844 19.8237 4.39275C19.8851 4.23459 19.7 4.09108 19.5406 4.16663C18.8931 4.47362 18.1946 4.70137 17.4599 4.83594C16.7338 4.11633 15.6988 3.66666 14.5539 3.66666C12.3554 3.66666 10.5726 5.3247 10.5726 7.36924C10.5726 7.65949 10.6081 7.94222 10.6752 8.21292C7.51489 8.06567 4.69683 6.71375 2.73899 4.64072C2.6048 4.49864 2.36131 4.5175 2.27775 4.69079C2.05486 5.15312 1.93059 5.666 1.93059 6.20598C1.93059 7.4903 2.63323 8.62347 3.70135 9.28748C3.22244 9.27309 2.76444 9.17977 2.34237 9.02141C2.13687 8.94432 1.9013 9.0798 1.92891 9.28702C2.14088 10.8783 3.42918 12.191 5.09208 12.5012C4.75814 12.5862 4.40642 12.6313 4.04256 12.6313C3.95434 12.6313 3.86688 12.6285 3.78022 12.6232C3.5597 12.6096 3.38047 12.8068 3.47502 12.9956C4.09882 14.2406 5.44578 15.1098 7.01323 15.1368C5.6508 16.1301 3.93421 16.7219 2.06885 16.7219C1.83885 16.7219 1.74018 17.0176 1.94423 17.1179C3.52019 17.8926 5.3149 18.3333 7.22185 18.3333C14.545 18.3333 18.549 12.6915 18.549 7.79859C18.549 7.63843 18.545 7.47827 18.5378 7.31961C19.1321 6.92028 19.6664 6.44544 20.1236 5.91252Z"></path>
              </svg>