<svg width="16" height="16" viewBox="0 0 16 16" fill="none" xmlns="http://www.w3.org/2000/svg">
                        <path d="M14 2.65002H12.7V2.10002C12.7 1.80002 12.45 1.52502 12.125 1.52502C11.8 1.52502 11.55 1.77502 11.55 2.10002V2.65002H4.42499V2.10002C4.42499 1.80002 4.17499 1.52502 3.84999 1.52502C3.52499 1.52502 3.27499 1.77502 3.27499 2.10002V2.65002H1.99999C1.14999 2.65002 0.424988 3.35002 0.424988 4.22502V12.925C0.424988 13.775 1.12499 14.5 1.99999 14.5H14C14.85 14.5 15.575 13.8 15.575 12.925V4.20002C15.575 3.35002 14.85 2.65002 14 2.65002ZM1.57499 7.30002H3.69999V9.77503H1.57499V7.30002ZM4.82499 7.30002H7.44999V9.77503H4.82499V7.30002ZM7.44999 10.9V13.35H4.82499V10.9H7.44999ZM8.57499 10.9H11.2V13.35H8.57499V10.9ZM8.57499 9.77503V7.30002H11.2V9.77503H8.57499ZM12.3 7.30002H14.425V9.77503H12.3V7.30002ZM1.99999 3.77502H3.29999V4.30002C3.29999 4.60002 3.54999 4.87502 3.87499 4.87502C4.19999 4.87502 4.44999 4.62502 4.44999 4.30002V3.77502H11.6V4.30002C11.6 4.60002 11.85 4.87502 12.175 4.87502C12.5 4.87502 12.75 4.62502 12.75 4.30002V3.77502H14C14.25 3.77502 14.45 3.97502 14.45 4.22502V6.17502H1.57499V4.22502C1.57499 3.97502 1.74999 3.77502 1.99999 3.77502ZM1.57499 12.9V10.875H3.69999V13.325H1.99999C1.74999 13.35 1.57499 13.15 1.57499 12.9ZM14 13.35H12.3V10.9H14.425V12.925C14.45 13.15 14.25 13.35 14 13.35Z" fill="currentColor"></path>
                      </svg>