<svg width="28" height="28" viewBox="0 0 28 28" fill="none" xmlns="http://www.w3.org/2000/svg">
                  <path d="M14 0.787506C7.9625 0.787506 3.0625 5.51251 3.0625 11.3313C3.0625 15.75 8.925 22.75 12.3812 26.5125C12.8187 26.9938 13.3875 27.2125 14 27.2125C14.6125 27.2125 15.1813 26.95 15.6188 26.5125C19.075 22.75 24.9375 15.75 24.9375 11.3313C24.9375 5.51251 20.0375 0.787506 14 0.787506ZM14.175 25.2C14.0875 25.2875 13.9563 25.2875 13.825 25.2C9.58125 20.5625 5.03125 14.525 5.03125 11.3313C5.03125 6.60626 9.05625 2.75626 14 2.75626C18.9438 2.75626 22.9688 6.60626 22.9688 11.3313C22.9688 14.525 18.4188 20.5625 14.175 25.2Z" fill="white"></path>
                  <path d="M14 6.86876C11.375 6.86876 9.23126 9.01251 9.23126 11.6375C9.23126 14.2625 11.375 16.45 14 16.45C16.625 16.45 18.7688 14.3063 18.7688 11.6813C18.7688 9.05626 16.625 6.86876 14 6.86876ZM14 14.4813C12.425 14.4813 11.2 13.2125 11.2 11.6813C11.2 10.15 12.4688 8.88126 14 8.88126C15.5313 8.88126 16.8 10.15 16.8 11.6813C16.8 13.2125 15.575 14.4813 14 14.4813Z" fill="white"></path>
                </svg>