<svg width="14" height="14" viewBox="0 0 14 14" fill="none" xmlns="http://www.w3.org/2000/svg" class="fill-current">
                        <path d="M12.25 6.51875H2.90935L6.6281 2.73438C6.82498 2.5375 6.82498 2.23125 6.6281 2.03437C6.43123 1.8375 6.12498 1.8375 5.9281 2.03437L1.39998 6.62813C1.2031 6.825 1.2031 7.13125 1.39998 7.32813L5.9281 11.9219C6.0156 12.0094 6.14685 12.075 6.2781 12.075C6.40935 12.075 6.51873 12.0313 6.6281 11.9438C6.82498 11.7469 6.82498 11.4406 6.6281 11.2438L2.93123 7.50313H12.25C12.5125 7.50313 12.7312 7.28438 12.7312 7.02188C12.7312 6.7375 12.5125 6.51875 12.25 6.51875Z"></path>
                      </svg>