<svg width="16" height="16" viewBox="0 0 16 16" fill="none" xmlns="http://www.w3.org/2000/svg">
                              <g clip-path="url(#clip0_1818_1221)">
                                <path d="M4.0249 15.55C3.7999 15.55 3.5749 15.475 3.3999 15.35C3.0499 15.1 2.8499 14.65 2.9249 14.225L3.5749 10.2L0.774898 7.32495C0.474898 7.02495 0.374898 6.57495 0.499898 6.14995C0.624898 5.74995 0.974898 5.44995 1.3749 5.39995L5.2499 4.77495L6.9999 1.09995C7.1999 0.699951 7.5749 0.449951 7.9999 0.449951C8.4249 0.449951 8.8249 0.699951 8.9999 1.09995L10.7499 4.74995L14.5999 5.34995C14.9999 5.42495 15.3499 5.69995 15.4749 6.09995C15.6249 6.52495 15.4999 6.97495 15.1999 7.27495L12.4249 10.175L13.0749 14.225C13.1499 14.675 12.9749 15.1 12.5999 15.35C12.2499 15.6 11.8249 15.625 11.4499 15.425L7.9999 13.55L4.5499 15.425C4.3999 15.525 4.1999 15.55 4.0249 15.55ZM1.5749 6.49995C1.5749 6.49995 1.5749 6.52495 1.5749 6.54995L4.4999 9.54995C4.6749 9.72495 4.7499 9.99995 4.7249 10.25L4.0499 14.425C4.0499 14.425 4.0499 14.425 4.0499 14.45L7.6499 12.5C7.8749 12.375 8.1499 12.375 8.3999 12.5L11.9999 14.45C11.9999 14.45 11.9999 14.45 11.9999 14.425L11.3249 10.225C11.2749 9.97495 11.3749 9.72495 11.5499 9.52495L14.4749 6.52495C14.4999 6.49995 14.4749 6.47495 14.4749 6.47495L10.4499 5.84995C10.1999 5.79995 9.9749 5.64995 9.8749 5.39995L7.9999 1.59995L6.1999 5.42495C6.0999 5.64995 5.8749 5.82495 5.6249 5.87495L1.5749 6.49995Z" fill="#FFA645"></path>
                              </g>
                              <defs>
                                <clipPath id="clip0_1818_1221">
                                  <rect width="16" height="16" fill="white"></rect>
                                </clipPath>
                              </defs>
                            </svg>