<svg width="16" height="16" viewBox="0 0 16 16" fill="none" xmlns="http://www.w3.org/2000/svg">
                        <path d="M11.1 4.875H4.64998C4.34998 4.875 4.07498 5.125 4.07498 5.45C4.07498 5.775 4.32498 6.025 4.64998 6.025H11.125C11.425 6.025 11.7 5.775 11.7 5.45C11.7 5.125 11.425 4.875 11.1 4.875Z" fill="currentColor"></path>
                        <path d="M9.79998 7.92493H4.64998C4.34998 7.92493 4.07498 8.17493 4.07498 8.49993C4.07498 8.82493 4.32498 9.07493 4.64998 9.07493H9.79998C10.1 9.07493 10.375 8.82493 10.375 8.49993C10.375 8.17493 10.1 7.92493 9.79998 7.92493Z" fill="currentColor"></path>
                        <path d="M14 1.97498H1.99999C1.14999 1.97498 0.424988 2.67498 0.424988 3.54998V12.975C0.424988 13.375 0.649988 13.75 1.02499 13.925C1.17499 14 1.32499 14.025 1.47499 14.025C1.72499 14.025 1.94999 13.95 2.14999 13.775L4.27499 12.025H14C14.85 12.025 15.575 11.325 15.575 10.45V3.54998C15.575 2.67498 14.85 1.97498 14 1.97498ZM14.45 10.45C14.45 10.7 14.25 10.9 14 10.9H4.07499C3.94999 10.9 3.82499 10.95 3.72499 11.025L1.57499 12.8V3.54998C1.57499 3.29998 1.77499 3.09998 2.02499 3.09998H14.025C14.275 3.09998 14.475 3.29998 14.475 3.54998V10.45H14.45Z" fill="currentColor"></path>
                      </svg>