<svg width="22" height="22" viewBox="0 0 22 22" fill="none" xmlns="http://www.w3.org/2000/svg" class="fill-current">
                    <path d="M19.8 10.45L12.6844 3.23124C12.375 2.92186 11.8938 2.92186 11.5844 3.23124C11.275 3.54061 11.275 4.02186 11.5844 4.33124L17.3594 10.2094H2.75C2.3375 10.2094 1.99375 10.5531 1.99375 10.9656C1.99375 11.3781 2.3375 11.7562 2.75 11.7562H17.4281L11.5844 17.7031C11.275 18.0125 11.275 18.4937 11.5844 18.8031C11.7219 18.9406 11.9281 19.0094 12.1344 19.0094C12.3406 19.0094 12.5469 18.9406 12.6844 18.7687L19.8 11.55C20.1094 11.2406 20.1094 10.7594 19.8 10.45Z" fill=""></path>
                  </svg>