<svg width="22" height="22" viewBox="0 0 22 22" fill="none" xmlns="http://www.w3.org/2000/svg" class="fill-current">
                <path d="M18.8064 1.83334H3.16396C2.42471 1.83334 1.83331 2.42473 1.83331 3.16398V18.836C1.83331 19.5457 2.42471 20.1667 3.16396 20.1667H18.7473C19.4865 20.1667 20.0779 19.5753 20.0779 18.836V3.13441C20.1371 2.42473 19.5457 1.83334 18.8064 1.83334ZM7.24461 17.4167H4.55375V8.69355H7.24461V17.4167ZM5.8844 7.48119C4.9973 7.48119 4.31718 6.77151 4.31718 5.91398C4.31718 5.05645 5.02687 4.34678 5.8844 4.34678C6.74193 4.34678 7.4516 5.05645 7.4516 5.91398C7.4516 6.77151 6.80107 7.48119 5.8844 7.48119ZM17.4462 17.4167H14.7554V13.1882C14.7554 12.1828 14.7258 10.8522 13.336 10.8522C11.9167 10.8522 11.7097 11.9758 11.7097 13.0995V17.4167H9.01881V8.69355H11.6505V9.90592H11.6801C12.0645 9.19624 12.922 8.48656 14.2527 8.48656C17.0027 8.48656 17.5054 10.2608 17.5054 12.6855V17.4167H17.4462Z"></path>
              </svg>